G04 #@! TF.FileFunction,Soldermask,Bot*
%FSLAX46Y46*%
G04 Gerber Fmt 4.6, Leading zero omitted, Abs format (unit mm)*
G04 Created by KiCad (PCBNEW 4.0.5) date 07/05/17 15:10:37*
%MOMM*%
%LPD*%
G01*
G04 APERTURE LIST*
%ADD10C,0.100000*%
%ADD11R,2.150000X2.150000*%
%ADD12C,2.150000*%
%ADD13R,2.100000X2.100000*%
%ADD14O,2.100000X2.100000*%
%ADD15R,2.635200X2.635200*%
G04 APERTURE END LIST*
D10*
D11*
X111028000Y-107956000D03*
D12*
X111028000Y-110456000D03*
X111028000Y-112956000D03*
D11*
X87028000Y-112956000D03*
D12*
X87028000Y-110456000D03*
X87028000Y-107956000D03*
X87028000Y-105456000D03*
D13*
X57023000Y-59817000D03*
D14*
X57023000Y-57277000D03*
D13*
X27813000Y-64770000D03*
D14*
X27813000Y-62230000D03*
D15*
X34417000Y-73787000D03*
X34417000Y-44831000D03*
D13*
X27813000Y-35814000D03*
D14*
X27813000Y-33274000D03*
D13*
X57023000Y-30861000D03*
D14*
X57023000Y-28321000D03*
D13*
X41148000Y-96266000D03*
D14*
X38608000Y-96266000D03*
D13*
X27940000Y-81788000D03*
D14*
X30480000Y-81788000D03*
D13*
X52832000Y-98552000D03*
D14*
X55372000Y-98552000D03*
D13*
X59690000Y-98552000D03*
D14*
X62230000Y-98552000D03*
D13*
X48768000Y-97536000D03*
D14*
X48768000Y-94996000D03*
D13*
X53340000Y-83312000D03*
D14*
X55880000Y-83312000D03*
X58420000Y-83312000D03*
X60960000Y-83312000D03*
D13*
X75692000Y-94488000D03*
D14*
X75692000Y-91948000D03*
D13*
X26416000Y-111633000D03*
D14*
X26416000Y-109093000D03*
X26416000Y-106553000D03*
D13*
X46418500Y-108331000D03*
D14*
X46418500Y-110871000D03*
X46418500Y-113411000D03*
D13*
X46355000Y-105727500D03*
D11*
X55024000Y-113464000D03*
D12*
X55024000Y-110964000D03*
X55024000Y-108464000D03*
X55024000Y-105964000D03*
D11*
X79024000Y-108464000D03*
D12*
X79024000Y-110964000D03*
X79024000Y-113464000D03*
D11*
X71072000Y-38366000D03*
D12*
X71072000Y-40866000D03*
X71072000Y-43366000D03*
X71072000Y-45866000D03*
X71072000Y-48366000D03*
D13*
X99072000Y-35866000D03*
D14*
X99072000Y-38406000D03*
X99072000Y-40946000D03*
D13*
X103072000Y-35866000D03*
D14*
X103072000Y-38406000D03*
X103072000Y-40946000D03*
D13*
X83572000Y-35866000D03*
D14*
X83572000Y-38406000D03*
X83572000Y-40946000D03*
D13*
X87572000Y-35866000D03*
D14*
X87572000Y-38406000D03*
X87572000Y-40946000D03*
D13*
X99072000Y-45866000D03*
D14*
X99072000Y-48406000D03*
X99072000Y-50946000D03*
D13*
X103072000Y-45866000D03*
D14*
X103072000Y-48406000D03*
X103072000Y-50946000D03*
D13*
X83572000Y-45866000D03*
D14*
X83572000Y-48406000D03*
X83572000Y-50946000D03*
D13*
X87572000Y-45866000D03*
D14*
X87572000Y-48406000D03*
X87572000Y-50946000D03*
D13*
X71572000Y-66866000D03*
D14*
X71572000Y-64326000D03*
X71572000Y-61786000D03*
D11*
X111572000Y-25366000D03*
D12*
X111572000Y-27866000D03*
D11*
X111572000Y-59866000D03*
D12*
X111572000Y-62366000D03*
D13*
X111506000Y-93853000D03*
D14*
X111506000Y-96393000D03*
D13*
X84175600Y-88544400D03*
D14*
X84175600Y-86004400D03*
D13*
X84201000Y-80645000D03*
M02*
