G04 #@! TF.FileFunction,Legend,Top*
%FSLAX46Y46*%
G04 Gerber Fmt 4.6, Leading zero omitted, Abs format (unit mm)*
G04 Created by KiCad (PCBNEW 4.0.5) date 07/05/17 15:10:37*
%MOMM*%
%LPD*%
G01*
G04 APERTURE LIST*
%ADD10C,0.100000*%
%ADD11C,0.300000*%
%ADD12C,0.250000*%
%ADD13C,0.175000*%
%ADD14C,0.125000*%
%ADD15C,0.120000*%
%ADD16C,0.150000*%
G04 APERTURE END LIST*
D10*
D11*
X27722572Y-99397429D02*
X27794001Y-99326000D01*
X27936858Y-99254571D01*
X28294001Y-99254571D01*
X28436858Y-99326000D01*
X28508287Y-99397429D01*
X28579715Y-99540286D01*
X28579715Y-99683143D01*
X28508287Y-99897429D01*
X27651144Y-100754571D01*
X28579715Y-100754571D01*
X29151143Y-100683143D02*
X29365429Y-100754571D01*
X29722572Y-100754571D01*
X29865429Y-100683143D01*
X29936858Y-100611714D01*
X30008286Y-100468857D01*
X30008286Y-100326000D01*
X29936858Y-100183143D01*
X29865429Y-100111714D01*
X29722572Y-100040286D01*
X29436858Y-99968857D01*
X29294000Y-99897429D01*
X29222572Y-99826000D01*
X29151143Y-99683143D01*
X29151143Y-99540286D01*
X29222572Y-99397429D01*
X29294000Y-99326000D01*
X29436858Y-99254571D01*
X29794000Y-99254571D01*
X30008286Y-99326000D01*
X32651143Y-100611714D02*
X32579714Y-100683143D01*
X32365428Y-100754571D01*
X32222571Y-100754571D01*
X32008286Y-100683143D01*
X31865428Y-100540286D01*
X31794000Y-100397429D01*
X31722571Y-100111714D01*
X31722571Y-99897429D01*
X31794000Y-99611714D01*
X31865428Y-99468857D01*
X32008286Y-99326000D01*
X32222571Y-99254571D01*
X32365428Y-99254571D01*
X32579714Y-99326000D01*
X32651143Y-99397429D01*
X33294000Y-100754571D02*
X33294000Y-99254571D01*
X33294000Y-99968857D02*
X34151143Y-99968857D01*
X34151143Y-100754571D02*
X34151143Y-99254571D01*
X34794000Y-100326000D02*
X35508286Y-100326000D01*
X34651143Y-100754571D02*
X35151143Y-99254571D01*
X35651143Y-100754571D01*
X37008286Y-100754571D02*
X36508286Y-100040286D01*
X36151143Y-100754571D02*
X36151143Y-99254571D01*
X36722571Y-99254571D01*
X36865429Y-99326000D01*
X36936857Y-99397429D01*
X37008286Y-99540286D01*
X37008286Y-99754571D01*
X36936857Y-99897429D01*
X36865429Y-99968857D01*
X36722571Y-100040286D01*
X36151143Y-100040286D01*
X38436857Y-99326000D02*
X38294000Y-99254571D01*
X38079714Y-99254571D01*
X37865429Y-99326000D01*
X37722571Y-99468857D01*
X37651143Y-99611714D01*
X37579714Y-99897429D01*
X37579714Y-100111714D01*
X37651143Y-100397429D01*
X37722571Y-100540286D01*
X37865429Y-100683143D01*
X38079714Y-100754571D01*
X38222571Y-100754571D01*
X38436857Y-100683143D01*
X38508286Y-100611714D01*
X38508286Y-100111714D01*
X38222571Y-100111714D01*
X39151143Y-99968857D02*
X39651143Y-99968857D01*
X39865429Y-100754571D02*
X39151143Y-100754571D01*
X39151143Y-99254571D01*
X39865429Y-99254571D01*
X41365429Y-100754571D02*
X40865429Y-100040286D01*
X40508286Y-100754571D02*
X40508286Y-99254571D01*
X41079714Y-99254571D01*
X41222572Y-99326000D01*
X41294000Y-99397429D01*
X41365429Y-99540286D01*
X41365429Y-99754571D01*
X41294000Y-99897429D01*
X41222572Y-99968857D01*
X41079714Y-100040286D01*
X40508286Y-100040286D01*
D12*
X79033619Y-90770438D02*
X79033619Y-90960915D01*
X78986000Y-91056153D01*
X78890762Y-91151391D01*
X78700286Y-91199010D01*
X78366952Y-91199010D01*
X78176476Y-91151391D01*
X78081238Y-91056153D01*
X78033619Y-90960915D01*
X78033619Y-90770438D01*
X78081238Y-90675200D01*
X78176476Y-90579962D01*
X78366952Y-90532343D01*
X78700286Y-90532343D01*
X78890762Y-90579962D01*
X78986000Y-90675200D01*
X79033619Y-90770438D01*
X79033619Y-91627581D02*
X78224095Y-91627581D01*
X78128857Y-91675200D01*
X78081238Y-91722819D01*
X78033619Y-91818057D01*
X78033619Y-92008534D01*
X78081238Y-92103772D01*
X78128857Y-92151391D01*
X78224095Y-92199010D01*
X79033619Y-92199010D01*
X79033619Y-92532343D02*
X79033619Y-93103772D01*
X78033619Y-92818057D02*
X79033619Y-92818057D01*
X78986000Y-94722820D02*
X79033619Y-94627582D01*
X79033619Y-94484725D01*
X78986000Y-94341867D01*
X78890762Y-94246629D01*
X78795524Y-94199010D01*
X78605048Y-94151391D01*
X78462190Y-94151391D01*
X78271714Y-94199010D01*
X78176476Y-94246629D01*
X78081238Y-94341867D01*
X78033619Y-94484725D01*
X78033619Y-94579963D01*
X78081238Y-94722820D01*
X78128857Y-94770439D01*
X78462190Y-94770439D01*
X78462190Y-94579963D01*
X78033619Y-95199010D02*
X79033619Y-95199010D01*
X78033619Y-95770439D01*
X79033619Y-95770439D01*
X78033619Y-96246629D02*
X79033619Y-96246629D01*
X79033619Y-96484724D01*
X78986000Y-96627582D01*
X78890762Y-96722820D01*
X78795524Y-96770439D01*
X78605048Y-96818058D01*
X78462190Y-96818058D01*
X78271714Y-96770439D01*
X78176476Y-96722820D01*
X78081238Y-96627582D01*
X78033619Y-96484724D01*
X78033619Y-96246629D01*
X72009381Y-100734762D02*
X72152238Y-100782381D01*
X72390334Y-100782381D01*
X72485572Y-100734762D01*
X72533191Y-100687143D01*
X72580810Y-100591905D01*
X72580810Y-100496667D01*
X72533191Y-100401429D01*
X72485572Y-100353810D01*
X72390334Y-100306190D01*
X72199857Y-100258571D01*
X72104619Y-100210952D01*
X72057000Y-100163333D01*
X72009381Y-100068095D01*
X72009381Y-99972857D01*
X72057000Y-99877619D01*
X72104619Y-99830000D01*
X72199857Y-99782381D01*
X72437953Y-99782381D01*
X72580810Y-99830000D01*
X72914143Y-100115714D02*
X73104619Y-100782381D01*
X73295096Y-100306190D01*
X73485572Y-100782381D01*
X73676048Y-100115714D01*
X74057000Y-100782381D02*
X74057000Y-100115714D01*
X74057000Y-99782381D02*
X74009381Y-99830000D01*
X74057000Y-99877619D01*
X74104619Y-99830000D01*
X74057000Y-99782381D01*
X74057000Y-99877619D01*
X74390333Y-100115714D02*
X74771285Y-100115714D01*
X74533190Y-99782381D02*
X74533190Y-100639524D01*
X74580809Y-100734762D01*
X74676047Y-100782381D01*
X74771285Y-100782381D01*
X75533191Y-100734762D02*
X75437953Y-100782381D01*
X75247476Y-100782381D01*
X75152238Y-100734762D01*
X75104619Y-100687143D01*
X75057000Y-100591905D01*
X75057000Y-100306190D01*
X75104619Y-100210952D01*
X75152238Y-100163333D01*
X75247476Y-100115714D01*
X75437953Y-100115714D01*
X75533191Y-100163333D01*
X75961762Y-100782381D02*
X75961762Y-99782381D01*
X76390334Y-100782381D02*
X76390334Y-100258571D01*
X76342715Y-100163333D01*
X76247477Y-100115714D01*
X76104619Y-100115714D01*
X76009381Y-100163333D01*
X75961762Y-100210952D01*
X77247477Y-100734762D02*
X77152239Y-100782381D01*
X76961762Y-100782381D01*
X76866524Y-100734762D01*
X76818905Y-100639524D01*
X76818905Y-100258571D01*
X76866524Y-100163333D01*
X76961762Y-100115714D01*
X77152239Y-100115714D01*
X77247477Y-100163333D01*
X77295096Y-100258571D01*
X77295096Y-100353810D01*
X76818905Y-100449048D01*
X77676048Y-100734762D02*
X77771286Y-100782381D01*
X77961762Y-100782381D01*
X78057001Y-100734762D01*
X78104620Y-100639524D01*
X78104620Y-100591905D01*
X78057001Y-100496667D01*
X77961762Y-100449048D01*
X77818905Y-100449048D01*
X77723667Y-100401429D01*
X77676048Y-100306190D01*
X77676048Y-100258571D01*
X77723667Y-100163333D01*
X77818905Y-100115714D01*
X77961762Y-100115714D01*
X78057001Y-100163333D01*
D13*
X37570667Y-114677000D02*
X37537333Y-114710333D01*
X37437333Y-114743667D01*
X37370667Y-114743667D01*
X37270667Y-114710333D01*
X37204000Y-114643667D01*
X37170667Y-114577000D01*
X37137333Y-114443667D01*
X37137333Y-114343667D01*
X37170667Y-114210333D01*
X37204000Y-114143667D01*
X37270667Y-114077000D01*
X37370667Y-114043667D01*
X37437333Y-114043667D01*
X37537333Y-114077000D01*
X37570667Y-114110333D01*
X38270667Y-114677000D02*
X38237333Y-114710333D01*
X38137333Y-114743667D01*
X38070667Y-114743667D01*
X37970667Y-114710333D01*
X37904000Y-114643667D01*
X37870667Y-114577000D01*
X37837333Y-114443667D01*
X37837333Y-114343667D01*
X37870667Y-114210333D01*
X37904000Y-114143667D01*
X37970667Y-114077000D01*
X38070667Y-114043667D01*
X38137333Y-114043667D01*
X38237333Y-114077000D01*
X38270667Y-114110333D01*
X38870667Y-114743667D02*
X38870667Y-114043667D01*
X38870667Y-114710333D02*
X38804000Y-114743667D01*
X38670667Y-114743667D01*
X38604000Y-114710333D01*
X38570667Y-114677000D01*
X38537333Y-114610333D01*
X38537333Y-114410333D01*
X38570667Y-114343667D01*
X38604000Y-114310333D01*
X38670667Y-114277000D01*
X38804000Y-114277000D01*
X38870667Y-114310333D01*
X39570666Y-114743667D02*
X39170666Y-114743667D01*
X39370666Y-114743667D02*
X39370666Y-114043667D01*
X39304000Y-114143667D01*
X39237333Y-114210333D01*
X39170666Y-114243667D01*
D12*
X34218524Y-105132143D02*
X34170905Y-105179762D01*
X34028048Y-105227381D01*
X33932810Y-105227381D01*
X33789952Y-105179762D01*
X33694714Y-105084524D01*
X33647095Y-104989286D01*
X33599476Y-104798810D01*
X33599476Y-104655952D01*
X33647095Y-104465476D01*
X33694714Y-104370238D01*
X33789952Y-104275000D01*
X33932810Y-104227381D01*
X34028048Y-104227381D01*
X34170905Y-104275000D01*
X34218524Y-104322619D01*
X30662524Y-105227381D02*
X30329190Y-104751190D01*
X30091095Y-105227381D02*
X30091095Y-104227381D01*
X30472048Y-104227381D01*
X30567286Y-104275000D01*
X30614905Y-104322619D01*
X30662524Y-104417857D01*
X30662524Y-104560714D01*
X30614905Y-104655952D01*
X30567286Y-104703571D01*
X30472048Y-104751190D01*
X30091095Y-104751190D01*
D14*
X41247190Y-113145000D02*
X41009095Y-113311667D01*
X41247190Y-113430714D02*
X40747190Y-113430714D01*
X40747190Y-113240238D01*
X40771000Y-113192619D01*
X40794810Y-113168810D01*
X40842429Y-113145000D01*
X40913857Y-113145000D01*
X40961476Y-113168810D01*
X40985286Y-113192619D01*
X41009095Y-113240238D01*
X41009095Y-113430714D01*
X40913857Y-112549762D02*
X41413857Y-112549762D01*
X40937667Y-112549762D02*
X40913857Y-112502143D01*
X40913857Y-112406905D01*
X40937667Y-112359286D01*
X40961476Y-112335477D01*
X41009095Y-112311667D01*
X41151952Y-112311667D01*
X41199571Y-112335477D01*
X41223381Y-112359286D01*
X41247190Y-112406905D01*
X41247190Y-112502143D01*
X41223381Y-112549762D01*
X40913857Y-111883096D02*
X41247190Y-111883096D01*
X40913857Y-112097381D02*
X41175762Y-112097381D01*
X41223381Y-112073572D01*
X41247190Y-112025953D01*
X41247190Y-111954524D01*
X41223381Y-111906905D01*
X41199571Y-111883096D01*
X41247190Y-111573572D02*
X41223381Y-111621191D01*
X41175762Y-111645000D01*
X40747190Y-111645000D01*
X41247190Y-111311667D02*
X41223381Y-111359286D01*
X41175762Y-111383095D01*
X40747190Y-111383095D01*
X43795190Y-109973762D02*
X43795190Y-109878524D01*
X43819000Y-109830905D01*
X43866619Y-109783286D01*
X43961857Y-109759477D01*
X44128524Y-109759477D01*
X44223762Y-109783286D01*
X44271381Y-109830905D01*
X44295190Y-109878524D01*
X44295190Y-109973762D01*
X44271381Y-110021381D01*
X44223762Y-110069000D01*
X44128524Y-110092810D01*
X43961857Y-110092810D01*
X43866619Y-110069000D01*
X43819000Y-110021381D01*
X43795190Y-109973762D01*
X43795190Y-109545190D02*
X44199952Y-109545190D01*
X44247571Y-109521381D01*
X44271381Y-109497571D01*
X44295190Y-109449952D01*
X44295190Y-109354714D01*
X44271381Y-109307095D01*
X44247571Y-109283286D01*
X44199952Y-109259476D01*
X43795190Y-109259476D01*
X43795190Y-109092809D02*
X43795190Y-108807095D01*
X44295190Y-108949952D02*
X43795190Y-108949952D01*
X44033286Y-108259476D02*
X44033286Y-108092810D01*
X44295190Y-108021381D02*
X44295190Y-108259476D01*
X43795190Y-108259476D01*
X43795190Y-108021381D01*
X44295190Y-107807095D02*
X43795190Y-107807095D01*
X44295190Y-107521381D01*
X43795190Y-107521381D01*
X44295190Y-106902333D02*
X43795190Y-106902333D01*
X44033286Y-106902333D02*
X44033286Y-106616619D01*
X44295190Y-106616619D02*
X43795190Y-106616619D01*
X44295190Y-106378523D02*
X43795190Y-106378523D01*
X44295190Y-105521381D02*
X44295190Y-105759476D01*
X43795190Y-105759476D01*
X43795190Y-105259476D02*
X43795190Y-105164238D01*
X43819000Y-105116619D01*
X43866619Y-105069000D01*
X43961857Y-105045191D01*
X44128524Y-105045191D01*
X44223762Y-105069000D01*
X44271381Y-105116619D01*
X44295190Y-105164238D01*
X44295190Y-105259476D01*
X44271381Y-105307095D01*
X44223762Y-105354714D01*
X44128524Y-105378524D01*
X43961857Y-105378524D01*
X43866619Y-105354714D01*
X43819000Y-105307095D01*
X43795190Y-105259476D01*
X28071000Y-112148570D02*
X28047190Y-112196189D01*
X28047190Y-112267617D01*
X28071000Y-112339046D01*
X28118619Y-112386665D01*
X28166238Y-112410474D01*
X28261476Y-112434284D01*
X28332905Y-112434284D01*
X28428143Y-112410474D01*
X28475762Y-112386665D01*
X28523381Y-112339046D01*
X28547190Y-112267617D01*
X28547190Y-112219998D01*
X28523381Y-112148570D01*
X28499571Y-112124760D01*
X28332905Y-112124760D01*
X28332905Y-112219998D01*
X28547190Y-111910474D02*
X28047190Y-111910474D01*
X28547190Y-111624760D01*
X28047190Y-111624760D01*
X28547190Y-111386664D02*
X28047190Y-111386664D01*
X28047190Y-111267617D01*
X28071000Y-111196188D01*
X28118619Y-111148569D01*
X28166238Y-111124760D01*
X28261476Y-111100950D01*
X28332905Y-111100950D01*
X28428143Y-111124760D01*
X28475762Y-111148569D01*
X28523381Y-111196188D01*
X28547190Y-111267617D01*
X28547190Y-111386664D01*
X28285286Y-110339046D02*
X28309095Y-110267617D01*
X28332905Y-110243808D01*
X28380524Y-110219998D01*
X28451952Y-110219998D01*
X28499571Y-110243808D01*
X28523381Y-110267617D01*
X28547190Y-110315236D01*
X28547190Y-110505712D01*
X28047190Y-110505712D01*
X28047190Y-110339046D01*
X28071000Y-110291427D01*
X28094810Y-110267617D01*
X28142429Y-110243808D01*
X28190048Y-110243808D01*
X28237667Y-110267617D01*
X28261476Y-110291427D01*
X28285286Y-110339046D01*
X28285286Y-110505712D01*
X28404333Y-110029522D02*
X28404333Y-109791427D01*
X28547190Y-110077141D02*
X28047190Y-109910474D01*
X28547190Y-109743808D01*
X28047190Y-109648570D02*
X28047190Y-109362856D01*
X28547190Y-109505713D02*
X28047190Y-109505713D01*
X28047190Y-109267618D02*
X28047190Y-108981904D01*
X28547190Y-109124761D02*
X28047190Y-109124761D01*
X28547190Y-108553333D02*
X28547190Y-108839047D01*
X28547190Y-108696190D02*
X28047190Y-108696190D01*
X28118619Y-108743809D01*
X28166238Y-108791428D01*
X28190048Y-108839047D01*
X28285286Y-107791429D02*
X28309095Y-107720000D01*
X28332905Y-107696191D01*
X28380524Y-107672381D01*
X28451952Y-107672381D01*
X28499571Y-107696191D01*
X28523381Y-107720000D01*
X28547190Y-107767619D01*
X28547190Y-107958095D01*
X28047190Y-107958095D01*
X28047190Y-107791429D01*
X28071000Y-107743810D01*
X28094810Y-107720000D01*
X28142429Y-107696191D01*
X28190048Y-107696191D01*
X28237667Y-107720000D01*
X28261476Y-107743810D01*
X28285286Y-107791429D01*
X28285286Y-107958095D01*
X28404333Y-107481905D02*
X28404333Y-107243810D01*
X28547190Y-107529524D02*
X28047190Y-107362857D01*
X28547190Y-107196191D01*
X28047190Y-107100953D02*
X28047190Y-106815239D01*
X28547190Y-106958096D02*
X28047190Y-106958096D01*
X28047190Y-106720001D02*
X28047190Y-106434287D01*
X28547190Y-106577144D02*
X28047190Y-106577144D01*
X28094810Y-106291430D02*
X28071000Y-106267620D01*
X28047190Y-106220001D01*
X28047190Y-106100954D01*
X28071000Y-106053335D01*
X28094810Y-106029525D01*
X28142429Y-106005716D01*
X28190048Y-106005716D01*
X28261476Y-106029525D01*
X28547190Y-106315239D01*
X28547190Y-106005716D01*
D11*
X27365001Y-115629429D02*
X27222144Y-115558000D01*
X27079287Y-115415143D01*
X26865001Y-115200857D01*
X26722144Y-115129429D01*
X26579287Y-115129429D01*
X26650715Y-115486571D02*
X26507858Y-115415143D01*
X26365001Y-115272286D01*
X26293572Y-114986571D01*
X26293572Y-114486571D01*
X26365001Y-114200857D01*
X26507858Y-114058000D01*
X26650715Y-113986571D01*
X26936429Y-113986571D01*
X27079287Y-114058000D01*
X27222144Y-114200857D01*
X27293572Y-114486571D01*
X27293572Y-114986571D01*
X27222144Y-115272286D01*
X27079287Y-115415143D01*
X26936429Y-115486571D01*
X26650715Y-115486571D01*
X28436430Y-114700857D02*
X28650716Y-114772286D01*
X28722144Y-114843714D01*
X28793573Y-114986571D01*
X28793573Y-115200857D01*
X28722144Y-115343714D01*
X28650716Y-115415143D01*
X28507858Y-115486571D01*
X27936430Y-115486571D01*
X27936430Y-113986571D01*
X28436430Y-113986571D01*
X28579287Y-114058000D01*
X28650716Y-114129429D01*
X28722144Y-114272286D01*
X28722144Y-114415143D01*
X28650716Y-114558000D01*
X28579287Y-114629429D01*
X28436430Y-114700857D01*
X27936430Y-114700857D01*
X29365001Y-114129429D02*
X29436430Y-114058000D01*
X29579287Y-113986571D01*
X29936430Y-113986571D01*
X30079287Y-114058000D01*
X30150716Y-114129429D01*
X30222144Y-114272286D01*
X30222144Y-114415143D01*
X30150716Y-114629429D01*
X29293573Y-115486571D01*
X30222144Y-115486571D01*
X30936429Y-115486571D02*
X31222144Y-115486571D01*
X31365001Y-115415143D01*
X31436429Y-115343714D01*
X31579287Y-115129429D01*
X31650715Y-114843714D01*
X31650715Y-114272286D01*
X31579287Y-114129429D01*
X31507858Y-114058000D01*
X31365001Y-113986571D01*
X31079287Y-113986571D01*
X30936429Y-114058000D01*
X30865001Y-114129429D01*
X30793572Y-114272286D01*
X30793572Y-114629429D01*
X30865001Y-114772286D01*
X30936429Y-114843714D01*
X31079287Y-114915143D01*
X31365001Y-114915143D01*
X31507858Y-114843714D01*
X31579287Y-114772286D01*
X31650715Y-114629429D01*
X32222143Y-114129429D02*
X32293572Y-114058000D01*
X32436429Y-113986571D01*
X32793572Y-113986571D01*
X32936429Y-114058000D01*
X33007858Y-114129429D01*
X33079286Y-114272286D01*
X33079286Y-114415143D01*
X33007858Y-114629429D01*
X32150715Y-115486571D01*
X33079286Y-115486571D01*
X34007857Y-113986571D02*
X34150714Y-113986571D01*
X34293571Y-114058000D01*
X34365000Y-114129429D01*
X34436429Y-114272286D01*
X34507857Y-114558000D01*
X34507857Y-114915143D01*
X34436429Y-115200857D01*
X34365000Y-115343714D01*
X34293571Y-115415143D01*
X34150714Y-115486571D01*
X34007857Y-115486571D01*
X33865000Y-115415143D01*
X33793571Y-115343714D01*
X33722143Y-115200857D01*
X33650714Y-114915143D01*
X33650714Y-114558000D01*
X33722143Y-114272286D01*
X33793571Y-114129429D01*
X33865000Y-114058000D01*
X34007857Y-113986571D01*
X35222142Y-115486571D02*
X35507857Y-115486571D01*
X35650714Y-115415143D01*
X35722142Y-115343714D01*
X35865000Y-115129429D01*
X35936428Y-114843714D01*
X35936428Y-114272286D01*
X35865000Y-114129429D01*
X35793571Y-114058000D01*
X35650714Y-113986571D01*
X35365000Y-113986571D01*
X35222142Y-114058000D01*
X35150714Y-114129429D01*
X35079285Y-114272286D01*
X35079285Y-114629429D01*
X35150714Y-114772286D01*
X35222142Y-114843714D01*
X35365000Y-114915143D01*
X35650714Y-114915143D01*
X35793571Y-114843714D01*
X35865000Y-114772286D01*
X35936428Y-114629429D01*
D10*
X82024001Y-108499714D02*
X82404953Y-108499714D01*
X82214477Y-108690190D02*
X82214477Y-108309238D01*
X82595430Y-108190190D02*
X82904953Y-108190190D01*
X82738287Y-108380667D01*
X82809715Y-108380667D01*
X82857334Y-108404476D01*
X82881144Y-108428286D01*
X82904953Y-108475905D01*
X82904953Y-108594952D01*
X82881144Y-108642571D01*
X82857334Y-108666381D01*
X82809715Y-108690190D01*
X82666858Y-108690190D01*
X82619239Y-108666381D01*
X82595430Y-108642571D01*
X83119239Y-108642571D02*
X83143048Y-108666381D01*
X83119239Y-108690190D01*
X83095429Y-108666381D01*
X83119239Y-108642571D01*
X83119239Y-108690190D01*
X83309715Y-108190190D02*
X83619238Y-108190190D01*
X83452572Y-108380667D01*
X83524000Y-108380667D01*
X83571619Y-108404476D01*
X83595429Y-108428286D01*
X83619238Y-108475905D01*
X83619238Y-108594952D01*
X83595429Y-108642571D01*
X83571619Y-108666381D01*
X83524000Y-108690190D01*
X83381143Y-108690190D01*
X83333524Y-108666381D01*
X83309715Y-108642571D01*
X83762095Y-108190190D02*
X83928762Y-108690190D01*
X84095428Y-108190190D01*
X82643047Y-110714000D02*
X82595428Y-110690190D01*
X82524000Y-110690190D01*
X82452571Y-110714000D01*
X82404952Y-110761619D01*
X82381143Y-110809238D01*
X82357333Y-110904476D01*
X82357333Y-110975905D01*
X82381143Y-111071143D01*
X82404952Y-111118762D01*
X82452571Y-111166381D01*
X82524000Y-111190190D01*
X82571619Y-111190190D01*
X82643047Y-111166381D01*
X82666857Y-111142571D01*
X82666857Y-110975905D01*
X82571619Y-110975905D01*
X82881143Y-111190190D02*
X82881143Y-110690190D01*
X83166857Y-111190190D01*
X83166857Y-110690190D01*
X83404953Y-111190190D02*
X83404953Y-110690190D01*
X83524000Y-110690190D01*
X83595429Y-110714000D01*
X83643048Y-110761619D01*
X83666857Y-110809238D01*
X83690667Y-110904476D01*
X83690667Y-110975905D01*
X83666857Y-111071143D01*
X83643048Y-111118762D01*
X83595429Y-111166381D01*
X83524000Y-111190190D01*
X83404953Y-111190190D01*
X82500191Y-113690190D02*
X82262096Y-113690190D01*
X82262096Y-113190190D01*
X82738286Y-113690190D02*
X82690667Y-113666381D01*
X82666858Y-113642571D01*
X82643048Y-113594952D01*
X82643048Y-113452095D01*
X82666858Y-113404476D01*
X82690667Y-113380667D01*
X82738286Y-113356857D01*
X82809715Y-113356857D01*
X82857334Y-113380667D01*
X82881143Y-113404476D01*
X82904953Y-113452095D01*
X82904953Y-113594952D01*
X82881143Y-113642571D01*
X82857334Y-113666381D01*
X82809715Y-113690190D01*
X82738286Y-113690190D01*
X83333524Y-113690190D02*
X83333524Y-113428286D01*
X83309715Y-113380667D01*
X83262096Y-113356857D01*
X83166858Y-113356857D01*
X83119239Y-113380667D01*
X83333524Y-113666381D02*
X83285905Y-113690190D01*
X83166858Y-113690190D01*
X83119239Y-113666381D01*
X83095429Y-113618762D01*
X83095429Y-113571143D01*
X83119239Y-113523524D01*
X83166858Y-113499714D01*
X83285905Y-113499714D01*
X83333524Y-113475905D01*
X83785905Y-113690190D02*
X83785905Y-113190190D01*
X83785905Y-113666381D02*
X83738286Y-113690190D01*
X83643048Y-113690190D01*
X83595429Y-113666381D01*
X83571620Y-113642571D01*
X83547810Y-113594952D01*
X83547810Y-113452095D01*
X83571620Y-113404476D01*
X83595429Y-113380667D01*
X83643048Y-113356857D01*
X83738286Y-113356857D01*
X83785905Y-113380667D01*
X49797810Y-108190190D02*
X49964477Y-108690190D01*
X50131143Y-108190190D01*
X50274000Y-108666381D02*
X50321619Y-108690190D01*
X50416857Y-108690190D01*
X50464476Y-108666381D01*
X50488286Y-108618762D01*
X50488286Y-108594952D01*
X50464476Y-108547333D01*
X50416857Y-108523524D01*
X50345429Y-108523524D01*
X50297810Y-108499714D01*
X50274000Y-108452095D01*
X50274000Y-108428286D01*
X50297810Y-108380667D01*
X50345429Y-108356857D01*
X50416857Y-108356857D01*
X50464476Y-108380667D01*
X50893048Y-108666381D02*
X50845429Y-108690190D01*
X50750191Y-108690190D01*
X50702572Y-108666381D01*
X50678762Y-108618762D01*
X50678762Y-108428286D01*
X50702572Y-108380667D01*
X50750191Y-108356857D01*
X50845429Y-108356857D01*
X50893048Y-108380667D01*
X50916857Y-108428286D01*
X50916857Y-108475905D01*
X50678762Y-108523524D01*
X51131143Y-108356857D02*
X51131143Y-108690190D01*
X51131143Y-108404476D02*
X51154952Y-108380667D01*
X51202571Y-108356857D01*
X51274000Y-108356857D01*
X51321619Y-108380667D01*
X51345428Y-108428286D01*
X51345428Y-108690190D01*
X51559714Y-108666381D02*
X51607333Y-108690190D01*
X51702571Y-108690190D01*
X51750190Y-108666381D01*
X51774000Y-108618762D01*
X51774000Y-108594952D01*
X51750190Y-108547333D01*
X51702571Y-108523524D01*
X51631143Y-108523524D01*
X51583524Y-108499714D01*
X51559714Y-108452095D01*
X51559714Y-108428286D01*
X51583524Y-108380667D01*
X51631143Y-108356857D01*
X51702571Y-108356857D01*
X51750190Y-108380667D01*
X52178762Y-108666381D02*
X52131143Y-108690190D01*
X52035905Y-108690190D01*
X51988286Y-108666381D01*
X51964476Y-108618762D01*
X51964476Y-108428286D01*
X51988286Y-108380667D01*
X52035905Y-108356857D01*
X52131143Y-108356857D01*
X52178762Y-108380667D01*
X52202571Y-108428286D01*
X52202571Y-108475905D01*
X51964476Y-108523524D01*
X49964477Y-106190190D02*
X49964477Y-105690190D01*
X50178762Y-106166381D02*
X50226381Y-106190190D01*
X50321619Y-106190190D01*
X50369238Y-106166381D01*
X50393048Y-106118762D01*
X50393048Y-106094952D01*
X50369238Y-106047333D01*
X50321619Y-106023524D01*
X50250191Y-106023524D01*
X50202572Y-105999714D01*
X50178762Y-105952095D01*
X50178762Y-105928286D01*
X50202572Y-105880667D01*
X50250191Y-105856857D01*
X50321619Y-105856857D01*
X50369238Y-105880667D01*
X50797810Y-106166381D02*
X50750191Y-106190190D01*
X50654953Y-106190190D01*
X50607334Y-106166381D01*
X50583524Y-106118762D01*
X50583524Y-105928286D01*
X50607334Y-105880667D01*
X50654953Y-105856857D01*
X50750191Y-105856857D01*
X50797810Y-105880667D01*
X50821619Y-105928286D01*
X50821619Y-105975905D01*
X50583524Y-106023524D01*
X51035905Y-105856857D02*
X51035905Y-106190190D01*
X51035905Y-105904476D02*
X51059714Y-105880667D01*
X51107333Y-105856857D01*
X51178762Y-105856857D01*
X51226381Y-105880667D01*
X51250190Y-105928286D01*
X51250190Y-106190190D01*
X51464476Y-106166381D02*
X51512095Y-106190190D01*
X51607333Y-106190190D01*
X51654952Y-106166381D01*
X51678762Y-106118762D01*
X51678762Y-106094952D01*
X51654952Y-106047333D01*
X51607333Y-106023524D01*
X51535905Y-106023524D01*
X51488286Y-105999714D01*
X51464476Y-105952095D01*
X51464476Y-105928286D01*
X51488286Y-105880667D01*
X51535905Y-105856857D01*
X51607333Y-105856857D01*
X51654952Y-105880667D01*
X52083524Y-106166381D02*
X52035905Y-106190190D01*
X51940667Y-106190190D01*
X51893048Y-106166381D01*
X51869238Y-106118762D01*
X51869238Y-105928286D01*
X51893048Y-105880667D01*
X51940667Y-105856857D01*
X52035905Y-105856857D01*
X52083524Y-105880667D01*
X52107333Y-105928286D01*
X52107333Y-105975905D01*
X51869238Y-106023524D01*
X50631143Y-110928286D02*
X50702572Y-110952095D01*
X50726381Y-110975905D01*
X50750191Y-111023524D01*
X50750191Y-111094952D01*
X50726381Y-111142571D01*
X50702572Y-111166381D01*
X50654953Y-111190190D01*
X50464477Y-111190190D01*
X50464477Y-110690190D01*
X50631143Y-110690190D01*
X50678762Y-110714000D01*
X50702572Y-110737810D01*
X50726381Y-110785429D01*
X50726381Y-110833048D01*
X50702572Y-110880667D01*
X50678762Y-110904476D01*
X50631143Y-110928286D01*
X50464477Y-110928286D01*
X51178762Y-110856857D02*
X51178762Y-111190190D01*
X50964477Y-110856857D02*
X50964477Y-111118762D01*
X50988286Y-111166381D01*
X51035905Y-111190190D01*
X51107334Y-111190190D01*
X51154953Y-111166381D01*
X51178762Y-111142571D01*
X51393048Y-111166381D02*
X51440667Y-111190190D01*
X51535905Y-111190190D01*
X51583524Y-111166381D01*
X51607334Y-111118762D01*
X51607334Y-111094952D01*
X51583524Y-111047333D01*
X51535905Y-111023524D01*
X51464477Y-111023524D01*
X51416858Y-110999714D01*
X51393048Y-110952095D01*
X51393048Y-110928286D01*
X51416858Y-110880667D01*
X51464477Y-110856857D01*
X51535905Y-110856857D01*
X51583524Y-110880667D01*
X50643047Y-113214000D02*
X50595428Y-113190190D01*
X50524000Y-113190190D01*
X50452571Y-113214000D01*
X50404952Y-113261619D01*
X50381143Y-113309238D01*
X50357333Y-113404476D01*
X50357333Y-113475905D01*
X50381143Y-113571143D01*
X50404952Y-113618762D01*
X50452571Y-113666381D01*
X50524000Y-113690190D01*
X50571619Y-113690190D01*
X50643047Y-113666381D01*
X50666857Y-113642571D01*
X50666857Y-113475905D01*
X50571619Y-113475905D01*
X50881143Y-113690190D02*
X50881143Y-113190190D01*
X51166857Y-113690190D01*
X51166857Y-113190190D01*
X51404953Y-113690190D02*
X51404953Y-113190190D01*
X51524000Y-113190190D01*
X51595429Y-113214000D01*
X51643048Y-113261619D01*
X51666857Y-113309238D01*
X51690667Y-113404476D01*
X51690667Y-113475905D01*
X51666857Y-113571143D01*
X51643048Y-113618762D01*
X51595429Y-113666381D01*
X51524000Y-113690190D01*
X51404953Y-113690190D01*
X79210096Y-45366000D02*
X79114858Y-45318381D01*
X78972001Y-45318381D01*
X78829143Y-45366000D01*
X78733905Y-45461238D01*
X78686286Y-45556476D01*
X78638667Y-45746952D01*
X78638667Y-45889810D01*
X78686286Y-46080286D01*
X78733905Y-46175524D01*
X78829143Y-46270762D01*
X78972001Y-46318381D01*
X79067239Y-46318381D01*
X79210096Y-46270762D01*
X79257715Y-46223143D01*
X79257715Y-45889810D01*
X79067239Y-45889810D01*
X79686286Y-46318381D02*
X79686286Y-45318381D01*
X80257715Y-46318381D01*
X80257715Y-45318381D01*
X80733905Y-46318381D02*
X80733905Y-45318381D01*
X80972000Y-45318381D01*
X81114858Y-45366000D01*
X81210096Y-45461238D01*
X81257715Y-45556476D01*
X81305334Y-45746952D01*
X81305334Y-45889810D01*
X81257715Y-46080286D01*
X81210096Y-46175524D01*
X81114858Y-46270762D01*
X80972000Y-46318381D01*
X80733905Y-46318381D01*
X113500571Y-31485048D02*
X113500571Y-32246953D01*
X113500571Y-20985048D02*
X113500571Y-21746953D01*
X113119619Y-21366001D02*
X113881524Y-21366001D01*
X113500571Y-65985048D02*
X113500571Y-66746953D01*
X113500571Y-55485048D02*
X113500571Y-56246953D01*
X113119619Y-55866001D02*
X113881524Y-55866001D01*
X66036286Y-48128001D02*
X66036286Y-48508953D01*
X65845810Y-48318477D02*
X66226762Y-48318477D01*
X66345810Y-48699430D02*
X66345810Y-49008953D01*
X66155333Y-48842287D01*
X66155333Y-48913715D01*
X66131524Y-48961334D01*
X66107714Y-48985144D01*
X66060095Y-49008953D01*
X65941048Y-49008953D01*
X65893429Y-48985144D01*
X65869619Y-48961334D01*
X65845810Y-48913715D01*
X65845810Y-48770858D01*
X65869619Y-48723239D01*
X65893429Y-48699430D01*
X65893429Y-49223239D02*
X65869619Y-49247048D01*
X65845810Y-49223239D01*
X65869619Y-49199429D01*
X65893429Y-49223239D01*
X65845810Y-49223239D01*
X66345810Y-49413715D02*
X66345810Y-49723238D01*
X66155333Y-49556572D01*
X66155333Y-49628000D01*
X66131524Y-49675619D01*
X66107714Y-49699429D01*
X66060095Y-49723238D01*
X65941048Y-49723238D01*
X65893429Y-49699429D01*
X65869619Y-49675619D01*
X65845810Y-49628000D01*
X65845810Y-49485143D01*
X65869619Y-49437524D01*
X65893429Y-49413715D01*
X66345810Y-49866095D02*
X65845810Y-50032762D01*
X66345810Y-50199428D01*
X66322000Y-45485047D02*
X66345810Y-45437428D01*
X66345810Y-45366000D01*
X66322000Y-45294571D01*
X66274381Y-45246952D01*
X66226762Y-45223143D01*
X66131524Y-45199333D01*
X66060095Y-45199333D01*
X65964857Y-45223143D01*
X65917238Y-45246952D01*
X65869619Y-45294571D01*
X65845810Y-45366000D01*
X65845810Y-45413619D01*
X65869619Y-45485047D01*
X65893429Y-45508857D01*
X66060095Y-45508857D01*
X66060095Y-45413619D01*
X65845810Y-45723143D02*
X66345810Y-45723143D01*
X65845810Y-46008857D01*
X66345810Y-46008857D01*
X65845810Y-46246953D02*
X66345810Y-46246953D01*
X66345810Y-46366000D01*
X66322000Y-46437429D01*
X66274381Y-46485048D01*
X66226762Y-46508857D01*
X66131524Y-46532667D01*
X66060095Y-46532667D01*
X65964857Y-46508857D01*
X65917238Y-46485048D01*
X65869619Y-46437429D01*
X65845810Y-46366000D01*
X65845810Y-46246953D01*
X66345810Y-42604096D02*
X65845810Y-42770763D01*
X66345810Y-42937429D01*
X65845810Y-43175524D02*
X65869619Y-43127905D01*
X65893429Y-43104096D01*
X65941048Y-43080286D01*
X66083905Y-43080286D01*
X66131524Y-43104096D01*
X66155333Y-43127905D01*
X66179143Y-43175524D01*
X66179143Y-43246953D01*
X66155333Y-43294572D01*
X66131524Y-43318381D01*
X66083905Y-43342191D01*
X65941048Y-43342191D01*
X65893429Y-43318381D01*
X65869619Y-43294572D01*
X65845810Y-43246953D01*
X65845810Y-43175524D01*
X66179143Y-43770762D02*
X65845810Y-43770762D01*
X66179143Y-43556477D02*
X65917238Y-43556477D01*
X65869619Y-43580286D01*
X65845810Y-43627905D01*
X65845810Y-43699334D01*
X65869619Y-43746953D01*
X65893429Y-43770762D01*
X66179143Y-43937429D02*
X66179143Y-44127905D01*
X66345810Y-44008858D02*
X65917238Y-44008858D01*
X65869619Y-44032667D01*
X65845810Y-44080286D01*
X65845810Y-44127905D01*
X65869619Y-40270762D02*
X65845810Y-40342191D01*
X65845810Y-40461238D01*
X65869619Y-40508857D01*
X65893429Y-40532667D01*
X65941048Y-40556476D01*
X65988667Y-40556476D01*
X66036286Y-40532667D01*
X66060095Y-40508857D01*
X66083905Y-40461238D01*
X66107714Y-40366000D01*
X66131524Y-40318381D01*
X66155333Y-40294572D01*
X66202952Y-40270762D01*
X66250571Y-40270762D01*
X66298190Y-40294572D01*
X66322000Y-40318381D01*
X66345810Y-40366000D01*
X66345810Y-40485048D01*
X66322000Y-40556476D01*
X65893429Y-41056476D02*
X65869619Y-41032666D01*
X65845810Y-40961238D01*
X65845810Y-40913619D01*
X65869619Y-40842190D01*
X65917238Y-40794571D01*
X65964857Y-40770762D01*
X66060095Y-40746952D01*
X66131524Y-40746952D01*
X66226762Y-40770762D01*
X66274381Y-40794571D01*
X66322000Y-40842190D01*
X66345810Y-40913619D01*
X66345810Y-40961238D01*
X66322000Y-41032666D01*
X66298190Y-41056476D01*
X65845810Y-41508857D02*
X65845810Y-41270762D01*
X66345810Y-41270762D01*
X65869619Y-37758858D02*
X65845810Y-37830287D01*
X65845810Y-37949334D01*
X65869619Y-37996953D01*
X65893429Y-38020763D01*
X65941048Y-38044572D01*
X65988667Y-38044572D01*
X66036286Y-38020763D01*
X66060095Y-37996953D01*
X66083905Y-37949334D01*
X66107714Y-37854096D01*
X66131524Y-37806477D01*
X66155333Y-37782668D01*
X66202952Y-37758858D01*
X66250571Y-37758858D01*
X66298190Y-37782668D01*
X66322000Y-37806477D01*
X66345810Y-37854096D01*
X66345810Y-37973144D01*
X66322000Y-38044572D01*
X65845810Y-38258858D02*
X66345810Y-38258858D01*
X66345810Y-38377905D01*
X66322000Y-38449334D01*
X66274381Y-38496953D01*
X66226762Y-38520762D01*
X66131524Y-38544572D01*
X66060095Y-38544572D01*
X65964857Y-38520762D01*
X65917238Y-38496953D01*
X65869619Y-38449334D01*
X65845810Y-38377905D01*
X65845810Y-38258858D01*
X65988667Y-38735048D02*
X65988667Y-38973143D01*
X65845810Y-38687429D02*
X66345810Y-38854096D01*
X65845810Y-39020762D01*
X69762476Y-25518381D02*
X69762476Y-24518381D01*
X70000571Y-24518381D01*
X70143429Y-24566000D01*
X70238667Y-24661238D01*
X70286286Y-24756476D01*
X70333905Y-24946952D01*
X70333905Y-25089810D01*
X70286286Y-25280286D01*
X70238667Y-25375524D01*
X70143429Y-25470762D01*
X70000571Y-25518381D01*
X69762476Y-25518381D01*
X71191048Y-24851714D02*
X71191048Y-25518381D01*
X70762476Y-24851714D02*
X70762476Y-25375524D01*
X70810095Y-25470762D01*
X70905333Y-25518381D01*
X71048191Y-25518381D01*
X71143429Y-25470762D01*
X71191048Y-25423143D01*
X72095810Y-25518381D02*
X72095810Y-24994571D01*
X72048191Y-24899333D01*
X71952953Y-24851714D01*
X71762476Y-24851714D01*
X71667238Y-24899333D01*
X72095810Y-25470762D02*
X72000572Y-25518381D01*
X71762476Y-25518381D01*
X71667238Y-25470762D01*
X71619619Y-25375524D01*
X71619619Y-25280286D01*
X71667238Y-25185048D01*
X71762476Y-25137429D01*
X72000572Y-25137429D01*
X72095810Y-25089810D01*
X72714857Y-25518381D02*
X72619619Y-25470762D01*
X72572000Y-25375524D01*
X72572000Y-24518381D01*
X73857715Y-25518381D02*
X73857715Y-24518381D01*
X74333905Y-25518381D02*
X74333905Y-24518381D01*
X74905334Y-25518381D01*
X74905334Y-24518381D01*
X75333905Y-25232667D02*
X75810096Y-25232667D01*
X75238667Y-25518381D02*
X75572000Y-24518381D01*
X75905334Y-25518381D01*
X76191048Y-24613619D02*
X76238667Y-24566000D01*
X76333905Y-24518381D01*
X76572001Y-24518381D01*
X76667239Y-24566000D01*
X76714858Y-24613619D01*
X76762477Y-24708857D01*
X76762477Y-24804095D01*
X76714858Y-24946952D01*
X76143429Y-25518381D01*
X76762477Y-25518381D01*
X77143429Y-24613619D02*
X77191048Y-24566000D01*
X77286286Y-24518381D01*
X77524382Y-24518381D01*
X77619620Y-24566000D01*
X77667239Y-24613619D01*
X77714858Y-24708857D01*
X77714858Y-24804095D01*
X77667239Y-24946952D01*
X77095810Y-25518381D01*
X77714858Y-25518381D01*
X78333905Y-24518381D02*
X78429144Y-24518381D01*
X78524382Y-24566000D01*
X78572001Y-24613619D01*
X78619620Y-24708857D01*
X78667239Y-24899333D01*
X78667239Y-25137429D01*
X78619620Y-25327905D01*
X78572001Y-25423143D01*
X78524382Y-25470762D01*
X78429144Y-25518381D01*
X78333905Y-25518381D01*
X78238667Y-25470762D01*
X78191048Y-25423143D01*
X78143429Y-25327905D01*
X78095810Y-25137429D01*
X78095810Y-24899333D01*
X78143429Y-24708857D01*
X78191048Y-24613619D01*
X78238667Y-24566000D01*
X78333905Y-24518381D01*
X79762477Y-24851714D02*
X79952953Y-25518381D01*
X80143430Y-25042190D01*
X80333906Y-25518381D01*
X80524382Y-24851714D01*
X80905334Y-25518381D02*
X80905334Y-24851714D01*
X80905334Y-24518381D02*
X80857715Y-24566000D01*
X80905334Y-24613619D01*
X80952953Y-24566000D01*
X80905334Y-24518381D01*
X80905334Y-24613619D01*
X81238667Y-24851714D02*
X81619619Y-24851714D01*
X81381524Y-24518381D02*
X81381524Y-25375524D01*
X81429143Y-25470762D01*
X81524381Y-25518381D01*
X81619619Y-25518381D01*
X81952953Y-25518381D02*
X81952953Y-24518381D01*
X82381525Y-25518381D02*
X82381525Y-24994571D01*
X82333906Y-24899333D01*
X82238668Y-24851714D01*
X82095810Y-24851714D01*
X82000572Y-24899333D01*
X81952953Y-24946952D01*
X71524381Y-27118381D02*
X71524381Y-26118381D01*
X71762476Y-26118381D01*
X71905334Y-26166000D01*
X72000572Y-26261238D01*
X72048191Y-26356476D01*
X72095810Y-26546952D01*
X72095810Y-26689810D01*
X72048191Y-26880286D01*
X72000572Y-26975524D01*
X71905334Y-27070762D01*
X71762476Y-27118381D01*
X71524381Y-27118381D01*
X72476762Y-26832667D02*
X72952953Y-26832667D01*
X72381524Y-27118381D02*
X72714857Y-26118381D01*
X73048191Y-27118381D01*
X73952953Y-27023143D02*
X73905334Y-27070762D01*
X73762477Y-27118381D01*
X73667239Y-27118381D01*
X73524381Y-27070762D01*
X73429143Y-26975524D01*
X73381524Y-26880286D01*
X73333905Y-26689810D01*
X73333905Y-26546952D01*
X73381524Y-26356476D01*
X73429143Y-26261238D01*
X73524381Y-26166000D01*
X73667239Y-26118381D01*
X73762477Y-26118381D01*
X73905334Y-26166000D01*
X73952953Y-26213619D01*
X74905334Y-27118381D02*
X74333905Y-27118381D01*
X74619619Y-27118381D02*
X74619619Y-26118381D01*
X74524381Y-26261238D01*
X74429143Y-26356476D01*
X74333905Y-26404095D01*
X75286286Y-26213619D02*
X75333905Y-26166000D01*
X75429143Y-26118381D01*
X75667239Y-26118381D01*
X75762477Y-26166000D01*
X75810096Y-26213619D01*
X75857715Y-26308857D01*
X75857715Y-26404095D01*
X75810096Y-26546952D01*
X75238667Y-27118381D01*
X75857715Y-27118381D01*
X76810096Y-27118381D02*
X76238667Y-27118381D01*
X76524381Y-27118381D02*
X76524381Y-26118381D01*
X76429143Y-26261238D01*
X76333905Y-26356476D01*
X76238667Y-26404095D01*
X77810096Y-27023143D02*
X77762477Y-27070762D01*
X77619620Y-27118381D01*
X77524382Y-27118381D01*
X77381524Y-27070762D01*
X77286286Y-26975524D01*
X77238667Y-26880286D01*
X77191048Y-26689810D01*
X77191048Y-26546952D01*
X77238667Y-26356476D01*
X77286286Y-26261238D01*
X77381524Y-26166000D01*
X77524382Y-26118381D01*
X77619620Y-26118381D01*
X77762477Y-26166000D01*
X77810096Y-26213619D01*
X78429143Y-26118381D02*
X78524382Y-26118381D01*
X78619620Y-26166000D01*
X78667239Y-26213619D01*
X78714858Y-26308857D01*
X78762477Y-26499333D01*
X78762477Y-26737429D01*
X78714858Y-26927905D01*
X78667239Y-27023143D01*
X78619620Y-27070762D01*
X78524382Y-27118381D01*
X78429143Y-27118381D01*
X78333905Y-27070762D01*
X78286286Y-27023143D01*
X78238667Y-26927905D01*
X78191048Y-26737429D01*
X78191048Y-26499333D01*
X78238667Y-26308857D01*
X78286286Y-26213619D01*
X78333905Y-26166000D01*
X78429143Y-26118381D01*
X79333905Y-26546952D02*
X79238667Y-26499333D01*
X79191048Y-26451714D01*
X79143429Y-26356476D01*
X79143429Y-26308857D01*
X79191048Y-26213619D01*
X79238667Y-26166000D01*
X79333905Y-26118381D01*
X79524382Y-26118381D01*
X79619620Y-26166000D01*
X79667239Y-26213619D01*
X79714858Y-26308857D01*
X79714858Y-26356476D01*
X79667239Y-26451714D01*
X79619620Y-26499333D01*
X79524382Y-26546952D01*
X79333905Y-26546952D01*
X79238667Y-26594571D01*
X79191048Y-26642190D01*
X79143429Y-26737429D01*
X79143429Y-26927905D01*
X79191048Y-27023143D01*
X79238667Y-27070762D01*
X79333905Y-27118381D01*
X79524382Y-27118381D01*
X79619620Y-27070762D01*
X79667239Y-27023143D01*
X79714858Y-26927905D01*
X79714858Y-26737429D01*
X79667239Y-26642190D01*
X79619620Y-26594571D01*
X79524382Y-26546952D01*
X80667239Y-27118381D02*
X80095810Y-27118381D01*
X80381524Y-27118381D02*
X80381524Y-26118381D01*
X80286286Y-26261238D01*
X80191048Y-26356476D01*
X80095810Y-26404095D01*
X66619619Y-64532667D02*
X67095810Y-64532667D01*
X66524381Y-64818381D02*
X66857714Y-63818381D01*
X67191048Y-64818381D01*
X67952953Y-64818381D02*
X67952953Y-63818381D01*
X67952953Y-64770762D02*
X67857715Y-64818381D01*
X67667238Y-64818381D01*
X67572000Y-64770762D01*
X67524381Y-64723143D01*
X67476762Y-64627905D01*
X67476762Y-64342190D01*
X67524381Y-64246952D01*
X67572000Y-64199333D01*
X67667238Y-64151714D01*
X67857715Y-64151714D01*
X67952953Y-64199333D01*
X68857715Y-64818381D02*
X68857715Y-63818381D01*
X68857715Y-64770762D02*
X68762477Y-64818381D01*
X68572000Y-64818381D01*
X68476762Y-64770762D01*
X68429143Y-64723143D01*
X68381524Y-64627905D01*
X68381524Y-64342190D01*
X68429143Y-64246952D01*
X68476762Y-64199333D01*
X68572000Y-64151714D01*
X68762477Y-64151714D01*
X68857715Y-64199333D01*
X69333905Y-64818381D02*
X69333905Y-64151714D01*
X69333905Y-64342190D02*
X69381524Y-64246952D01*
X69429143Y-64199333D01*
X69524381Y-64151714D01*
X69619620Y-64151714D01*
X67833905Y-61318381D02*
X68167238Y-62318381D01*
X68500572Y-61318381D01*
X68786286Y-62270762D02*
X68881524Y-62318381D01*
X69072000Y-62318381D01*
X69167239Y-62270762D01*
X69214858Y-62175524D01*
X69214858Y-62127905D01*
X69167239Y-62032667D01*
X69072000Y-61985048D01*
X68929143Y-61985048D01*
X68833905Y-61937429D01*
X68786286Y-61842190D01*
X68786286Y-61794571D01*
X68833905Y-61699333D01*
X68929143Y-61651714D01*
X69072000Y-61651714D01*
X69167239Y-61699333D01*
X79786286Y-50318381D02*
X80119619Y-51318381D01*
X80452953Y-50318381D01*
X81214858Y-51318381D02*
X81214858Y-50794571D01*
X81167239Y-50699333D01*
X81072001Y-50651714D01*
X80881524Y-50651714D01*
X80786286Y-50699333D01*
X81214858Y-51270762D02*
X81119620Y-51318381D01*
X80881524Y-51318381D01*
X80786286Y-51270762D01*
X80738667Y-51175524D01*
X80738667Y-51080286D01*
X80786286Y-50985048D01*
X80881524Y-50937429D01*
X81119620Y-50937429D01*
X81214858Y-50889810D01*
X67310096Y-66366000D02*
X67214858Y-66318381D01*
X67072001Y-66318381D01*
X66929143Y-66366000D01*
X66833905Y-66461238D01*
X66786286Y-66556476D01*
X66738667Y-66746952D01*
X66738667Y-66889810D01*
X66786286Y-67080286D01*
X66833905Y-67175524D01*
X66929143Y-67270762D01*
X67072001Y-67318381D01*
X67167239Y-67318381D01*
X67310096Y-67270762D01*
X67357715Y-67223143D01*
X67357715Y-66889810D01*
X67167239Y-66889810D01*
X67786286Y-67318381D02*
X67786286Y-66318381D01*
X68357715Y-67318381D01*
X68357715Y-66318381D01*
X68833905Y-67318381D02*
X68833905Y-66318381D01*
X69072000Y-66318381D01*
X69214858Y-66366000D01*
X69310096Y-66461238D01*
X69357715Y-66556476D01*
X69405334Y-66746952D01*
X69405334Y-66889810D01*
X69357715Y-67080286D01*
X69310096Y-67175524D01*
X69214858Y-67270762D01*
X69072000Y-67318381D01*
X68833905Y-67318381D01*
X89857714Y-46270762D02*
X90000571Y-46318381D01*
X90238667Y-46318381D01*
X90333905Y-46270762D01*
X90381524Y-46223143D01*
X90429143Y-46127905D01*
X90429143Y-46032667D01*
X90381524Y-45937429D01*
X90333905Y-45889810D01*
X90238667Y-45842190D01*
X90048190Y-45794571D01*
X89952952Y-45746952D01*
X89905333Y-45699333D01*
X89857714Y-45604095D01*
X89857714Y-45508857D01*
X89905333Y-45413619D01*
X89952952Y-45366000D01*
X90048190Y-45318381D01*
X90286286Y-45318381D01*
X90429143Y-45366000D01*
X90857714Y-46318381D02*
X90857714Y-45318381D01*
X91095809Y-45318381D01*
X91238667Y-45366000D01*
X91333905Y-45461238D01*
X91381524Y-45556476D01*
X91429143Y-45746952D01*
X91429143Y-45889810D01*
X91381524Y-46080286D01*
X91333905Y-46175524D01*
X91238667Y-46270762D01*
X91095809Y-46318381D01*
X90857714Y-46318381D01*
X91810095Y-46032667D02*
X92286286Y-46032667D01*
X91714857Y-46318381D02*
X92048190Y-45318381D01*
X92381524Y-46318381D01*
X89881524Y-51270762D02*
X90024381Y-51318381D01*
X90262477Y-51318381D01*
X90357715Y-51270762D01*
X90405334Y-51223143D01*
X90452953Y-51127905D01*
X90452953Y-51032667D01*
X90405334Y-50937429D01*
X90357715Y-50889810D01*
X90262477Y-50842190D01*
X90072000Y-50794571D01*
X89976762Y-50746952D01*
X89929143Y-50699333D01*
X89881524Y-50604095D01*
X89881524Y-50508857D01*
X89929143Y-50413619D01*
X89976762Y-50366000D01*
X90072000Y-50318381D01*
X90310096Y-50318381D01*
X90452953Y-50366000D01*
X91452953Y-51223143D02*
X91405334Y-51270762D01*
X91262477Y-51318381D01*
X91167239Y-51318381D01*
X91024381Y-51270762D01*
X90929143Y-51175524D01*
X90881524Y-51080286D01*
X90833905Y-50889810D01*
X90833905Y-50746952D01*
X90881524Y-50556476D01*
X90929143Y-50461238D01*
X91024381Y-50366000D01*
X91167239Y-50318381D01*
X91262477Y-50318381D01*
X91405334Y-50366000D01*
X91452953Y-50413619D01*
X92357715Y-51318381D02*
X91881524Y-51318381D01*
X91881524Y-50318381D01*
X94810096Y-45366000D02*
X94714858Y-45318381D01*
X94572001Y-45318381D01*
X94429143Y-45366000D01*
X94333905Y-45461238D01*
X94286286Y-45556476D01*
X94238667Y-45746952D01*
X94238667Y-45889810D01*
X94286286Y-46080286D01*
X94333905Y-46175524D01*
X94429143Y-46270762D01*
X94572001Y-46318381D01*
X94667239Y-46318381D01*
X94810096Y-46270762D01*
X94857715Y-46223143D01*
X94857715Y-45889810D01*
X94667239Y-45889810D01*
X95286286Y-46318381D02*
X95286286Y-45318381D01*
X95857715Y-46318381D01*
X95857715Y-45318381D01*
X96333905Y-46318381D02*
X96333905Y-45318381D01*
X96572000Y-45318381D01*
X96714858Y-45366000D01*
X96810096Y-45461238D01*
X96857715Y-45556476D01*
X96905334Y-45746952D01*
X96905334Y-45889810D01*
X96857715Y-46080286D01*
X96810096Y-46175524D01*
X96714858Y-46270762D01*
X96572000Y-46318381D01*
X96333905Y-46318381D01*
X95286286Y-50318381D02*
X95619619Y-51318381D01*
X95952953Y-50318381D01*
X96714858Y-51318381D02*
X96714858Y-50794571D01*
X96667239Y-50699333D01*
X96572001Y-50651714D01*
X96381524Y-50651714D01*
X96286286Y-50699333D01*
X96714858Y-51270762D02*
X96619620Y-51318381D01*
X96381524Y-51318381D01*
X96286286Y-51270762D01*
X96238667Y-51175524D01*
X96238667Y-51080286D01*
X96286286Y-50985048D01*
X96381524Y-50937429D01*
X96619620Y-50937429D01*
X96714858Y-50889810D01*
X75857714Y-48818381D02*
X75857714Y-47818381D01*
X76333904Y-48818381D02*
X76333904Y-47818381D01*
X76905333Y-48818381D01*
X76905333Y-47818381D01*
X77333904Y-48532667D02*
X77810095Y-48532667D01*
X77238666Y-48818381D02*
X77571999Y-47818381D01*
X77905333Y-48818381D01*
X78191047Y-47913619D02*
X78238666Y-47866000D01*
X78333904Y-47818381D01*
X78572000Y-47818381D01*
X78667238Y-47866000D01*
X78714857Y-47913619D01*
X78762476Y-48008857D01*
X78762476Y-48104095D01*
X78714857Y-48246952D01*
X78143428Y-48818381D01*
X78762476Y-48818381D01*
X78952952Y-48913619D02*
X79714857Y-48913619D01*
X79905333Y-48532667D02*
X80381524Y-48532667D01*
X79810095Y-48818381D02*
X80143428Y-47818381D01*
X80476762Y-48818381D01*
X81333905Y-48818381D02*
X80762476Y-48818381D01*
X81048190Y-48818381D02*
X81048190Y-47818381D01*
X80952952Y-47961238D01*
X80857714Y-48056476D01*
X80762476Y-48104095D01*
X105357714Y-48818381D02*
X105357714Y-47818381D01*
X105833904Y-48818381D02*
X105833904Y-47818381D01*
X106405333Y-48818381D01*
X106405333Y-47818381D01*
X106833904Y-48532667D02*
X107310095Y-48532667D01*
X106738666Y-48818381D02*
X107071999Y-47818381D01*
X107405333Y-48818381D01*
X107691047Y-47913619D02*
X107738666Y-47866000D01*
X107833904Y-47818381D01*
X108072000Y-47818381D01*
X108167238Y-47866000D01*
X108214857Y-47913619D01*
X108262476Y-48008857D01*
X108262476Y-48104095D01*
X108214857Y-48246952D01*
X107643428Y-48818381D01*
X108262476Y-48818381D01*
X108452952Y-48913619D02*
X109214857Y-48913619D01*
X109405333Y-48532667D02*
X109881524Y-48532667D01*
X109310095Y-48818381D02*
X109643428Y-47818381D01*
X109976762Y-48818381D01*
X110500571Y-47818381D02*
X110595810Y-47818381D01*
X110691048Y-47866000D01*
X110738667Y-47913619D01*
X110786286Y-48008857D01*
X110833905Y-48199333D01*
X110833905Y-48437429D01*
X110786286Y-48627905D01*
X110738667Y-48723143D01*
X110691048Y-48770762D01*
X110595810Y-48818381D01*
X110500571Y-48818381D01*
X110405333Y-48770762D01*
X110357714Y-48723143D01*
X110310095Y-48627905D01*
X110262476Y-48437429D01*
X110262476Y-48199333D01*
X110310095Y-48008857D01*
X110357714Y-47913619D01*
X110405333Y-47866000D01*
X110500571Y-47818381D01*
X105381524Y-41270762D02*
X105524381Y-41318381D01*
X105762477Y-41318381D01*
X105857715Y-41270762D01*
X105905334Y-41223143D01*
X105952953Y-41127905D01*
X105952953Y-41032667D01*
X105905334Y-40937429D01*
X105857715Y-40889810D01*
X105762477Y-40842190D01*
X105572000Y-40794571D01*
X105476762Y-40746952D01*
X105429143Y-40699333D01*
X105381524Y-40604095D01*
X105381524Y-40508857D01*
X105429143Y-40413619D01*
X105476762Y-40366000D01*
X105572000Y-40318381D01*
X105810096Y-40318381D01*
X105952953Y-40366000D01*
X106952953Y-41223143D02*
X106905334Y-41270762D01*
X106762477Y-41318381D01*
X106667239Y-41318381D01*
X106524381Y-41270762D01*
X106429143Y-41175524D01*
X106381524Y-41080286D01*
X106333905Y-40889810D01*
X106333905Y-40746952D01*
X106381524Y-40556476D01*
X106429143Y-40461238D01*
X106524381Y-40366000D01*
X106667239Y-40318381D01*
X106762477Y-40318381D01*
X106905334Y-40366000D01*
X106952953Y-40413619D01*
X107857715Y-41318381D02*
X107381524Y-41318381D01*
X107381524Y-40318381D01*
X105357714Y-36270762D02*
X105500571Y-36318381D01*
X105738667Y-36318381D01*
X105833905Y-36270762D01*
X105881524Y-36223143D01*
X105929143Y-36127905D01*
X105929143Y-36032667D01*
X105881524Y-35937429D01*
X105833905Y-35889810D01*
X105738667Y-35842190D01*
X105548190Y-35794571D01*
X105452952Y-35746952D01*
X105405333Y-35699333D01*
X105357714Y-35604095D01*
X105357714Y-35508857D01*
X105405333Y-35413619D01*
X105452952Y-35366000D01*
X105548190Y-35318381D01*
X105786286Y-35318381D01*
X105929143Y-35366000D01*
X106357714Y-36318381D02*
X106357714Y-35318381D01*
X106595809Y-35318381D01*
X106738667Y-35366000D01*
X106833905Y-35461238D01*
X106881524Y-35556476D01*
X106929143Y-35746952D01*
X106929143Y-35889810D01*
X106881524Y-36080286D01*
X106833905Y-36175524D01*
X106738667Y-36270762D01*
X106595809Y-36318381D01*
X106357714Y-36318381D01*
X107310095Y-36032667D02*
X107786286Y-36032667D01*
X107214857Y-36318381D02*
X107548190Y-35318381D01*
X107881524Y-36318381D01*
X79310096Y-35366000D02*
X79214858Y-35318381D01*
X79072001Y-35318381D01*
X78929143Y-35366000D01*
X78833905Y-35461238D01*
X78786286Y-35556476D01*
X78738667Y-35746952D01*
X78738667Y-35889810D01*
X78786286Y-36080286D01*
X78833905Y-36175524D01*
X78929143Y-36270762D01*
X79072001Y-36318381D01*
X79167239Y-36318381D01*
X79310096Y-36270762D01*
X79357715Y-36223143D01*
X79357715Y-35889810D01*
X79167239Y-35889810D01*
X79786286Y-36318381D02*
X79786286Y-35318381D01*
X80357715Y-36318381D01*
X80357715Y-35318381D01*
X80833905Y-36318381D02*
X80833905Y-35318381D01*
X81072000Y-35318381D01*
X81214858Y-35366000D01*
X81310096Y-35461238D01*
X81357715Y-35556476D01*
X81405334Y-35746952D01*
X81405334Y-35889810D01*
X81357715Y-36080286D01*
X81310096Y-36175524D01*
X81214858Y-36270762D01*
X81072000Y-36318381D01*
X80833905Y-36318381D01*
X89857714Y-36270762D02*
X90000571Y-36318381D01*
X90238667Y-36318381D01*
X90333905Y-36270762D01*
X90381524Y-36223143D01*
X90429143Y-36127905D01*
X90429143Y-36032667D01*
X90381524Y-35937429D01*
X90333905Y-35889810D01*
X90238667Y-35842190D01*
X90048190Y-35794571D01*
X89952952Y-35746952D01*
X89905333Y-35699333D01*
X89857714Y-35604095D01*
X89857714Y-35508857D01*
X89905333Y-35413619D01*
X89952952Y-35366000D01*
X90048190Y-35318381D01*
X90286286Y-35318381D01*
X90429143Y-35366000D01*
X90857714Y-36318381D02*
X90857714Y-35318381D01*
X91095809Y-35318381D01*
X91238667Y-35366000D01*
X91333905Y-35461238D01*
X91381524Y-35556476D01*
X91429143Y-35746952D01*
X91429143Y-35889810D01*
X91381524Y-36080286D01*
X91333905Y-36175524D01*
X91238667Y-36270762D01*
X91095809Y-36318381D01*
X90857714Y-36318381D01*
X91810095Y-36032667D02*
X92286286Y-36032667D01*
X91714857Y-36318381D02*
X92048190Y-35318381D01*
X92381524Y-36318381D01*
X79786286Y-40318381D02*
X80119619Y-41318381D01*
X80452953Y-40318381D01*
X81214858Y-41318381D02*
X81214858Y-40794571D01*
X81167239Y-40699333D01*
X81072001Y-40651714D01*
X80881524Y-40651714D01*
X80786286Y-40699333D01*
X81214858Y-41270762D02*
X81119620Y-41318381D01*
X80881524Y-41318381D01*
X80786286Y-41270762D01*
X80738667Y-41175524D01*
X80738667Y-41080286D01*
X80786286Y-40985048D01*
X80881524Y-40937429D01*
X81119620Y-40937429D01*
X81214858Y-40889810D01*
X89881524Y-41270762D02*
X90024381Y-41318381D01*
X90262477Y-41318381D01*
X90357715Y-41270762D01*
X90405334Y-41223143D01*
X90452953Y-41127905D01*
X90452953Y-41032667D01*
X90405334Y-40937429D01*
X90357715Y-40889810D01*
X90262477Y-40842190D01*
X90072000Y-40794571D01*
X89976762Y-40746952D01*
X89929143Y-40699333D01*
X89881524Y-40604095D01*
X89881524Y-40508857D01*
X89929143Y-40413619D01*
X89976762Y-40366000D01*
X90072000Y-40318381D01*
X90310096Y-40318381D01*
X90452953Y-40366000D01*
X91452953Y-41223143D02*
X91405334Y-41270762D01*
X91262477Y-41318381D01*
X91167239Y-41318381D01*
X91024381Y-41270762D01*
X90929143Y-41175524D01*
X90881524Y-41080286D01*
X90833905Y-40889810D01*
X90833905Y-40746952D01*
X90881524Y-40556476D01*
X90929143Y-40461238D01*
X91024381Y-40366000D01*
X91167239Y-40318381D01*
X91262477Y-40318381D01*
X91405334Y-40366000D01*
X91452953Y-40413619D01*
X92357715Y-41318381D02*
X91881524Y-41318381D01*
X91881524Y-40318381D01*
X75857714Y-38818381D02*
X75857714Y-37818381D01*
X76333904Y-38818381D02*
X76333904Y-37818381D01*
X76905333Y-38818381D01*
X76905333Y-37818381D01*
X77333904Y-38532667D02*
X77810095Y-38532667D01*
X77238666Y-38818381D02*
X77571999Y-37818381D01*
X77905333Y-38818381D01*
X78762476Y-38818381D02*
X78191047Y-38818381D01*
X78476761Y-38818381D02*
X78476761Y-37818381D01*
X78381523Y-37961238D01*
X78286285Y-38056476D01*
X78191047Y-38104095D01*
X78952952Y-38913619D02*
X79714857Y-38913619D01*
X79905333Y-38532667D02*
X80381524Y-38532667D01*
X79810095Y-38818381D02*
X80143428Y-37818381D01*
X80476762Y-38818381D01*
X81333905Y-38818381D02*
X80762476Y-38818381D01*
X81048190Y-38818381D02*
X81048190Y-37818381D01*
X80952952Y-37961238D01*
X80857714Y-38056476D01*
X80762476Y-38104095D01*
X105357714Y-38818381D02*
X105357714Y-37818381D01*
X105833904Y-38818381D02*
X105833904Y-37818381D01*
X106405333Y-38818381D01*
X106405333Y-37818381D01*
X106833904Y-38532667D02*
X107310095Y-38532667D01*
X106738666Y-38818381D02*
X107071999Y-37818381D01*
X107405333Y-38818381D01*
X108262476Y-38818381D02*
X107691047Y-38818381D01*
X107976761Y-38818381D02*
X107976761Y-37818381D01*
X107881523Y-37961238D01*
X107786285Y-38056476D01*
X107691047Y-38104095D01*
X108452952Y-38913619D02*
X109214857Y-38913619D01*
X109405333Y-38532667D02*
X109881524Y-38532667D01*
X109310095Y-38818381D02*
X109643428Y-37818381D01*
X109976762Y-38818381D01*
X110500571Y-37818381D02*
X110595810Y-37818381D01*
X110691048Y-37866000D01*
X110738667Y-37913619D01*
X110786286Y-38008857D01*
X110833905Y-38199333D01*
X110833905Y-38437429D01*
X110786286Y-38627905D01*
X110738667Y-38723143D01*
X110691048Y-38770762D01*
X110595810Y-38818381D01*
X110500571Y-38818381D01*
X110405333Y-38770762D01*
X110357714Y-38723143D01*
X110310095Y-38627905D01*
X110262476Y-38437429D01*
X110262476Y-38199333D01*
X110310095Y-38008857D01*
X110357714Y-37913619D01*
X110405333Y-37866000D01*
X110500571Y-37818381D01*
X105381524Y-51770762D02*
X105524381Y-51818381D01*
X105762477Y-51818381D01*
X105857715Y-51770762D01*
X105905334Y-51723143D01*
X105952953Y-51627905D01*
X105952953Y-51532667D01*
X105905334Y-51437429D01*
X105857715Y-51389810D01*
X105762477Y-51342190D01*
X105572000Y-51294571D01*
X105476762Y-51246952D01*
X105429143Y-51199333D01*
X105381524Y-51104095D01*
X105381524Y-51008857D01*
X105429143Y-50913619D01*
X105476762Y-50866000D01*
X105572000Y-50818381D01*
X105810096Y-50818381D01*
X105952953Y-50866000D01*
X106952953Y-51723143D02*
X106905334Y-51770762D01*
X106762477Y-51818381D01*
X106667239Y-51818381D01*
X106524381Y-51770762D01*
X106429143Y-51675524D01*
X106381524Y-51580286D01*
X106333905Y-51389810D01*
X106333905Y-51246952D01*
X106381524Y-51056476D01*
X106429143Y-50961238D01*
X106524381Y-50866000D01*
X106667239Y-50818381D01*
X106762477Y-50818381D01*
X106905334Y-50866000D01*
X106952953Y-50913619D01*
X107857715Y-51818381D02*
X107381524Y-51818381D01*
X107381524Y-50818381D01*
X95286286Y-40318381D02*
X95619619Y-41318381D01*
X95952953Y-40318381D01*
X96714858Y-41318381D02*
X96714858Y-40794571D01*
X96667239Y-40699333D01*
X96572001Y-40651714D01*
X96381524Y-40651714D01*
X96286286Y-40699333D01*
X96714858Y-41270762D02*
X96619620Y-41318381D01*
X96381524Y-41318381D01*
X96286286Y-41270762D01*
X96238667Y-41175524D01*
X96238667Y-41080286D01*
X96286286Y-40985048D01*
X96381524Y-40937429D01*
X96619620Y-40937429D01*
X96714858Y-40889810D01*
X94810096Y-35366000D02*
X94714858Y-35318381D01*
X94572001Y-35318381D01*
X94429143Y-35366000D01*
X94333905Y-35461238D01*
X94286286Y-35556476D01*
X94238667Y-35746952D01*
X94238667Y-35889810D01*
X94286286Y-36080286D01*
X94333905Y-36175524D01*
X94429143Y-36270762D01*
X94572001Y-36318381D01*
X94667239Y-36318381D01*
X94810096Y-36270762D01*
X94857715Y-36223143D01*
X94857715Y-35889810D01*
X94667239Y-35889810D01*
X95286286Y-36318381D02*
X95286286Y-35318381D01*
X95857715Y-36318381D01*
X95857715Y-35318381D01*
X96333905Y-36318381D02*
X96333905Y-35318381D01*
X96572000Y-35318381D01*
X96714858Y-35366000D01*
X96810096Y-35461238D01*
X96857715Y-35556476D01*
X96905334Y-35746952D01*
X96905334Y-35889810D01*
X96857715Y-36080286D01*
X96810096Y-36175524D01*
X96714858Y-36270762D01*
X96572000Y-36318381D01*
X96333905Y-36318381D01*
X105357714Y-46270762D02*
X105500571Y-46318381D01*
X105738667Y-46318381D01*
X105833905Y-46270762D01*
X105881524Y-46223143D01*
X105929143Y-46127905D01*
X105929143Y-46032667D01*
X105881524Y-45937429D01*
X105833905Y-45889810D01*
X105738667Y-45842190D01*
X105548190Y-45794571D01*
X105452952Y-45746952D01*
X105405333Y-45699333D01*
X105357714Y-45604095D01*
X105357714Y-45508857D01*
X105405333Y-45413619D01*
X105452952Y-45366000D01*
X105548190Y-45318381D01*
X105786286Y-45318381D01*
X105929143Y-45366000D01*
X106357714Y-46318381D02*
X106357714Y-45318381D01*
X106595809Y-45318381D01*
X106738667Y-45366000D01*
X106833905Y-45461238D01*
X106881524Y-45556476D01*
X106929143Y-45746952D01*
X106929143Y-45889810D01*
X106881524Y-46080286D01*
X106833905Y-46175524D01*
X106738667Y-46270762D01*
X106595809Y-46318381D01*
X106357714Y-46318381D01*
X107310095Y-46032667D02*
X107786286Y-46032667D01*
X107214857Y-46318381D02*
X107548190Y-45318381D01*
X107881524Y-46318381D01*
D11*
X85179334Y-72555571D02*
X84512667Y-72555571D01*
X84512667Y-71055571D01*
X85446000Y-71055571D02*
X86246000Y-71055571D01*
X85846000Y-72555571D02*
X85846000Y-71055571D01*
X87512667Y-72412714D02*
X87446001Y-72484143D01*
X87246001Y-72555571D01*
X87112667Y-72555571D01*
X86912667Y-72484143D01*
X86779334Y-72341286D01*
X86712667Y-72198429D01*
X86646001Y-71912714D01*
X86646001Y-71698429D01*
X86712667Y-71412714D01*
X86779334Y-71269857D01*
X86912667Y-71127000D01*
X87112667Y-71055571D01*
X87246001Y-71055571D01*
X87446001Y-71127000D01*
X87512667Y-71198429D01*
X87979334Y-71055571D02*
X88846001Y-71055571D01*
X88379334Y-71627000D01*
X88579334Y-71627000D01*
X88712667Y-71698429D01*
X88779334Y-71769857D01*
X88846001Y-71912714D01*
X88846001Y-72269857D01*
X88779334Y-72412714D01*
X88712667Y-72484143D01*
X88579334Y-72555571D01*
X88179334Y-72555571D01*
X88046001Y-72484143D01*
X87979334Y-72412714D01*
X90179334Y-72555571D02*
X89379334Y-72555571D01*
X89779334Y-72555571D02*
X89779334Y-71055571D01*
X89646000Y-71269857D01*
X89512667Y-71412714D01*
X89379334Y-71484143D01*
X91512667Y-72555571D02*
X90712667Y-72555571D01*
X91112667Y-72555571D02*
X91112667Y-71055571D01*
X90979333Y-71269857D01*
X90846000Y-71412714D01*
X90712667Y-71484143D01*
X92779333Y-71055571D02*
X92112666Y-71055571D01*
X92046000Y-71769857D01*
X92112666Y-71698429D01*
X92246000Y-71627000D01*
X92579333Y-71627000D01*
X92712666Y-71698429D01*
X92779333Y-71769857D01*
X92846000Y-71912714D01*
X92846000Y-72269857D01*
X92779333Y-72412714D01*
X92712666Y-72484143D01*
X92579333Y-72555571D01*
X92246000Y-72555571D01*
X92112666Y-72484143D01*
X92046000Y-72412714D01*
X83146000Y-74319857D02*
X83346000Y-74391286D01*
X83412667Y-74462714D01*
X83479333Y-74605571D01*
X83479333Y-74819857D01*
X83412667Y-74962714D01*
X83346000Y-75034143D01*
X83212667Y-75105571D01*
X82679333Y-75105571D01*
X82679333Y-73605571D01*
X83146000Y-73605571D01*
X83279333Y-73677000D01*
X83346000Y-73748429D01*
X83412667Y-73891286D01*
X83412667Y-74034143D01*
X83346000Y-74177000D01*
X83279333Y-74248429D01*
X83146000Y-74319857D01*
X82679333Y-74319857D01*
X84679333Y-74105571D02*
X84679333Y-75105571D01*
X84079333Y-74105571D02*
X84079333Y-74891286D01*
X84146000Y-75034143D01*
X84279333Y-75105571D01*
X84479333Y-75105571D01*
X84612667Y-75034143D01*
X84679333Y-74962714D01*
X85946000Y-75034143D02*
X85812667Y-75105571D01*
X85546000Y-75105571D01*
X85412667Y-75034143D01*
X85346000Y-74962714D01*
X85279334Y-74819857D01*
X85279334Y-74391286D01*
X85346000Y-74248429D01*
X85412667Y-74177000D01*
X85546000Y-74105571D01*
X85812667Y-74105571D01*
X85946000Y-74177000D01*
X86546000Y-75105571D02*
X86546000Y-73605571D01*
X86679334Y-74534143D02*
X87079334Y-75105571D01*
X87079334Y-74105571D02*
X86546000Y-74677000D01*
X87679333Y-74534143D02*
X88746000Y-74534143D01*
X88212667Y-75105571D02*
X88212667Y-73962714D01*
X89879333Y-74319857D02*
X90079333Y-74391286D01*
X90146000Y-74462714D01*
X90212666Y-74605571D01*
X90212666Y-74819857D01*
X90146000Y-74962714D01*
X90079333Y-75034143D01*
X89946000Y-75105571D01*
X89412666Y-75105571D01*
X89412666Y-73605571D01*
X89879333Y-73605571D01*
X90012666Y-73677000D01*
X90079333Y-73748429D01*
X90146000Y-73891286D01*
X90146000Y-74034143D01*
X90079333Y-74177000D01*
X90012666Y-74248429D01*
X89879333Y-74319857D01*
X89412666Y-74319857D01*
X91012666Y-75105571D02*
X90879333Y-75034143D01*
X90812666Y-74962714D01*
X90746000Y-74819857D01*
X90746000Y-74391286D01*
X90812666Y-74248429D01*
X90879333Y-74177000D01*
X91012666Y-74105571D01*
X91212666Y-74105571D01*
X91346000Y-74177000D01*
X91412666Y-74248429D01*
X91479333Y-74391286D01*
X91479333Y-74819857D01*
X91412666Y-74962714D01*
X91346000Y-75034143D01*
X91212666Y-75105571D01*
X91012666Y-75105571D01*
X92279333Y-75105571D02*
X92146000Y-75034143D01*
X92079333Y-74962714D01*
X92012667Y-74819857D01*
X92012667Y-74391286D01*
X92079333Y-74248429D01*
X92146000Y-74177000D01*
X92279333Y-74105571D01*
X92479333Y-74105571D01*
X92612667Y-74177000D01*
X92679333Y-74248429D01*
X92746000Y-74391286D01*
X92746000Y-74819857D01*
X92679333Y-74962714D01*
X92612667Y-75034143D01*
X92479333Y-75105571D01*
X92279333Y-75105571D01*
X93279334Y-75034143D02*
X93412667Y-75105571D01*
X93679334Y-75105571D01*
X93812667Y-75034143D01*
X93879334Y-74891286D01*
X93879334Y-74819857D01*
X93812667Y-74677000D01*
X93679334Y-74605571D01*
X93479334Y-74605571D01*
X93346000Y-74534143D01*
X93279334Y-74391286D01*
X93279334Y-74319857D01*
X93346000Y-74177000D01*
X93479334Y-74105571D01*
X93679334Y-74105571D01*
X93812667Y-74177000D01*
X94279333Y-74105571D02*
X94812667Y-74105571D01*
X94479333Y-73605571D02*
X94479333Y-74891286D01*
X94546000Y-75034143D01*
X94679333Y-75105571D01*
X94812667Y-75105571D01*
D15*
X113478000Y-105406000D02*
X107528000Y-105406000D01*
X107528000Y-105406000D02*
X107528000Y-115506000D01*
X107528000Y-115506000D02*
X113478000Y-115506000D01*
X113478000Y-115506000D02*
X113478000Y-105406000D01*
X113478000Y-108706000D02*
X112728000Y-108706000D01*
X112728000Y-108706000D02*
X112728000Y-112206000D01*
X112728000Y-112206000D02*
X113478000Y-112206000D01*
X113478000Y-112206000D02*
X113478000Y-108706000D01*
X113478000Y-105406000D02*
X112728000Y-105406000D01*
X112728000Y-105406000D02*
X112728000Y-107206000D01*
X112728000Y-107206000D02*
X113478000Y-107206000D01*
X113478000Y-107206000D02*
X113478000Y-105406000D01*
X113478000Y-113706000D02*
X112728000Y-113706000D01*
X112728000Y-113706000D02*
X112728000Y-115506000D01*
X112728000Y-115506000D02*
X113478000Y-115506000D01*
X113478000Y-115506000D02*
X113478000Y-113706000D01*
X111228000Y-105406000D02*
X111228000Y-106156000D01*
X111228000Y-106156000D02*
X108278000Y-106156000D01*
X108278000Y-106156000D02*
X108278000Y-110456000D01*
X111228000Y-115506000D02*
X111228000Y-114756000D01*
X111228000Y-114756000D02*
X108278000Y-114756000D01*
X108278000Y-114756000D02*
X108278000Y-110456000D01*
X113778000Y-107606000D02*
X113778000Y-105106000D01*
X113778000Y-105106000D02*
X111278000Y-105106000D01*
X84578000Y-115506000D02*
X90528000Y-115506000D01*
X90528000Y-115506000D02*
X90528000Y-102906000D01*
X90528000Y-102906000D02*
X84578000Y-102906000D01*
X84578000Y-102906000D02*
X84578000Y-115506000D01*
X84578000Y-112206000D02*
X85328000Y-112206000D01*
X85328000Y-112206000D02*
X85328000Y-106206000D01*
X85328000Y-106206000D02*
X84578000Y-106206000D01*
X84578000Y-106206000D02*
X84578000Y-112206000D01*
X84578000Y-115506000D02*
X85328000Y-115506000D01*
X85328000Y-115506000D02*
X85328000Y-113706000D01*
X85328000Y-113706000D02*
X84578000Y-113706000D01*
X84578000Y-113706000D02*
X84578000Y-115506000D01*
X84578000Y-104706000D02*
X85328000Y-104706000D01*
X85328000Y-104706000D02*
X85328000Y-102906000D01*
X85328000Y-102906000D02*
X84578000Y-102906000D01*
X84578000Y-102906000D02*
X84578000Y-104706000D01*
X86828000Y-115506000D02*
X86828000Y-114756000D01*
X86828000Y-114756000D02*
X89778000Y-114756000D01*
X89778000Y-114756000D02*
X89778000Y-109206000D01*
X86828000Y-102906000D02*
X86828000Y-103656000D01*
X86828000Y-103656000D02*
X89778000Y-103656000D01*
X89778000Y-103656000D02*
X89778000Y-109206000D01*
X84278000Y-113306000D02*
X84278000Y-115806000D01*
X84278000Y-115806000D02*
X86778000Y-115806000D01*
X100028000Y-112386000D02*
X102028000Y-112386000D01*
X102028000Y-114526000D02*
X100028000Y-114526000D01*
X106378000Y-108956000D02*
X106378000Y-107956000D01*
X104678000Y-107956000D02*
X104678000Y-108956000D01*
X96148000Y-107556000D02*
X96148000Y-106356000D01*
X97908000Y-106356000D02*
X97908000Y-107556000D01*
X92428000Y-107076000D02*
X93628000Y-107076000D01*
X93628000Y-108836000D02*
X92428000Y-108836000D01*
X92148000Y-112556000D02*
X92148000Y-111356000D01*
X93908000Y-111356000D02*
X93908000Y-112556000D01*
X100128000Y-109566000D02*
X101928000Y-109566000D01*
X101928000Y-106346000D02*
X99478000Y-106346000D01*
X53127000Y-61214000D02*
X53127000Y-59182000D01*
X49927000Y-61223000D02*
X53127000Y-61223000D01*
X53127000Y-59173000D02*
X49927000Y-59173000D01*
X58353000Y-58547000D02*
X58353000Y-55947000D01*
X58353000Y-55947000D02*
X55693000Y-55947000D01*
X55693000Y-55947000D02*
X55693000Y-58547000D01*
X55693000Y-58547000D02*
X58353000Y-58547000D01*
X58353000Y-59817000D02*
X58353000Y-61147000D01*
X58353000Y-61147000D02*
X57023000Y-61147000D01*
X29143000Y-63500000D02*
X29143000Y-60900000D01*
X29143000Y-60900000D02*
X26483000Y-60900000D01*
X26483000Y-60900000D02*
X26483000Y-63500000D01*
X26483000Y-63500000D02*
X29143000Y-63500000D01*
X29143000Y-64770000D02*
X29143000Y-66100000D01*
X29143000Y-66100000D02*
X27813000Y-66100000D01*
X28579000Y-58404000D02*
X28579000Y-56404000D01*
X26539000Y-56404000D02*
X26539000Y-58404000D01*
X59550000Y-61925000D02*
X59550000Y-70325000D01*
X54750000Y-61925000D02*
X54750000Y-70325000D01*
X59550000Y-61925000D02*
X54750000Y-61925000D01*
X29350000Y-61392000D02*
X29350000Y-52992000D01*
X34150000Y-61392000D02*
X34150000Y-52992000D01*
X29350000Y-61392000D02*
X34150000Y-61392000D01*
X47702000Y-61720000D02*
X47702000Y-64720000D01*
X47702000Y-64720000D02*
X35102000Y-64720000D01*
X35102000Y-64720000D02*
X35102000Y-61720000D01*
X35102000Y-55120000D02*
X35102000Y-52120000D01*
X35102000Y-52120000D02*
X47702000Y-52120000D01*
X47702000Y-52120000D02*
X47702000Y-55120000D01*
X43363000Y-67185000D02*
X42433000Y-67185000D01*
X40203000Y-67185000D02*
X41133000Y-67185000D01*
X40203000Y-67185000D02*
X40203000Y-70345000D01*
X43363000Y-67185000D02*
X43363000Y-68645000D01*
D16*
X35687000Y-75057000D02*
X35687000Y-72517000D01*
X32867000Y-72237000D02*
X34417000Y-72237000D01*
X32867000Y-72237000D02*
X32867000Y-75337000D01*
X32867000Y-75337000D02*
X34417000Y-75337000D01*
X27213000Y-68784500D02*
X28413000Y-68784500D01*
X28413000Y-70534500D02*
X27213000Y-70534500D01*
X50179000Y-70323000D02*
X50179000Y-69123000D01*
X51929000Y-69123000D02*
X51929000Y-70323000D01*
X50179000Y-66894000D02*
X50179000Y-65694000D01*
X51929000Y-65694000D02*
X51929000Y-66894000D01*
X27313000Y-74891000D02*
X28313000Y-74891000D01*
X28313000Y-73191000D02*
X27313000Y-73191000D01*
X49569000Y-56523000D02*
X49569000Y-57523000D01*
X51269000Y-57523000D02*
X51269000Y-56523000D01*
X51738000Y-55515000D02*
X51738000Y-57515000D01*
X54688000Y-57515000D02*
X54688000Y-55515000D01*
X27313000Y-72541500D02*
X28313000Y-72541500D01*
X28313000Y-70841500D02*
X27313000Y-70841500D01*
X27313000Y-68477500D02*
X28313000Y-68477500D01*
X28313000Y-66777500D02*
X27313000Y-66777500D01*
X32869000Y-67921000D02*
X32869000Y-68146000D01*
X36219000Y-67921000D02*
X36219000Y-68221000D01*
X36219000Y-71271000D02*
X36219000Y-70971000D01*
X32869000Y-71271000D02*
X32869000Y-70971000D01*
X32869000Y-67921000D02*
X36219000Y-67921000D01*
X32869000Y-71271000D02*
X36219000Y-71271000D01*
X32869000Y-68146000D02*
X31644000Y-68146000D01*
X48447000Y-75231000D02*
X43247000Y-75231000D01*
X43247000Y-71581000D02*
X48447000Y-71581000D01*
X48447000Y-46275000D02*
X43247000Y-46275000D01*
X43247000Y-42625000D02*
X48447000Y-42625000D01*
X32869000Y-38965000D02*
X32869000Y-39190000D01*
X36219000Y-38965000D02*
X36219000Y-39265000D01*
X36219000Y-42315000D02*
X36219000Y-42015000D01*
X32869000Y-42315000D02*
X32869000Y-42015000D01*
X32869000Y-38965000D02*
X36219000Y-38965000D01*
X32869000Y-42315000D02*
X36219000Y-42315000D01*
X32869000Y-39190000D02*
X31644000Y-39190000D01*
X27313000Y-39521500D02*
X28313000Y-39521500D01*
X28313000Y-37821500D02*
X27313000Y-37821500D01*
X27313000Y-43585500D02*
X28313000Y-43585500D01*
X28313000Y-41885500D02*
X27313000Y-41885500D01*
X51738000Y-26559000D02*
X51738000Y-28559000D01*
X54688000Y-28559000D02*
X54688000Y-26559000D01*
X49569000Y-27567000D02*
X49569000Y-28567000D01*
X51269000Y-28567000D02*
X51269000Y-27567000D01*
X27313000Y-45935000D02*
X28313000Y-45935000D01*
X28313000Y-44235000D02*
X27313000Y-44235000D01*
X50179000Y-37938000D02*
X50179000Y-36738000D01*
X51929000Y-36738000D02*
X51929000Y-37938000D01*
X50179000Y-41367000D02*
X50179000Y-40167000D01*
X51929000Y-40167000D02*
X51929000Y-41367000D01*
X27213000Y-39828500D02*
X28413000Y-39828500D01*
X28413000Y-41578500D02*
X27213000Y-41578500D01*
X35687000Y-46101000D02*
X35687000Y-43561000D01*
X32867000Y-43281000D02*
X34417000Y-43281000D01*
X32867000Y-43281000D02*
X32867000Y-46381000D01*
X32867000Y-46381000D02*
X34417000Y-46381000D01*
D15*
X43363000Y-38229000D02*
X42433000Y-38229000D01*
X40203000Y-38229000D02*
X41133000Y-38229000D01*
X40203000Y-38229000D02*
X40203000Y-41389000D01*
X43363000Y-38229000D02*
X43363000Y-39689000D01*
X47702000Y-32764000D02*
X47702000Y-35764000D01*
X47702000Y-35764000D02*
X35102000Y-35764000D01*
X35102000Y-35764000D02*
X35102000Y-32764000D01*
X35102000Y-26164000D02*
X35102000Y-23164000D01*
X35102000Y-23164000D02*
X47702000Y-23164000D01*
X47702000Y-23164000D02*
X47702000Y-26164000D01*
X29350000Y-32436000D02*
X29350000Y-24036000D01*
X34150000Y-32436000D02*
X34150000Y-24036000D01*
X29350000Y-32436000D02*
X34150000Y-32436000D01*
X59550000Y-32969000D02*
X59550000Y-41369000D01*
X54750000Y-32969000D02*
X54750000Y-41369000D01*
X59550000Y-32969000D02*
X54750000Y-32969000D01*
X28579000Y-29448000D02*
X28579000Y-27448000D01*
X26539000Y-27448000D02*
X26539000Y-29448000D01*
X29143000Y-34544000D02*
X29143000Y-31944000D01*
X29143000Y-31944000D02*
X26483000Y-31944000D01*
X26483000Y-31944000D02*
X26483000Y-34544000D01*
X26483000Y-34544000D02*
X29143000Y-34544000D01*
X29143000Y-35814000D02*
X29143000Y-37144000D01*
X29143000Y-37144000D02*
X27813000Y-37144000D01*
X58353000Y-29591000D02*
X58353000Y-26991000D01*
X58353000Y-26991000D02*
X55693000Y-26991000D01*
X55693000Y-26991000D02*
X55693000Y-29591000D01*
X55693000Y-29591000D02*
X58353000Y-29591000D01*
X58353000Y-30861000D02*
X58353000Y-32191000D01*
X58353000Y-32191000D02*
X57023000Y-32191000D01*
X53127000Y-32258000D02*
X53127000Y-30226000D01*
X49927000Y-32267000D02*
X53127000Y-32267000D01*
X53127000Y-30217000D02*
X49927000Y-30217000D01*
X39878000Y-94936000D02*
X37278000Y-94936000D01*
X37278000Y-94936000D02*
X37278000Y-97596000D01*
X37278000Y-97596000D02*
X39878000Y-97596000D01*
X39878000Y-97596000D02*
X39878000Y-94936000D01*
X41148000Y-94936000D02*
X42478000Y-94936000D01*
X42478000Y-94936000D02*
X42478000Y-96266000D01*
X35036000Y-94786000D02*
X33036000Y-94786000D01*
X33036000Y-97746000D02*
X35036000Y-97746000D01*
X29218000Y-94576000D02*
X30218000Y-94576000D01*
X30218000Y-92876000D02*
X29218000Y-92876000D01*
X34790000Y-85256000D02*
X33790000Y-85256000D01*
X33790000Y-86956000D02*
X34790000Y-86956000D01*
X26478000Y-91716000D02*
X27878000Y-91716000D01*
X27878000Y-91716000D02*
X27878000Y-88916000D01*
X26478000Y-91716000D02*
X26478000Y-88916000D01*
X39872000Y-84192000D02*
X39872000Y-79892000D01*
X39872000Y-79892000D02*
X34172000Y-79892000D01*
X39872000Y-84192000D02*
X34172000Y-84192000D01*
X38552000Y-91946000D02*
X39482000Y-91946000D01*
X41712000Y-91946000D02*
X40782000Y-91946000D01*
X41712000Y-91946000D02*
X41712000Y-89786000D01*
X38552000Y-91946000D02*
X38552000Y-90486000D01*
X28058000Y-85506000D02*
X28058000Y-86706000D01*
X26298000Y-86706000D02*
X26298000Y-85506000D01*
X34128000Y-94606000D02*
X32928000Y-94606000D01*
X32928000Y-92846000D02*
X34128000Y-92846000D01*
X39996000Y-87030000D02*
X39996000Y-88230000D01*
X38236000Y-88230000D02*
X38236000Y-87030000D01*
D16*
X31853000Y-88241000D02*
X31853000Y-88416000D01*
X35203000Y-88241000D02*
X35203000Y-88491000D01*
X35203000Y-91591000D02*
X35203000Y-91341000D01*
X31853000Y-91591000D02*
X31853000Y-91341000D01*
X31853000Y-88241000D02*
X35203000Y-88241000D01*
X31853000Y-91591000D02*
X35203000Y-91591000D01*
X31853000Y-88416000D02*
X30603000Y-88416000D01*
D15*
X29210000Y-83118000D02*
X31810000Y-83118000D01*
X31810000Y-83118000D02*
X31810000Y-80458000D01*
X31810000Y-80458000D02*
X29210000Y-80458000D01*
X29210000Y-80458000D02*
X29210000Y-83118000D01*
X27940000Y-83118000D02*
X26610000Y-83118000D01*
X26610000Y-83118000D02*
X26610000Y-81788000D01*
X69852000Y-82748000D02*
X69852000Y-83678000D01*
X69852000Y-85908000D02*
X69852000Y-84978000D01*
X69852000Y-85908000D02*
X73012000Y-85908000D01*
X69852000Y-82748000D02*
X71312000Y-82748000D01*
X54102000Y-99882000D02*
X56702000Y-99882000D01*
X56702000Y-99882000D02*
X56702000Y-97222000D01*
X56702000Y-97222000D02*
X54102000Y-97222000D01*
X54102000Y-97222000D02*
X54102000Y-99882000D01*
X52832000Y-99882000D02*
X51502000Y-99882000D01*
X51502000Y-99882000D02*
X51502000Y-98552000D01*
X60960000Y-99882000D02*
X63560000Y-99882000D01*
X63560000Y-99882000D02*
X63560000Y-97222000D01*
X63560000Y-97222000D02*
X60960000Y-97222000D01*
X60960000Y-97222000D02*
X60960000Y-99882000D01*
X59690000Y-99882000D02*
X58360000Y-99882000D01*
X58360000Y-99882000D02*
X58360000Y-98552000D01*
X50098000Y-96266000D02*
X50098000Y-93666000D01*
X50098000Y-93666000D02*
X47438000Y-93666000D01*
X47438000Y-93666000D02*
X47438000Y-96266000D01*
X47438000Y-96266000D02*
X50098000Y-96266000D01*
X50098000Y-97536000D02*
X50098000Y-98866000D01*
X50098000Y-98866000D02*
X48768000Y-98866000D01*
X54610000Y-84642000D02*
X62290000Y-84642000D01*
X62290000Y-84642000D02*
X62290000Y-81982000D01*
X62290000Y-81982000D02*
X54610000Y-81982000D01*
X54610000Y-81982000D02*
X54610000Y-84642000D01*
X53340000Y-84642000D02*
X52010000Y-84642000D01*
X52010000Y-84642000D02*
X52010000Y-83312000D01*
X77022000Y-93218000D02*
X77022000Y-90618000D01*
X77022000Y-90618000D02*
X74362000Y-90618000D01*
X74362000Y-90618000D02*
X74362000Y-93218000D01*
X74362000Y-93218000D02*
X77022000Y-93218000D01*
X77022000Y-94488000D02*
X77022000Y-95818000D01*
X77022000Y-95818000D02*
X75692000Y-95818000D01*
X55116000Y-95560000D02*
X55116000Y-94630000D01*
X55116000Y-92400000D02*
X55116000Y-93330000D01*
X55116000Y-92400000D02*
X51956000Y-92400000D01*
X55116000Y-95560000D02*
X53656000Y-95560000D01*
X68324000Y-95306000D02*
X68324000Y-94376000D01*
X68324000Y-92146000D02*
X68324000Y-93076000D01*
X68324000Y-92146000D02*
X65164000Y-92146000D01*
X68324000Y-95306000D02*
X66864000Y-95306000D01*
X71626000Y-91496000D02*
X71626000Y-90566000D01*
X71626000Y-88336000D02*
X71626000Y-89266000D01*
X71626000Y-88336000D02*
X68466000Y-88336000D01*
X71626000Y-91496000D02*
X70166000Y-91496000D01*
X51300000Y-91612000D02*
X50300000Y-91612000D01*
X50300000Y-90252000D02*
X51300000Y-90252000D01*
X70112000Y-80092000D02*
X71112000Y-80092000D01*
X71112000Y-81452000D02*
X70112000Y-81452000D01*
X77896000Y-80780000D02*
X77896000Y-81780000D01*
X76536000Y-81780000D02*
X76536000Y-80780000D01*
X77896000Y-85352000D02*
X77896000Y-86352000D01*
X76536000Y-86352000D02*
X76536000Y-85352000D01*
X63074000Y-94480000D02*
X63074000Y-93480000D01*
X64434000Y-93480000D02*
X64434000Y-94480000D01*
X61636000Y-91186000D02*
X61636000Y-89154000D01*
X58436000Y-91195000D02*
X61636000Y-91195000D01*
X61636000Y-89145000D02*
X58436000Y-89145000D01*
D16*
X37129000Y-111353000D02*
X39579000Y-111353000D01*
X36404000Y-108103000D02*
X39579000Y-108103000D01*
D15*
X38092000Y-111926000D02*
X37092000Y-111926000D01*
X37092000Y-113626000D02*
X38092000Y-113626000D01*
X33870000Y-107942000D02*
X33870000Y-106942000D01*
X32170000Y-106942000D02*
X32170000Y-107942000D01*
X34505000Y-111879000D02*
X34505000Y-110879000D01*
X32805000Y-110879000D02*
X32805000Y-111879000D01*
X41330500Y-104369500D02*
X40330500Y-104369500D01*
X40330500Y-106069500D02*
X41330500Y-106069500D01*
X29372000Y-108340000D02*
X30572000Y-108340000D01*
X30572000Y-110100000D02*
X29372000Y-110100000D01*
X29753000Y-105546000D02*
X30953000Y-105546000D01*
X30953000Y-107306000D02*
X29753000Y-107306000D01*
X29753000Y-110880000D02*
X30953000Y-110880000D01*
X30953000Y-112640000D02*
X29753000Y-112640000D01*
X44441000Y-109636000D02*
X44441000Y-110836000D01*
X42681000Y-110836000D02*
X42681000Y-109636000D01*
X42453000Y-112213500D02*
X43653000Y-112213500D01*
X43653000Y-113973500D02*
X42453000Y-113973500D01*
X36801500Y-104339500D02*
X38001500Y-104339500D01*
X38001500Y-106099500D02*
X36801500Y-106099500D01*
X27746000Y-110363000D02*
X27746000Y-105223000D01*
X27746000Y-105223000D02*
X25086000Y-105223000D01*
X25086000Y-105223000D02*
X25086000Y-110363000D01*
X25086000Y-110363000D02*
X27746000Y-110363000D01*
X27746000Y-111633000D02*
X27746000Y-112963000D01*
X27746000Y-112963000D02*
X26416000Y-112963000D01*
X45088500Y-109601000D02*
X45088500Y-114741000D01*
X45088500Y-114741000D02*
X47748500Y-114741000D01*
X47748500Y-114741000D02*
X47748500Y-109601000D01*
X47748500Y-109601000D02*
X45088500Y-109601000D01*
X45088500Y-108331000D02*
X45088500Y-107001000D01*
X45088500Y-107001000D02*
X46418500Y-107001000D01*
X45025000Y-106997500D02*
X45025000Y-107057500D01*
X45025000Y-107057500D02*
X47685000Y-107057500D01*
X47685000Y-107057500D02*
X47685000Y-106997500D01*
X47685000Y-106997500D02*
X45025000Y-106997500D01*
X45025000Y-105727500D02*
X45025000Y-104397500D01*
X45025000Y-104397500D02*
X46355000Y-104397500D01*
X68124000Y-110074000D02*
X69924000Y-110074000D01*
X69924000Y-106854000D02*
X67474000Y-106854000D01*
X60144000Y-113064000D02*
X60144000Y-111864000D01*
X61904000Y-111864000D02*
X61904000Y-113064000D01*
X60424000Y-107584000D02*
X61624000Y-107584000D01*
X61624000Y-109344000D02*
X60424000Y-109344000D01*
X64144000Y-108064000D02*
X64144000Y-106864000D01*
X65904000Y-106864000D02*
X65904000Y-108064000D01*
X74374000Y-109464000D02*
X74374000Y-108464000D01*
X72674000Y-108464000D02*
X72674000Y-109464000D01*
X68024000Y-112894000D02*
X70024000Y-112894000D01*
X70024000Y-115034000D02*
X68024000Y-115034000D01*
X52574000Y-116014000D02*
X58524000Y-116014000D01*
X58524000Y-116014000D02*
X58524000Y-103414000D01*
X58524000Y-103414000D02*
X52574000Y-103414000D01*
X52574000Y-103414000D02*
X52574000Y-116014000D01*
X52574000Y-112714000D02*
X53324000Y-112714000D01*
X53324000Y-112714000D02*
X53324000Y-106714000D01*
X53324000Y-106714000D02*
X52574000Y-106714000D01*
X52574000Y-106714000D02*
X52574000Y-112714000D01*
X52574000Y-116014000D02*
X53324000Y-116014000D01*
X53324000Y-116014000D02*
X53324000Y-114214000D01*
X53324000Y-114214000D02*
X52574000Y-114214000D01*
X52574000Y-114214000D02*
X52574000Y-116014000D01*
X52574000Y-105214000D02*
X53324000Y-105214000D01*
X53324000Y-105214000D02*
X53324000Y-103414000D01*
X53324000Y-103414000D02*
X52574000Y-103414000D01*
X52574000Y-103414000D02*
X52574000Y-105214000D01*
X54824000Y-116014000D02*
X54824000Y-115264000D01*
X54824000Y-115264000D02*
X57774000Y-115264000D01*
X57774000Y-115264000D02*
X57774000Y-109714000D01*
X54824000Y-103414000D02*
X54824000Y-104164000D01*
X54824000Y-104164000D02*
X57774000Y-104164000D01*
X57774000Y-104164000D02*
X57774000Y-109714000D01*
X52274000Y-113814000D02*
X52274000Y-116314000D01*
X52274000Y-116314000D02*
X54774000Y-116314000D01*
X81474000Y-105914000D02*
X75524000Y-105914000D01*
X75524000Y-105914000D02*
X75524000Y-116014000D01*
X75524000Y-116014000D02*
X81474000Y-116014000D01*
X81474000Y-116014000D02*
X81474000Y-105914000D01*
X81474000Y-109214000D02*
X80724000Y-109214000D01*
X80724000Y-109214000D02*
X80724000Y-112714000D01*
X80724000Y-112714000D02*
X81474000Y-112714000D01*
X81474000Y-112714000D02*
X81474000Y-109214000D01*
X81474000Y-105914000D02*
X80724000Y-105914000D01*
X80724000Y-105914000D02*
X80724000Y-107714000D01*
X80724000Y-107714000D02*
X81474000Y-107714000D01*
X81474000Y-107714000D02*
X81474000Y-105914000D01*
X81474000Y-114214000D02*
X80724000Y-114214000D01*
X80724000Y-114214000D02*
X80724000Y-116014000D01*
X80724000Y-116014000D02*
X81474000Y-116014000D01*
X81474000Y-116014000D02*
X81474000Y-114214000D01*
X79224000Y-105914000D02*
X79224000Y-106664000D01*
X79224000Y-106664000D02*
X76274000Y-106664000D01*
X76274000Y-106664000D02*
X76274000Y-110964000D01*
X79224000Y-116014000D02*
X79224000Y-115264000D01*
X79224000Y-115264000D02*
X76274000Y-115264000D01*
X76274000Y-115264000D02*
X76274000Y-110964000D01*
X81774000Y-108114000D02*
X81774000Y-105614000D01*
X81774000Y-105614000D02*
X79274000Y-105614000D01*
X93422000Y-31866000D02*
X93422000Y-30866000D01*
X91722000Y-30866000D02*
X91722000Y-31866000D01*
X75572000Y-59716000D02*
X76572000Y-59716000D01*
X76572000Y-58016000D02*
X75572000Y-58016000D01*
X95922000Y-27366000D02*
X95922000Y-26366000D01*
X94222000Y-26366000D02*
X94222000Y-27366000D01*
X95922000Y-61866000D02*
X95922000Y-60866000D01*
X94222000Y-60866000D02*
X94222000Y-61866000D01*
X75572000Y-55716000D02*
X76572000Y-55716000D01*
X76572000Y-54016000D02*
X75572000Y-54016000D01*
X93422000Y-66366000D02*
X93422000Y-65366000D01*
X91722000Y-65366000D02*
X91722000Y-66366000D01*
X75462000Y-61966000D02*
X75462000Y-63766000D01*
X78682000Y-63766000D02*
X78682000Y-61316000D01*
D16*
X88695607Y-25266000D02*
G75*
G03X88695607Y-25266000I-223607J0D01*
G01*
X88072000Y-24866000D02*
X90072000Y-24866000D01*
X90072000Y-24866000D02*
X90072000Y-28866000D01*
X90072000Y-28866000D02*
X88072000Y-28866000D01*
X88072000Y-28866000D02*
X88072000Y-24866000D01*
X88695607Y-59766000D02*
G75*
G03X88695607Y-59766000I-223607J0D01*
G01*
X88072000Y-59366000D02*
X90072000Y-59366000D01*
X90072000Y-59366000D02*
X90072000Y-63366000D01*
X90072000Y-63366000D02*
X88072000Y-63366000D01*
X88072000Y-63366000D02*
X88072000Y-59366000D01*
D15*
X73522000Y-35816000D02*
X67572000Y-35816000D01*
X67572000Y-35816000D02*
X67572000Y-50916000D01*
X67572000Y-50916000D02*
X73522000Y-50916000D01*
X73522000Y-50916000D02*
X73522000Y-35816000D01*
X73522000Y-39116000D02*
X72772000Y-39116000D01*
X72772000Y-39116000D02*
X72772000Y-47616000D01*
X72772000Y-47616000D02*
X73522000Y-47616000D01*
X73522000Y-47616000D02*
X73522000Y-39116000D01*
X73522000Y-35816000D02*
X72772000Y-35816000D01*
X72772000Y-35816000D02*
X72772000Y-37616000D01*
X72772000Y-37616000D02*
X73522000Y-37616000D01*
X73522000Y-37616000D02*
X73522000Y-35816000D01*
X73522000Y-49116000D02*
X72772000Y-49116000D01*
X72772000Y-49116000D02*
X72772000Y-50916000D01*
X72772000Y-50916000D02*
X73522000Y-50916000D01*
X73522000Y-50916000D02*
X73522000Y-49116000D01*
X71272000Y-35816000D02*
X71272000Y-36566000D01*
X71272000Y-36566000D02*
X68322000Y-36566000D01*
X68322000Y-36566000D02*
X68322000Y-43366000D01*
X71272000Y-50916000D02*
X71272000Y-50166000D01*
X71272000Y-50166000D02*
X68322000Y-50166000D01*
X68322000Y-50166000D02*
X68322000Y-43366000D01*
X73822000Y-38016000D02*
X73822000Y-35516000D01*
X73822000Y-35516000D02*
X71322000Y-35516000D01*
X97742000Y-37136000D02*
X97742000Y-42276000D01*
X97742000Y-42276000D02*
X100402000Y-42276000D01*
X100402000Y-42276000D02*
X100402000Y-37136000D01*
X100402000Y-37136000D02*
X97742000Y-37136000D01*
X97742000Y-35866000D02*
X97742000Y-34536000D01*
X97742000Y-34536000D02*
X99072000Y-34536000D01*
X101742000Y-37136000D02*
X101742000Y-42276000D01*
X101742000Y-42276000D02*
X104402000Y-42276000D01*
X104402000Y-42276000D02*
X104402000Y-37136000D01*
X104402000Y-37136000D02*
X101742000Y-37136000D01*
X101742000Y-35866000D02*
X101742000Y-34536000D01*
X101742000Y-34536000D02*
X103072000Y-34536000D01*
X82242000Y-37136000D02*
X82242000Y-42276000D01*
X82242000Y-42276000D02*
X84902000Y-42276000D01*
X84902000Y-42276000D02*
X84902000Y-37136000D01*
X84902000Y-37136000D02*
X82242000Y-37136000D01*
X82242000Y-35866000D02*
X82242000Y-34536000D01*
X82242000Y-34536000D02*
X83572000Y-34536000D01*
X86242000Y-37136000D02*
X86242000Y-42276000D01*
X86242000Y-42276000D02*
X88902000Y-42276000D01*
X88902000Y-42276000D02*
X88902000Y-37136000D01*
X88902000Y-37136000D02*
X86242000Y-37136000D01*
X86242000Y-35866000D02*
X86242000Y-34536000D01*
X86242000Y-34536000D02*
X87572000Y-34536000D01*
X97742000Y-47136000D02*
X97742000Y-52276000D01*
X97742000Y-52276000D02*
X100402000Y-52276000D01*
X100402000Y-52276000D02*
X100402000Y-47136000D01*
X100402000Y-47136000D02*
X97742000Y-47136000D01*
X97742000Y-45866000D02*
X97742000Y-44536000D01*
X97742000Y-44536000D02*
X99072000Y-44536000D01*
X101742000Y-47136000D02*
X101742000Y-52276000D01*
X101742000Y-52276000D02*
X104402000Y-52276000D01*
X104402000Y-52276000D02*
X104402000Y-47136000D01*
X104402000Y-47136000D02*
X101742000Y-47136000D01*
X101742000Y-45866000D02*
X101742000Y-44536000D01*
X101742000Y-44536000D02*
X103072000Y-44536000D01*
X82242000Y-47136000D02*
X82242000Y-52276000D01*
X82242000Y-52276000D02*
X84902000Y-52276000D01*
X84902000Y-52276000D02*
X84902000Y-47136000D01*
X84902000Y-47136000D02*
X82242000Y-47136000D01*
X82242000Y-45866000D02*
X82242000Y-44536000D01*
X82242000Y-44536000D02*
X83572000Y-44536000D01*
X86242000Y-47136000D02*
X86242000Y-52276000D01*
X86242000Y-52276000D02*
X88902000Y-52276000D01*
X88902000Y-52276000D02*
X88902000Y-47136000D01*
X88902000Y-47136000D02*
X86242000Y-47136000D01*
X86242000Y-45866000D02*
X86242000Y-44536000D01*
X86242000Y-44536000D02*
X87572000Y-44536000D01*
X72902000Y-65596000D02*
X72902000Y-60456000D01*
X72902000Y-60456000D02*
X70242000Y-60456000D01*
X70242000Y-60456000D02*
X70242000Y-65596000D01*
X70242000Y-65596000D02*
X72902000Y-65596000D01*
X72902000Y-66866000D02*
X72902000Y-68196000D01*
X72902000Y-68196000D02*
X71572000Y-68196000D01*
X114022000Y-22816000D02*
X108072000Y-22816000D01*
X108072000Y-22816000D02*
X108072000Y-30416000D01*
X108072000Y-30416000D02*
X114022000Y-30416000D01*
X114022000Y-30416000D02*
X114022000Y-22816000D01*
X114022000Y-26116000D02*
X113272000Y-26116000D01*
X113272000Y-26116000D02*
X113272000Y-27116000D01*
X113272000Y-27116000D02*
X114022000Y-27116000D01*
X114022000Y-27116000D02*
X114022000Y-26116000D01*
X114022000Y-22816000D02*
X113272000Y-22816000D01*
X113272000Y-22816000D02*
X113272000Y-24616000D01*
X113272000Y-24616000D02*
X114022000Y-24616000D01*
X114022000Y-24616000D02*
X114022000Y-22816000D01*
X114022000Y-28616000D02*
X113272000Y-28616000D01*
X113272000Y-28616000D02*
X113272000Y-30416000D01*
X113272000Y-30416000D02*
X114022000Y-30416000D01*
X114022000Y-30416000D02*
X114022000Y-28616000D01*
X111772000Y-22816000D02*
X111772000Y-23566000D01*
X111772000Y-23566000D02*
X108822000Y-23566000D01*
X108822000Y-23566000D02*
X108822000Y-26616000D01*
X111772000Y-30416000D02*
X111772000Y-29666000D01*
X111772000Y-29666000D02*
X108822000Y-29666000D01*
X108822000Y-29666000D02*
X108822000Y-26616000D01*
X114322000Y-25016000D02*
X114322000Y-22516000D01*
X114322000Y-22516000D02*
X111822000Y-22516000D01*
X114022000Y-57316000D02*
X108072000Y-57316000D01*
X108072000Y-57316000D02*
X108072000Y-64916000D01*
X108072000Y-64916000D02*
X114022000Y-64916000D01*
X114022000Y-64916000D02*
X114022000Y-57316000D01*
X114022000Y-60616000D02*
X113272000Y-60616000D01*
X113272000Y-60616000D02*
X113272000Y-61616000D01*
X113272000Y-61616000D02*
X114022000Y-61616000D01*
X114022000Y-61616000D02*
X114022000Y-60616000D01*
X114022000Y-57316000D02*
X113272000Y-57316000D01*
X113272000Y-57316000D02*
X113272000Y-59116000D01*
X113272000Y-59116000D02*
X114022000Y-59116000D01*
X114022000Y-59116000D02*
X114022000Y-57316000D01*
X114022000Y-63116000D02*
X113272000Y-63116000D01*
X113272000Y-63116000D02*
X113272000Y-64916000D01*
X113272000Y-64916000D02*
X114022000Y-64916000D01*
X114022000Y-64916000D02*
X114022000Y-63116000D01*
X111772000Y-57316000D02*
X111772000Y-58066000D01*
X111772000Y-58066000D02*
X108822000Y-58066000D01*
X108822000Y-58066000D02*
X108822000Y-61116000D01*
X111772000Y-64916000D02*
X111772000Y-64166000D01*
X111772000Y-64166000D02*
X108822000Y-64166000D01*
X108822000Y-64166000D02*
X108822000Y-61116000D01*
X114322000Y-59516000D02*
X114322000Y-57016000D01*
X114322000Y-57016000D02*
X111822000Y-57016000D01*
X98972000Y-23986000D02*
X100172000Y-23986000D01*
X100172000Y-25746000D02*
X98972000Y-25746000D01*
X98972000Y-27986000D02*
X100172000Y-27986000D01*
X100172000Y-29746000D02*
X98972000Y-29746000D01*
X98972000Y-58486000D02*
X100172000Y-58486000D01*
X100172000Y-60246000D02*
X98972000Y-60246000D01*
X98972000Y-62486000D02*
X100172000Y-62486000D01*
X100172000Y-64246000D02*
X98972000Y-64246000D01*
X80952000Y-56266000D02*
X80952000Y-57466000D01*
X79192000Y-57466000D02*
X79192000Y-56266000D01*
X103502000Y-27866000D02*
X103502000Y-25866000D01*
X105642000Y-25866000D02*
X105642000Y-27866000D01*
X103502000Y-62366000D02*
X103502000Y-60366000D01*
X105642000Y-60366000D02*
X105642000Y-62366000D01*
D16*
X100391000Y-93620000D02*
X104841000Y-93620000D01*
X98866000Y-86720000D02*
X104841000Y-86720000D01*
D15*
X104808400Y-86600400D02*
X105808400Y-86600400D01*
X105808400Y-84900400D02*
X104808400Y-84900400D01*
X110882800Y-89044400D02*
X110882800Y-88044400D01*
X109182800Y-88044400D02*
X109182800Y-89044400D01*
X94703600Y-80035200D02*
X94703600Y-88435200D01*
X89903600Y-80035200D02*
X89903600Y-88435200D01*
X94703600Y-80035200D02*
X89903600Y-80035200D01*
X89618000Y-88122000D02*
X89618000Y-86122000D01*
X86658000Y-86122000D02*
X86658000Y-88122000D01*
X109448800Y-99428000D02*
X101048800Y-99428000D01*
X109448800Y-94628000D02*
X101048800Y-94628000D01*
X109448800Y-99428000D02*
X109448800Y-94628000D01*
X110176000Y-95123000D02*
X110176000Y-97723000D01*
X110176000Y-97723000D02*
X112836000Y-97723000D01*
X112836000Y-97723000D02*
X112836000Y-95123000D01*
X112836000Y-95123000D02*
X110176000Y-95123000D01*
X110176000Y-93853000D02*
X110176000Y-92523000D01*
X110176000Y-92523000D02*
X111506000Y-92523000D01*
X85505600Y-87274400D02*
X85505600Y-84674400D01*
X85505600Y-84674400D02*
X82845600Y-84674400D01*
X82845600Y-84674400D02*
X82845600Y-87274400D01*
X82845600Y-87274400D02*
X85505600Y-87274400D01*
X85505600Y-88544400D02*
X85505600Y-89874400D01*
X85505600Y-89874400D02*
X84175600Y-89874400D01*
X83600400Y-99202800D02*
X83600400Y-98002800D01*
X85360400Y-98002800D02*
X85360400Y-99202800D01*
X93336000Y-90840000D02*
X93336000Y-92040000D01*
X91576000Y-92040000D02*
X91576000Y-90840000D01*
X87613600Y-98999600D02*
X87613600Y-97799600D01*
X89373600Y-97799600D02*
X89373600Y-98999600D01*
X83600400Y-96053200D02*
X83600400Y-94853200D01*
X85360400Y-94853200D02*
X85360400Y-96053200D01*
X96300400Y-97272400D02*
X96300400Y-96072400D01*
X98060400Y-96072400D02*
X98060400Y-97272400D01*
X87613600Y-95291200D02*
X87613600Y-94091200D01*
X89373600Y-94091200D02*
X89373600Y-95291200D01*
X96062000Y-74678000D02*
X96062000Y-71678000D01*
X96062000Y-71678000D02*
X108662000Y-71678000D01*
X108662000Y-71678000D02*
X108662000Y-74678000D01*
X108662000Y-81278000D02*
X108662000Y-84278000D01*
X108662000Y-84278000D02*
X96062000Y-84278000D01*
X96062000Y-84278000D02*
X96062000Y-81278000D01*
X110752000Y-92036000D02*
X111752000Y-92036000D01*
X111752000Y-90336000D02*
X110752000Y-90336000D01*
X91606000Y-94242000D02*
X91606000Y-95242000D01*
X93306000Y-95242000D02*
X93306000Y-94242000D01*
X93306000Y-98798000D02*
X93306000Y-97798000D01*
X91606000Y-97798000D02*
X91606000Y-98798000D01*
X85381200Y-92651200D02*
X85381200Y-91651200D01*
X83681200Y-91651200D02*
X83681200Y-92651200D01*
X82871000Y-81915000D02*
X82871000Y-81975000D01*
X82871000Y-81975000D02*
X85531000Y-81975000D01*
X85531000Y-81975000D02*
X85531000Y-81915000D01*
X85531000Y-81915000D02*
X82871000Y-81915000D01*
X82871000Y-80645000D02*
X82871000Y-79315000D01*
X82871000Y-79315000D02*
X84201000Y-79315000D01*
D16*
X37566952Y-93922857D02*
X37681238Y-93960952D01*
X37719333Y-93999048D01*
X37757428Y-94075238D01*
X37757428Y-94189524D01*
X37719333Y-94265714D01*
X37681238Y-94303810D01*
X37605047Y-94341905D01*
X37300285Y-94341905D01*
X37300285Y-93541905D01*
X37566952Y-93541905D01*
X37643142Y-93580000D01*
X37681238Y-93618095D01*
X37719333Y-93694286D01*
X37719333Y-93770476D01*
X37681238Y-93846667D01*
X37643142Y-93884762D01*
X37566952Y-93922857D01*
X37300285Y-93922857D01*
X38443142Y-94341905D02*
X38443142Y-93922857D01*
X38405047Y-93846667D01*
X38328857Y-93808571D01*
X38176476Y-93808571D01*
X38100285Y-93846667D01*
X38443142Y-94303810D02*
X38366952Y-94341905D01*
X38176476Y-94341905D01*
X38100285Y-94303810D01*
X38062190Y-94227619D01*
X38062190Y-94151429D01*
X38100285Y-94075238D01*
X38176476Y-94037143D01*
X38366952Y-94037143D01*
X38443142Y-93999048D01*
X38709809Y-93808571D02*
X39014571Y-93808571D01*
X38824095Y-93541905D02*
X38824095Y-94227619D01*
X38862190Y-94303810D01*
X38938381Y-94341905D01*
X39014571Y-94341905D01*
X39281238Y-94037143D02*
X39890762Y-94037143D01*
X39586000Y-94341905D02*
X39586000Y-93732381D01*
X41147905Y-93922857D02*
X41262191Y-93960952D01*
X41300286Y-93999048D01*
X41338381Y-94075238D01*
X41338381Y-94189524D01*
X41300286Y-94265714D01*
X41262191Y-94303810D01*
X41186000Y-94341905D01*
X40881238Y-94341905D01*
X40881238Y-93541905D01*
X41147905Y-93541905D01*
X41224095Y-93580000D01*
X41262191Y-93618095D01*
X41300286Y-93694286D01*
X41300286Y-93770476D01*
X41262191Y-93846667D01*
X41224095Y-93884762D01*
X41147905Y-93922857D01*
X40881238Y-93922857D01*
X42024095Y-94341905D02*
X42024095Y-93922857D01*
X41986000Y-93846667D01*
X41909810Y-93808571D01*
X41757429Y-93808571D01*
X41681238Y-93846667D01*
X42024095Y-94303810D02*
X41947905Y-94341905D01*
X41757429Y-94341905D01*
X41681238Y-94303810D01*
X41643143Y-94227619D01*
X41643143Y-94151429D01*
X41681238Y-94075238D01*
X41757429Y-94037143D01*
X41947905Y-94037143D01*
X42024095Y-93999048D01*
X42290762Y-93808571D02*
X42595524Y-93808571D01*
X42405048Y-93541905D02*
X42405048Y-94227619D01*
X42443143Y-94303810D01*
X42519334Y-94341905D01*
X42595524Y-94341905D01*
X42862191Y-94037143D02*
X43471715Y-94037143D01*
X28857714Y-97496286D02*
X28829143Y-97524857D01*
X28743429Y-97553429D01*
X28686286Y-97553429D01*
X28600571Y-97524857D01*
X28543429Y-97467714D01*
X28514857Y-97410571D01*
X28486286Y-97296286D01*
X28486286Y-97210571D01*
X28514857Y-97096286D01*
X28543429Y-97039143D01*
X28600571Y-96982000D01*
X28686286Y-96953429D01*
X28743429Y-96953429D01*
X28829143Y-96982000D01*
X28857714Y-97010571D01*
X29314857Y-97239143D02*
X29400571Y-97267714D01*
X29429143Y-97296286D01*
X29457714Y-97353429D01*
X29457714Y-97439143D01*
X29429143Y-97496286D01*
X29400571Y-97524857D01*
X29343429Y-97553429D01*
X29114857Y-97553429D01*
X29114857Y-96953429D01*
X29314857Y-96953429D01*
X29372000Y-96982000D01*
X29400571Y-97010571D01*
X29429143Y-97067714D01*
X29429143Y-97124857D01*
X29400571Y-97182000D01*
X29372000Y-97210571D01*
X29314857Y-97239143D01*
X29114857Y-97239143D01*
X29686286Y-97382000D02*
X29972000Y-97382000D01*
X29629143Y-97553429D02*
X29829143Y-96953429D01*
X30029143Y-97553429D01*
X30143429Y-96953429D02*
X30486286Y-96953429D01*
X30314857Y-97553429D02*
X30314857Y-96953429D01*
X30600572Y-96953429D02*
X30943429Y-96953429D01*
X30772000Y-97553429D02*
X30772000Y-96953429D01*
X31457715Y-97553429D02*
X31114858Y-97553429D01*
X31286286Y-97553429D02*
X31286286Y-96953429D01*
X31229143Y-97039143D01*
X31172001Y-97096286D01*
X31114858Y-97124857D01*
X26808286Y-95464286D02*
X26779715Y-95492857D01*
X26694001Y-95521429D01*
X26636858Y-95521429D01*
X26551143Y-95492857D01*
X26494001Y-95435714D01*
X26465429Y-95378571D01*
X26436858Y-95264286D01*
X26436858Y-95178571D01*
X26465429Y-95064286D01*
X26494001Y-95007143D01*
X26551143Y-94950000D01*
X26636858Y-94921429D01*
X26694001Y-94921429D01*
X26779715Y-94950000D01*
X26808286Y-94978571D01*
X26979715Y-94921429D02*
X27322572Y-94921429D01*
X27151143Y-95521429D02*
X27151143Y-94921429D01*
X27522572Y-95521429D02*
X27522572Y-94921429D01*
X27808286Y-95521429D02*
X27808286Y-94921429D01*
X28008286Y-95350000D01*
X28208286Y-94921429D01*
X28208286Y-95521429D01*
X28494000Y-95207143D02*
X28694000Y-95207143D01*
X28779714Y-95521429D02*
X28494000Y-95521429D01*
X28494000Y-94921429D01*
X28779714Y-94921429D01*
X29379714Y-95521429D02*
X29179714Y-95235714D01*
X29036857Y-95521429D02*
X29036857Y-94921429D01*
X29265429Y-94921429D01*
X29322571Y-94950000D01*
X29351143Y-94978571D01*
X29379714Y-95035714D01*
X29379714Y-95121429D01*
X29351143Y-95178571D01*
X29322571Y-95207143D01*
X29265429Y-95235714D01*
X29036857Y-95235714D01*
X29951143Y-95521429D02*
X29608286Y-95521429D01*
X29779714Y-95521429D02*
X29779714Y-94921429D01*
X29722571Y-95007143D01*
X29665429Y-95064286D01*
X29608286Y-95092857D01*
X33078857Y-87590286D02*
X33050286Y-87618857D01*
X32964572Y-87647429D01*
X32907429Y-87647429D01*
X32821714Y-87618857D01*
X32764572Y-87561714D01*
X32736000Y-87504571D01*
X32707429Y-87390286D01*
X32707429Y-87304571D01*
X32736000Y-87190286D01*
X32764572Y-87133143D01*
X32821714Y-87076000D01*
X32907429Y-87047429D01*
X32964572Y-87047429D01*
X33050286Y-87076000D01*
X33078857Y-87104571D01*
X33250286Y-87047429D02*
X33450286Y-87647429D01*
X33650286Y-87047429D01*
X34193143Y-87590286D02*
X34164572Y-87618857D01*
X34078858Y-87647429D01*
X34021715Y-87647429D01*
X33936000Y-87618857D01*
X33878858Y-87561714D01*
X33850286Y-87504571D01*
X33821715Y-87390286D01*
X33821715Y-87304571D01*
X33850286Y-87190286D01*
X33878858Y-87133143D01*
X33936000Y-87076000D01*
X34021715Y-87047429D01*
X34078858Y-87047429D01*
X34164572Y-87076000D01*
X34193143Y-87104571D01*
X34793143Y-87590286D02*
X34764572Y-87618857D01*
X34678858Y-87647429D01*
X34621715Y-87647429D01*
X34536000Y-87618857D01*
X34478858Y-87561714D01*
X34450286Y-87504571D01*
X34421715Y-87390286D01*
X34421715Y-87304571D01*
X34450286Y-87190286D01*
X34478858Y-87133143D01*
X34536000Y-87076000D01*
X34621715Y-87047429D01*
X34678858Y-87047429D01*
X34764572Y-87076000D01*
X34793143Y-87104571D01*
X35364572Y-87647429D02*
X35021715Y-87647429D01*
X35193143Y-87647429D02*
X35193143Y-87047429D01*
X35136000Y-87133143D01*
X35078858Y-87190286D01*
X35021715Y-87218857D01*
X28905334Y-86676667D02*
X28672000Y-86343333D01*
X28505334Y-86676667D02*
X28505334Y-85976667D01*
X28772000Y-85976667D01*
X28838667Y-86010000D01*
X28872000Y-86043333D01*
X28905334Y-86110000D01*
X28905334Y-86210000D01*
X28872000Y-86276667D01*
X28838667Y-86310000D01*
X28772000Y-86343333D01*
X28505334Y-86343333D01*
X29538667Y-86676667D02*
X29205334Y-86676667D01*
X29205334Y-85976667D01*
X29772001Y-86310000D02*
X30005334Y-86310000D01*
X30105334Y-86676667D02*
X29772001Y-86676667D01*
X29772001Y-85976667D01*
X30105334Y-85976667D01*
X30405334Y-86676667D02*
X30405334Y-85976667D01*
X30572000Y-85976667D01*
X30672000Y-86010000D01*
X30738667Y-86076667D01*
X30772000Y-86143333D01*
X30805334Y-86276667D01*
X30805334Y-86376667D01*
X30772000Y-86510000D01*
X30738667Y-86576667D01*
X30672000Y-86643333D01*
X30572000Y-86676667D01*
X30405334Y-86676667D01*
X31472000Y-86676667D02*
X31072000Y-86676667D01*
X31272000Y-86676667D02*
X31272000Y-85976667D01*
X31205334Y-86076667D01*
X31138667Y-86143333D01*
X31072000Y-86176667D01*
X32467714Y-92727429D02*
X32267714Y-92441714D01*
X32124857Y-92727429D02*
X32124857Y-92127429D01*
X32353429Y-92127429D01*
X32410571Y-92156000D01*
X32439143Y-92184571D01*
X32467714Y-92241714D01*
X32467714Y-92327429D01*
X32439143Y-92384571D01*
X32410571Y-92413143D01*
X32353429Y-92441714D01*
X32124857Y-92441714D01*
X32724857Y-92727429D02*
X32724857Y-92127429D01*
X32953429Y-92127429D01*
X33010571Y-92156000D01*
X33039143Y-92184571D01*
X33067714Y-92241714D01*
X33067714Y-92327429D01*
X33039143Y-92384571D01*
X33010571Y-92413143D01*
X32953429Y-92441714D01*
X32724857Y-92441714D01*
X33667714Y-92727429D02*
X33467714Y-92441714D01*
X33324857Y-92727429D02*
X33324857Y-92127429D01*
X33553429Y-92127429D01*
X33610571Y-92156000D01*
X33639143Y-92184571D01*
X33667714Y-92241714D01*
X33667714Y-92327429D01*
X33639143Y-92384571D01*
X33610571Y-92413143D01*
X33553429Y-92441714D01*
X33324857Y-92441714D01*
X34039143Y-92127429D02*
X34153429Y-92127429D01*
X34210571Y-92156000D01*
X34267714Y-92213143D01*
X34296286Y-92327429D01*
X34296286Y-92527429D01*
X34267714Y-92641714D01*
X34210571Y-92698857D01*
X34153429Y-92727429D01*
X34039143Y-92727429D01*
X33982000Y-92698857D01*
X33924857Y-92641714D01*
X33896286Y-92527429D01*
X33896286Y-92327429D01*
X33924857Y-92213143D01*
X33982000Y-92156000D01*
X34039143Y-92127429D01*
X34867714Y-92156000D02*
X34810571Y-92127429D01*
X34724857Y-92127429D01*
X34639142Y-92156000D01*
X34582000Y-92213143D01*
X34553428Y-92270286D01*
X34524857Y-92384571D01*
X34524857Y-92470286D01*
X34553428Y-92584571D01*
X34582000Y-92641714D01*
X34639142Y-92698857D01*
X34724857Y-92727429D01*
X34782000Y-92727429D01*
X34867714Y-92698857D01*
X34896285Y-92670286D01*
X34896285Y-92470286D01*
X34782000Y-92470286D01*
X35467714Y-92727429D02*
X35124857Y-92727429D01*
X35296285Y-92727429D02*
X35296285Y-92127429D01*
X35239142Y-92213143D01*
X35182000Y-92270286D01*
X35124857Y-92298857D01*
D14*
X40890191Y-87602190D02*
X40723524Y-87364095D01*
X40604477Y-87602190D02*
X40604477Y-87102190D01*
X40794953Y-87102190D01*
X40842572Y-87126000D01*
X40866381Y-87149810D01*
X40890191Y-87197429D01*
X40890191Y-87268857D01*
X40866381Y-87316476D01*
X40842572Y-87340286D01*
X40794953Y-87364095D01*
X40604477Y-87364095D01*
X41080667Y-87578381D02*
X41152096Y-87602190D01*
X41271143Y-87602190D01*
X41318762Y-87578381D01*
X41342572Y-87554571D01*
X41366381Y-87506952D01*
X41366381Y-87459333D01*
X41342572Y-87411714D01*
X41318762Y-87387905D01*
X41271143Y-87364095D01*
X41175905Y-87340286D01*
X41128286Y-87316476D01*
X41104477Y-87292667D01*
X41080667Y-87245048D01*
X41080667Y-87197429D01*
X41104477Y-87149810D01*
X41128286Y-87126000D01*
X41175905Y-87102190D01*
X41294953Y-87102190D01*
X41366381Y-87126000D01*
X41580667Y-87340286D02*
X41747333Y-87340286D01*
X41818762Y-87602190D02*
X41580667Y-87602190D01*
X41580667Y-87102190D01*
X41818762Y-87102190D01*
X42033048Y-87602190D02*
X42033048Y-87102190D01*
X42318762Y-87602190D01*
X42318762Y-87102190D01*
X42533048Y-87578381D02*
X42604477Y-87602190D01*
X42723524Y-87602190D01*
X42771143Y-87578381D01*
X42794953Y-87554571D01*
X42818762Y-87506952D01*
X42818762Y-87459333D01*
X42794953Y-87411714D01*
X42771143Y-87387905D01*
X42723524Y-87364095D01*
X42628286Y-87340286D01*
X42580667Y-87316476D01*
X42556858Y-87292667D01*
X42533048Y-87245048D01*
X42533048Y-87197429D01*
X42556858Y-87149810D01*
X42580667Y-87126000D01*
X42628286Y-87102190D01*
X42747334Y-87102190D01*
X42818762Y-87126000D01*
X43033048Y-87340286D02*
X43199714Y-87340286D01*
X43271143Y-87602190D02*
X43033048Y-87602190D01*
X43033048Y-87102190D01*
X43271143Y-87102190D01*
X43747333Y-87602190D02*
X43461619Y-87602190D01*
X43604476Y-87602190D02*
X43604476Y-87102190D01*
X43556857Y-87173619D01*
X43509238Y-87221238D01*
X43461619Y-87245048D01*
D16*
X27343334Y-79102000D02*
X27267143Y-79063905D01*
X27152858Y-79063905D01*
X27038572Y-79102000D01*
X26962381Y-79178190D01*
X26924286Y-79254381D01*
X26886191Y-79406762D01*
X26886191Y-79521048D01*
X26924286Y-79673429D01*
X26962381Y-79749619D01*
X27038572Y-79825810D01*
X27152858Y-79863905D01*
X27229048Y-79863905D01*
X27343334Y-79825810D01*
X27381429Y-79787714D01*
X27381429Y-79521048D01*
X27229048Y-79521048D01*
X27724286Y-79863905D02*
X27724286Y-79063905D01*
X28181429Y-79863905D01*
X28181429Y-79063905D01*
X28562381Y-79863905D02*
X28562381Y-79063905D01*
X28752857Y-79063905D01*
X28867143Y-79102000D01*
X28943334Y-79178190D01*
X28981429Y-79254381D01*
X29019524Y-79406762D01*
X29019524Y-79521048D01*
X28981429Y-79673429D01*
X28943334Y-79749619D01*
X28867143Y-79825810D01*
X28752857Y-79863905D01*
X28562381Y-79863905D01*
X29857619Y-79063905D02*
X30124286Y-79863905D01*
X30390953Y-79063905D01*
X30657619Y-79863905D02*
X30657619Y-79063905D01*
X31038571Y-79863905D02*
X31038571Y-79063905D01*
X31495714Y-79863905D01*
X31495714Y-79063905D01*
M02*
