M48
INCH,TZ
T1C0.028
T2C0.039
%
G90
G05
T1
X19000Y-48250
X19000Y-49250
X19000Y-50250
X19350Y-31100
X20878Y-29900
X20950Y-29300
X21450Y-39550
X22100Y-49200
X23150Y-41750
X23550Y-41550
X23672Y-49122
X23750Y-38950
X24600Y-43900
X24600Y-48250
X25300Y-49950
X25843Y-15307
X27750Y-33950
X29583Y-18457
X31000Y-27087
X31450Y-47900
X31450Y-48900
X31450Y-49900
X33200Y-39550
X34346Y-27480
X34900Y-41750
X35300Y-41550
X35500Y-38950
X36750Y-19000
X36750Y-20000
X36750Y-21000
X39500Y-33950
X39850Y-19950
X41422Y-19872
X42350Y-14650
X42350Y-19000
X42800Y-32950
X43050Y-20700
X44400Y-43900
X46000Y-27550
X46260Y-26470
X47766Y-33884
X48900Y-30300
X48900Y-30850
X48900Y-31450
X49200Y-18650
X49200Y-19650
X49200Y-20650
X49600Y-30300
X49600Y-30850
X49600Y-31450
X51100Y-32500
X51200Y-29550
X51200Y-31500
X51320Y-28710
X51400Y-30450
X52720Y-26890
X53000Y-43900
T2
X18500Y-45500
X18500Y-46500
X18550Y-26300
X18550Y-27300
X19750Y-39750
X19750Y-40750
X19750Y-41750
X20134Y-15898
X20134Y-16882
X20134Y-19638
X20134Y-20622
X20134Y-21606
X23350Y-26300
X23350Y-27300
X26750Y-40150
X26750Y-41150
X27063Y-25118
X27063Y-26102
X27063Y-27087
X27063Y-28071
X27250Y-49600
X31500Y-39750
X31500Y-40750
X31500Y-41750
X31748Y-20622
X31748Y-21606
X32400Y-44650
X32400Y-45650
X36250Y-16250
X36250Y-17250
X36512Y-26102
X36512Y-27087
X36512Y-28071
X38500Y-40150
X38500Y-41150
X41940Y-29310
X41940Y-30310
X41950Y-27200
X42600Y-45300
X43600Y-45300
X45000Y-20350
X45000Y-45300
X50150Y-15400
X50150Y-16400
X51400Y-45300
X52400Y-45300
X52700Y-32400
X52700Y-33400
T0
M30
