G04 #@! TF.FileFunction,Soldermask,Top*
%FSLAX46Y46*%
G04 Gerber Fmt 4.6, Leading zero omitted, Abs format (unit mm)*
G04 Created by KiCad (PCBNEW 4.0.5) date 07/05/17 15:18:17*
%MOMM*%
%LPD*%
G01*
G04 APERTURE LIST*
%ADD10C,0.100000*%
%ADD11R,2.100000X2.100000*%
%ADD12O,2.100000X2.100000*%
%ADD13R,3.300000X5.800000*%
%ADD14R,3.100000X4.150000*%
%ADD15R,2.900000X1.400000*%
%ADD16R,1.050000X1.960000*%
%ADD17R,1.600000X1.300000*%
%ADD18R,1.400000X2.900000*%
%ADD19R,2.200000X2.900000*%
%ADD20R,1.500000X0.800000*%
%ADD21R,1.100000X1.700000*%
%ADD22C,1.840000*%
%ADD23R,1.700000X1.100000*%
%ADD24R,1.200000X1.300000*%
%ADD25R,2.000000X3.900000*%
%ADD26R,1.650000X1.400000*%
%ADD27R,1.400000X1.650000*%
%ADD28R,1.650000X1.900000*%
%ADD29R,2.150000X2.150000*%
%ADD30C,2.150000*%
%ADD31R,1.700000X1.900000*%
%ADD32R,1.950000X1.000000*%
%ADD33R,2.400000X4.200000*%
%ADD34R,2.400000X1.900000*%
%ADD35R,1.300000X1.200000*%
%ADD36R,0.820000X1.290000*%
%ADD37R,1.600000X1.600000*%
%ADD38R,2.200000X2.200000*%
%ADD39R,0.700000X1.300000*%
%ADD40R,1.460000X1.050000*%
%ADD41R,1.900000X1.700000*%
%ADD42R,2.400000X2.100000*%
%ADD43R,1.850000X0.850000*%
%ADD44R,3.100000X2.950000*%
%ADD45R,2.950000X3.100000*%
%ADD46R,3.900000X2.200000*%
%ADD47R,3.500000X8.100000*%
%ADD48R,3.900000X2.000000*%
G04 APERTURE END LIST*
D10*
D11*
X80010000Y-106045000D03*
D12*
X80010000Y-103505000D03*
X80010000Y-100965000D03*
D13*
X81664000Y-90297000D03*
X91564000Y-90297000D03*
D14*
X97536000Y-93818000D03*
X97536000Y-86268000D03*
D15*
X93472000Y-100941000D03*
X93472000Y-97941000D03*
D16*
X89596000Y-101139000D03*
X88646000Y-101139000D03*
X87696000Y-101139000D03*
X87696000Y-103839000D03*
X89596000Y-103839000D03*
X88646000Y-103839000D03*
D17*
X91864000Y-105537000D03*
X94064000Y-105537000D03*
X94064000Y-103759000D03*
X91864000Y-103759000D03*
D15*
X84074000Y-103529000D03*
X84074000Y-106529000D03*
D18*
X82828000Y-98679000D03*
X85828000Y-98679000D03*
D11*
X97790000Y-101981000D03*
D12*
X97790000Y-104521000D03*
D19*
X105156000Y-41815000D03*
X105156000Y-45815000D03*
D11*
X114300000Y-51689000D03*
D20*
X107560000Y-51775000D03*
X107560000Y-51125000D03*
X107560000Y-50475000D03*
X107560000Y-49825000D03*
X103260000Y-49825000D03*
X103260000Y-50475000D03*
X103260000Y-51125000D03*
X103260000Y-51775000D03*
D21*
X120457000Y-53086000D03*
X118557000Y-53086000D03*
D22*
X93345000Y-48260000D03*
X93345000Y-50800000D03*
X93345000Y-53340000D03*
X124968000Y-47371000D03*
X124968000Y-49911000D03*
X124968000Y-52451000D03*
D23*
X101473000Y-46929000D03*
X101473000Y-48829000D03*
D24*
X106106000Y-37227000D03*
X104206000Y-37227000D03*
X105156000Y-39227000D03*
D11*
X127381000Y-41656000D03*
D12*
X127381000Y-39116000D03*
D11*
X92075000Y-43815000D03*
D12*
X92075000Y-41275000D03*
D13*
X109985000Y-43307000D03*
X119885000Y-43307000D03*
D25*
X131318000Y-46195000D03*
X131318000Y-51595000D03*
D26*
X98425000Y-51800000D03*
X98425000Y-49800000D03*
D27*
X118507000Y-51054000D03*
X120507000Y-51054000D03*
D25*
X99060000Y-38321000D03*
X99060000Y-43721000D03*
D28*
X59640000Y-42630000D03*
X59640000Y-40130000D03*
X72640000Y-41630000D03*
X72640000Y-44130000D03*
X59640000Y-53130000D03*
X59640000Y-50630000D03*
D29*
X51140000Y-54880000D03*
D30*
X51140000Y-52380000D03*
X51140000Y-49880000D03*
D29*
X51140000Y-42880000D03*
D30*
X51140000Y-40380000D03*
D29*
X80640000Y-52380000D03*
D30*
X80640000Y-54880000D03*
D31*
X72640000Y-47030000D03*
X72640000Y-49730000D03*
X72640000Y-52030000D03*
X72640000Y-54730000D03*
D32*
X63440000Y-50475000D03*
X63440000Y-51745000D03*
X63440000Y-53015000D03*
X63440000Y-54285000D03*
X68840000Y-54285000D03*
X68840000Y-53015000D03*
X68840000Y-51745000D03*
X68840000Y-50475000D03*
D33*
X69290000Y-41380000D03*
D34*
X62990000Y-41380000D03*
X62990000Y-43680000D03*
X62990000Y-39080000D03*
D25*
X53975000Y-112616000D03*
X53975000Y-118016000D03*
D27*
X73422000Y-125349000D03*
X75422000Y-125349000D03*
D26*
X53340000Y-126095000D03*
X53340000Y-124095000D03*
D25*
X86233000Y-120490000D03*
X86233000Y-125890000D03*
D13*
X64900000Y-117602000D03*
X74800000Y-117602000D03*
D11*
X46990000Y-118110000D03*
D12*
X46990000Y-115570000D03*
D11*
X82296000Y-115951000D03*
D12*
X82296000Y-113411000D03*
D24*
X61021000Y-111522000D03*
X59121000Y-111522000D03*
X60071000Y-113522000D03*
D23*
X56388000Y-121224000D03*
X56388000Y-123124000D03*
D22*
X79883000Y-121666000D03*
X79883000Y-124206000D03*
X79883000Y-126746000D03*
X48260000Y-122555000D03*
X48260000Y-125095000D03*
X48260000Y-127635000D03*
D21*
X75372000Y-127381000D03*
X73472000Y-127381000D03*
D20*
X62475000Y-126070000D03*
X62475000Y-125420000D03*
X62475000Y-124770000D03*
X62475000Y-124120000D03*
X58175000Y-124120000D03*
X58175000Y-124770000D03*
X58175000Y-125420000D03*
X58175000Y-126070000D03*
D11*
X69215000Y-125984000D03*
D19*
X60071000Y-116110000D03*
X60071000Y-120110000D03*
D27*
X50181000Y-79502000D03*
X52181000Y-79502000D03*
D26*
X48133000Y-76946000D03*
X48133000Y-74946000D03*
D35*
X59817000Y-79028000D03*
X59817000Y-76928000D03*
X57785000Y-79028000D03*
X57785000Y-76928000D03*
D11*
X47117000Y-66802000D03*
D12*
X47117000Y-69342000D03*
D36*
X51080000Y-77035000D03*
X51730000Y-77035000D03*
X52380000Y-77035000D03*
X53030000Y-77035000D03*
X53680000Y-77035000D03*
X54330000Y-77035000D03*
X54330000Y-72825000D03*
X53680000Y-72825000D03*
X53030000Y-72825000D03*
X52380000Y-72825000D03*
X51730000Y-72825000D03*
X51080000Y-72825000D03*
D11*
X59309000Y-66802000D03*
D12*
X59309000Y-69342000D03*
D37*
X59817000Y-75014000D03*
X59817000Y-72814000D03*
X57785000Y-75014000D03*
X57785000Y-72814000D03*
D38*
X52213000Y-67802000D03*
D39*
X51308000Y-69702000D03*
X52578000Y-69702000D03*
X53848000Y-69702000D03*
X55118000Y-69702000D03*
X55118000Y-63902000D03*
X53848000Y-63902000D03*
X52578000Y-63902000D03*
X51308000Y-63902000D03*
D38*
X52213000Y-65802000D03*
X54213000Y-67802000D03*
X54213000Y-65802000D03*
D40*
X81640000Y-65350000D03*
X81640000Y-66300000D03*
X81640000Y-67250000D03*
X83840000Y-67250000D03*
X83840000Y-65350000D03*
D31*
X74740000Y-68950000D03*
X74740000Y-71650000D03*
D41*
X76090000Y-66300000D03*
X73390000Y-66300000D03*
D31*
X78740000Y-63950000D03*
X78740000Y-66650000D03*
D28*
X87240000Y-65550000D03*
X87240000Y-68050000D03*
D42*
X84740000Y-71800000D03*
X80740000Y-71800000D03*
D29*
X68740000Y-71300000D03*
D30*
X68740000Y-68800000D03*
X68740000Y-66300000D03*
X68740000Y-63800000D03*
D29*
X92740000Y-66300000D03*
D30*
X92740000Y-68800000D03*
X92740000Y-71300000D03*
D43*
X122018000Y-75688000D03*
X122018000Y-76338000D03*
X122018000Y-76988000D03*
X122018000Y-77638000D03*
X122018000Y-78288000D03*
X122018000Y-78938000D03*
X122018000Y-79588000D03*
X122018000Y-80238000D03*
X122018000Y-80888000D03*
X122018000Y-81538000D03*
X127918000Y-81538000D03*
X127918000Y-80888000D03*
X127918000Y-80238000D03*
X127918000Y-79588000D03*
X127918000Y-78938000D03*
X127918000Y-78288000D03*
X127918000Y-77638000D03*
X127918000Y-76988000D03*
X127918000Y-76338000D03*
X127918000Y-75688000D03*
D27*
X128660400Y-74193400D03*
X126660400Y-74193400D03*
D26*
X132384800Y-75987400D03*
X132384800Y-77987400D03*
D44*
X114655600Y-70053200D03*
X114655600Y-76403200D03*
D15*
X110490000Y-74065000D03*
X110490000Y-77065000D03*
D45*
X130225800Y-85471000D03*
X123875800Y-85471000D03*
D11*
X133858000Y-82296000D03*
D12*
X133858000Y-84836000D03*
D11*
X106527600Y-76987400D03*
D12*
X106527600Y-74447400D03*
D23*
X106832400Y-86095800D03*
X106832400Y-87995800D03*
X114808000Y-80833000D03*
X114808000Y-78933000D03*
X110845600Y-85892600D03*
X110845600Y-87792600D03*
X106832400Y-82946200D03*
X106832400Y-84846200D03*
X119532400Y-84165400D03*
X119532400Y-86065400D03*
X110845600Y-82184200D03*
X110845600Y-84084200D03*
D13*
X129664000Y-66421000D03*
X119764000Y-66421000D03*
D27*
X134604000Y-79629000D03*
X132604000Y-79629000D03*
D26*
X114808000Y-84185000D03*
X114808000Y-82185000D03*
X114808000Y-85741000D03*
X114808000Y-87741000D03*
X106883200Y-79594200D03*
X106883200Y-81594200D03*
D11*
X106553000Y-69088000D03*
D26*
X127508000Y-113173000D03*
X127508000Y-115173000D03*
X114808000Y-107966000D03*
X114808000Y-109966000D03*
D46*
X131532000Y-100330000D03*
X126532000Y-100330000D03*
D47*
X114914000Y-97790000D03*
X121814000Y-97790000D03*
D24*
X120970000Y-105140000D03*
X122870000Y-105140000D03*
X121920000Y-103140000D03*
D48*
X129159000Y-104495600D03*
X129159000Y-109372400D03*
D23*
X116967000Y-108016000D03*
X116967000Y-109916000D03*
D32*
X119982000Y-107315000D03*
X119982000Y-108585000D03*
X119982000Y-109855000D03*
X119982000Y-111125000D03*
X125382000Y-111125000D03*
X125382000Y-109855000D03*
X125382000Y-108585000D03*
X125382000Y-107315000D03*
D11*
X110744000Y-115062000D03*
D12*
X108204000Y-115062000D03*
D11*
X133096000Y-115062000D03*
D12*
X130556000Y-115062000D03*
D27*
X112760000Y-107950000D03*
X110760000Y-107950000D03*
X110760000Y-109982000D03*
X112760000Y-109982000D03*
D18*
X108736000Y-104902000D03*
X111736000Y-104902000D03*
D23*
X117094000Y-112461000D03*
X117094000Y-114361000D03*
D44*
X109220000Y-101473000D03*
X109220000Y-95123000D03*
D45*
X132715000Y-95758000D03*
X126365000Y-95758000D03*
D11*
X114300000Y-115062000D03*
X67945000Y-101981000D03*
D12*
X67945000Y-104521000D03*
D18*
X52983000Y-98679000D03*
X55983000Y-98679000D03*
D15*
X54229000Y-103529000D03*
X54229000Y-106529000D03*
D17*
X64219000Y-103759000D03*
X62019000Y-103759000D03*
X62019000Y-105537000D03*
X64219000Y-105537000D03*
D16*
X59751000Y-101139000D03*
X58801000Y-101139000D03*
X57851000Y-101139000D03*
X57851000Y-103839000D03*
X59751000Y-103839000D03*
X58801000Y-103839000D03*
D15*
X63627000Y-100941000D03*
X63627000Y-97941000D03*
D14*
X67691000Y-93818000D03*
X67691000Y-86268000D03*
D13*
X51819000Y-90297000D03*
X61719000Y-90297000D03*
D11*
X50165000Y-106045000D03*
D12*
X50165000Y-103505000D03*
X50165000Y-100965000D03*
M02*
