G04 #@! TF.FileFunction,Legend,Top*
%FSLAX46Y46*%
G04 Gerber Fmt 4.6, Leading zero omitted, Abs format (unit mm)*
G04 Created by KiCad (PCBNEW 4.0.5) date 07/05/17 15:18:17*
%MOMM*%
%LPD*%
G01*
G04 APERTURE LIST*
%ADD10C,0.100000*%
%ADD11C,0.250000*%
%ADD12C,0.175000*%
%ADD13C,0.150000*%
%ADD14C,0.125000*%
%ADD15C,0.300000*%
%ADD16C,0.120000*%
G04 APERTURE END LIST*
D10*
D11*
X130548334Y-37917381D02*
X130072143Y-37917381D01*
X130072143Y-36917381D01*
X130881667Y-37917381D02*
X130881667Y-36917381D01*
X131215001Y-37631667D01*
X131548334Y-36917381D01*
X131548334Y-37917381D01*
X131929286Y-36917381D02*
X132548334Y-36917381D01*
X132215000Y-37298333D01*
X132357858Y-37298333D01*
X132453096Y-37345952D01*
X132500715Y-37393571D01*
X132548334Y-37488810D01*
X132548334Y-37726905D01*
X132500715Y-37822143D01*
X132453096Y-37869762D01*
X132357858Y-37917381D01*
X132072143Y-37917381D01*
X131976905Y-37869762D01*
X131929286Y-37822143D01*
X133405477Y-37250714D02*
X133405477Y-37917381D01*
X133167381Y-36869762D02*
X132929286Y-37584048D01*
X133548334Y-37584048D01*
X134072143Y-37345952D02*
X133976905Y-37298333D01*
X133929286Y-37250714D01*
X133881667Y-37155476D01*
X133881667Y-37107857D01*
X133929286Y-37012619D01*
X133976905Y-36965000D01*
X134072143Y-36917381D01*
X134262620Y-36917381D01*
X134357858Y-36965000D01*
X134405477Y-37012619D01*
X134453096Y-37107857D01*
X134453096Y-37155476D01*
X134405477Y-37250714D01*
X134357858Y-37298333D01*
X134262620Y-37345952D01*
X134072143Y-37345952D01*
X133976905Y-37393571D01*
X133929286Y-37441190D01*
X133881667Y-37536429D01*
X133881667Y-37726905D01*
X133929286Y-37822143D01*
X133976905Y-37869762D01*
X134072143Y-37917381D01*
X134262620Y-37917381D01*
X134357858Y-37869762D01*
X134405477Y-37822143D01*
X134453096Y-37726905D01*
X134453096Y-37536429D01*
X134405477Y-37441190D01*
X134357858Y-37393571D01*
X134262620Y-37345952D01*
X135357858Y-36917381D02*
X134881667Y-36917381D01*
X134834048Y-37393571D01*
X134881667Y-37345952D01*
X134976905Y-37298333D01*
X135215001Y-37298333D01*
X135310239Y-37345952D01*
X135357858Y-37393571D01*
X135405477Y-37488810D01*
X135405477Y-37726905D01*
X135357858Y-37822143D01*
X135310239Y-37869762D01*
X135215001Y-37917381D01*
X134976905Y-37917381D01*
X134881667Y-37869762D01*
X134834048Y-37822143D01*
D12*
X96838668Y-54733000D02*
X96805334Y-54766333D01*
X96705334Y-54799667D01*
X96638668Y-54799667D01*
X96538668Y-54766333D01*
X96472001Y-54699667D01*
X96438668Y-54633000D01*
X96405334Y-54499667D01*
X96405334Y-54399667D01*
X96438668Y-54266333D01*
X96472001Y-54199667D01*
X96538668Y-54133000D01*
X96638668Y-54099667D01*
X96705334Y-54099667D01*
X96805334Y-54133000D01*
X96838668Y-54166333D01*
X97138668Y-54099667D02*
X97138668Y-54666333D01*
X97172001Y-54733000D01*
X97205334Y-54766333D01*
X97272001Y-54799667D01*
X97405334Y-54799667D01*
X97472001Y-54766333D01*
X97505334Y-54733000D01*
X97538668Y-54666333D01*
X97538668Y-54099667D01*
X98272001Y-54799667D02*
X98038667Y-54466333D01*
X97872001Y-54799667D02*
X97872001Y-54099667D01*
X98138667Y-54099667D01*
X98205334Y-54133000D01*
X98238667Y-54166333D01*
X98272001Y-54233000D01*
X98272001Y-54333000D01*
X98238667Y-54399667D01*
X98205334Y-54433000D01*
X98138667Y-54466333D01*
X97872001Y-54466333D01*
X98972001Y-54799667D02*
X98738667Y-54466333D01*
X98572001Y-54799667D02*
X98572001Y-54099667D01*
X98838667Y-54099667D01*
X98905334Y-54133000D01*
X98938667Y-54166333D01*
X98972001Y-54233000D01*
X98972001Y-54333000D01*
X98938667Y-54399667D01*
X98905334Y-54433000D01*
X98838667Y-54466333D01*
X98572001Y-54466333D01*
X99272001Y-54433000D02*
X99505334Y-54433000D01*
X99605334Y-54799667D02*
X99272001Y-54799667D01*
X99272001Y-54099667D01*
X99605334Y-54099667D01*
X99905334Y-54799667D02*
X99905334Y-54099667D01*
X100305334Y-54799667D01*
X100305334Y-54099667D01*
X100538667Y-54099667D02*
X100938667Y-54099667D01*
X100738667Y-54799667D02*
X100738667Y-54099667D01*
X101671999Y-54766333D02*
X101771999Y-54799667D01*
X101938666Y-54799667D01*
X102005333Y-54766333D01*
X102038666Y-54733000D01*
X102071999Y-54666333D01*
X102071999Y-54599667D01*
X102038666Y-54533000D01*
X102005333Y-54499667D01*
X101938666Y-54466333D01*
X101805333Y-54433000D01*
X101738666Y-54399667D01*
X101705333Y-54366333D01*
X101671999Y-54299667D01*
X101671999Y-54233000D01*
X101705333Y-54166333D01*
X101738666Y-54133000D01*
X101805333Y-54099667D01*
X101971999Y-54099667D01*
X102071999Y-54133000D01*
X102372000Y-54433000D02*
X102605333Y-54433000D01*
X102705333Y-54799667D02*
X102372000Y-54799667D01*
X102372000Y-54099667D01*
X102705333Y-54099667D01*
X102905333Y-54099667D02*
X103305333Y-54099667D01*
X103105333Y-54799667D02*
X103105333Y-54099667D01*
X124462001Y-54353667D02*
X124695334Y-55053667D01*
X124928667Y-54353667D01*
X125295334Y-54353667D02*
X125428667Y-54353667D01*
X125495334Y-54387000D01*
X125562001Y-54453667D01*
X125595334Y-54587000D01*
X125595334Y-54820333D01*
X125562001Y-54953667D01*
X125495334Y-55020333D01*
X125428667Y-55053667D01*
X125295334Y-55053667D01*
X125228667Y-55020333D01*
X125162001Y-54953667D01*
X125128667Y-54820333D01*
X125128667Y-54587000D01*
X125162001Y-54453667D01*
X125228667Y-54387000D01*
X125295334Y-54353667D01*
X126228667Y-55053667D02*
X125895334Y-55053667D01*
X125895334Y-54353667D01*
X126362001Y-54353667D02*
X126762001Y-54353667D01*
X126562001Y-55053667D02*
X126562001Y-54353667D01*
X126962000Y-54853667D02*
X127295334Y-54853667D01*
X126895334Y-55053667D02*
X127128667Y-54353667D01*
X127362000Y-55053667D01*
X127962000Y-54387000D02*
X127895334Y-54353667D01*
X127795334Y-54353667D01*
X127695334Y-54387000D01*
X127628667Y-54453667D01*
X127595334Y-54520333D01*
X127562000Y-54653667D01*
X127562000Y-54753667D01*
X127595334Y-54887000D01*
X127628667Y-54953667D01*
X127695334Y-55020333D01*
X127795334Y-55053667D01*
X127862000Y-55053667D01*
X127962000Y-55020333D01*
X127995334Y-54987000D01*
X127995334Y-54753667D01*
X127862000Y-54753667D01*
X128295334Y-54687000D02*
X128528667Y-54687000D01*
X128628667Y-55053667D02*
X128295334Y-55053667D01*
X128295334Y-54353667D01*
X128628667Y-54353667D01*
X129428666Y-55020333D02*
X129528666Y-55053667D01*
X129695333Y-55053667D01*
X129762000Y-55020333D01*
X129795333Y-54987000D01*
X129828666Y-54920333D01*
X129828666Y-54853667D01*
X129795333Y-54787000D01*
X129762000Y-54753667D01*
X129695333Y-54720333D01*
X129562000Y-54687000D01*
X129495333Y-54653667D01*
X129462000Y-54620333D01*
X129428666Y-54553667D01*
X129428666Y-54487000D01*
X129462000Y-54420333D01*
X129495333Y-54387000D01*
X129562000Y-54353667D01*
X129728666Y-54353667D01*
X129828666Y-54387000D01*
X130128667Y-54687000D02*
X130362000Y-54687000D01*
X130462000Y-55053667D02*
X130128667Y-55053667D01*
X130128667Y-54353667D01*
X130462000Y-54353667D01*
X130662000Y-54353667D02*
X131062000Y-54353667D01*
X130862000Y-55053667D02*
X130862000Y-54353667D01*
D10*
X79020954Y-44133571D02*
X78997144Y-44157381D01*
X78925716Y-44181190D01*
X78878097Y-44181190D01*
X78806668Y-44157381D01*
X78759049Y-44109762D01*
X78735240Y-44062143D01*
X78711430Y-43966905D01*
X78711430Y-43895476D01*
X78735240Y-43800238D01*
X78759049Y-43752619D01*
X78806668Y-43705000D01*
X78878097Y-43681190D01*
X78925716Y-43681190D01*
X78997144Y-43705000D01*
X79020954Y-43728810D01*
X79211430Y-44038333D02*
X79449525Y-44038333D01*
X79163811Y-44181190D02*
X79330478Y-43681190D01*
X79497144Y-44181190D01*
X79663811Y-44181190D02*
X79663811Y-43681190D01*
X79949525Y-44181190D01*
X79949525Y-43681190D01*
X80497144Y-43681190D02*
X80782858Y-43681190D01*
X80640001Y-44181190D02*
X80640001Y-43681190D01*
X80949525Y-44181190D02*
X80949525Y-43847857D01*
X80949525Y-43943095D02*
X80973334Y-43895476D01*
X80997144Y-43871667D01*
X81044763Y-43847857D01*
X81092382Y-43847857D01*
X81473334Y-44181190D02*
X81473334Y-43919286D01*
X81449525Y-43871667D01*
X81401906Y-43847857D01*
X81306668Y-43847857D01*
X81259049Y-43871667D01*
X81473334Y-44157381D02*
X81425715Y-44181190D01*
X81306668Y-44181190D01*
X81259049Y-44157381D01*
X81235239Y-44109762D01*
X81235239Y-44062143D01*
X81259049Y-44014524D01*
X81306668Y-43990714D01*
X81425715Y-43990714D01*
X81473334Y-43966905D01*
X81711430Y-43847857D02*
X81711430Y-44181190D01*
X81711430Y-43895476D02*
X81735239Y-43871667D01*
X81782858Y-43847857D01*
X81854287Y-43847857D01*
X81901906Y-43871667D01*
X81925715Y-43919286D01*
X81925715Y-44181190D01*
X82140001Y-44157381D02*
X82187620Y-44181190D01*
X82282858Y-44181190D01*
X82330477Y-44157381D01*
X82354287Y-44109762D01*
X82354287Y-44085952D01*
X82330477Y-44038333D01*
X82282858Y-44014524D01*
X82211430Y-44014524D01*
X82163811Y-43990714D01*
X82140001Y-43943095D01*
X82140001Y-43919286D01*
X82163811Y-43871667D01*
X82211430Y-43847857D01*
X82282858Y-43847857D01*
X82330477Y-43871667D01*
X82782858Y-44157381D02*
X82735239Y-44181190D01*
X82640001Y-44181190D01*
X82592382Y-44157381D01*
X82568573Y-44133571D01*
X82544763Y-44085952D01*
X82544763Y-43943095D01*
X82568573Y-43895476D01*
X82592382Y-43871667D01*
X82640001Y-43847857D01*
X82735239Y-43847857D01*
X82782858Y-43871667D01*
X83187620Y-44157381D02*
X83140001Y-44181190D01*
X83044763Y-44181190D01*
X82997144Y-44157381D01*
X82973334Y-44109762D01*
X82973334Y-43919286D01*
X82997144Y-43871667D01*
X83044763Y-43847857D01*
X83140001Y-43847857D01*
X83187620Y-43871667D01*
X83211429Y-43919286D01*
X83211429Y-43966905D01*
X82973334Y-44014524D01*
X83425715Y-44181190D02*
X83425715Y-43847857D01*
X83425715Y-43681190D02*
X83401905Y-43705000D01*
X83425715Y-43728810D01*
X83449524Y-43705000D01*
X83425715Y-43681190D01*
X83425715Y-43728810D01*
X83616191Y-43847857D02*
X83735238Y-44181190D01*
X83854286Y-43847857D01*
X84235238Y-44157381D02*
X84187619Y-44181190D01*
X84092381Y-44181190D01*
X84044762Y-44157381D01*
X84020952Y-44109762D01*
X84020952Y-43919286D01*
X84044762Y-43871667D01*
X84092381Y-43847857D01*
X84187619Y-43847857D01*
X84235238Y-43871667D01*
X84259047Y-43919286D01*
X84259047Y-43966905D01*
X84020952Y-44014524D01*
X84473333Y-44181190D02*
X84473333Y-43847857D01*
X84473333Y-43943095D02*
X84497142Y-43895476D01*
X84520952Y-43871667D01*
X84568571Y-43847857D01*
X84616190Y-43847857D01*
X85568571Y-44181190D02*
X85544761Y-44181190D01*
X85497142Y-44157381D01*
X85425713Y-44085952D01*
X85306666Y-43943095D01*
X85259047Y-43871667D01*
X85235237Y-43800238D01*
X85235237Y-43752619D01*
X85259047Y-43705000D01*
X85306666Y-43681190D01*
X85330475Y-43681190D01*
X85378094Y-43705000D01*
X85401904Y-43752619D01*
X85401904Y-43776429D01*
X85378094Y-43824048D01*
X85354285Y-43847857D01*
X85211428Y-43943095D01*
X85187618Y-43966905D01*
X85163809Y-44014524D01*
X85163809Y-44085952D01*
X85187618Y-44133571D01*
X85211428Y-44157381D01*
X85259047Y-44181190D01*
X85330475Y-44181190D01*
X85378094Y-44157381D01*
X85401904Y-44133571D01*
X85473332Y-44038333D01*
X85497142Y-43966905D01*
X85497142Y-43919286D01*
X78342382Y-44840714D02*
X78723334Y-44840714D01*
X78532858Y-45031190D02*
X78532858Y-44650238D01*
X78913811Y-44531190D02*
X79223334Y-44531190D01*
X79056668Y-44721667D01*
X79128096Y-44721667D01*
X79175715Y-44745476D01*
X79199525Y-44769286D01*
X79223334Y-44816905D01*
X79223334Y-44935952D01*
X79199525Y-44983571D01*
X79175715Y-45007381D01*
X79128096Y-45031190D01*
X78985239Y-45031190D01*
X78937620Y-45007381D01*
X78913811Y-44983571D01*
X79437620Y-44983571D02*
X79461429Y-45007381D01*
X79437620Y-45031190D01*
X79413810Y-45007381D01*
X79437620Y-44983571D01*
X79437620Y-45031190D01*
X79628096Y-44531190D02*
X79937619Y-44531190D01*
X79770953Y-44721667D01*
X79842381Y-44721667D01*
X79890000Y-44745476D01*
X79913810Y-44769286D01*
X79937619Y-44816905D01*
X79937619Y-44935952D01*
X79913810Y-44983571D01*
X79890000Y-45007381D01*
X79842381Y-45031190D01*
X79699524Y-45031190D01*
X79651905Y-45007381D01*
X79628096Y-44983571D01*
X80080476Y-44531190D02*
X80247143Y-45031190D01*
X80413809Y-44531190D01*
X81199523Y-45031190D02*
X80961428Y-45031190D01*
X80961428Y-44531190D01*
X81366190Y-45031190D02*
X81366190Y-44531190D01*
X81485237Y-44531190D01*
X81556666Y-44555000D01*
X81604285Y-44602619D01*
X81628094Y-44650238D01*
X81651904Y-44745476D01*
X81651904Y-44816905D01*
X81628094Y-44912143D01*
X81604285Y-44959762D01*
X81556666Y-45007381D01*
X81485237Y-45031190D01*
X81366190Y-45031190D01*
X81961428Y-44531190D02*
X82056666Y-44531190D01*
X82104285Y-44555000D01*
X82151904Y-44602619D01*
X82175713Y-44697857D01*
X82175713Y-44864524D01*
X82151904Y-44959762D01*
X82104285Y-45007381D01*
X82056666Y-45031190D01*
X81961428Y-45031190D01*
X81913809Y-45007381D01*
X81866190Y-44959762D01*
X81842380Y-44864524D01*
X81842380Y-44697857D01*
X81866190Y-44602619D01*
X81913809Y-44555000D01*
X81961428Y-44531190D01*
X82770952Y-45031190D02*
X82770952Y-44697857D01*
X82770952Y-44793095D02*
X82794761Y-44745476D01*
X82818571Y-44721667D01*
X82866190Y-44697857D01*
X82913809Y-44697857D01*
X83270952Y-45007381D02*
X83223333Y-45031190D01*
X83128095Y-45031190D01*
X83080476Y-45007381D01*
X83056666Y-44959762D01*
X83056666Y-44769286D01*
X83080476Y-44721667D01*
X83128095Y-44697857D01*
X83223333Y-44697857D01*
X83270952Y-44721667D01*
X83294761Y-44769286D01*
X83294761Y-44816905D01*
X83056666Y-44864524D01*
X83723332Y-44697857D02*
X83723332Y-45102619D01*
X83699523Y-45150238D01*
X83675713Y-45174048D01*
X83628094Y-45197857D01*
X83556666Y-45197857D01*
X83509047Y-45174048D01*
X83723332Y-45007381D02*
X83675713Y-45031190D01*
X83580475Y-45031190D01*
X83532856Y-45007381D01*
X83509047Y-44983571D01*
X83485237Y-44935952D01*
X83485237Y-44793095D01*
X83509047Y-44745476D01*
X83532856Y-44721667D01*
X83580475Y-44697857D01*
X83675713Y-44697857D01*
X83723332Y-44721667D01*
X84175713Y-44697857D02*
X84175713Y-45031190D01*
X83961428Y-44697857D02*
X83961428Y-44959762D01*
X83985237Y-45007381D01*
X84032856Y-45031190D01*
X84104285Y-45031190D01*
X84151904Y-45007381D01*
X84175713Y-44983571D01*
X84485237Y-45031190D02*
X84437618Y-45007381D01*
X84413809Y-44959762D01*
X84413809Y-44531190D01*
X84889999Y-45031190D02*
X84889999Y-44769286D01*
X84866190Y-44721667D01*
X84818571Y-44697857D01*
X84723333Y-44697857D01*
X84675714Y-44721667D01*
X84889999Y-45007381D02*
X84842380Y-45031190D01*
X84723333Y-45031190D01*
X84675714Y-45007381D01*
X84651904Y-44959762D01*
X84651904Y-44912143D01*
X84675714Y-44864524D01*
X84723333Y-44840714D01*
X84842380Y-44840714D01*
X84889999Y-44816905D01*
X85056666Y-44697857D02*
X85247142Y-44697857D01*
X85128095Y-44531190D02*
X85128095Y-44959762D01*
X85151904Y-45007381D01*
X85199523Y-45031190D01*
X85247142Y-45031190D01*
X85485237Y-45031190D02*
X85437618Y-45007381D01*
X85413809Y-44983571D01*
X85389999Y-44935952D01*
X85389999Y-44793095D01*
X85413809Y-44745476D01*
X85437618Y-44721667D01*
X85485237Y-44697857D01*
X85556666Y-44697857D01*
X85604285Y-44721667D01*
X85628094Y-44745476D01*
X85651904Y-44793095D01*
X85651904Y-44935952D01*
X85628094Y-44983571D01*
X85604285Y-45007381D01*
X85556666Y-45031190D01*
X85485237Y-45031190D01*
X85866190Y-45031190D02*
X85866190Y-44697857D01*
X85866190Y-44793095D02*
X85889999Y-44745476D01*
X85913809Y-44721667D01*
X85961428Y-44697857D01*
X86009047Y-44697857D01*
D13*
X84473334Y-52737143D02*
X84425715Y-52784762D01*
X84282858Y-52832381D01*
X84187620Y-52832381D01*
X84044762Y-52784762D01*
X83949524Y-52689524D01*
X83901905Y-52594286D01*
X83854286Y-52403810D01*
X83854286Y-52260952D01*
X83901905Y-52070476D01*
X83949524Y-51975238D01*
X84044762Y-51880000D01*
X84187620Y-51832381D01*
X84282858Y-51832381D01*
X84425715Y-51880000D01*
X84473334Y-51927619D01*
X84854286Y-52546667D02*
X85330477Y-52546667D01*
X84759048Y-52832381D02*
X85092381Y-51832381D01*
X85425715Y-52832381D01*
X85759048Y-52832381D02*
X85759048Y-51832381D01*
X86330477Y-52832381D01*
X86330477Y-51832381D01*
X86806667Y-52832381D02*
X86806667Y-51832381D01*
X86806667Y-52308571D02*
X87378096Y-52308571D01*
X87378096Y-52832381D02*
X87378096Y-51832381D01*
X84592381Y-55237143D02*
X84544762Y-55284762D01*
X84401905Y-55332381D01*
X84306667Y-55332381D01*
X84163809Y-55284762D01*
X84068571Y-55189524D01*
X84020952Y-55094286D01*
X83973333Y-54903810D01*
X83973333Y-54760952D01*
X84020952Y-54570476D01*
X84068571Y-54475238D01*
X84163809Y-54380000D01*
X84306667Y-54332381D01*
X84401905Y-54332381D01*
X84544762Y-54380000D01*
X84592381Y-54427619D01*
X84973333Y-55046667D02*
X85449524Y-55046667D01*
X84878095Y-55332381D02*
X85211428Y-54332381D01*
X85544762Y-55332381D01*
X85878095Y-55332381D02*
X85878095Y-54332381D01*
X86449524Y-55332381D01*
X86449524Y-54332381D01*
X87401905Y-55332381D02*
X86925714Y-55332381D01*
X86925714Y-54332381D01*
X44878096Y-39880000D02*
X44782858Y-39832381D01*
X44640001Y-39832381D01*
X44497143Y-39880000D01*
X44401905Y-39975238D01*
X44354286Y-40070476D01*
X44306667Y-40260952D01*
X44306667Y-40403810D01*
X44354286Y-40594286D01*
X44401905Y-40689524D01*
X44497143Y-40784762D01*
X44640001Y-40832381D01*
X44735239Y-40832381D01*
X44878096Y-40784762D01*
X44925715Y-40737143D01*
X44925715Y-40403810D01*
X44735239Y-40403810D01*
X45354286Y-40832381D02*
X45354286Y-39832381D01*
X45925715Y-40832381D01*
X45925715Y-39832381D01*
X46401905Y-40832381D02*
X46401905Y-39832381D01*
X46640000Y-39832381D01*
X46782858Y-39880000D01*
X46878096Y-39975238D01*
X46925715Y-40070476D01*
X46973334Y-40260952D01*
X46973334Y-40403810D01*
X46925715Y-40594286D01*
X46878096Y-40689524D01*
X46782858Y-40784762D01*
X46640000Y-40832381D01*
X46401905Y-40832381D01*
X44354286Y-42951429D02*
X45116191Y-42951429D01*
X44735239Y-43332381D02*
X44735239Y-42570476D01*
X46068572Y-42332381D02*
X45592381Y-42332381D01*
X45544762Y-42808571D01*
X45592381Y-42760952D01*
X45687619Y-42713333D01*
X45925715Y-42713333D01*
X46020953Y-42760952D01*
X46068572Y-42808571D01*
X46116191Y-42903810D01*
X46116191Y-43141905D01*
X46068572Y-43237143D01*
X46020953Y-43284762D01*
X45925715Y-43332381D01*
X45687619Y-43332381D01*
X45592381Y-43284762D01*
X45544762Y-43237143D01*
X46401905Y-42332381D02*
X46735238Y-43332381D01*
X47068572Y-42332381D01*
X43640000Y-49951429D02*
X44401905Y-49951429D01*
X44020953Y-50332381D02*
X44020953Y-49570476D01*
X44782857Y-49332381D02*
X45401905Y-49332381D01*
X45068571Y-49713333D01*
X45211429Y-49713333D01*
X45306667Y-49760952D01*
X45354286Y-49808571D01*
X45401905Y-49903810D01*
X45401905Y-50141905D01*
X45354286Y-50237143D01*
X45306667Y-50284762D01*
X45211429Y-50332381D01*
X44925714Y-50332381D01*
X44830476Y-50284762D01*
X44782857Y-50237143D01*
X45830476Y-50237143D02*
X45878095Y-50284762D01*
X45830476Y-50332381D01*
X45782857Y-50284762D01*
X45830476Y-50237143D01*
X45830476Y-50332381D01*
X46211428Y-49332381D02*
X46830476Y-49332381D01*
X46497142Y-49713333D01*
X46640000Y-49713333D01*
X46735238Y-49760952D01*
X46782857Y-49808571D01*
X46830476Y-49903810D01*
X46830476Y-50141905D01*
X46782857Y-50237143D01*
X46735238Y-50284762D01*
X46640000Y-50332381D01*
X46354285Y-50332381D01*
X46259047Y-50284762D01*
X46211428Y-50237143D01*
X47116190Y-49332381D02*
X47449523Y-50332381D01*
X47782857Y-49332381D01*
X45473334Y-52737143D02*
X45425715Y-52784762D01*
X45282858Y-52832381D01*
X45187620Y-52832381D01*
X45044762Y-52784762D01*
X44949524Y-52689524D01*
X44901905Y-52594286D01*
X44854286Y-52403810D01*
X44854286Y-52260952D01*
X44901905Y-52070476D01*
X44949524Y-51975238D01*
X45044762Y-51880000D01*
X45187620Y-51832381D01*
X45282858Y-51832381D01*
X45425715Y-51880000D01*
X45473334Y-51927619D01*
X46473334Y-52832381D02*
X46140000Y-52356190D01*
X45901905Y-52832381D02*
X45901905Y-51832381D01*
X46282858Y-51832381D01*
X46378096Y-51880000D01*
X46425715Y-51927619D01*
X46473334Y-52022857D01*
X46473334Y-52165714D01*
X46425715Y-52260952D01*
X46378096Y-52308571D01*
X46282858Y-52356190D01*
X45901905Y-52356190D01*
X46806667Y-51832381D02*
X47473334Y-52832381D01*
X47473334Y-51832381D02*
X46806667Y-52832381D01*
X45592381Y-55237143D02*
X45544762Y-55284762D01*
X45401905Y-55332381D01*
X45306667Y-55332381D01*
X45163809Y-55284762D01*
X45068571Y-55189524D01*
X45020952Y-55094286D01*
X44973333Y-54903810D01*
X44973333Y-54760952D01*
X45020952Y-54570476D01*
X45068571Y-54475238D01*
X45163809Y-54380000D01*
X45306667Y-54332381D01*
X45401905Y-54332381D01*
X45544762Y-54380000D01*
X45592381Y-54427619D01*
X45878095Y-54332381D02*
X46449524Y-54332381D01*
X46163809Y-55332381D02*
X46163809Y-54332381D01*
X46687619Y-54332381D02*
X47354286Y-55332381D01*
X47354286Y-54332381D02*
X46687619Y-55332381D01*
D12*
X79377001Y-128648667D02*
X79610334Y-129348667D01*
X79843667Y-128648667D01*
X80210334Y-128648667D02*
X80343667Y-128648667D01*
X80410334Y-128682000D01*
X80477001Y-128748667D01*
X80510334Y-128882000D01*
X80510334Y-129115333D01*
X80477001Y-129248667D01*
X80410334Y-129315333D01*
X80343667Y-129348667D01*
X80210334Y-129348667D01*
X80143667Y-129315333D01*
X80077001Y-129248667D01*
X80043667Y-129115333D01*
X80043667Y-128882000D01*
X80077001Y-128748667D01*
X80143667Y-128682000D01*
X80210334Y-128648667D01*
X81143667Y-129348667D02*
X80810334Y-129348667D01*
X80810334Y-128648667D01*
X81277001Y-128648667D02*
X81677001Y-128648667D01*
X81477001Y-129348667D02*
X81477001Y-128648667D01*
X81877000Y-129148667D02*
X82210334Y-129148667D01*
X81810334Y-129348667D02*
X82043667Y-128648667D01*
X82277000Y-129348667D01*
X82877000Y-128682000D02*
X82810334Y-128648667D01*
X82710334Y-128648667D01*
X82610334Y-128682000D01*
X82543667Y-128748667D01*
X82510334Y-128815333D01*
X82477000Y-128948667D01*
X82477000Y-129048667D01*
X82510334Y-129182000D01*
X82543667Y-129248667D01*
X82610334Y-129315333D01*
X82710334Y-129348667D01*
X82777000Y-129348667D01*
X82877000Y-129315333D01*
X82910334Y-129282000D01*
X82910334Y-129048667D01*
X82777000Y-129048667D01*
X83210334Y-128982000D02*
X83443667Y-128982000D01*
X83543667Y-129348667D02*
X83210334Y-129348667D01*
X83210334Y-128648667D01*
X83543667Y-128648667D01*
X84343666Y-129315333D02*
X84443666Y-129348667D01*
X84610333Y-129348667D01*
X84677000Y-129315333D01*
X84710333Y-129282000D01*
X84743666Y-129215333D01*
X84743666Y-129148667D01*
X84710333Y-129082000D01*
X84677000Y-129048667D01*
X84610333Y-129015333D01*
X84477000Y-128982000D01*
X84410333Y-128948667D01*
X84377000Y-128915333D01*
X84343666Y-128848667D01*
X84343666Y-128782000D01*
X84377000Y-128715333D01*
X84410333Y-128682000D01*
X84477000Y-128648667D01*
X84643666Y-128648667D01*
X84743666Y-128682000D01*
X85043667Y-128982000D02*
X85277000Y-128982000D01*
X85377000Y-129348667D02*
X85043667Y-129348667D01*
X85043667Y-128648667D01*
X85377000Y-128648667D01*
X85577000Y-128648667D02*
X85977000Y-128648667D01*
X85777000Y-129348667D02*
X85777000Y-128648667D01*
X51753668Y-129028000D02*
X51720334Y-129061333D01*
X51620334Y-129094667D01*
X51553668Y-129094667D01*
X51453668Y-129061333D01*
X51387001Y-128994667D01*
X51353668Y-128928000D01*
X51320334Y-128794667D01*
X51320334Y-128694667D01*
X51353668Y-128561333D01*
X51387001Y-128494667D01*
X51453668Y-128428000D01*
X51553668Y-128394667D01*
X51620334Y-128394667D01*
X51720334Y-128428000D01*
X51753668Y-128461333D01*
X52053668Y-128394667D02*
X52053668Y-128961333D01*
X52087001Y-129028000D01*
X52120334Y-129061333D01*
X52187001Y-129094667D01*
X52320334Y-129094667D01*
X52387001Y-129061333D01*
X52420334Y-129028000D01*
X52453668Y-128961333D01*
X52453668Y-128394667D01*
X53187001Y-129094667D02*
X52953667Y-128761333D01*
X52787001Y-129094667D02*
X52787001Y-128394667D01*
X53053667Y-128394667D01*
X53120334Y-128428000D01*
X53153667Y-128461333D01*
X53187001Y-128528000D01*
X53187001Y-128628000D01*
X53153667Y-128694667D01*
X53120334Y-128728000D01*
X53053667Y-128761333D01*
X52787001Y-128761333D01*
X53887001Y-129094667D02*
X53653667Y-128761333D01*
X53487001Y-129094667D02*
X53487001Y-128394667D01*
X53753667Y-128394667D01*
X53820334Y-128428000D01*
X53853667Y-128461333D01*
X53887001Y-128528000D01*
X53887001Y-128628000D01*
X53853667Y-128694667D01*
X53820334Y-128728000D01*
X53753667Y-128761333D01*
X53487001Y-128761333D01*
X54187001Y-128728000D02*
X54420334Y-128728000D01*
X54520334Y-129094667D02*
X54187001Y-129094667D01*
X54187001Y-128394667D01*
X54520334Y-128394667D01*
X54820334Y-129094667D02*
X54820334Y-128394667D01*
X55220334Y-129094667D01*
X55220334Y-128394667D01*
X55453667Y-128394667D02*
X55853667Y-128394667D01*
X55653667Y-129094667D02*
X55653667Y-128394667D01*
X56586999Y-129061333D02*
X56686999Y-129094667D01*
X56853666Y-129094667D01*
X56920333Y-129061333D01*
X56953666Y-129028000D01*
X56986999Y-128961333D01*
X56986999Y-128894667D01*
X56953666Y-128828000D01*
X56920333Y-128794667D01*
X56853666Y-128761333D01*
X56720333Y-128728000D01*
X56653666Y-128694667D01*
X56620333Y-128661333D01*
X56586999Y-128594667D01*
X56586999Y-128528000D01*
X56620333Y-128461333D01*
X56653666Y-128428000D01*
X56720333Y-128394667D01*
X56886999Y-128394667D01*
X56986999Y-128428000D01*
X57287000Y-128728000D02*
X57520333Y-128728000D01*
X57620333Y-129094667D02*
X57287000Y-129094667D01*
X57287000Y-128394667D01*
X57620333Y-128394667D01*
X57820333Y-128394667D02*
X58220333Y-128394667D01*
X58020333Y-129094667D02*
X58020333Y-128394667D01*
D11*
X85463334Y-112212381D02*
X84987143Y-112212381D01*
X84987143Y-111212381D01*
X85796667Y-112212381D02*
X85796667Y-111212381D01*
X86130001Y-111926667D01*
X86463334Y-111212381D01*
X86463334Y-112212381D01*
X86844286Y-111212381D02*
X87463334Y-111212381D01*
X87130000Y-111593333D01*
X87272858Y-111593333D01*
X87368096Y-111640952D01*
X87415715Y-111688571D01*
X87463334Y-111783810D01*
X87463334Y-112021905D01*
X87415715Y-112117143D01*
X87368096Y-112164762D01*
X87272858Y-112212381D01*
X86987143Y-112212381D01*
X86891905Y-112164762D01*
X86844286Y-112117143D01*
X88320477Y-111545714D02*
X88320477Y-112212381D01*
X88082381Y-111164762D02*
X87844286Y-111879048D01*
X88463334Y-111879048D01*
X88987143Y-111640952D02*
X88891905Y-111593333D01*
X88844286Y-111545714D01*
X88796667Y-111450476D01*
X88796667Y-111402857D01*
X88844286Y-111307619D01*
X88891905Y-111260000D01*
X88987143Y-111212381D01*
X89177620Y-111212381D01*
X89272858Y-111260000D01*
X89320477Y-111307619D01*
X89368096Y-111402857D01*
X89368096Y-111450476D01*
X89320477Y-111545714D01*
X89272858Y-111593333D01*
X89177620Y-111640952D01*
X88987143Y-111640952D01*
X88891905Y-111688571D01*
X88844286Y-111736190D01*
X88796667Y-111831429D01*
X88796667Y-112021905D01*
X88844286Y-112117143D01*
X88891905Y-112164762D01*
X88987143Y-112212381D01*
X89177620Y-112212381D01*
X89272858Y-112164762D01*
X89320477Y-112117143D01*
X89368096Y-112021905D01*
X89368096Y-111831429D01*
X89320477Y-111736190D01*
X89272858Y-111688571D01*
X89177620Y-111640952D01*
X90272858Y-111212381D02*
X89796667Y-111212381D01*
X89749048Y-111688571D01*
X89796667Y-111640952D01*
X89891905Y-111593333D01*
X90130001Y-111593333D01*
X90225239Y-111640952D01*
X90272858Y-111688571D01*
X90320477Y-111783810D01*
X90320477Y-112021905D01*
X90272858Y-112117143D01*
X90225239Y-112164762D01*
X90130001Y-112212381D01*
X89891905Y-112212381D01*
X89796667Y-112164762D01*
X89749048Y-112117143D01*
D14*
X61321190Y-70167285D02*
X61821190Y-70000618D01*
X61321190Y-69833952D01*
X61821190Y-69595857D02*
X61797381Y-69643476D01*
X61773571Y-69667285D01*
X61725952Y-69691095D01*
X61583095Y-69691095D01*
X61535476Y-69667285D01*
X61511667Y-69643476D01*
X61487857Y-69595857D01*
X61487857Y-69524428D01*
X61511667Y-69476809D01*
X61535476Y-69453000D01*
X61583095Y-69429190D01*
X61725952Y-69429190D01*
X61773571Y-69453000D01*
X61797381Y-69476809D01*
X61821190Y-69524428D01*
X61821190Y-69595857D01*
X61487857Y-69000619D02*
X61821190Y-69000619D01*
X61487857Y-69214904D02*
X61749762Y-69214904D01*
X61797381Y-69191095D01*
X61821190Y-69143476D01*
X61821190Y-69072047D01*
X61797381Y-69024428D01*
X61773571Y-69000619D01*
X61487857Y-68833952D02*
X61487857Y-68643476D01*
X61321190Y-68762523D02*
X61749762Y-68762523D01*
X61797381Y-68738714D01*
X61821190Y-68691095D01*
X61821190Y-68643476D01*
X61345000Y-67833953D02*
X61321190Y-67881572D01*
X61321190Y-67953000D01*
X61345000Y-68024429D01*
X61392619Y-68072048D01*
X61440238Y-68095857D01*
X61535476Y-68119667D01*
X61606905Y-68119667D01*
X61702143Y-68095857D01*
X61749762Y-68072048D01*
X61797381Y-68024429D01*
X61821190Y-67953000D01*
X61821190Y-67905381D01*
X61797381Y-67833953D01*
X61773571Y-67810143D01*
X61606905Y-67810143D01*
X61606905Y-67905381D01*
X61821190Y-67595857D02*
X61321190Y-67595857D01*
X61821190Y-67310143D01*
X61321190Y-67310143D01*
X61821190Y-67072047D02*
X61321190Y-67072047D01*
X61321190Y-66953000D01*
X61345000Y-66881571D01*
X61392619Y-66833952D01*
X61440238Y-66810143D01*
X61535476Y-66786333D01*
X61606905Y-66786333D01*
X61702143Y-66810143D01*
X61749762Y-66833952D01*
X61797381Y-66881571D01*
X61821190Y-66953000D01*
X61821190Y-67072047D01*
X44557190Y-69663285D02*
X45057190Y-69496618D01*
X44557190Y-69329952D01*
X45057190Y-69163285D02*
X44723857Y-69163285D01*
X44557190Y-69163285D02*
X44581000Y-69187095D01*
X44604810Y-69163285D01*
X44581000Y-69139476D01*
X44557190Y-69163285D01*
X44604810Y-69163285D01*
X44723857Y-68925190D02*
X45057190Y-68925190D01*
X44771476Y-68925190D02*
X44747667Y-68901381D01*
X44723857Y-68853762D01*
X44723857Y-68782333D01*
X44747667Y-68734714D01*
X44795286Y-68710905D01*
X45057190Y-68710905D01*
X44581000Y-67829953D02*
X44557190Y-67877572D01*
X44557190Y-67949000D01*
X44581000Y-68020429D01*
X44628619Y-68068048D01*
X44676238Y-68091857D01*
X44771476Y-68115667D01*
X44842905Y-68115667D01*
X44938143Y-68091857D01*
X44985762Y-68068048D01*
X45033381Y-68020429D01*
X45057190Y-67949000D01*
X45057190Y-67901381D01*
X45033381Y-67829953D01*
X45009571Y-67806143D01*
X44842905Y-67806143D01*
X44842905Y-67901381D01*
X45057190Y-67591857D02*
X44557190Y-67591857D01*
X45057190Y-67306143D01*
X44557190Y-67306143D01*
X45057190Y-67068047D02*
X44557190Y-67068047D01*
X44557190Y-66949000D01*
X44581000Y-66877571D01*
X44628619Y-66829952D01*
X44676238Y-66806143D01*
X44771476Y-66782333D01*
X44842905Y-66782333D01*
X44938143Y-66806143D01*
X44985762Y-66829952D01*
X45033381Y-66877571D01*
X45057190Y-66949000D01*
X45057190Y-67068047D01*
X56280857Y-79561333D02*
X56280857Y-79370857D01*
X56614190Y-79489904D02*
X56185619Y-79489904D01*
X56138000Y-79466095D01*
X56114190Y-79418476D01*
X56114190Y-79370857D01*
X56614190Y-78989905D02*
X56352286Y-78989905D01*
X56304667Y-79013714D01*
X56280857Y-79061333D01*
X56280857Y-79156571D01*
X56304667Y-79204190D01*
X56590381Y-78989905D02*
X56614190Y-79037524D01*
X56614190Y-79156571D01*
X56590381Y-79204190D01*
X56542762Y-79228000D01*
X56495143Y-79228000D01*
X56447524Y-79204190D01*
X56423714Y-79156571D01*
X56423714Y-79037524D01*
X56399905Y-78989905D01*
X56280857Y-78537524D02*
X56614190Y-78537524D01*
X56280857Y-78751809D02*
X56542762Y-78751809D01*
X56590381Y-78728000D01*
X56614190Y-78680381D01*
X56614190Y-78608952D01*
X56590381Y-78561333D01*
X56566571Y-78537524D01*
X56614190Y-78228000D02*
X56590381Y-78275619D01*
X56542762Y-78299428D01*
X56114190Y-78299428D01*
X56280857Y-78108952D02*
X56280857Y-77918476D01*
X56114190Y-78037523D02*
X56542762Y-78037523D01*
X56590381Y-78013714D01*
X56614190Y-77966095D01*
X56614190Y-77918476D01*
X56614190Y-77299429D02*
X56590381Y-77347048D01*
X56542762Y-77370857D01*
X56114190Y-77370857D01*
X56590381Y-76918476D02*
X56614190Y-76966095D01*
X56614190Y-77061333D01*
X56590381Y-77108952D01*
X56542762Y-77132762D01*
X56352286Y-77132762D01*
X56304667Y-77108952D01*
X56280857Y-77061333D01*
X56280857Y-76966095D01*
X56304667Y-76918476D01*
X56352286Y-76894667D01*
X56399905Y-76894667D01*
X56447524Y-77132762D01*
X56614190Y-76466096D02*
X56114190Y-76466096D01*
X56590381Y-76466096D02*
X56614190Y-76513715D01*
X56614190Y-76608953D01*
X56590381Y-76656572D01*
X56566571Y-76680381D01*
X56518952Y-76704191D01*
X56376095Y-76704191D01*
X56328476Y-76680381D01*
X56304667Y-76656572D01*
X56280857Y-76608953D01*
X56280857Y-76513715D01*
X56304667Y-76466096D01*
X61416381Y-79914523D02*
X61440190Y-79866904D01*
X61440190Y-79771666D01*
X61416381Y-79724047D01*
X61368762Y-79700237D01*
X61344952Y-79700237D01*
X61297333Y-79724047D01*
X61273524Y-79771666D01*
X61273524Y-79843094D01*
X61249714Y-79890713D01*
X61202095Y-79914523D01*
X61178286Y-79914523D01*
X61130667Y-79890713D01*
X61106857Y-79843094D01*
X61106857Y-79771666D01*
X61130667Y-79724047D01*
X61106857Y-79557380D02*
X61106857Y-79366904D01*
X60940190Y-79485951D02*
X61368762Y-79485951D01*
X61416381Y-79462142D01*
X61440190Y-79414523D01*
X61440190Y-79366904D01*
X61440190Y-78985952D02*
X61178286Y-78985952D01*
X61130667Y-79009761D01*
X61106857Y-79057380D01*
X61106857Y-79152618D01*
X61130667Y-79200237D01*
X61416381Y-78985952D02*
X61440190Y-79033571D01*
X61440190Y-79152618D01*
X61416381Y-79200237D01*
X61368762Y-79224047D01*
X61321143Y-79224047D01*
X61273524Y-79200237D01*
X61249714Y-79152618D01*
X61249714Y-79033571D01*
X61225905Y-78985952D01*
X61106857Y-78819285D02*
X61106857Y-78628809D01*
X60940190Y-78747856D02*
X61368762Y-78747856D01*
X61416381Y-78724047D01*
X61440190Y-78676428D01*
X61440190Y-78628809D01*
X61106857Y-78247857D02*
X61440190Y-78247857D01*
X61106857Y-78462142D02*
X61368762Y-78462142D01*
X61416381Y-78438333D01*
X61440190Y-78390714D01*
X61440190Y-78319285D01*
X61416381Y-78271666D01*
X61392571Y-78247857D01*
X61416381Y-78033571D02*
X61440190Y-77985952D01*
X61440190Y-77890714D01*
X61416381Y-77843095D01*
X61368762Y-77819285D01*
X61344952Y-77819285D01*
X61297333Y-77843095D01*
X61273524Y-77890714D01*
X61273524Y-77962142D01*
X61249714Y-78009761D01*
X61202095Y-78033571D01*
X61178286Y-78033571D01*
X61130667Y-78009761D01*
X61106857Y-77962142D01*
X61106857Y-77890714D01*
X61130667Y-77843095D01*
X61440190Y-77152619D02*
X61416381Y-77200238D01*
X61368762Y-77224047D01*
X60940190Y-77224047D01*
X61416381Y-76771666D02*
X61440190Y-76819285D01*
X61440190Y-76914523D01*
X61416381Y-76962142D01*
X61368762Y-76985952D01*
X61178286Y-76985952D01*
X61130667Y-76962142D01*
X61106857Y-76914523D01*
X61106857Y-76819285D01*
X61130667Y-76771666D01*
X61178286Y-76747857D01*
X61225905Y-76747857D01*
X61273524Y-76985952D01*
X61440190Y-76319286D02*
X60940190Y-76319286D01*
X61416381Y-76319286D02*
X61440190Y-76366905D01*
X61440190Y-76462143D01*
X61416381Y-76509762D01*
X61392571Y-76533571D01*
X61344952Y-76557381D01*
X61202095Y-76557381D01*
X61154476Y-76533571D01*
X61130667Y-76509762D01*
X61106857Y-76462143D01*
X61106857Y-76366905D01*
X61130667Y-76319286D01*
X45954239Y-75870571D02*
X45978048Y-75894381D01*
X45954239Y-75918190D01*
X45930429Y-75894381D01*
X45954239Y-75870571D01*
X45954239Y-75918190D01*
X46454238Y-75918190D02*
X46168524Y-75918190D01*
X46311381Y-75918190D02*
X46311381Y-75418190D01*
X46263762Y-75489619D01*
X46216143Y-75537238D01*
X46168524Y-75561048D01*
X46882809Y-75584857D02*
X46882809Y-75918190D01*
X46668524Y-75584857D02*
X46668524Y-75846762D01*
X46692333Y-75894381D01*
X46739952Y-75918190D01*
X46811381Y-75918190D01*
X46859000Y-75894381D01*
X46882809Y-75870571D01*
X48113239Y-79680571D02*
X48137048Y-79704381D01*
X48113239Y-79728190D01*
X48089429Y-79704381D01*
X48113239Y-79680571D01*
X48113239Y-79728190D01*
X48613238Y-79728190D02*
X48327524Y-79728190D01*
X48470381Y-79728190D02*
X48470381Y-79228190D01*
X48422762Y-79299619D01*
X48375143Y-79347238D01*
X48327524Y-79371048D01*
X49041809Y-79394857D02*
X49041809Y-79728190D01*
X48827524Y-79394857D02*
X48827524Y-79656762D01*
X48851333Y-79704381D01*
X48898952Y-79728190D01*
X48970381Y-79728190D01*
X49018000Y-79704381D01*
X49041809Y-79680571D01*
D11*
X52769048Y-81732381D02*
X52769048Y-80732381D01*
X53245238Y-81732381D02*
X53245238Y-80732381D01*
X53483333Y-80732381D01*
X53626191Y-80780000D01*
X53721429Y-80875238D01*
X53769048Y-80970476D01*
X53816667Y-81160952D01*
X53816667Y-81303810D01*
X53769048Y-81494286D01*
X53721429Y-81589524D01*
X53626191Y-81684762D01*
X53483333Y-81732381D01*
X53245238Y-81732381D01*
X54245238Y-81208571D02*
X54578572Y-81208571D01*
X54721429Y-81732381D02*
X54245238Y-81732381D01*
X54245238Y-80732381D01*
X54721429Y-80732381D01*
X55102381Y-81446667D02*
X55578572Y-81446667D01*
X55007143Y-81732381D02*
X55340476Y-80732381D01*
X55673810Y-81732381D01*
X56483334Y-81732381D02*
X56007143Y-81732381D01*
X56007143Y-80732381D01*
X57578572Y-81732381D02*
X57578572Y-80732381D01*
X57816667Y-80732381D01*
X57959525Y-80780000D01*
X58054763Y-80875238D01*
X58102382Y-80970476D01*
X58150001Y-81160952D01*
X58150001Y-81303810D01*
X58102382Y-81494286D01*
X58054763Y-81589524D01*
X57959525Y-81684762D01*
X57816667Y-81732381D01*
X57578572Y-81732381D01*
X58578572Y-81732381D02*
X58578572Y-80732381D01*
X59245238Y-80732381D02*
X59435715Y-80732381D01*
X59530953Y-80780000D01*
X59626191Y-80875238D01*
X59673810Y-81065714D01*
X59673810Y-81399048D01*
X59626191Y-81589524D01*
X59530953Y-81684762D01*
X59435715Y-81732381D01*
X59245238Y-81732381D01*
X59150000Y-81684762D01*
X59054762Y-81589524D01*
X59007143Y-81399048D01*
X59007143Y-81065714D01*
X59054762Y-80875238D01*
X59150000Y-80780000D01*
X59245238Y-80732381D01*
X60102381Y-81732381D02*
X60102381Y-80732381D01*
X60340476Y-80732381D01*
X60483334Y-80780000D01*
X60578572Y-80875238D01*
X60626191Y-80970476D01*
X60673810Y-81160952D01*
X60673810Y-81303810D01*
X60626191Y-81494286D01*
X60578572Y-81589524D01*
X60483334Y-81684762D01*
X60340476Y-81732381D01*
X60102381Y-81732381D01*
X61102381Y-81208571D02*
X61435715Y-81208571D01*
X61578572Y-81732381D02*
X61102381Y-81732381D01*
X61102381Y-80732381D01*
X61578572Y-80732381D01*
D10*
X95740001Y-66335714D02*
X96120953Y-66335714D01*
X95930477Y-66526190D02*
X95930477Y-66145238D01*
X96311430Y-66026190D02*
X96620953Y-66026190D01*
X96454287Y-66216667D01*
X96525715Y-66216667D01*
X96573334Y-66240476D01*
X96597144Y-66264286D01*
X96620953Y-66311905D01*
X96620953Y-66430952D01*
X96597144Y-66478571D01*
X96573334Y-66502381D01*
X96525715Y-66526190D01*
X96382858Y-66526190D01*
X96335239Y-66502381D01*
X96311430Y-66478571D01*
X96835239Y-66478571D02*
X96859048Y-66502381D01*
X96835239Y-66526190D01*
X96811429Y-66502381D01*
X96835239Y-66478571D01*
X96835239Y-66526190D01*
X97025715Y-66026190D02*
X97335238Y-66026190D01*
X97168572Y-66216667D01*
X97240000Y-66216667D01*
X97287619Y-66240476D01*
X97311429Y-66264286D01*
X97335238Y-66311905D01*
X97335238Y-66430952D01*
X97311429Y-66478571D01*
X97287619Y-66502381D01*
X97240000Y-66526190D01*
X97097143Y-66526190D01*
X97049524Y-66502381D01*
X97025715Y-66478571D01*
X97478095Y-66026190D02*
X97644762Y-66526190D01*
X97811428Y-66026190D01*
X96359047Y-68550000D02*
X96311428Y-68526190D01*
X96240000Y-68526190D01*
X96168571Y-68550000D01*
X96120952Y-68597619D01*
X96097143Y-68645238D01*
X96073333Y-68740476D01*
X96073333Y-68811905D01*
X96097143Y-68907143D01*
X96120952Y-68954762D01*
X96168571Y-69002381D01*
X96240000Y-69026190D01*
X96287619Y-69026190D01*
X96359047Y-69002381D01*
X96382857Y-68978571D01*
X96382857Y-68811905D01*
X96287619Y-68811905D01*
X96597143Y-69026190D02*
X96597143Y-68526190D01*
X96882857Y-69026190D01*
X96882857Y-68526190D01*
X97120953Y-69026190D02*
X97120953Y-68526190D01*
X97240000Y-68526190D01*
X97311429Y-68550000D01*
X97359048Y-68597619D01*
X97382857Y-68645238D01*
X97406667Y-68740476D01*
X97406667Y-68811905D01*
X97382857Y-68907143D01*
X97359048Y-68954762D01*
X97311429Y-69002381D01*
X97240000Y-69026190D01*
X97120953Y-69026190D01*
X96216191Y-71526190D02*
X95978096Y-71526190D01*
X95978096Y-71026190D01*
X96454286Y-71526190D02*
X96406667Y-71502381D01*
X96382858Y-71478571D01*
X96359048Y-71430952D01*
X96359048Y-71288095D01*
X96382858Y-71240476D01*
X96406667Y-71216667D01*
X96454286Y-71192857D01*
X96525715Y-71192857D01*
X96573334Y-71216667D01*
X96597143Y-71240476D01*
X96620953Y-71288095D01*
X96620953Y-71430952D01*
X96597143Y-71478571D01*
X96573334Y-71502381D01*
X96525715Y-71526190D01*
X96454286Y-71526190D01*
X97049524Y-71526190D02*
X97049524Y-71264286D01*
X97025715Y-71216667D01*
X96978096Y-71192857D01*
X96882858Y-71192857D01*
X96835239Y-71216667D01*
X97049524Y-71502381D02*
X97001905Y-71526190D01*
X96882858Y-71526190D01*
X96835239Y-71502381D01*
X96811429Y-71454762D01*
X96811429Y-71407143D01*
X96835239Y-71359524D01*
X96882858Y-71335714D01*
X97001905Y-71335714D01*
X97049524Y-71311905D01*
X97501905Y-71526190D02*
X97501905Y-71026190D01*
X97501905Y-71502381D02*
X97454286Y-71526190D01*
X97359048Y-71526190D01*
X97311429Y-71502381D01*
X97287620Y-71478571D01*
X97263810Y-71430952D01*
X97263810Y-71288095D01*
X97287620Y-71240476D01*
X97311429Y-71216667D01*
X97359048Y-71192857D01*
X97454286Y-71192857D01*
X97501905Y-71216667D01*
X63513810Y-66026190D02*
X63680477Y-66526190D01*
X63847143Y-66026190D01*
X63990000Y-66502381D02*
X64037619Y-66526190D01*
X64132857Y-66526190D01*
X64180476Y-66502381D01*
X64204286Y-66454762D01*
X64204286Y-66430952D01*
X64180476Y-66383333D01*
X64132857Y-66359524D01*
X64061429Y-66359524D01*
X64013810Y-66335714D01*
X63990000Y-66288095D01*
X63990000Y-66264286D01*
X64013810Y-66216667D01*
X64061429Y-66192857D01*
X64132857Y-66192857D01*
X64180476Y-66216667D01*
X64609048Y-66502381D02*
X64561429Y-66526190D01*
X64466191Y-66526190D01*
X64418572Y-66502381D01*
X64394762Y-66454762D01*
X64394762Y-66264286D01*
X64418572Y-66216667D01*
X64466191Y-66192857D01*
X64561429Y-66192857D01*
X64609048Y-66216667D01*
X64632857Y-66264286D01*
X64632857Y-66311905D01*
X64394762Y-66359524D01*
X64847143Y-66192857D02*
X64847143Y-66526190D01*
X64847143Y-66240476D02*
X64870952Y-66216667D01*
X64918571Y-66192857D01*
X64990000Y-66192857D01*
X65037619Y-66216667D01*
X65061428Y-66264286D01*
X65061428Y-66526190D01*
X65275714Y-66502381D02*
X65323333Y-66526190D01*
X65418571Y-66526190D01*
X65466190Y-66502381D01*
X65490000Y-66454762D01*
X65490000Y-66430952D01*
X65466190Y-66383333D01*
X65418571Y-66359524D01*
X65347143Y-66359524D01*
X65299524Y-66335714D01*
X65275714Y-66288095D01*
X65275714Y-66264286D01*
X65299524Y-66216667D01*
X65347143Y-66192857D01*
X65418571Y-66192857D01*
X65466190Y-66216667D01*
X65894762Y-66502381D02*
X65847143Y-66526190D01*
X65751905Y-66526190D01*
X65704286Y-66502381D01*
X65680476Y-66454762D01*
X65680476Y-66264286D01*
X65704286Y-66216667D01*
X65751905Y-66192857D01*
X65847143Y-66192857D01*
X65894762Y-66216667D01*
X65918571Y-66264286D01*
X65918571Y-66311905D01*
X65680476Y-66359524D01*
X63680477Y-64026190D02*
X63680477Y-63526190D01*
X63894762Y-64002381D02*
X63942381Y-64026190D01*
X64037619Y-64026190D01*
X64085238Y-64002381D01*
X64109048Y-63954762D01*
X64109048Y-63930952D01*
X64085238Y-63883333D01*
X64037619Y-63859524D01*
X63966191Y-63859524D01*
X63918572Y-63835714D01*
X63894762Y-63788095D01*
X63894762Y-63764286D01*
X63918572Y-63716667D01*
X63966191Y-63692857D01*
X64037619Y-63692857D01*
X64085238Y-63716667D01*
X64513810Y-64002381D02*
X64466191Y-64026190D01*
X64370953Y-64026190D01*
X64323334Y-64002381D01*
X64299524Y-63954762D01*
X64299524Y-63764286D01*
X64323334Y-63716667D01*
X64370953Y-63692857D01*
X64466191Y-63692857D01*
X64513810Y-63716667D01*
X64537619Y-63764286D01*
X64537619Y-63811905D01*
X64299524Y-63859524D01*
X64751905Y-63692857D02*
X64751905Y-64026190D01*
X64751905Y-63740476D02*
X64775714Y-63716667D01*
X64823333Y-63692857D01*
X64894762Y-63692857D01*
X64942381Y-63716667D01*
X64966190Y-63764286D01*
X64966190Y-64026190D01*
X65180476Y-64002381D02*
X65228095Y-64026190D01*
X65323333Y-64026190D01*
X65370952Y-64002381D01*
X65394762Y-63954762D01*
X65394762Y-63930952D01*
X65370952Y-63883333D01*
X65323333Y-63859524D01*
X65251905Y-63859524D01*
X65204286Y-63835714D01*
X65180476Y-63788095D01*
X65180476Y-63764286D01*
X65204286Y-63716667D01*
X65251905Y-63692857D01*
X65323333Y-63692857D01*
X65370952Y-63716667D01*
X65799524Y-64002381D02*
X65751905Y-64026190D01*
X65656667Y-64026190D01*
X65609048Y-64002381D01*
X65585238Y-63954762D01*
X65585238Y-63764286D01*
X65609048Y-63716667D01*
X65656667Y-63692857D01*
X65751905Y-63692857D01*
X65799524Y-63716667D01*
X65823333Y-63764286D01*
X65823333Y-63811905D01*
X65585238Y-63859524D01*
X64347143Y-68764286D02*
X64418572Y-68788095D01*
X64442381Y-68811905D01*
X64466191Y-68859524D01*
X64466191Y-68930952D01*
X64442381Y-68978571D01*
X64418572Y-69002381D01*
X64370953Y-69026190D01*
X64180477Y-69026190D01*
X64180477Y-68526190D01*
X64347143Y-68526190D01*
X64394762Y-68550000D01*
X64418572Y-68573810D01*
X64442381Y-68621429D01*
X64442381Y-68669048D01*
X64418572Y-68716667D01*
X64394762Y-68740476D01*
X64347143Y-68764286D01*
X64180477Y-68764286D01*
X64894762Y-68692857D02*
X64894762Y-69026190D01*
X64680477Y-68692857D02*
X64680477Y-68954762D01*
X64704286Y-69002381D01*
X64751905Y-69026190D01*
X64823334Y-69026190D01*
X64870953Y-69002381D01*
X64894762Y-68978571D01*
X65109048Y-69002381D02*
X65156667Y-69026190D01*
X65251905Y-69026190D01*
X65299524Y-69002381D01*
X65323334Y-68954762D01*
X65323334Y-68930952D01*
X65299524Y-68883333D01*
X65251905Y-68859524D01*
X65180477Y-68859524D01*
X65132858Y-68835714D01*
X65109048Y-68788095D01*
X65109048Y-68764286D01*
X65132858Y-68716667D01*
X65180477Y-68692857D01*
X65251905Y-68692857D01*
X65299524Y-68716667D01*
X64359047Y-71050000D02*
X64311428Y-71026190D01*
X64240000Y-71026190D01*
X64168571Y-71050000D01*
X64120952Y-71097619D01*
X64097143Y-71145238D01*
X64073333Y-71240476D01*
X64073333Y-71311905D01*
X64097143Y-71407143D01*
X64120952Y-71454762D01*
X64168571Y-71502381D01*
X64240000Y-71526190D01*
X64287619Y-71526190D01*
X64359047Y-71502381D01*
X64382857Y-71478571D01*
X64382857Y-71311905D01*
X64287619Y-71311905D01*
X64597143Y-71526190D02*
X64597143Y-71026190D01*
X64882857Y-71526190D01*
X64882857Y-71026190D01*
X65120953Y-71526190D02*
X65120953Y-71026190D01*
X65240000Y-71026190D01*
X65311429Y-71050000D01*
X65359048Y-71097619D01*
X65382857Y-71145238D01*
X65406667Y-71240476D01*
X65406667Y-71311905D01*
X65382857Y-71407143D01*
X65359048Y-71454762D01*
X65311429Y-71502381D01*
X65240000Y-71526190D01*
X65120953Y-71526190D01*
D15*
X107531334Y-60998571D02*
X106864667Y-60998571D01*
X106864667Y-59498571D01*
X107798000Y-59498571D02*
X108598000Y-59498571D01*
X108198000Y-60998571D02*
X108198000Y-59498571D01*
X109864667Y-60855714D02*
X109798001Y-60927143D01*
X109598001Y-60998571D01*
X109464667Y-60998571D01*
X109264667Y-60927143D01*
X109131334Y-60784286D01*
X109064667Y-60641429D01*
X108998001Y-60355714D01*
X108998001Y-60141429D01*
X109064667Y-59855714D01*
X109131334Y-59712857D01*
X109264667Y-59570000D01*
X109464667Y-59498571D01*
X109598001Y-59498571D01*
X109798001Y-59570000D01*
X109864667Y-59641429D01*
X110331334Y-59498571D02*
X111198001Y-59498571D01*
X110731334Y-60070000D01*
X110931334Y-60070000D01*
X111064667Y-60141429D01*
X111131334Y-60212857D01*
X111198001Y-60355714D01*
X111198001Y-60712857D01*
X111131334Y-60855714D01*
X111064667Y-60927143D01*
X110931334Y-60998571D01*
X110531334Y-60998571D01*
X110398001Y-60927143D01*
X110331334Y-60855714D01*
X112531334Y-60998571D02*
X111731334Y-60998571D01*
X112131334Y-60998571D02*
X112131334Y-59498571D01*
X111998000Y-59712857D01*
X111864667Y-59855714D01*
X111731334Y-59927143D01*
X113864667Y-60998571D02*
X113064667Y-60998571D01*
X113464667Y-60998571D02*
X113464667Y-59498571D01*
X113331333Y-59712857D01*
X113198000Y-59855714D01*
X113064667Y-59927143D01*
X115131333Y-59498571D02*
X114464666Y-59498571D01*
X114398000Y-60212857D01*
X114464666Y-60141429D01*
X114598000Y-60070000D01*
X114931333Y-60070000D01*
X115064666Y-60141429D01*
X115131333Y-60212857D01*
X115198000Y-60355714D01*
X115198000Y-60712857D01*
X115131333Y-60855714D01*
X115064666Y-60927143D01*
X114931333Y-60998571D01*
X114598000Y-60998571D01*
X114464666Y-60927143D01*
X114398000Y-60855714D01*
X105498000Y-62762857D02*
X105698000Y-62834286D01*
X105764667Y-62905714D01*
X105831333Y-63048571D01*
X105831333Y-63262857D01*
X105764667Y-63405714D01*
X105698000Y-63477143D01*
X105564667Y-63548571D01*
X105031333Y-63548571D01*
X105031333Y-62048571D01*
X105498000Y-62048571D01*
X105631333Y-62120000D01*
X105698000Y-62191429D01*
X105764667Y-62334286D01*
X105764667Y-62477143D01*
X105698000Y-62620000D01*
X105631333Y-62691429D01*
X105498000Y-62762857D01*
X105031333Y-62762857D01*
X107031333Y-62548571D02*
X107031333Y-63548571D01*
X106431333Y-62548571D02*
X106431333Y-63334286D01*
X106498000Y-63477143D01*
X106631333Y-63548571D01*
X106831333Y-63548571D01*
X106964667Y-63477143D01*
X107031333Y-63405714D01*
X108298000Y-63477143D02*
X108164667Y-63548571D01*
X107898000Y-63548571D01*
X107764667Y-63477143D01*
X107698000Y-63405714D01*
X107631334Y-63262857D01*
X107631334Y-62834286D01*
X107698000Y-62691429D01*
X107764667Y-62620000D01*
X107898000Y-62548571D01*
X108164667Y-62548571D01*
X108298000Y-62620000D01*
X108898000Y-63548571D02*
X108898000Y-62048571D01*
X109031334Y-62977143D02*
X109431334Y-63548571D01*
X109431334Y-62548571D02*
X108898000Y-63120000D01*
X110031333Y-62977143D02*
X111098000Y-62977143D01*
X110564667Y-63548571D02*
X110564667Y-62405714D01*
X112231333Y-62762857D02*
X112431333Y-62834286D01*
X112498000Y-62905714D01*
X112564666Y-63048571D01*
X112564666Y-63262857D01*
X112498000Y-63405714D01*
X112431333Y-63477143D01*
X112298000Y-63548571D01*
X111764666Y-63548571D01*
X111764666Y-62048571D01*
X112231333Y-62048571D01*
X112364666Y-62120000D01*
X112431333Y-62191429D01*
X112498000Y-62334286D01*
X112498000Y-62477143D01*
X112431333Y-62620000D01*
X112364666Y-62691429D01*
X112231333Y-62762857D01*
X111764666Y-62762857D01*
X113364666Y-63548571D02*
X113231333Y-63477143D01*
X113164666Y-63405714D01*
X113098000Y-63262857D01*
X113098000Y-62834286D01*
X113164666Y-62691429D01*
X113231333Y-62620000D01*
X113364666Y-62548571D01*
X113564666Y-62548571D01*
X113698000Y-62620000D01*
X113764666Y-62691429D01*
X113831333Y-62834286D01*
X113831333Y-63262857D01*
X113764666Y-63405714D01*
X113698000Y-63477143D01*
X113564666Y-63548571D01*
X113364666Y-63548571D01*
X114631333Y-63548571D02*
X114498000Y-63477143D01*
X114431333Y-63405714D01*
X114364667Y-63262857D01*
X114364667Y-62834286D01*
X114431333Y-62691429D01*
X114498000Y-62620000D01*
X114631333Y-62548571D01*
X114831333Y-62548571D01*
X114964667Y-62620000D01*
X115031333Y-62691429D01*
X115098000Y-62834286D01*
X115098000Y-63262857D01*
X115031333Y-63405714D01*
X114964667Y-63477143D01*
X114831333Y-63548571D01*
X114631333Y-63548571D01*
X115631334Y-63477143D02*
X115764667Y-63548571D01*
X116031334Y-63548571D01*
X116164667Y-63477143D01*
X116231334Y-63334286D01*
X116231334Y-63262857D01*
X116164667Y-63120000D01*
X116031334Y-63048571D01*
X115831334Y-63048571D01*
X115698000Y-62977143D01*
X115631334Y-62834286D01*
X115631334Y-62762857D01*
X115698000Y-62620000D01*
X115831334Y-62548571D01*
X116031334Y-62548571D01*
X116164667Y-62620000D01*
X116631333Y-62548571D02*
X117164667Y-62548571D01*
X116831333Y-62048571D02*
X116831333Y-63334286D01*
X116898000Y-63477143D01*
X117031333Y-63548571D01*
X117164667Y-63548571D01*
X133139571Y-108886285D02*
X132425286Y-109386285D01*
X133139571Y-109743428D02*
X131639571Y-109743428D01*
X131639571Y-109172000D01*
X131711000Y-109029142D01*
X131782429Y-108957714D01*
X131925286Y-108886285D01*
X132139571Y-108886285D01*
X132282429Y-108957714D01*
X132353857Y-109029142D01*
X132425286Y-109172000D01*
X132425286Y-109743428D01*
X133068143Y-108314857D02*
X133139571Y-108172000D01*
X133139571Y-107886285D01*
X133068143Y-107743428D01*
X132925286Y-107672000D01*
X132853857Y-107672000D01*
X132711000Y-107743428D01*
X132639571Y-107886285D01*
X132639571Y-108100571D01*
X132568143Y-108243428D01*
X132425286Y-108314857D01*
X132353857Y-108314857D01*
X132211000Y-108243428D01*
X132139571Y-108100571D01*
X132139571Y-107886285D01*
X132211000Y-107743428D01*
X133068143Y-106457714D02*
X133139571Y-106600571D01*
X133139571Y-106886285D01*
X133068143Y-107029142D01*
X132925286Y-107100571D01*
X132353857Y-107100571D01*
X132211000Y-107029142D01*
X132139571Y-106886285D01*
X132139571Y-106600571D01*
X132211000Y-106457714D01*
X132353857Y-106386285D01*
X132496714Y-106386285D01*
X132639571Y-107100571D01*
X132139571Y-105743428D02*
X133139571Y-105743428D01*
X132282429Y-105743428D02*
X132211000Y-105672000D01*
X132139571Y-105529142D01*
X132139571Y-105314857D01*
X132211000Y-105172000D01*
X132353857Y-105100571D01*
X133139571Y-105100571D01*
X133068143Y-104457714D02*
X133139571Y-104314857D01*
X133139571Y-104029142D01*
X133068143Y-103886285D01*
X132925286Y-103814857D01*
X132853857Y-103814857D01*
X132711000Y-103886285D01*
X132639571Y-104029142D01*
X132639571Y-104243428D01*
X132568143Y-104386285D01*
X132425286Y-104457714D01*
X132353857Y-104457714D01*
X132211000Y-104386285D01*
X132139571Y-104243428D01*
X132139571Y-104029142D01*
X132211000Y-103886285D01*
X133068143Y-102600571D02*
X133139571Y-102743428D01*
X133139571Y-103029142D01*
X133068143Y-103171999D01*
X132925286Y-103243428D01*
X132353857Y-103243428D01*
X132211000Y-103171999D01*
X132139571Y-103029142D01*
X132139571Y-102743428D01*
X132211000Y-102600571D01*
X132353857Y-102529142D01*
X132496714Y-102529142D01*
X132639571Y-103243428D01*
D14*
X128821715Y-112845429D02*
X128845524Y-112871619D01*
X128821715Y-112897810D01*
X128797905Y-112871619D01*
X128821715Y-112845429D01*
X128821715Y-112897810D01*
X129321714Y-112897810D02*
X129036000Y-112897810D01*
X129178857Y-112897810D02*
X129178857Y-112347810D01*
X129131238Y-112426381D01*
X129083619Y-112478762D01*
X129036000Y-112504952D01*
X129750285Y-112531143D02*
X129750285Y-112897810D01*
X129536000Y-112531143D02*
X129536000Y-112819238D01*
X129559809Y-112871619D01*
X129607428Y-112897810D01*
X129678857Y-112897810D01*
X129726476Y-112871619D01*
X129750285Y-112845429D01*
X114248477Y-106779190D02*
X113962763Y-106779190D01*
X114105620Y-106779190D02*
X114105620Y-106279190D01*
X114058001Y-106350619D01*
X114010382Y-106398238D01*
X113962763Y-106422048D01*
X114558001Y-106279190D02*
X114605620Y-106279190D01*
X114653239Y-106303000D01*
X114677048Y-106326810D01*
X114700858Y-106374429D01*
X114724667Y-106469667D01*
X114724667Y-106588714D01*
X114700858Y-106683952D01*
X114677048Y-106731571D01*
X114653239Y-106755381D01*
X114605620Y-106779190D01*
X114558001Y-106779190D01*
X114510382Y-106755381D01*
X114486572Y-106731571D01*
X114462763Y-106683952D01*
X114438953Y-106588714D01*
X114438953Y-106469667D01*
X114462763Y-106374429D01*
X114486572Y-106326810D01*
X114510382Y-106303000D01*
X114558001Y-106279190D01*
X115034191Y-106279190D02*
X115081810Y-106279190D01*
X115129429Y-106303000D01*
X115153238Y-106326810D01*
X115177048Y-106374429D01*
X115200857Y-106469667D01*
X115200857Y-106588714D01*
X115177048Y-106683952D01*
X115153238Y-106731571D01*
X115129429Y-106755381D01*
X115081810Y-106779190D01*
X115034191Y-106779190D01*
X114986572Y-106755381D01*
X114962762Y-106731571D01*
X114938953Y-106683952D01*
X114915143Y-106588714D01*
X114915143Y-106469667D01*
X114938953Y-106374429D01*
X114962762Y-106326810D01*
X114986572Y-106303000D01*
X115034191Y-106279190D01*
X115415143Y-106445857D02*
X115415143Y-106945857D01*
X115415143Y-106469667D02*
X115462762Y-106445857D01*
X115558000Y-106445857D01*
X115605619Y-106469667D01*
X115629428Y-106493476D01*
X115653238Y-106541095D01*
X115653238Y-106683952D01*
X115629428Y-106731571D01*
X115605619Y-106755381D01*
X115558000Y-106779190D01*
X115462762Y-106779190D01*
X115415143Y-106755381D01*
D13*
X109434286Y-109947000D02*
X109462857Y-109975571D01*
X109491429Y-110061285D01*
X109491429Y-110118428D01*
X109462857Y-110204143D01*
X109405714Y-110261285D01*
X109348571Y-110289857D01*
X109234286Y-110318428D01*
X109148571Y-110318428D01*
X109034286Y-110289857D01*
X108977143Y-110261285D01*
X108920000Y-110204143D01*
X108891429Y-110118428D01*
X108891429Y-110061285D01*
X108920000Y-109975571D01*
X108948571Y-109947000D01*
X109491429Y-109432714D02*
X109177143Y-109432714D01*
X109120000Y-109461285D01*
X109091429Y-109518428D01*
X109091429Y-109632714D01*
X109120000Y-109689857D01*
X109462857Y-109432714D02*
X109491429Y-109489857D01*
X109491429Y-109632714D01*
X109462857Y-109689857D01*
X109405714Y-109718428D01*
X109348571Y-109718428D01*
X109291429Y-109689857D01*
X109262857Y-109632714D01*
X109262857Y-109489857D01*
X109234286Y-109432714D01*
X109091429Y-109147000D02*
X109691429Y-109147000D01*
X109120000Y-109147000D02*
X109091429Y-109089857D01*
X109091429Y-108975571D01*
X109120000Y-108918428D01*
X109148571Y-108889857D01*
X109205714Y-108861286D01*
X109377143Y-108861286D01*
X109434286Y-108889857D01*
X109462857Y-108918428D01*
X109491429Y-108975571D01*
X109491429Y-109089857D01*
X109462857Y-109147000D01*
X109462857Y-108632714D02*
X109491429Y-108575571D01*
X109491429Y-108461286D01*
X109462857Y-108404143D01*
X109405714Y-108375571D01*
X109377143Y-108375571D01*
X109320000Y-108404143D01*
X109291429Y-108461286D01*
X109291429Y-108547000D01*
X109262857Y-108604143D01*
X109205714Y-108632714D01*
X109177143Y-108632714D01*
X109120000Y-108604143D01*
X109091429Y-108547000D01*
X109091429Y-108461286D01*
X109120000Y-108404143D01*
D14*
X116891619Y-115796190D02*
X116724952Y-115558095D01*
X116605905Y-115796190D02*
X116605905Y-115296190D01*
X116796381Y-115296190D01*
X116844000Y-115320000D01*
X116867809Y-115343810D01*
X116891619Y-115391429D01*
X116891619Y-115462857D01*
X116867809Y-115510476D01*
X116844000Y-115534286D01*
X116796381Y-115558095D01*
X116605905Y-115558095D01*
X117177333Y-115796190D02*
X117129714Y-115772381D01*
X117105905Y-115724762D01*
X117105905Y-115296190D01*
X117439238Y-115796190D02*
X117391619Y-115772381D01*
X117367810Y-115748571D01*
X117344000Y-115700952D01*
X117344000Y-115558095D01*
X117367810Y-115510476D01*
X117391619Y-115486667D01*
X117439238Y-115462857D01*
X117510667Y-115462857D01*
X117558286Y-115486667D01*
X117582095Y-115510476D01*
X117605905Y-115558095D01*
X117605905Y-115700952D01*
X117582095Y-115748571D01*
X117558286Y-115772381D01*
X117510667Y-115796190D01*
X117439238Y-115796190D01*
X116776524Y-107160190D02*
X116609857Y-106922095D01*
X116490810Y-107160190D02*
X116490810Y-106660190D01*
X116681286Y-106660190D01*
X116728905Y-106684000D01*
X116752714Y-106707810D01*
X116776524Y-106755429D01*
X116776524Y-106826857D01*
X116752714Y-106874476D01*
X116728905Y-106898286D01*
X116681286Y-106922095D01*
X116490810Y-106922095D01*
X116990810Y-107160190D02*
X116990810Y-106660190D01*
X117205095Y-107160190D02*
X117205095Y-106898286D01*
X117181286Y-106850667D01*
X117133667Y-106826857D01*
X117062238Y-106826857D01*
X117014619Y-106850667D01*
X116990810Y-106874476D01*
X117443191Y-107160190D02*
X117443191Y-106826857D01*
X117443191Y-106660190D02*
X117419381Y-106684000D01*
X117443191Y-106707810D01*
X117467000Y-106684000D01*
X117443191Y-106660190D01*
X117443191Y-106707810D01*
D11*
X128810095Y-117610000D02*
X128714857Y-117562381D01*
X128572000Y-117562381D01*
X128429142Y-117610000D01*
X128333904Y-117705238D01*
X128286285Y-117800476D01*
X128238666Y-117990952D01*
X128238666Y-118133810D01*
X128286285Y-118324286D01*
X128333904Y-118419524D01*
X128429142Y-118514762D01*
X128572000Y-118562381D01*
X128667238Y-118562381D01*
X128810095Y-118514762D01*
X128857714Y-118467143D01*
X128857714Y-118133810D01*
X128667238Y-118133810D01*
X129286285Y-118562381D02*
X129286285Y-117562381D01*
X129857714Y-118562381D01*
X129857714Y-117562381D01*
X130333904Y-118562381D02*
X130333904Y-117562381D01*
X130571999Y-117562381D01*
X130714857Y-117610000D01*
X130810095Y-117705238D01*
X130857714Y-117800476D01*
X130905333Y-117990952D01*
X130905333Y-118133810D01*
X130857714Y-118324286D01*
X130810095Y-118419524D01*
X130714857Y-118514762D01*
X130571999Y-118562381D01*
X130333904Y-118562381D01*
X131952952Y-117562381D02*
X132286285Y-118562381D01*
X132619619Y-117562381D01*
X133095809Y-118562381D02*
X133000571Y-118514762D01*
X132952952Y-118467143D01*
X132905333Y-118371905D01*
X132905333Y-118086190D01*
X132952952Y-117990952D01*
X133000571Y-117943333D01*
X133095809Y-117895714D01*
X133238667Y-117895714D01*
X133333905Y-117943333D01*
X133381524Y-117990952D01*
X133429143Y-118086190D01*
X133429143Y-118371905D01*
X133381524Y-118467143D01*
X133333905Y-118514762D01*
X133238667Y-118562381D01*
X133095809Y-118562381D01*
X134286286Y-117895714D02*
X134286286Y-118562381D01*
X133857714Y-117895714D02*
X133857714Y-118419524D01*
X133905333Y-118514762D01*
X134000571Y-118562381D01*
X134143429Y-118562381D01*
X134238667Y-118514762D01*
X134286286Y-118467143D01*
X134619619Y-117895714D02*
X135000571Y-117895714D01*
X134762476Y-117562381D02*
X134762476Y-118419524D01*
X134810095Y-118514762D01*
X134905333Y-118562381D01*
X135000571Y-118562381D01*
X106005905Y-117562381D02*
X106339238Y-118562381D01*
X106672572Y-117562381D01*
X107005905Y-118562381D02*
X107005905Y-117895714D01*
X107005905Y-117562381D02*
X106958286Y-117610000D01*
X107005905Y-117657619D01*
X107053524Y-117610000D01*
X107005905Y-117562381D01*
X107005905Y-117657619D01*
X107482095Y-117895714D02*
X107482095Y-118562381D01*
X107482095Y-117990952D02*
X107529714Y-117943333D01*
X107624952Y-117895714D01*
X107767810Y-117895714D01*
X107863048Y-117943333D01*
X107910667Y-118038571D01*
X107910667Y-118562381D01*
X109672572Y-117610000D02*
X109577334Y-117562381D01*
X109434477Y-117562381D01*
X109291619Y-117610000D01*
X109196381Y-117705238D01*
X109148762Y-117800476D01*
X109101143Y-117990952D01*
X109101143Y-118133810D01*
X109148762Y-118324286D01*
X109196381Y-118419524D01*
X109291619Y-118514762D01*
X109434477Y-118562381D01*
X109529715Y-118562381D01*
X109672572Y-118514762D01*
X109720191Y-118467143D01*
X109720191Y-118133810D01*
X109529715Y-118133810D01*
X110148762Y-118562381D02*
X110148762Y-117562381D01*
X110720191Y-118562381D01*
X110720191Y-117562381D01*
X111196381Y-118562381D02*
X111196381Y-117562381D01*
X111434476Y-117562381D01*
X111577334Y-117610000D01*
X111672572Y-117705238D01*
X111720191Y-117800476D01*
X111767810Y-117990952D01*
X111767810Y-118133810D01*
X111720191Y-118324286D01*
X111672572Y-118419524D01*
X111577334Y-118514762D01*
X111434476Y-118562381D01*
X111196381Y-118562381D01*
X112958286Y-118562381D02*
X112958286Y-117562381D01*
X113196381Y-117562381D01*
X113339239Y-117610000D01*
X113434477Y-117705238D01*
X113482096Y-117800476D01*
X113529715Y-117990952D01*
X113529715Y-118133810D01*
X113482096Y-118324286D01*
X113434477Y-118419524D01*
X113339239Y-118514762D01*
X113196381Y-118562381D01*
X112958286Y-118562381D01*
X113910667Y-118276667D02*
X114386858Y-118276667D01*
X113815429Y-118562381D02*
X114148762Y-117562381D01*
X114482096Y-118562381D01*
X115386858Y-118467143D02*
X115339239Y-118514762D01*
X115196382Y-118562381D01*
X115101144Y-118562381D01*
X114958286Y-118514762D01*
X114863048Y-118419524D01*
X114815429Y-118324286D01*
X114767810Y-118133810D01*
X114767810Y-117990952D01*
X114815429Y-117800476D01*
X114863048Y-117705238D01*
X114958286Y-117610000D01*
X115101144Y-117562381D01*
X115196382Y-117562381D01*
X115339239Y-117610000D01*
X115386858Y-117657619D01*
D15*
X116697716Y-118788571D02*
X116697716Y-117288571D01*
X117197716Y-118360000D01*
X117697716Y-117288571D01*
X117697716Y-118788571D01*
X118340573Y-118360000D02*
X119054859Y-118360000D01*
X118197716Y-118788571D02*
X118697716Y-117288571D01*
X119197716Y-118788571D01*
X119554859Y-117288571D02*
X120554859Y-118788571D01*
X120554859Y-117288571D02*
X119554859Y-118788571D01*
X121912001Y-118788571D02*
X121054858Y-118788571D01*
X121483430Y-118788571D02*
X121483430Y-117288571D01*
X121340573Y-117502857D01*
X121197715Y-117645714D01*
X121054858Y-117717143D01*
X122412001Y-117288571D02*
X123412001Y-117288571D01*
X122769144Y-118788571D01*
X123840572Y-117288571D02*
X124840572Y-117288571D01*
X124197715Y-118788571D01*
X126197714Y-118788571D02*
X125340571Y-118788571D01*
X125769143Y-118788571D02*
X125769143Y-117288571D01*
X125626286Y-117502857D01*
X125483428Y-117645714D01*
X125340571Y-117717143D01*
D16*
X81340000Y-104775000D02*
X81340000Y-99635000D01*
X81340000Y-99635000D02*
X78680000Y-99635000D01*
X78680000Y-99635000D02*
X78680000Y-104775000D01*
X78680000Y-104775000D02*
X81340000Y-104775000D01*
X81340000Y-106045000D02*
X81340000Y-107375000D01*
X81340000Y-107375000D02*
X80010000Y-107375000D01*
X92914000Y-93597000D02*
X92914000Y-96597000D01*
X92914000Y-96597000D02*
X80314000Y-96597000D01*
X80314000Y-96597000D02*
X80314000Y-93597000D01*
X80314000Y-86997000D02*
X80314000Y-83997000D01*
X80314000Y-83997000D02*
X92914000Y-83997000D01*
X92914000Y-83997000D02*
X92914000Y-86997000D01*
X95136000Y-95993000D02*
X95136000Y-86393000D01*
X99936000Y-95993000D02*
X99936000Y-86393000D01*
X95136000Y-95993000D02*
X99936000Y-95993000D01*
X91992000Y-98441000D02*
X91992000Y-100441000D01*
X94952000Y-100441000D02*
X94952000Y-98441000D01*
X87036000Y-101589000D02*
X87036000Y-103389000D01*
X90256000Y-103389000D02*
X90256000Y-100439000D01*
X93464000Y-106217000D02*
X92464000Y-106217000D01*
X92464000Y-104857000D02*
X93464000Y-104857000D01*
X92464000Y-103079000D02*
X93464000Y-103079000D01*
X93464000Y-104439000D02*
X92464000Y-104439000D01*
X85554000Y-106029000D02*
X85554000Y-104029000D01*
X82594000Y-104029000D02*
X82594000Y-106029000D01*
X85328000Y-97199000D02*
X83328000Y-97199000D01*
X83328000Y-100159000D02*
X85328000Y-100159000D01*
X96460000Y-103251000D02*
X96460000Y-105851000D01*
X96460000Y-105851000D02*
X99120000Y-105851000D01*
X99120000Y-105851000D02*
X99120000Y-103251000D01*
X99120000Y-103251000D02*
X96460000Y-103251000D01*
X96460000Y-101981000D02*
X96460000Y-100651000D01*
X96460000Y-100651000D02*
X97790000Y-100651000D01*
X106806000Y-40415000D02*
X103506000Y-40415000D01*
X103506000Y-40415000D02*
X103506000Y-45815000D01*
X106806000Y-40415000D02*
X106806000Y-45815000D01*
X112970000Y-52959000D02*
X112970000Y-53019000D01*
X112970000Y-53019000D02*
X115630000Y-53019000D01*
X115630000Y-53019000D02*
X115630000Y-52959000D01*
X115630000Y-52959000D02*
X112970000Y-52959000D01*
X112970000Y-51689000D02*
X112970000Y-50359000D01*
X112970000Y-50359000D02*
X114300000Y-50359000D01*
D13*
X107035000Y-52425000D02*
X107035000Y-52300000D01*
X103785000Y-52425000D02*
X103785000Y-52200000D01*
X103785000Y-49175000D02*
X103785000Y-49400000D01*
X107035000Y-49175000D02*
X107035000Y-49400000D01*
X107035000Y-52425000D02*
X103785000Y-52425000D01*
X107035000Y-49175000D02*
X103785000Y-49175000D01*
X107035000Y-52300000D02*
X108110000Y-52300000D01*
D16*
X118907000Y-52206000D02*
X120107000Y-52206000D01*
X120107000Y-53966000D02*
X118907000Y-53966000D01*
X94250034Y-47729433D02*
G75*
G02X95365000Y-48665000I164966J-935567D01*
G01*
X95363737Y-48648944D02*
G75*
G02X93593000Y-49139000I-948737J-16056D01*
G01*
X91125000Y-54215000D02*
X91125000Y-47385000D01*
X95745000Y-54215000D02*
X95745000Y-47385000D01*
X91125000Y-54215000D02*
X92880000Y-54215000D01*
X93811000Y-54215000D02*
X95745000Y-54215000D01*
X91125000Y-47385000D02*
X92880000Y-47385000D01*
X93811000Y-47385000D02*
X95745000Y-47385000D01*
X94261000Y-48395000D02*
X95136000Y-49269000D01*
X94265000Y-48630000D02*
X95020000Y-49385000D01*
X125873034Y-46840433D02*
G75*
G02X126988000Y-47776000I164966J-935567D01*
G01*
X126986737Y-47759944D02*
G75*
G02X125216000Y-48250000I-948737J-16056D01*
G01*
X122748000Y-53326000D02*
X122748000Y-46496000D01*
X127368000Y-53326000D02*
X127368000Y-46496000D01*
X122748000Y-53326000D02*
X124503000Y-53326000D01*
X125434000Y-53326000D02*
X127368000Y-53326000D01*
X122748000Y-46496000D02*
X124503000Y-46496000D01*
X125434000Y-46496000D02*
X127368000Y-46496000D01*
X125884000Y-47506000D02*
X126759000Y-48380000D01*
X125888000Y-47741000D02*
X126643000Y-48496000D01*
X100593000Y-48479000D02*
X100593000Y-47279000D01*
X102353000Y-47279000D02*
X102353000Y-48479000D01*
X103576000Y-38987000D02*
X104506000Y-38987000D01*
X106736000Y-38987000D02*
X105806000Y-38987000D01*
X106736000Y-38987000D02*
X106736000Y-36827000D01*
X103576000Y-38987000D02*
X103576000Y-37527000D01*
X128711000Y-40386000D02*
X128711000Y-37786000D01*
X128711000Y-37786000D02*
X126051000Y-37786000D01*
X126051000Y-37786000D02*
X126051000Y-40386000D01*
X126051000Y-40386000D02*
X128711000Y-40386000D01*
X128711000Y-41656000D02*
X128711000Y-42986000D01*
X128711000Y-42986000D02*
X127381000Y-42986000D01*
X93405000Y-42545000D02*
X93405000Y-39945000D01*
X93405000Y-39945000D02*
X90745000Y-39945000D01*
X90745000Y-39945000D02*
X90745000Y-42545000D01*
X90745000Y-42545000D02*
X93405000Y-42545000D01*
X93405000Y-43815000D02*
X93405000Y-45145000D01*
X93405000Y-45145000D02*
X92075000Y-45145000D01*
X121235000Y-46607000D02*
X121235000Y-49607000D01*
X121235000Y-49607000D02*
X108635000Y-49607000D01*
X108635000Y-49607000D02*
X108635000Y-46607000D01*
X108635000Y-40007000D02*
X108635000Y-37007000D01*
X108635000Y-37007000D02*
X121235000Y-37007000D01*
X121235000Y-37007000D02*
X121235000Y-40007000D01*
X134618000Y-52195000D02*
X132438000Y-52195000D01*
X128018000Y-52195000D02*
X130198000Y-52195000D01*
X128778000Y-45595000D02*
X130198000Y-45595000D01*
X133858000Y-45595000D02*
X132438000Y-45595000D01*
X128018000Y-52195000D02*
X128018000Y-46355000D01*
X128018000Y-46355000D02*
X128778000Y-45595000D01*
X133858000Y-45595000D02*
X134618000Y-46355000D01*
X134618000Y-46355000D02*
X134618000Y-52195000D01*
X97575000Y-50300000D02*
X97575000Y-51300000D01*
X99275000Y-51300000D02*
X99275000Y-50300000D01*
X120007000Y-50204000D02*
X119007000Y-50204000D01*
X119007000Y-51904000D02*
X120007000Y-51904000D01*
X102360000Y-44321000D02*
X100180000Y-44321000D01*
X95760000Y-44321000D02*
X97940000Y-44321000D01*
X96520000Y-37721000D02*
X97940000Y-37721000D01*
X101600000Y-37721000D02*
X100180000Y-37721000D01*
X95760000Y-44321000D02*
X95760000Y-38481000D01*
X95760000Y-38481000D02*
X96520000Y-37721000D01*
X101600000Y-37721000D02*
X102360000Y-38481000D01*
X102360000Y-38481000D02*
X102360000Y-44321000D01*
X58790000Y-40880000D02*
X58790000Y-41880000D01*
X60490000Y-41880000D02*
X60490000Y-40880000D01*
X73490000Y-43380000D02*
X73490000Y-42380000D01*
X71790000Y-42380000D02*
X71790000Y-43380000D01*
X58790000Y-51380000D02*
X58790000Y-52380000D01*
X60490000Y-52380000D02*
X60490000Y-51380000D01*
X48690000Y-57430000D02*
X54640000Y-57430000D01*
X54640000Y-57430000D02*
X54640000Y-47330000D01*
X54640000Y-47330000D02*
X48690000Y-47330000D01*
X48690000Y-47330000D02*
X48690000Y-57430000D01*
X48690000Y-54130000D02*
X49440000Y-54130000D01*
X49440000Y-54130000D02*
X49440000Y-50630000D01*
X49440000Y-50630000D02*
X48690000Y-50630000D01*
X48690000Y-50630000D02*
X48690000Y-54130000D01*
X48690000Y-57430000D02*
X49440000Y-57430000D01*
X49440000Y-57430000D02*
X49440000Y-55630000D01*
X49440000Y-55630000D02*
X48690000Y-55630000D01*
X48690000Y-55630000D02*
X48690000Y-57430000D01*
X48690000Y-49130000D02*
X49440000Y-49130000D01*
X49440000Y-49130000D02*
X49440000Y-47330000D01*
X49440000Y-47330000D02*
X48690000Y-47330000D01*
X48690000Y-47330000D02*
X48690000Y-49130000D01*
X50940000Y-57430000D02*
X50940000Y-56680000D01*
X50940000Y-56680000D02*
X53890000Y-56680000D01*
X53890000Y-56680000D02*
X53890000Y-52380000D01*
X50940000Y-47330000D02*
X50940000Y-48080000D01*
X50940000Y-48080000D02*
X53890000Y-48080000D01*
X53890000Y-48080000D02*
X53890000Y-52380000D01*
X48390000Y-55230000D02*
X48390000Y-57730000D01*
X48390000Y-57730000D02*
X50890000Y-57730000D01*
X48690000Y-45430000D02*
X54640000Y-45430000D01*
X54640000Y-45430000D02*
X54640000Y-37830000D01*
X54640000Y-37830000D02*
X48690000Y-37830000D01*
X48690000Y-37830000D02*
X48690000Y-45430000D01*
X48690000Y-42130000D02*
X49440000Y-42130000D01*
X49440000Y-42130000D02*
X49440000Y-41130000D01*
X49440000Y-41130000D02*
X48690000Y-41130000D01*
X48690000Y-41130000D02*
X48690000Y-42130000D01*
X48690000Y-45430000D02*
X49440000Y-45430000D01*
X49440000Y-45430000D02*
X49440000Y-43630000D01*
X49440000Y-43630000D02*
X48690000Y-43630000D01*
X48690000Y-43630000D02*
X48690000Y-45430000D01*
X48690000Y-39630000D02*
X49440000Y-39630000D01*
X49440000Y-39630000D02*
X49440000Y-37830000D01*
X49440000Y-37830000D02*
X48690000Y-37830000D01*
X48690000Y-37830000D02*
X48690000Y-39630000D01*
X50940000Y-45430000D02*
X50940000Y-44680000D01*
X50940000Y-44680000D02*
X53890000Y-44680000D01*
X53890000Y-44680000D02*
X53890000Y-41630000D01*
X50940000Y-37830000D02*
X50940000Y-38580000D01*
X50940000Y-38580000D02*
X53890000Y-38580000D01*
X53890000Y-38580000D02*
X53890000Y-41630000D01*
X48390000Y-43230000D02*
X48390000Y-45730000D01*
X48390000Y-45730000D02*
X50890000Y-45730000D01*
X83090000Y-49830000D02*
X77140000Y-49830000D01*
X77140000Y-49830000D02*
X77140000Y-57430000D01*
X77140000Y-57430000D02*
X83090000Y-57430000D01*
X83090000Y-57430000D02*
X83090000Y-49830000D01*
X83090000Y-53130000D02*
X82340000Y-53130000D01*
X82340000Y-53130000D02*
X82340000Y-54130000D01*
X82340000Y-54130000D02*
X83090000Y-54130000D01*
X83090000Y-54130000D02*
X83090000Y-53130000D01*
X83090000Y-49830000D02*
X82340000Y-49830000D01*
X82340000Y-49830000D02*
X82340000Y-51630000D01*
X82340000Y-51630000D02*
X83090000Y-51630000D01*
X83090000Y-51630000D02*
X83090000Y-49830000D01*
X83090000Y-55630000D02*
X82340000Y-55630000D01*
X82340000Y-55630000D02*
X82340000Y-57430000D01*
X82340000Y-57430000D02*
X83090000Y-57430000D01*
X83090000Y-57430000D02*
X83090000Y-55630000D01*
X80840000Y-49830000D02*
X80840000Y-50580000D01*
X80840000Y-50580000D02*
X77890000Y-50580000D01*
X77890000Y-50580000D02*
X77890000Y-53630000D01*
X80840000Y-57430000D02*
X80840000Y-56680000D01*
X80840000Y-56680000D02*
X77890000Y-56680000D01*
X77890000Y-56680000D02*
X77890000Y-53630000D01*
X83390000Y-52030000D02*
X83390000Y-49530000D01*
X83390000Y-49530000D02*
X80890000Y-49530000D01*
X71760000Y-48980000D02*
X71760000Y-47780000D01*
X73520000Y-47780000D02*
X73520000Y-48980000D01*
X71760000Y-53980000D02*
X71760000Y-52780000D01*
X73520000Y-52780000D02*
X73520000Y-53980000D01*
D13*
X64065000Y-49805000D02*
X64065000Y-49855000D01*
X68215000Y-49805000D02*
X68215000Y-49950000D01*
X68215000Y-54955000D02*
X68215000Y-54810000D01*
X64065000Y-54955000D02*
X64065000Y-54810000D01*
X64065000Y-49805000D02*
X68215000Y-49805000D01*
X64065000Y-54955000D02*
X68215000Y-54955000D01*
X64065000Y-49855000D02*
X62665000Y-49855000D01*
D16*
X68050000Y-44790000D02*
X68050000Y-43530000D01*
X68050000Y-37970000D02*
X68050000Y-39230000D01*
X64290000Y-44790000D02*
X68050000Y-44790000D01*
X62040000Y-37970000D02*
X68050000Y-37970000D01*
X57275000Y-118616000D02*
X55095000Y-118616000D01*
X50675000Y-118616000D02*
X52855000Y-118616000D01*
X51435000Y-112016000D02*
X52855000Y-112016000D01*
X56515000Y-112016000D02*
X55095000Y-112016000D01*
X50675000Y-118616000D02*
X50675000Y-112776000D01*
X50675000Y-112776000D02*
X51435000Y-112016000D01*
X56515000Y-112016000D02*
X57275000Y-112776000D01*
X57275000Y-112776000D02*
X57275000Y-118616000D01*
X74922000Y-124499000D02*
X73922000Y-124499000D01*
X73922000Y-126199000D02*
X74922000Y-126199000D01*
X52490000Y-124595000D02*
X52490000Y-125595000D01*
X54190000Y-125595000D02*
X54190000Y-124595000D01*
X89533000Y-126490000D02*
X87353000Y-126490000D01*
X82933000Y-126490000D02*
X85113000Y-126490000D01*
X83693000Y-119890000D02*
X85113000Y-119890000D01*
X88773000Y-119890000D02*
X87353000Y-119890000D01*
X82933000Y-126490000D02*
X82933000Y-120650000D01*
X82933000Y-120650000D02*
X83693000Y-119890000D01*
X88773000Y-119890000D02*
X89533000Y-120650000D01*
X89533000Y-120650000D02*
X89533000Y-126490000D01*
X76150000Y-120902000D02*
X76150000Y-123902000D01*
X76150000Y-123902000D02*
X63550000Y-123902000D01*
X63550000Y-123902000D02*
X63550000Y-120902000D01*
X63550000Y-114302000D02*
X63550000Y-111302000D01*
X63550000Y-111302000D02*
X76150000Y-111302000D01*
X76150000Y-111302000D02*
X76150000Y-114302000D01*
X48320000Y-116840000D02*
X48320000Y-114240000D01*
X48320000Y-114240000D02*
X45660000Y-114240000D01*
X45660000Y-114240000D02*
X45660000Y-116840000D01*
X45660000Y-116840000D02*
X48320000Y-116840000D01*
X48320000Y-118110000D02*
X48320000Y-119440000D01*
X48320000Y-119440000D02*
X46990000Y-119440000D01*
X83626000Y-114681000D02*
X83626000Y-112081000D01*
X83626000Y-112081000D02*
X80966000Y-112081000D01*
X80966000Y-112081000D02*
X80966000Y-114681000D01*
X80966000Y-114681000D02*
X83626000Y-114681000D01*
X83626000Y-115951000D02*
X83626000Y-117281000D01*
X83626000Y-117281000D02*
X82296000Y-117281000D01*
X58491000Y-113282000D02*
X59421000Y-113282000D01*
X61651000Y-113282000D02*
X60721000Y-113282000D01*
X61651000Y-113282000D02*
X61651000Y-111122000D01*
X58491000Y-113282000D02*
X58491000Y-111822000D01*
X55508000Y-122774000D02*
X55508000Y-121574000D01*
X57268000Y-121574000D02*
X57268000Y-122774000D01*
X80788034Y-121135433D02*
G75*
G02X81903000Y-122071000I164966J-935567D01*
G01*
X81901737Y-122054944D02*
G75*
G02X80131000Y-122545000I-948737J-16056D01*
G01*
X77663000Y-127621000D02*
X77663000Y-120791000D01*
X82283000Y-127621000D02*
X82283000Y-120791000D01*
X77663000Y-127621000D02*
X79418000Y-127621000D01*
X80349000Y-127621000D02*
X82283000Y-127621000D01*
X77663000Y-120791000D02*
X79418000Y-120791000D01*
X80349000Y-120791000D02*
X82283000Y-120791000D01*
X80799000Y-121801000D02*
X81674000Y-122675000D01*
X80803000Y-122036000D02*
X81558000Y-122791000D01*
X49165034Y-122024433D02*
G75*
G02X50280000Y-122960000I164966J-935567D01*
G01*
X50278737Y-122943944D02*
G75*
G02X48508000Y-123434000I-948737J-16056D01*
G01*
X46040000Y-128510000D02*
X46040000Y-121680000D01*
X50660000Y-128510000D02*
X50660000Y-121680000D01*
X46040000Y-128510000D02*
X47795000Y-128510000D01*
X48726000Y-128510000D02*
X50660000Y-128510000D01*
X46040000Y-121680000D02*
X47795000Y-121680000D01*
X48726000Y-121680000D02*
X50660000Y-121680000D01*
X49176000Y-122690000D02*
X50051000Y-123564000D01*
X49180000Y-122925000D02*
X49935000Y-123680000D01*
X73822000Y-126501000D02*
X75022000Y-126501000D01*
X75022000Y-128261000D02*
X73822000Y-128261000D01*
D13*
X61950000Y-126720000D02*
X61950000Y-126595000D01*
X58700000Y-126720000D02*
X58700000Y-126495000D01*
X58700000Y-123470000D02*
X58700000Y-123695000D01*
X61950000Y-123470000D02*
X61950000Y-123695000D01*
X61950000Y-126720000D02*
X58700000Y-126720000D01*
X61950000Y-123470000D02*
X58700000Y-123470000D01*
X61950000Y-126595000D02*
X63025000Y-126595000D01*
D16*
X67885000Y-127254000D02*
X67885000Y-127314000D01*
X67885000Y-127314000D02*
X70545000Y-127314000D01*
X70545000Y-127314000D02*
X70545000Y-127254000D01*
X70545000Y-127254000D02*
X67885000Y-127254000D01*
X67885000Y-125984000D02*
X67885000Y-124654000D01*
X67885000Y-124654000D02*
X69215000Y-124654000D01*
X61721000Y-114710000D02*
X58421000Y-114710000D01*
X58421000Y-114710000D02*
X58421000Y-120110000D01*
X61721000Y-114710000D02*
X61721000Y-120110000D01*
X51681000Y-78652000D02*
X50681000Y-78652000D01*
X50681000Y-80352000D02*
X51681000Y-80352000D01*
X47283000Y-75446000D02*
X47283000Y-76446000D01*
X48983000Y-76446000D02*
X48983000Y-75446000D01*
X59017000Y-79578000D02*
X60617000Y-79578000D01*
X60617000Y-79578000D02*
X60617000Y-76978000D01*
X59017000Y-79578000D02*
X59017000Y-76978000D01*
X56985000Y-79578000D02*
X58585000Y-79578000D01*
X58585000Y-79578000D02*
X58585000Y-76978000D01*
X56985000Y-79578000D02*
X56985000Y-76978000D01*
X45787000Y-68072000D02*
X45787000Y-70672000D01*
X45787000Y-70672000D02*
X48447000Y-70672000D01*
X48447000Y-70672000D02*
X48447000Y-68072000D01*
X48447000Y-68072000D02*
X45787000Y-68072000D01*
X45787000Y-66802000D02*
X45787000Y-65472000D01*
X45787000Y-65472000D02*
X47117000Y-65472000D01*
D13*
X50580000Y-73305000D02*
X50645000Y-73305000D01*
X54830000Y-73305000D02*
X54765000Y-73305000D01*
X54830000Y-76555000D02*
X54765000Y-76555000D01*
X50580000Y-76555000D02*
X50580000Y-73305000D01*
X54830000Y-76555000D02*
X54830000Y-73305000D01*
X50580000Y-76555000D02*
X50580000Y-77480000D01*
D16*
X57979000Y-68072000D02*
X57979000Y-70672000D01*
X57979000Y-70672000D02*
X60639000Y-70672000D01*
X60639000Y-70672000D02*
X60639000Y-68072000D01*
X60639000Y-68072000D02*
X57979000Y-68072000D01*
X57979000Y-66802000D02*
X57979000Y-65472000D01*
X57979000Y-65472000D02*
X59309000Y-65472000D01*
X60517000Y-72114000D02*
X59117000Y-72114000D01*
X59117000Y-72114000D02*
X59117000Y-74914000D01*
X60517000Y-72114000D02*
X60517000Y-74914000D01*
X58485000Y-72114000D02*
X57085000Y-72114000D01*
X57085000Y-72114000D02*
X57085000Y-74914000D01*
X58485000Y-72114000D02*
X58485000Y-74914000D01*
X50613000Y-70302000D02*
X50613000Y-63702000D01*
X55813000Y-69302000D02*
X55813000Y-64302000D01*
X81840000Y-67910000D02*
X83640000Y-67910000D01*
X83640000Y-64690000D02*
X81190000Y-64690000D01*
X73860000Y-70900000D02*
X73860000Y-69700000D01*
X75620000Y-69700000D02*
X75620000Y-70900000D01*
X74140000Y-65420000D02*
X75340000Y-65420000D01*
X75340000Y-67180000D02*
X74140000Y-67180000D01*
X77860000Y-65900000D02*
X77860000Y-64700000D01*
X79620000Y-64700000D02*
X79620000Y-65900000D01*
X88090000Y-67300000D02*
X88090000Y-66300000D01*
X86390000Y-66300000D02*
X86390000Y-67300000D01*
X81740000Y-70730000D02*
X83740000Y-70730000D01*
X83740000Y-72870000D02*
X81740000Y-72870000D01*
X66290000Y-73850000D02*
X72240000Y-73850000D01*
X72240000Y-73850000D02*
X72240000Y-61250000D01*
X72240000Y-61250000D02*
X66290000Y-61250000D01*
X66290000Y-61250000D02*
X66290000Y-73850000D01*
X66290000Y-70550000D02*
X67040000Y-70550000D01*
X67040000Y-70550000D02*
X67040000Y-64550000D01*
X67040000Y-64550000D02*
X66290000Y-64550000D01*
X66290000Y-64550000D02*
X66290000Y-70550000D01*
X66290000Y-73850000D02*
X67040000Y-73850000D01*
X67040000Y-73850000D02*
X67040000Y-72050000D01*
X67040000Y-72050000D02*
X66290000Y-72050000D01*
X66290000Y-72050000D02*
X66290000Y-73850000D01*
X66290000Y-63050000D02*
X67040000Y-63050000D01*
X67040000Y-63050000D02*
X67040000Y-61250000D01*
X67040000Y-61250000D02*
X66290000Y-61250000D01*
X66290000Y-61250000D02*
X66290000Y-63050000D01*
X68540000Y-73850000D02*
X68540000Y-73100000D01*
X68540000Y-73100000D02*
X71490000Y-73100000D01*
X71490000Y-73100000D02*
X71490000Y-67550000D01*
X68540000Y-61250000D02*
X68540000Y-62000000D01*
X68540000Y-62000000D02*
X71490000Y-62000000D01*
X71490000Y-62000000D02*
X71490000Y-67550000D01*
X65990000Y-71650000D02*
X65990000Y-74150000D01*
X65990000Y-74150000D02*
X68490000Y-74150000D01*
X95190000Y-63750000D02*
X89240000Y-63750000D01*
X89240000Y-63750000D02*
X89240000Y-73850000D01*
X89240000Y-73850000D02*
X95190000Y-73850000D01*
X95190000Y-73850000D02*
X95190000Y-63750000D01*
X95190000Y-67050000D02*
X94440000Y-67050000D01*
X94440000Y-67050000D02*
X94440000Y-70550000D01*
X94440000Y-70550000D02*
X95190000Y-70550000D01*
X95190000Y-70550000D02*
X95190000Y-67050000D01*
X95190000Y-63750000D02*
X94440000Y-63750000D01*
X94440000Y-63750000D02*
X94440000Y-65550000D01*
X94440000Y-65550000D02*
X95190000Y-65550000D01*
X95190000Y-65550000D02*
X95190000Y-63750000D01*
X95190000Y-72050000D02*
X94440000Y-72050000D01*
X94440000Y-72050000D02*
X94440000Y-73850000D01*
X94440000Y-73850000D02*
X95190000Y-73850000D01*
X95190000Y-73850000D02*
X95190000Y-72050000D01*
X92940000Y-63750000D02*
X92940000Y-64500000D01*
X92940000Y-64500000D02*
X89990000Y-64500000D01*
X89990000Y-64500000D02*
X89990000Y-68800000D01*
X92940000Y-73850000D02*
X92940000Y-73100000D01*
X92940000Y-73100000D02*
X89990000Y-73100000D01*
X89990000Y-73100000D02*
X89990000Y-68800000D01*
X95490000Y-65950000D02*
X95490000Y-63450000D01*
X95490000Y-63450000D02*
X92990000Y-63450000D01*
D13*
X122743000Y-82063000D02*
X127193000Y-82063000D01*
X121218000Y-75163000D02*
X127193000Y-75163000D01*
D16*
X127160400Y-75043400D02*
X128160400Y-75043400D01*
X128160400Y-73343400D02*
X127160400Y-73343400D01*
X133234800Y-77487400D02*
X133234800Y-76487400D01*
X131534800Y-76487400D02*
X131534800Y-77487400D01*
X117055600Y-68478200D02*
X117055600Y-76878200D01*
X112255600Y-68478200D02*
X112255600Y-76878200D01*
X117055600Y-68478200D02*
X112255600Y-68478200D01*
X111970000Y-76565000D02*
X111970000Y-74565000D01*
X109010000Y-74565000D02*
X109010000Y-76565000D01*
X131800800Y-87871000D02*
X123400800Y-87871000D01*
X131800800Y-83071000D02*
X123400800Y-83071000D01*
X131800800Y-87871000D02*
X131800800Y-83071000D01*
X132528000Y-83566000D02*
X132528000Y-86166000D01*
X132528000Y-86166000D02*
X135188000Y-86166000D01*
X135188000Y-86166000D02*
X135188000Y-83566000D01*
X135188000Y-83566000D02*
X132528000Y-83566000D01*
X132528000Y-82296000D02*
X132528000Y-80966000D01*
X132528000Y-80966000D02*
X133858000Y-80966000D01*
X107857600Y-75717400D02*
X107857600Y-73117400D01*
X107857600Y-73117400D02*
X105197600Y-73117400D01*
X105197600Y-73117400D02*
X105197600Y-75717400D01*
X105197600Y-75717400D02*
X107857600Y-75717400D01*
X107857600Y-76987400D02*
X107857600Y-78317400D01*
X107857600Y-78317400D02*
X106527600Y-78317400D01*
X105952400Y-87645800D02*
X105952400Y-86445800D01*
X107712400Y-86445800D02*
X107712400Y-87645800D01*
X115688000Y-79283000D02*
X115688000Y-80483000D01*
X113928000Y-80483000D02*
X113928000Y-79283000D01*
X109965600Y-87442600D02*
X109965600Y-86242600D01*
X111725600Y-86242600D02*
X111725600Y-87442600D01*
X105952400Y-84496200D02*
X105952400Y-83296200D01*
X107712400Y-83296200D02*
X107712400Y-84496200D01*
X118652400Y-85715400D02*
X118652400Y-84515400D01*
X120412400Y-84515400D02*
X120412400Y-85715400D01*
X109965600Y-83734200D02*
X109965600Y-82534200D01*
X111725600Y-82534200D02*
X111725600Y-83734200D01*
X118414000Y-63121000D02*
X118414000Y-60121000D01*
X118414000Y-60121000D02*
X131014000Y-60121000D01*
X131014000Y-60121000D02*
X131014000Y-63121000D01*
X131014000Y-69721000D02*
X131014000Y-72721000D01*
X131014000Y-72721000D02*
X118414000Y-72721000D01*
X118414000Y-72721000D02*
X118414000Y-69721000D01*
X133104000Y-80479000D02*
X134104000Y-80479000D01*
X134104000Y-78779000D02*
X133104000Y-78779000D01*
X113958000Y-82685000D02*
X113958000Y-83685000D01*
X115658000Y-83685000D02*
X115658000Y-82685000D01*
X115658000Y-87241000D02*
X115658000Y-86241000D01*
X113958000Y-86241000D02*
X113958000Y-87241000D01*
X107733200Y-81094200D02*
X107733200Y-80094200D01*
X106033200Y-80094200D02*
X106033200Y-81094200D01*
X105223000Y-70358000D02*
X105223000Y-70418000D01*
X105223000Y-70418000D02*
X107883000Y-70418000D01*
X107883000Y-70418000D02*
X107883000Y-70358000D01*
X107883000Y-70358000D02*
X105223000Y-70358000D01*
X105223000Y-69088000D02*
X105223000Y-67758000D01*
X105223000Y-67758000D02*
X106553000Y-67758000D01*
D13*
X128358000Y-114673000D02*
X128358000Y-113673000D01*
X126658000Y-113673000D02*
X126658000Y-114673000D01*
X115658000Y-109466000D02*
X115658000Y-108466000D01*
X113958000Y-108466000D02*
X113958000Y-109466000D01*
D16*
X133432000Y-101980000D02*
X133432000Y-98680000D01*
X133432000Y-98680000D02*
X126532000Y-98680000D01*
X133432000Y-101980000D02*
X126532000Y-101980000D01*
D13*
X113364000Y-93690000D02*
X123364000Y-93690000D01*
X113364000Y-101890000D02*
X123364000Y-101890000D01*
D16*
X123500000Y-103380000D02*
X122570000Y-103380000D01*
X120340000Y-103380000D02*
X121270000Y-103380000D01*
X120340000Y-103380000D02*
X120340000Y-105540000D01*
X123500000Y-103380000D02*
X123500000Y-104840000D01*
D13*
X127279400Y-105206800D02*
X127279400Y-108661200D01*
X131038600Y-105206800D02*
X131038600Y-108661200D01*
X116092000Y-109566000D02*
X116092000Y-108366000D01*
X117842000Y-108366000D02*
X117842000Y-109566000D01*
X120607000Y-106645000D02*
X120607000Y-106695000D01*
X124757000Y-106645000D02*
X124757000Y-106790000D01*
X124757000Y-111795000D02*
X124757000Y-111650000D01*
X120607000Y-111795000D02*
X120607000Y-111650000D01*
X120607000Y-106645000D02*
X124757000Y-106645000D01*
X120607000Y-111795000D02*
X124757000Y-111795000D01*
X120607000Y-106695000D02*
X119207000Y-106695000D01*
D16*
X109474000Y-113732000D02*
X106874000Y-113732000D01*
X106874000Y-113732000D02*
X106874000Y-116392000D01*
X106874000Y-116392000D02*
X109474000Y-116392000D01*
X109474000Y-116392000D02*
X109474000Y-113732000D01*
X110744000Y-113732000D02*
X112074000Y-113732000D01*
X112074000Y-113732000D02*
X112074000Y-115062000D01*
X131826000Y-113732000D02*
X129226000Y-113732000D01*
X129226000Y-113732000D02*
X129226000Y-116392000D01*
X129226000Y-116392000D02*
X131826000Y-116392000D01*
X131826000Y-116392000D02*
X131826000Y-113732000D01*
X133096000Y-113732000D02*
X134426000Y-113732000D01*
X134426000Y-113732000D02*
X134426000Y-115062000D01*
X111260000Y-108800000D02*
X112260000Y-108800000D01*
X112260000Y-107100000D02*
X111260000Y-107100000D01*
X112260000Y-109132000D02*
X111260000Y-109132000D01*
X111260000Y-110832000D02*
X112260000Y-110832000D01*
X111236000Y-103422000D02*
X109236000Y-103422000D01*
X109236000Y-106382000D02*
X111236000Y-106382000D01*
X116214000Y-114011000D02*
X116214000Y-112811000D01*
X117974000Y-112811000D02*
X117974000Y-114011000D01*
X106820000Y-103048000D02*
X106820000Y-94648000D01*
X111620000Y-103048000D02*
X111620000Y-94648000D01*
X106820000Y-103048000D02*
X111620000Y-103048000D01*
X134290000Y-98158000D02*
X125890000Y-98158000D01*
X134290000Y-93358000D02*
X125890000Y-93358000D01*
X134290000Y-98158000D02*
X134290000Y-93358000D01*
X112970000Y-116332000D02*
X112970000Y-116392000D01*
X112970000Y-116392000D02*
X115630000Y-116392000D01*
X115630000Y-116392000D02*
X115630000Y-116332000D01*
X115630000Y-116332000D02*
X112970000Y-116332000D01*
X112970000Y-115062000D02*
X112970000Y-113732000D01*
X112970000Y-113732000D02*
X114300000Y-113732000D01*
X66615000Y-103251000D02*
X66615000Y-105851000D01*
X66615000Y-105851000D02*
X69275000Y-105851000D01*
X69275000Y-105851000D02*
X69275000Y-103251000D01*
X69275000Y-103251000D02*
X66615000Y-103251000D01*
X66615000Y-101981000D02*
X66615000Y-100651000D01*
X66615000Y-100651000D02*
X67945000Y-100651000D01*
X55483000Y-97199000D02*
X53483000Y-97199000D01*
X53483000Y-100159000D02*
X55483000Y-100159000D01*
X55709000Y-106029000D02*
X55709000Y-104029000D01*
X52749000Y-104029000D02*
X52749000Y-106029000D01*
X62619000Y-103079000D02*
X63619000Y-103079000D01*
X63619000Y-104439000D02*
X62619000Y-104439000D01*
X63619000Y-106217000D02*
X62619000Y-106217000D01*
X62619000Y-104857000D02*
X63619000Y-104857000D01*
X57191000Y-101589000D02*
X57191000Y-103389000D01*
X60411000Y-103389000D02*
X60411000Y-100439000D01*
X62147000Y-98441000D02*
X62147000Y-100441000D01*
X65107000Y-100441000D02*
X65107000Y-98441000D01*
X65291000Y-95993000D02*
X65291000Y-86393000D01*
X70091000Y-95993000D02*
X70091000Y-86393000D01*
X65291000Y-95993000D02*
X70091000Y-95993000D01*
X63069000Y-93597000D02*
X63069000Y-96597000D01*
X63069000Y-96597000D02*
X50469000Y-96597000D01*
X50469000Y-96597000D02*
X50469000Y-93597000D01*
X50469000Y-86997000D02*
X50469000Y-83997000D01*
X50469000Y-83997000D02*
X63069000Y-83997000D01*
X63069000Y-83997000D02*
X63069000Y-86997000D01*
X51495000Y-104775000D02*
X51495000Y-99635000D01*
X51495000Y-99635000D02*
X48835000Y-99635000D01*
X48835000Y-99635000D02*
X48835000Y-104775000D01*
X48835000Y-104775000D02*
X51495000Y-104775000D01*
X51495000Y-106045000D02*
X51495000Y-107375000D01*
X51495000Y-107375000D02*
X50165000Y-107375000D01*
D13*
X129627381Y-43544762D02*
X129627381Y-43354285D01*
X129675000Y-43259047D01*
X129770238Y-43163809D01*
X129960714Y-43116190D01*
X130294048Y-43116190D01*
X130484524Y-43163809D01*
X130579762Y-43259047D01*
X130627381Y-43354285D01*
X130627381Y-43544762D01*
X130579762Y-43640000D01*
X130484524Y-43735238D01*
X130294048Y-43782857D01*
X129960714Y-43782857D01*
X129770238Y-43735238D01*
X129675000Y-43640000D01*
X129627381Y-43544762D01*
X129627381Y-42687619D02*
X130436905Y-42687619D01*
X130532143Y-42640000D01*
X130579762Y-42592381D01*
X130627381Y-42497143D01*
X130627381Y-42306666D01*
X130579762Y-42211428D01*
X130532143Y-42163809D01*
X130436905Y-42116190D01*
X129627381Y-42116190D01*
X129627381Y-41782857D02*
X129627381Y-41211428D01*
X130627381Y-41497143D02*
X129627381Y-41497143D01*
X129675000Y-39592380D02*
X129627381Y-39687618D01*
X129627381Y-39830475D01*
X129675000Y-39973333D01*
X129770238Y-40068571D01*
X129865476Y-40116190D01*
X130055952Y-40163809D01*
X130198810Y-40163809D01*
X130389286Y-40116190D01*
X130484524Y-40068571D01*
X130579762Y-39973333D01*
X130627381Y-39830475D01*
X130627381Y-39735237D01*
X130579762Y-39592380D01*
X130532143Y-39544761D01*
X130198810Y-39544761D01*
X130198810Y-39735237D01*
X130627381Y-39116190D02*
X129627381Y-39116190D01*
X130627381Y-38544761D01*
X129627381Y-38544761D01*
X130627381Y-38068571D02*
X129627381Y-38068571D01*
X129627381Y-37830476D01*
X129675000Y-37687618D01*
X129770238Y-37592380D01*
X129865476Y-37544761D01*
X130055952Y-37497142D01*
X130198810Y-37497142D01*
X130389286Y-37544761D01*
X130484524Y-37592380D01*
X130579762Y-37687618D01*
X130627381Y-37830476D01*
X130627381Y-38068571D01*
X128379429Y-44995952D02*
X128379429Y-44234047D01*
X128760381Y-44614999D02*
X127998476Y-44614999D01*
X96121429Y-37121952D02*
X96121429Y-36360047D01*
X96502381Y-36740999D02*
X95740476Y-36740999D01*
X51036429Y-111416952D02*
X51036429Y-110655047D01*
X51417381Y-111035999D02*
X50655476Y-111035999D01*
X83294429Y-119290952D02*
X83294429Y-118529047D01*
X83675381Y-118909999D02*
X82913476Y-118909999D01*
X84542381Y-117839762D02*
X84542381Y-117649285D01*
X84590000Y-117554047D01*
X84685238Y-117458809D01*
X84875714Y-117411190D01*
X85209048Y-117411190D01*
X85399524Y-117458809D01*
X85494762Y-117554047D01*
X85542381Y-117649285D01*
X85542381Y-117839762D01*
X85494762Y-117935000D01*
X85399524Y-118030238D01*
X85209048Y-118077857D01*
X84875714Y-118077857D01*
X84685238Y-118030238D01*
X84590000Y-117935000D01*
X84542381Y-117839762D01*
X84542381Y-116982619D02*
X85351905Y-116982619D01*
X85447143Y-116935000D01*
X85494762Y-116887381D01*
X85542381Y-116792143D01*
X85542381Y-116601666D01*
X85494762Y-116506428D01*
X85447143Y-116458809D01*
X85351905Y-116411190D01*
X84542381Y-116411190D01*
X84542381Y-116077857D02*
X84542381Y-115506428D01*
X85542381Y-115792143D02*
X84542381Y-115792143D01*
X84590000Y-113887380D02*
X84542381Y-113982618D01*
X84542381Y-114125475D01*
X84590000Y-114268333D01*
X84685238Y-114363571D01*
X84780476Y-114411190D01*
X84970952Y-114458809D01*
X85113810Y-114458809D01*
X85304286Y-114411190D01*
X85399524Y-114363571D01*
X85494762Y-114268333D01*
X85542381Y-114125475D01*
X85542381Y-114030237D01*
X85494762Y-113887380D01*
X85447143Y-113839761D01*
X85113810Y-113839761D01*
X85113810Y-114030237D01*
X85542381Y-113411190D02*
X84542381Y-113411190D01*
X85542381Y-112839761D01*
X84542381Y-112839761D01*
X85542381Y-112363571D02*
X84542381Y-112363571D01*
X84542381Y-112125476D01*
X84590000Y-111982618D01*
X84685238Y-111887380D01*
X84780476Y-111839761D01*
X84970952Y-111792142D01*
X85113810Y-111792142D01*
X85304286Y-111839761D01*
X85399524Y-111887380D01*
X85494762Y-111982618D01*
X85542381Y-112125476D01*
X85542381Y-112363571D01*
M02*
