G04 #@! TF.FileFunction,Soldermask,Bot*
%FSLAX46Y46*%
G04 Gerber Fmt 4.6, Leading zero omitted, Abs format (unit mm)*
G04 Created by KiCad (PCBNEW 4.0.5) date 07/05/17 15:18:17*
%MOMM*%
%LPD*%
G01*
G04 APERTURE LIST*
%ADD10C,0.100000*%
%ADD11R,2.100000X2.100000*%
%ADD12O,2.100000X2.100000*%
%ADD13C,1.840000*%
%ADD14R,2.150000X2.150000*%
%ADD15C,2.150000*%
G04 APERTURE END LIST*
D10*
D11*
X80010000Y-106045000D03*
D12*
X80010000Y-103505000D03*
X80010000Y-100965000D03*
D11*
X97790000Y-101981000D03*
D12*
X97790000Y-104521000D03*
D11*
X114300000Y-51689000D03*
D13*
X93345000Y-48260000D03*
X93345000Y-50800000D03*
X93345000Y-53340000D03*
X124968000Y-47371000D03*
X124968000Y-49911000D03*
X124968000Y-52451000D03*
D11*
X127381000Y-41656000D03*
D12*
X127381000Y-39116000D03*
D11*
X92075000Y-43815000D03*
D12*
X92075000Y-41275000D03*
D14*
X51140000Y-54880000D03*
D15*
X51140000Y-52380000D03*
X51140000Y-49880000D03*
D14*
X51140000Y-42880000D03*
D15*
X51140000Y-40380000D03*
D14*
X80640000Y-52380000D03*
D15*
X80640000Y-54880000D03*
D11*
X46990000Y-118110000D03*
D12*
X46990000Y-115570000D03*
D11*
X82296000Y-115951000D03*
D12*
X82296000Y-113411000D03*
D13*
X79883000Y-121666000D03*
X79883000Y-124206000D03*
X79883000Y-126746000D03*
X48260000Y-122555000D03*
X48260000Y-125095000D03*
X48260000Y-127635000D03*
D11*
X69215000Y-125984000D03*
X47117000Y-66802000D03*
D12*
X47117000Y-69342000D03*
D11*
X59309000Y-66802000D03*
D12*
X59309000Y-69342000D03*
D14*
X68740000Y-71300000D03*
D15*
X68740000Y-68800000D03*
X68740000Y-66300000D03*
X68740000Y-63800000D03*
D14*
X92740000Y-66300000D03*
D15*
X92740000Y-68800000D03*
X92740000Y-71300000D03*
D11*
X133858000Y-82296000D03*
D12*
X133858000Y-84836000D03*
D11*
X106527600Y-76987400D03*
D12*
X106527600Y-74447400D03*
D11*
X106553000Y-69088000D03*
X110744000Y-115062000D03*
D12*
X108204000Y-115062000D03*
D11*
X133096000Y-115062000D03*
D12*
X130556000Y-115062000D03*
D11*
X114300000Y-115062000D03*
X67945000Y-101981000D03*
D12*
X67945000Y-104521000D03*
D11*
X50165000Y-106045000D03*
D12*
X50165000Y-103505000D03*
X50165000Y-100965000D03*
M02*
