<?xml version="1.0" standalone="no"?>
 <!DOCTYPE svg PUBLIC "-//W3C//DTD SVG 1.1//EN" 
 "http://www.w3.org/Graphics/SVG/1.1/DTD/svg11.dtd"> 
<svg xmlns="http://www.w3.org/2000/svg" version="1.1" 
    width="29.7002cm" height="21.0007cm" viewBox="0 0 116930 82680 ">
<title>SVG Picture created as _autosave-max1771-F.Cu.svg date 2016/11/02 12:25:48 </title>
  <desc>Picture generated by PCBNEW </desc>
<g style="fill:#000000; fill-opacity:1;stroke:#000000; stroke-opacity:1;
stroke-linecap:round; stroke-linejoin:round; "
 transform="translate(0 0) scale(1 1)">
</g>
<g style="fill:#000000; fill-opacity:0.0; 
stroke:#000000; stroke-width:-0.000393701; stroke-opacity:1; 
stroke-linecap:round; stroke-linejoin:round;">
</g>
<g style="fill:#000000; fill-opacity:0.0; 
stroke:#000000; stroke-width:19.685; stroke-opacity:1; 
stroke-linecap:round; stroke-linejoin:round;">
</g>
<g style="fill:#000000; fill-opacity:0.0; 
stroke:#000000; stroke-width:59.0551; stroke-opacity:1; 
stroke-linecap:round; stroke-linejoin:round;">
<rect x="69685.9" y="65357.2" width="42519.7" height="12598.4" rx="0" />
</g>
<g style="fill:#000000; fill-opacity:0.0; 
stroke:#000000; stroke-width:19.685; stroke-opacity:1; 
stroke-linecap:round; stroke-linejoin:round;">
</g>
<g style="fill:#000000; fill-opacity:0.0; 
stroke:#000000; stroke-width:59.0551; stroke-opacity:1; 
stroke-linecap:round; stroke-linejoin:round;">
<rect x="3937.01" y="3937.01" width="109056" height="74806" rx="0" />
</g>
<g style="fill:#000000; fill-opacity:0.0; 
stroke:#000000; stroke-width:19.685; stroke-opacity:1; 
stroke-linecap:round; stroke-linejoin:round;">
</g>
<g style="fill:#000000; fill-opacity:0.0; 
stroke:#000000; stroke-width:59.0551; stroke-opacity:1; 
stroke-linecap:round; stroke-linejoin:round;">
<rect x="4724.41" y="4724.41" width="107481" height="73231.2" rx="0" />
</g>
<g style="fill:#000000; fill-opacity:0.0; 
stroke:#000000; stroke-width:19.685; stroke-opacity:1; 
stroke-linecap:round; stroke-linejoin:round;">
</g>
<g style="fill:#000000; fill-opacity:0.0; 
stroke:#000000; stroke-width:59.0551; stroke-opacity:1; 
stroke-linecap:round; stroke-linejoin:round;">
<path d="M23622 4724
L23622 3937
" />
</g>
<g style="fill:#000000; fill-opacity:0.0; 
stroke:#000000; stroke-width:19.685; stroke-opacity:1; 
stroke-linecap:round; stroke-linejoin:round;">
</g>
<g style="fill:#000000; fill-opacity:0.0; 
stroke:#000000; stroke-width:59.0551; stroke-opacity:1; 
stroke-linecap:round; stroke-linejoin:round;">
<path d="M43307 4724
L43307 3937
" />
</g>
<g style="fill:#000000; fill-opacity:0.0; 
stroke:#000000; stroke-width:19.685; stroke-opacity:1; 
stroke-linecap:round; stroke-linejoin:round;">
</g>
<g style="fill:#000000; fill-opacity:0.0; 
stroke:#000000; stroke-width:59.0551; stroke-opacity:1; 
stroke-linecap:round; stroke-linejoin:round;">
<path d="M62992 4724
L62992 3937
" />
</g>
<g style="fill:#000000; fill-opacity:0.0; 
stroke:#000000; stroke-width:19.685; stroke-opacity:1; 
stroke-linecap:round; stroke-linejoin:round;">
</g>
<g style="fill:#000000; fill-opacity:0.0; 
stroke:#000000; stroke-width:59.0551; stroke-opacity:1; 
stroke-linecap:round; stroke-linejoin:round;">
<path d="M82677 4724
L82677 3937
" />
</g>
<g style="fill:#000000; fill-opacity:0.0; 
stroke:#000000; stroke-width:19.685; stroke-opacity:1; 
stroke-linecap:round; stroke-linejoin:round;">
</g>
<g style="fill:#000000; fill-opacity:0.0; 
stroke:#000000; stroke-width:59.0551; stroke-opacity:1; 
stroke-linecap:round; stroke-linejoin:round;">
<path d="M102362 4724
L102362 3937
" />
</g>
<g style="fill:#000000; fill-opacity:0.0; 
stroke:#000000; stroke-width:19.685; stroke-opacity:1; 
stroke-linecap:round; stroke-linejoin:round;">
</g>
<g style="fill:#000000; fill-opacity:0.0; 
stroke:#000000; stroke-width:59.0551; stroke-opacity:1; 
stroke-linecap:round; stroke-linejoin:round;">
<path d="M14169 4562
L13877 4562
" />
<path d="M14023 4562
L14023 4050
L13974 4123
L13925 4172
L13877 4196
" />
</g>
<g style="fill:#000000; fill-opacity:0.0; 
stroke:#000000; stroke-width:19.685; stroke-opacity:1; 
stroke-linecap:round; stroke-linejoin:round;">
</g>
<g style="fill:#000000; fill-opacity:0.0; 
stroke:#000000; stroke-width:59.0551; stroke-opacity:1; 
stroke-linecap:round; stroke-linejoin:round;">
<path d="M33562 4099
L33586 4074
L33635 4050
L33757 4050
L33805 4074
L33830 4099
L33854 4147
L33854 4196
L33830 4269
L33537 4562
L33854 4562
" />
</g>
<g style="fill:#000000; fill-opacity:0.0; 
stroke:#000000; stroke-width:19.685; stroke-opacity:1; 
stroke-linecap:round; stroke-linejoin:round;">
</g>
<g style="fill:#000000; fill-opacity:0.0; 
stroke:#000000; stroke-width:59.0551; stroke-opacity:1; 
stroke-linecap:round; stroke-linejoin:round;">
<path d="M53222 4050
L53539 4050
L53368 4245
L53442 4245
L53490 4269
L53515 4294
L53539 4342
L53539 4464
L53515 4513
L53490 4537
L53442 4562
L53295 4562
L53247 4537
L53222 4513
" />
</g>
<g style="fill:#000000; fill-opacity:0.0; 
stroke:#000000; stroke-width:19.685; stroke-opacity:1; 
stroke-linecap:round; stroke-linejoin:round;">
</g>
<g style="fill:#000000; fill-opacity:0.0; 
stroke:#000000; stroke-width:59.0551; stroke-opacity:1; 
stroke-linecap:round; stroke-linejoin:round;">
<path d="M73175 4221
L73175 4562
" />
<path d="M73053 4026
L72932 4391
L73248 4391
" />
</g>
<g style="fill:#000000; fill-opacity:0.0; 
stroke:#000000; stroke-width:19.685; stroke-opacity:1; 
stroke-linecap:round; stroke-linejoin:round;">
</g>
<g style="fill:#000000; fill-opacity:0.0; 
stroke:#000000; stroke-width:59.0551; stroke-opacity:1; 
stroke-linecap:round; stroke-linejoin:round;">
<path d="M92885 4050
L92641 4050
L92617 4294
L92641 4269
L92690 4245
L92812 4245
L92860 4269
L92885 4294
L92909 4342
L92909 4464
L92885 4513
L92860 4537
L92812 4562
L92690 4562
L92641 4537
L92617 4513
" />
</g>
<g style="fill:#000000; fill-opacity:0.0; 
stroke:#000000; stroke-width:19.685; stroke-opacity:1; 
stroke-linecap:round; stroke-linejoin:round;">
</g>
<g style="fill:#000000; fill-opacity:0.0; 
stroke:#000000; stroke-width:59.0551; stroke-opacity:1; 
stroke-linecap:round; stroke-linejoin:round;">
<path d="M112545 4050
L112448 4050
L112399 4074
L112375 4099
L112326 4172
L112302 4269
L112302 4464
L112326 4513
L112350 4537
L112399 4562
L112497 4562
L112545 4537
L112570 4513
L112594 4464
L112594 4342
L112570 4294
L112545 4269
L112497 4245
L112399 4245
L112350 4269
L112326 4294
L112302 4342
" />
</g>
<g style="fill:#000000; fill-opacity:0.0; 
stroke:#000000; stroke-width:19.685; stroke-opacity:1; 
stroke-linecap:round; stroke-linejoin:round;">
</g>
<g style="fill:#000000; fill-opacity:0.0; 
stroke:#000000; stroke-width:59.0551; stroke-opacity:1; 
stroke-linecap:round; stroke-linejoin:round;">
<path d="M23622 77955
L23622 78742
" />
</g>
<g style="fill:#000000; fill-opacity:0.0; 
stroke:#000000; stroke-width:19.685; stroke-opacity:1; 
stroke-linecap:round; stroke-linejoin:round;">
</g>
<g style="fill:#000000; fill-opacity:0.0; 
stroke:#000000; stroke-width:59.0551; stroke-opacity:1; 
stroke-linecap:round; stroke-linejoin:round;">
<path d="M43307 77955
L43307 78742
" />
</g>
<g style="fill:#000000; fill-opacity:0.0; 
stroke:#000000; stroke-width:19.685; stroke-opacity:1; 
stroke-linecap:round; stroke-linejoin:round;">
</g>
<g style="fill:#000000; fill-opacity:0.0; 
stroke:#000000; stroke-width:59.0551; stroke-opacity:1; 
stroke-linecap:round; stroke-linejoin:round;">
<path d="M62992 77955
L62992 78742
" />
</g>
<g style="fill:#000000; fill-opacity:0.0; 
stroke:#000000; stroke-width:19.685; stroke-opacity:1; 
stroke-linecap:round; stroke-linejoin:round;">
</g>
<g style="fill:#000000; fill-opacity:0.0; 
stroke:#000000; stroke-width:59.0551; stroke-opacity:1; 
stroke-linecap:round; stroke-linejoin:round;">
<path d="M82677 77955
L82677 78742
" />
</g>
<g style="fill:#000000; fill-opacity:0.0; 
stroke:#000000; stroke-width:19.685; stroke-opacity:1; 
stroke-linecap:round; stroke-linejoin:round;">
</g>
<g style="fill:#000000; fill-opacity:0.0; 
stroke:#000000; stroke-width:59.0551; stroke-opacity:1; 
stroke-linecap:round; stroke-linejoin:round;">
<path d="M102362 77955
L102362 78742
" />
</g>
<g style="fill:#000000; fill-opacity:0.0; 
stroke:#000000; stroke-width:19.685; stroke-opacity:1; 
stroke-linecap:round; stroke-linejoin:round;">
</g>
<g style="fill:#000000; fill-opacity:0.0; 
stroke:#000000; stroke-width:59.0551; stroke-opacity:1; 
stroke-linecap:round; stroke-linejoin:round;">
<path d="M14169 78580
L13877 78580
" />
<path d="M14023 78580
L14023 78069
L13974 78142
L13925 78190
L13877 78215
" />
</g>
<g style="fill:#000000; fill-opacity:0.0; 
stroke:#000000; stroke-width:19.685; stroke-opacity:1; 
stroke-linecap:round; stroke-linejoin:round;">
</g>
<g style="fill:#000000; fill-opacity:0.0; 
stroke:#000000; stroke-width:59.0551; stroke-opacity:1; 
stroke-linecap:round; stroke-linejoin:round;">
<path d="M33562 78117
L33586 78093
L33635 78069
L33757 78069
L33805 78093
L33830 78117
L33854 78166
L33854 78215
L33830 78288
L33537 78580
L33854 78580
" />
</g>
<g style="fill:#000000; fill-opacity:0.0; 
stroke:#000000; stroke-width:19.685; stroke-opacity:1; 
stroke-linecap:round; stroke-linejoin:round;">
</g>
<g style="fill:#000000; fill-opacity:0.0; 
stroke:#000000; stroke-width:59.0551; stroke-opacity:1; 
stroke-linecap:round; stroke-linejoin:round;">
<path d="M53222 78069
L53539 78069
L53368 78263
L53442 78263
L53490 78288
L53515 78312
L53539 78361
L53539 78483
L53515 78532
L53490 78556
L53442 78580
L53295 78580
L53247 78556
L53222 78532
" />
</g>
<g style="fill:#000000; fill-opacity:0.0; 
stroke:#000000; stroke-width:19.685; stroke-opacity:1; 
stroke-linecap:round; stroke-linejoin:round;">
</g>
<g style="fill:#000000; fill-opacity:0.0; 
stroke:#000000; stroke-width:59.0551; stroke-opacity:1; 
stroke-linecap:round; stroke-linejoin:round;">
<path d="M73175 78239
L73175 78580
" />
<path d="M73053 78044
L72932 78410
L73248 78410
" />
</g>
<g style="fill:#000000; fill-opacity:0.0; 
stroke:#000000; stroke-width:19.685; stroke-opacity:1; 
stroke-linecap:round; stroke-linejoin:round;">
</g>
<g style="fill:#000000; fill-opacity:0.0; 
stroke:#000000; stroke-width:59.0551; stroke-opacity:1; 
stroke-linecap:round; stroke-linejoin:round;">
<path d="M92885 78069
L92641 78069
L92617 78312
L92641 78288
L92690 78263
L92812 78263
L92860 78288
L92885 78312
L92909 78361
L92909 78483
L92885 78532
L92860 78556
L92812 78580
L92690 78580
L92641 78556
L92617 78532
" />
</g>
<g style="fill:#000000; fill-opacity:0.0; 
stroke:#000000; stroke-width:19.685; stroke-opacity:1; 
stroke-linecap:round; stroke-linejoin:round;">
</g>
<g style="fill:#000000; fill-opacity:0.0; 
stroke:#000000; stroke-width:59.0551; stroke-opacity:1; 
stroke-linecap:round; stroke-linejoin:round;">
<path d="M112545 78069
L112448 78069
L112399 78093
L112375 78117
L112326 78190
L112302 78288
L112302 78483
L112326 78532
L112350 78556
L112399 78580
L112497 78580
L112545 78556
L112570 78532
L112594 78483
L112594 78361
L112570 78312
L112545 78288
L112497 78263
L112399 78263
L112350 78288
L112326 78312
L112302 78361
" />
</g>
<g style="fill:#000000; fill-opacity:0.0; 
stroke:#000000; stroke-width:19.685; stroke-opacity:1; 
stroke-linecap:round; stroke-linejoin:round;">
</g>
<g style="fill:#000000; fill-opacity:0.0; 
stroke:#000000; stroke-width:59.0551; stroke-opacity:1; 
stroke-linecap:round; stroke-linejoin:round;">
<path d="M3937 23622
L4724 23622
" />
</g>
<g style="fill:#000000; fill-opacity:0.0; 
stroke:#000000; stroke-width:19.685; stroke-opacity:1; 
stroke-linecap:round; stroke-linejoin:round;">
</g>
<g style="fill:#000000; fill-opacity:0.0; 
stroke:#000000; stroke-width:59.0551; stroke-opacity:1; 
stroke-linecap:round; stroke-linejoin:round;">
<path d="M3937 43307
L4724 43307
" />
</g>
<g style="fill:#000000; fill-opacity:0.0; 
stroke:#000000; stroke-width:19.685; stroke-opacity:1; 
stroke-linecap:round; stroke-linejoin:round;">
</g>
<g style="fill:#000000; fill-opacity:0.0; 
stroke:#000000; stroke-width:59.0551; stroke-opacity:1; 
stroke-linecap:round; stroke-linejoin:round;">
<path d="M3937 62992
L4724 62992
" />
</g>
<g style="fill:#000000; fill-opacity:0.0; 
stroke:#000000; stroke-width:19.685; stroke-opacity:1; 
stroke-linecap:round; stroke-linejoin:round;">
</g>
<g style="fill:#000000; fill-opacity:0.0; 
stroke:#000000; stroke-width:59.0551; stroke-opacity:1; 
stroke-linecap:round; stroke-linejoin:round;">
<path d="M4208 13864
L4452 13864
" />
<path d="M4160 14011
L4330 13499
L4501 14011
" />
</g>
<g style="fill:#000000; fill-opacity:0.0; 
stroke:#000000; stroke-width:19.685; stroke-opacity:1; 
stroke-linecap:round; stroke-linejoin:round;">
</g>
<g style="fill:#000000; fill-opacity:0.0; 
stroke:#000000; stroke-width:59.0551; stroke-opacity:1; 
stroke-linecap:round; stroke-linejoin:round;">
<path d="M4367 33428
L4440 33452
L4464 33476
L4489 33525
L4489 33598
L4464 33647
L4440 33671
L4391 33696
L4196 33696
L4196 33184
L4367 33184
L4416 33208
L4440 33233
L4464 33281
L4464 33330
L4440 33379
L4416 33403
L4367 33428
L4196 33428
" />
</g>
<g style="fill:#000000; fill-opacity:0.0; 
stroke:#000000; stroke-width:19.685; stroke-opacity:1; 
stroke-linecap:round; stroke-linejoin:round;">
</g>
<g style="fill:#000000; fill-opacity:0.0; 
stroke:#000000; stroke-width:59.0551; stroke-opacity:1; 
stroke-linecap:round; stroke-linejoin:round;">
<path d="M4489 53332
L4464 53356
L4391 53381
L4342 53381
L4269 53356
L4221 53308
L4196 53259
L4172 53161
L4172 53088
L4196 52991
L4221 52942
L4269 52893
L4342 52869
L4391 52869
L4464 52893
L4489 52918
" />
</g>
<g style="fill:#000000; fill-opacity:0.0; 
stroke:#000000; stroke-width:19.685; stroke-opacity:1; 
stroke-linecap:round; stroke-linejoin:round;">
</g>
<g style="fill:#000000; fill-opacity:0.0; 
stroke:#000000; stroke-width:59.0551; stroke-opacity:1; 
stroke-linecap:round; stroke-linejoin:round;">
<path d="M4196 73066
L4196 72554
L4318 72554
L4391 72578
L4440 72627
L4464 72676
L4489 72773
L4489 72846
L4464 72944
L4440 72993
L4391 73041
L4318 73066
L4196 73066
" />
</g>
<g style="fill:#000000; fill-opacity:0.0; 
stroke:#000000; stroke-width:19.685; stroke-opacity:1; 
stroke-linecap:round; stroke-linejoin:round;">
</g>
<g style="fill:#000000; fill-opacity:0.0; 
stroke:#000000; stroke-width:59.0551; stroke-opacity:1; 
stroke-linecap:round; stroke-linejoin:round;">
<path d="M112992 23622
L112205 23622
" />
</g>
<g style="fill:#000000; fill-opacity:0.0; 
stroke:#000000; stroke-width:19.685; stroke-opacity:1; 
stroke-linecap:round; stroke-linejoin:round;">
</g>
<g style="fill:#000000; fill-opacity:0.0; 
stroke:#000000; stroke-width:59.0551; stroke-opacity:1; 
stroke-linecap:round; stroke-linejoin:round;">
<path d="M112992 43307
L112205 43307
" />
</g>
<g style="fill:#000000; fill-opacity:0.0; 
stroke:#000000; stroke-width:19.685; stroke-opacity:1; 
stroke-linecap:round; stroke-linejoin:round;">
</g>
<g style="fill:#000000; fill-opacity:0.0; 
stroke:#000000; stroke-width:59.0551; stroke-opacity:1; 
stroke-linecap:round; stroke-linejoin:round;">
<path d="M112992 62992
L112205 62992
" />
</g>
<g style="fill:#000000; fill-opacity:0.0; 
stroke:#000000; stroke-width:19.685; stroke-opacity:1; 
stroke-linecap:round; stroke-linejoin:round;">
</g>
<g style="fill:#000000; fill-opacity:0.0; 
stroke:#000000; stroke-width:59.0551; stroke-opacity:1; 
stroke-linecap:round; stroke-linejoin:round;">
<path d="M112477 13864
L112721 13864
" />
<path d="M112428 14011
L112599 13499
L112769 14011
" />
</g>
<g style="fill:#000000; fill-opacity:0.0; 
stroke:#000000; stroke-width:19.685; stroke-opacity:1; 
stroke-linecap:round; stroke-linejoin:round;">
</g>
<g style="fill:#000000; fill-opacity:0.0; 
stroke:#000000; stroke-width:59.0551; stroke-opacity:1; 
stroke-linecap:round; stroke-linejoin:round;">
<path d="M112635 33428
L112708 33452
L112733 33476
L112757 33525
L112757 33598
L112733 33647
L112708 33671
L112660 33696
L112465 33696
L112465 33184
L112635 33184
L112684 33208
L112708 33233
L112733 33281
L112733 33330
L112708 33379
L112684 33403
L112635 33428
L112465 33428
" />
</g>
<g style="fill:#000000; fill-opacity:0.0; 
stroke:#000000; stroke-width:19.685; stroke-opacity:1; 
stroke-linecap:round; stroke-linejoin:round;">
</g>
<g style="fill:#000000; fill-opacity:0.0; 
stroke:#000000; stroke-width:59.0551; stroke-opacity:1; 
stroke-linecap:round; stroke-linejoin:round;">
<path d="M112757 53332
L112733 53356
L112660 53381
L112611 53381
L112538 53356
L112489 53308
L112465 53259
L112440 53161
L112440 53088
L112465 52991
L112489 52942
L112538 52893
L112611 52869
L112660 52869
L112733 52893
L112757 52918
" />
</g>
<g style="fill:#000000; fill-opacity:0.0; 
stroke:#000000; stroke-width:19.685; stroke-opacity:1; 
stroke-linecap:round; stroke-linejoin:round;">
</g>
<g style="fill:#000000; fill-opacity:0.0; 
stroke:#000000; stroke-width:59.0551; stroke-opacity:1; 
stroke-linecap:round; stroke-linejoin:round;">
<path d="M112465 73066
L112465 72554
L112587 72554
L112660 72578
L112708 72627
L112733 72676
L112757 72773
L112757 72846
L112733 72944
L112708 72993
L112660 73041
L112587 73066
L112465 73066
" />
</g>
<g style="fill:#000000; fill-opacity:0.0; 
stroke:#000000; stroke-width:19.685; stroke-opacity:1; 
stroke-linecap:round; stroke-linejoin:round;">
</g>
<g style="fill:#000000; fill-opacity:0.0; 
stroke:#000000; stroke-width:59.0551; stroke-opacity:1; 
stroke-linecap:round; stroke-linejoin:round;">
<path d="M78881 76293
L78881 75703
L79022 75703
L79106 75731
L79162 75787
L79190 75843
L79219 75956
L79219 76040
L79190 76153
L79162 76209
L79106 76265
L79022 76293
L78881 76293
" />
<path d="M79725 76293
L79725 75984
L79697 75928
L79640 75899
L79528 75899
L79472 75928
" />
<path d="M79725 76265
L79669 76293
L79528 76293
L79472 76265
L79444 76209
L79444 76153
L79472 76096
L79528 76068
L79669 76068
L79725 76040
" />
<path d="M79922 75899
L80147 75899
" />
<path d="M80006 75703
L80006 76209
L80034 76265
L80090 76293
L80147 76293
" />
<path d="M80568 76265
L80512 76293
L80400 76293
L80343 76265
L80315 76209
L80315 75984
L80343 75928
L80400 75899
L80512 75899
L80568 75928
L80597 75984
L80597 76040
L80315 76096
" />
<path d="M80850 76237
L80878 76265
L80850 76293
L80822 76265
L80850 76237
L80850 76293
" />
<path d="M80850 75928
L80878 75956
L80850 75984
L80822 75956
L80850 75928
L80850 75984
" />
</g>
<g style="fill:#000000; fill-opacity:0.0; 
stroke:#000000; stroke-width:19.685; stroke-opacity:1; 
stroke-linecap:round; stroke-linejoin:round;">
</g>
<g style="fill:#000000; fill-opacity:0.0; 
stroke:#000000; stroke-width:59.0551; stroke-opacity:1; 
stroke-linecap:round; stroke-linejoin:round;">
<path d="M69685 76577
L112205 76577
" />
</g>
<g style="fill:#000000; fill-opacity:0.0; 
stroke:#000000; stroke-width:19.685; stroke-opacity:1; 
stroke-linecap:round; stroke-linejoin:round;">
</g>
<g style="fill:#000000; fill-opacity:0.0; 
stroke:#000000; stroke-width:59.0551; stroke-opacity:1; 
stroke-linecap:round; stroke-linejoin:round;">
<path d="M70220 77395
L70220 76805
" />
<path d="M70557 77395
L70304 77058
" />
<path d="M70557 76805
L70220 77142
" />
<path d="M70810 77395
L70810 77002
" />
<path d="M70810 76805
L70782 76833
L70810 76861
L70838 76833
L70810 76805
L70810 76861
" />
<path d="M71429 77339
L71401 77367
L71316 77395
L71260 77395
L71176 77367
L71120 77311
L71091 77255
L71063 77142
L71063 77058
L71091 76946
L71120 76889
L71176 76833
L71260 76805
L71316 76805
L71401 76833
L71429 76861
" />
<path d="M71935 77395
L71935 77086
L71907 77030
L71851 77002
L71738 77002
L71682 77030
" />
<path d="M71935 77367
L71879 77395
L71738 77395
L71682 77367
L71654 77311
L71654 77255
L71682 77199
L71738 77171
L71879 77171
L71935 77142
" />
<path d="M72469 77395
L72469 76805
" />
<path d="M72469 77367
L72413 77395
L72301 77395
L72244 77367
L72216 77339
L72188 77283
L72188 77114
L72216 77058
L72244 77030
L72301 77002
L72413 77002
L72469 77030
" />
<path d="M73201 77086
L73397 77086
" />
<path d="M73482 77395
L73201 77395
L73201 76805
L73482 76805
" />
<path d="M73735 77339
L73763 77367
L73735 77395
L73707 77367
L73735 77339
L73735 77395
" />
<path d="M74016 77395
L74016 76805
L74157 76805
L74241 76833
L74297 76889
L74325 76946
L74354 77058
L74354 77142
L74325 77255
L74297 77311
L74241 77367
L74157 77395
L74016 77395
" />
<path d="M74607 77339
L74635 77367
L74607 77395
L74579 77367
L74607 77339
L74607 77395
" />
<path d="M74860 77227
L75141 77227
" />
<path d="M74804 77395
L75000 76805
L75197 77395
" />
<path d="M75394 77339
L75422 77367
L75394 77395
L75366 77367
L75394 77339
L75394 77395
" />
<path d="M76575 77002
L76575 77592
" />
<path d="M76575 77030
L76631 77002
L76744 77002
L76800 77030
L76828 77058
L76856 77114
L76856 77283
L76828 77339
L76800 77367
L76744 77395
L76631 77395
L76575 77367
" />
<path d="M77363 77367
L77306 77395
L77194 77395
L77138 77367
L77109 77339
L77081 77283
L77081 77114
L77109 77058
L77138 77030
L77194 77002
L77306 77002
L77363 77030
" />
<path d="M77616 77395
L77616 76805
" />
<path d="M77616 77030
L77672 77002
L77784 77002
L77841 77030
L77869 77058
L77897 77114
L77897 77283
L77869 77339
L77841 77367
L77784 77395
L77672 77395
L77616 77367
" />
<path d="M78150 77002
L78150 77395
" />
<path d="M78150 77058
L78178 77030
L78234 77002
L78319 77002
L78375 77030
L78403 77086
L78403 77395
" />
<path d="M78909 77367
L78853 77395
L78741 77395
L78684 77367
L78656 77311
L78656 77086
L78684 77030
L78741 77002
L78853 77002
L78909 77030
L78937 77086
L78937 77142
L78656 77199
" />
<path d="M79134 77002
L79247 77395
L79359 77114
L79472 77395
L79584 77002
" />
<path d="M80512 77002
L80512 77395
" />
<path d="M80372 76777
L80231 77199
L80597 77199
" />
<path d="M80822 77339
L80850 77367
L80822 77395
L80793 77367
L80822 77339
L80822 77395
" />
<path d="M81215 76805
L81271 76805
L81328 76833
L81356 76861
L81384 76917
L81412 77030
L81412 77171
L81384 77283
L81356 77339
L81328 77367
L81271 77395
L81215 77395
L81159 77367
L81131 77339
L81103 77283
L81075 77171
L81075 77030
L81103 76917
L81131 76861
L81159 76833
L81215 76805
" />
<path d="M81665 77339
L81693 77367
L81665 77395
L81637 77367
L81665 77339
L81665 77395
" />
<path d="M81918 76861
L81946 76833
L82003 76805
L82143 76805
L82199 76833
L82228 76861
L82256 76917
L82256 76974
L82228 77058
L81890 77395
L82256 77395
" />
<path d="M82509 77171
L82959 77171
" />
<path d="M83212 77367
L83268 77395
L83381 77395
L83437 77367
L83465 77311
L83465 77283
L83437 77227
L83381 77199
L83296 77199
L83240 77171
L83212 77114
L83212 77086
L83240 77030
L83296 77002
L83381 77002
L83437 77030
" />
<path d="M83634 77002
L83859 77002
" />
<path d="M83718 76805
L83718 77311
L83746 77367
L83802 77395
L83859 77395
" />
<path d="M84309 77395
L84309 77086
L84280 77030
L84224 77002
L84112 77002
L84055 77030
" />
<path d="M84309 77367
L84252 77395
L84112 77395
L84055 77367
L84027 77311
L84027 77255
L84055 77199
L84112 77171
L84252 77171
L84309 77142
" />
<path d="M84590 77395
L84590 76805
" />
<path d="M84590 77030
L84646 77002
L84759 77002
L84815 77030
L84843 77058
L84871 77114
L84871 77283
L84843 77339
L84815 77367
L84759 77395
L84646 77395
L84590 77367
" />
<path d="M85208 77395
L85152 77367
L85124 77311
L85124 76805
" />
<path d="M85658 77367
L85602 77395
L85490 77395
L85433 77367
L85405 77311
L85405 77086
L85433 77030
L85490 77002
L85602 77002
L85658 77030
L85687 77086
L85687 77142
L85405 77199
" />
</g>
<g style="fill:#000000; fill-opacity:0.0; 
stroke:#000000; stroke-width:19.685; stroke-opacity:1; 
stroke-linecap:round; stroke-linejoin:round;">
</g>
<g style="fill:#000000; fill-opacity:0.0; 
stroke:#000000; stroke-width:59.0551; stroke-opacity:1; 
stroke-linecap:round; stroke-linejoin:round;">
<path d="M69685 75396
L112205 75396
" />
</g>
<g style="fill:#000000; fill-opacity:0.0; 
stroke:#000000; stroke-width:19.685; stroke-opacity:1; 
stroke-linecap:round; stroke-linejoin:round;">
</g>
<g style="fill:#000000; fill-opacity:0.0; 
stroke:#000000; stroke-width:118.11; stroke-opacity:1; 
stroke-linecap:round; stroke-linejoin:round;">
<path d="M104022 76293
L103825 76012
" />
<path d="M103684 76293
L103684 75703
L103909 75703
L103965 75731
L103994 75759
L104022 75815
L104022 75899
L103994 75956
L103965 75984
L103909 76012
L103684 76012
" />
<path d="M104500 76265
L104444 76293
L104331 76293
L104275 76265
L104247 76209
L104247 75984
L104275 75928
L104331 75899
L104444 75899
L104500 75928
L104528 75984
L104528 76040
L104247 76096
" />
<path d="M104725 75899
L104865 76293
L105006 75899
" />
<path d="M105231 76237
L105259 76265
L105231 76293
L105203 76265
L105231 76237
L105231 76293
" />
<path d="M105231 75928
L105259 75956
L105231 75984
L105203 75956
L105231 75928
L105231 75984
" />
</g>
<g style="fill:#000000; fill-opacity:0.0; 
stroke:#000000; stroke-width:19.685; stroke-opacity:1; 
stroke-linecap:round; stroke-linejoin:round;">
</g>
<g style="fill:#000000; fill-opacity:0.0; 
stroke:#000000; stroke-width:59.0551; stroke-opacity:1; 
stroke-linecap:round; stroke-linejoin:round;">
<path d="M70192 76265
L70276 76293
L70417 76293
L70473 76265
L70501 76237
L70529 76181
L70529 76124
L70501 76068
L70473 76040
L70417 76012
L70304 75984
L70248 75956
L70220 75928
L70192 75871
L70192 75815
L70220 75759
L70248 75731
L70304 75703
L70445 75703
L70529 75731
" />
<path d="M70782 76293
L70782 75899
" />
<path d="M70782 75703
L70754 75731
L70782 75759
L70810 75731
L70782 75703
L70782 75759
" />
<path d="M71007 75899
L71316 75899
L71007 76293
L71316 76293
" />
<path d="M71766 76265
L71710 76293
L71598 76293
L71541 76265
L71513 76209
L71513 75984
L71541 75928
L71598 75899
L71710 75899
L71766 75928
L71795 75984
L71795 76040
L71513 76096
" />
<path d="M72048 76237
L72076 76265
L72048 76293
L72019 76265
L72048 76237
L72048 76293
" />
<path d="M72048 75928
L72076 75956
L72048 75984
L72019 75956
L72048 75928
L72048 75984
" />
<path d="M72751 76124
L73032 76124
" />
<path d="M72694 76293
L72891 75703
L73088 76293
" />
<path d="M73538 75899
L73538 76293
" />
<path d="M73397 75674
L73257 76096
L73622 76096
" />
</g>
<g style="fill:#000000; fill-opacity:0.0; 
stroke:#000000; stroke-width:19.685; stroke-opacity:1; 
stroke-linecap:round; stroke-linejoin:round;">
</g>
<g style="fill:#000000; fill-opacity:0.0; 
stroke:#000000; stroke-width:59.0551; stroke-opacity:1; 
stroke-linecap:round; stroke-linejoin:round;">
<path d="M103684 77395
L103684 76805
" />
<path d="M104219 77395
L104219 76805
" />
<path d="M104219 77367
L104162 77395
L104050 77395
L103994 77367
L103965 77339
L103937 77283
L103937 77114
L103965 77058
L103994 77030
L104050 77002
L104162 77002
L104219 77030
" />
<path d="M104500 77339
L104528 77367
L104500 77395
L104472 77367
L104500 77339
L104500 77395
" />
<path d="M104500 77030
L104528 77058
L104500 77086
L104472 77058
L104500 77030
L104500 77086
" />
<path d="M105540 77395
L105203 77395
" />
<path d="M105372 77395
L105372 76805
L105315 76889
L105259 76946
L105203 76974
" />
<path d="M106215 76777
L105709 77536
" />
<path d="M106721 77395
L106384 77395
" />
<path d="M106553 77395
L106553 76805
L106496 76889
L106440 76946
L106384 76974
" />
</g>
<g style="fill:#000000; fill-opacity:0.0; 
stroke:#000000; stroke-width:19.685; stroke-opacity:1; 
stroke-linecap:round; stroke-linejoin:round;">
</g>
<g style="fill:#000000; fill-opacity:0.0; 
stroke:#000000; stroke-width:59.0551; stroke-opacity:1; 
stroke-linecap:round; stroke-linejoin:round;">
<path d="M69685 73821
L112205 73821
" />
</g>
<g style="fill:#000000; fill-opacity:0.0; 
stroke:#000000; stroke-width:19.685; stroke-opacity:1; 
stroke-linecap:round; stroke-linejoin:round;">
</g>
<g style="fill:#000000; fill-opacity:0.0; 
stroke:#000000; stroke-width:157.48; stroke-opacity:1; 
stroke-linecap:round; stroke-linejoin:round;">
<path d="M70257 74099
L70707 74099
" />
<path d="M70384 74886
L70482 74099
" />
<path d="M70871 74886
L70937 74361
" />
<path d="M70970 74099
L70927 74136
L70960 74174
L71002 74136
L70970 74099
L70960 74174
" />
<path d="M71199 74361
L71499 74361
" />
<path d="M71345 74099
L71260 74774
L71288 74849
L71359 74886
L71434 74886
" />
<path d="M71809 74886
L71738 74849
L71710 74774
L71795 74099
" />
<path d="M72413 74849
L72334 74886
L72184 74886
L72113 74849
L72085 74774
L72123 74474
L72169 74399
L72249 74361
L72399 74361
L72469 74399
L72498 74474
L72488 74549
L72104 74624
" />
<path d="M72793 74811
L72826 74849
L72783 74886
L72751 74849
L72793 74811
L72783 74886
" />
<path d="M72844 74399
L72877 74436
L72835 74474
L72802 74436
L72844 74399
L72835 74474
" />
</g>
<g style="fill:#000000; fill-opacity:0.0; 
stroke:#000000; stroke-width:19.685; stroke-opacity:1; 
stroke-linecap:round; stroke-linejoin:round;">
</g>
<g style="fill:#000000; fill-opacity:0.0; 
stroke:#000000; stroke-width:59.0551; stroke-opacity:1; 
stroke-linecap:round; stroke-linejoin:round;">
<path d="M70417 73070
L70220 73070
" />
<path d="M70220 73380
L70220 72789
L70501 72789
" />
<path d="M70726 73380
L70726 72986
" />
<path d="M70726 72789
L70698 72817
L70726 72845
L70754 72817
L70726 72789
L70726 72845
" />
<path d="M71091 73380
L71035 73352
L71007 73295
L71007 72789
" />
<path d="M71541 73352
L71485 73380
L71373 73380
L71316 73352
L71288 73295
L71288 73070
L71316 73014
L71373 72986
L71485 72986
L71541 73014
L71570 73070
L71570 73127
L71288 73183
" />
<path d="M71823 73323
L71851 73352
L71823 73380
L71795 73352
L71823 73323
L71823 73380
" />
<path d="M71823 73014
L71851 73042
L71823 73070
L71795 73042
L71823 73014
L71823 73070
" />
<path d="M72413 73436
L72863 73436
" />
<path d="M73257 73380
L73257 73070
L73229 73014
L73172 72986
L73060 72986
L73004 73014
" />
<path d="M73257 73352
L73201 73380
L73060 73380
L73004 73352
L72976 73295
L72976 73239
L73004 73183
L73060 73155
L73201 73155
L73257 73127
" />
<path d="M73791 72986
L73791 73380
" />
<path d="M73538 72986
L73538 73295
L73566 73352
L73622 73380
L73707 73380
L73763 73352
L73791 73323
" />
<path d="M73988 72986
L74213 72986
" />
<path d="M74072 72789
L74072 73295
L74100 73352
L74157 73380
L74213 73380
" />
<path d="M74494 73380
L74438 73352
L74410 73323
L74382 73267
L74382 73099
L74410 73042
L74438 73014
L74494 72986
L74579 72986
L74635 73014
L74663 73042
L74691 73099
L74691 73267
L74663 73323
L74635 73352
L74579 73380
L74494 73380
" />
<path d="M74916 73352
L74972 73380
L75085 73380
L75141 73352
L75169 73295
L75169 73267
L75141 73211
L75085 73183
L75000 73183
L74944 73155
L74916 73099
L74916 73070
L74944 73014
L75000 72986
L75085 72986
L75141 73014
" />
<path d="M75675 73380
L75675 73070
L75647 73014
L75591 72986
L75478 72986
L75422 73014
" />
<path d="M75675 73352
L75619 73380
L75478 73380
L75422 73352
L75394 73295
L75394 73239
L75422 73183
L75478 73155
L75619 73155
L75675 73127
" />
<path d="M75900 72986
L76041 73380
L76181 72986
" />
<path d="M76631 73352
L76575 73380
L76463 73380
L76406 73352
L76378 73295
L76378 73070
L76406 73014
L76463 72986
L76575 72986
L76631 73014
L76660 73070
L76660 73127
L76378 73183
" />
<path d="M76913 73155
L77363 73155
" />
<path d="M77644 73380
L77644 72986
" />
<path d="M77644 73042
L77672 73014
L77728 72986
L77813 72986
L77869 73014
L77897 73070
L77897 73380
" />
<path d="M77897 73070
L77925 73014
L77981 72986
L78066 72986
L78122 73014
L78150 73070
L78150 73380
" />
<path d="M78684 73380
L78684 73070
L78656 73014
L78600 72986
L78487 72986
L78431 73014
" />
<path d="M78684 73352
L78628 73380
L78487 73380
L78431 73352
L78403 73295
L78403 73239
L78431 73183
L78487 73155
L78628 73155
L78684 73127
" />
<path d="M78909 73380
L79219 72986
" />
<path d="M78909 72986
L79219 73380
" />
<path d="M79753 73380
L79415 73380
" />
<path d="M79584 73380
L79584 72789
L79528 72874
L79472 72930
L79415 72958
" />
<path d="M79950 72789
L80343 72789
L80090 73380
" />
<path d="M80512 72789
L80906 72789
L80653 73380
" />
<path d="M81440 73380
L81103 73380
" />
<path d="M81271 73380
L81271 72789
L81215 72874
L81159 72930
L81103 72958
" />
<path d="M81693 73323
L81721 73352
L81693 73380
L81665 73352
L81693 73323
L81693 73380
" />
<path d="M81974 73380
L81974 72789
" />
<path d="M82031 73155
L82199 73380
" />
<path d="M82199 72986
L81974 73211
" />
<path d="M82453 73380
L82453 72986
" />
<path d="M82453 72789
L82424 72817
L82453 72845
L82481 72817
L82453 72789
L82453 72845
" />
<path d="M82987 73352
L82931 73380
L82818 73380
L82762 73352
L82734 73323
L82706 73267
L82706 73099
L82734 73042
L82762 73014
L82818 72986
L82931 72986
L82987 73014
" />
<path d="M83493 73380
L83493 73070
L83465 73014
L83409 72986
L83296 72986
L83240 73014
" />
<path d="M83493 73352
L83437 73380
L83296 73380
L83240 73352
L83212 73295
L83212 73239
L83240 73183
L83296 73155
L83437 73155
L83493 73127
" />
<path d="M84027 73380
L84027 72789
" />
<path d="M84027 73352
L83971 73380
L83859 73380
L83802 73352
L83774 73323
L83746 73267
L83746 73099
L83774 73042
L83802 73014
L83859 72986
L83971 72986
L84027 73014
" />
<path d="M84168 73436
L84618 73436
" />
<path d="M84759 72986
L84759 73577
" />
<path d="M84759 73014
L84815 72986
L84927 72986
L84983 73014
L85012 73042
L85040 73099
L85040 73267
L85012 73323
L84983 73352
L84927 73380
L84815 73380
L84759 73352
" />
<path d="M85546 73352
L85490 73380
L85377 73380
L85321 73352
L85293 73323
L85265 73267
L85265 73099
L85293 73042
L85321 73014
L85377 72986
L85490 72986
L85546 73014
" />
<path d="M85799 73380
L85799 72789
" />
<path d="M85799 73014
L85855 72986
L85968 72986
L86024 73014
L86052 73042
L86080 73099
L86080 73267
L86052 73323
L86024 73352
L85968 73380
L85855 73380
L85799 73352
" />
</g>
<g style="fill:#000000; fill-opacity:0.0; 
stroke:#000000; stroke-width:19.685; stroke-opacity:1; 
stroke-linecap:round; stroke-linejoin:round;">
</g>
<g style="fill:#000000; fill-opacity:0.0; 
stroke:#000000; stroke-width:59.0551; stroke-opacity:1; 
stroke-linecap:round; stroke-linejoin:round;">
<path d="M69685 71459
L112205 71459
" />
</g>
<g style="fill:#000000; fill-opacity:0.0; 
stroke:#000000; stroke-width:19.685; stroke-opacity:1; 
stroke-linecap:round; stroke-linejoin:round;">
</g>
<g style="fill:#000000; fill-opacity:0.0; 
stroke:#000000; stroke-width:59.0551; stroke-opacity:1; 
stroke-linecap:round; stroke-linejoin:round;">
<path d="M70192 72289
L70276 72317
L70417 72317
L70473 72289
L70501 72260
L70529 72204
L70529 72148
L70501 72092
L70473 72064
L70417 72036
L70304 72007
L70248 71979
L70220 71951
L70192 71895
L70192 71839
L70220 71782
L70248 71754
L70304 71726
L70445 71726
L70529 71754
" />
<path d="M70782 72317
L70782 71726
" />
<path d="M71035 72317
L71035 72007
L71007 71951
L70951 71923
L70867 71923
L70810 71951
L70782 71979
" />
<path d="M71541 72289
L71485 72317
L71373 72317
L71316 72289
L71288 72232
L71288 72007
L71316 71951
L71373 71923
L71485 71923
L71541 71951
L71570 72007
L71570 72064
L71288 72120
" />
<path d="M72048 72289
L71991 72317
L71879 72317
L71823 72289
L71795 72232
L71795 72007
L71823 71951
L71879 71923
L71991 71923
L72048 71951
L72076 72007
L72076 72064
L71795 72120
" />
<path d="M72244 71923
L72469 71923
" />
<path d="M72329 71726
L72329 72232
L72357 72289
L72413 72317
L72469 72317
" />
<path d="M72666 72260
L72694 72289
L72666 72317
L72638 72289
L72666 72260
L72666 72317
" />
<path d="M72666 71951
L72694 71979
L72666 72007
L72638 71979
L72666 71951
L72666 72007
" />
</g>
<g style="fill:#000000; fill-opacity:0.0; 
stroke:#000000; stroke-width:19.685; stroke-opacity:1; 
stroke-linecap:round; stroke-linejoin:round;">
</g>
<g style="fill:#000000; fill-opacity:0.0; 
stroke:#000000; stroke-width:59.0551; stroke-opacity:1; 
stroke-linecap:round; stroke-linejoin:round;">
<path d="M77559 75396
L77559 76577
" />
</g>
<g style="fill:#000000; fill-opacity:0.0; 
stroke:#000000; stroke-width:19.685; stroke-opacity:1; 
stroke-linecap:round; stroke-linejoin:round;">
</g>
<g style="fill:#000000; fill-opacity:0.0; 
stroke:#000000; stroke-width:59.0551; stroke-opacity:1; 
stroke-linecap:round; stroke-linejoin:round;">
<path d="M102756 75396
L102756 77955
" />
</g>
<g style="fill:#840000; fill-opacity:0.0; 
stroke:#840000; stroke-width:59.0551; stroke-opacity:1; 
stroke-linecap:round; stroke-linejoin:round;">
</g>
<g style="fill:#840000; fill-opacity:0.0; 
stroke:#840000; stroke-width:0; stroke-opacity:1; 
stroke-linecap:round; stroke-linejoin:round;">
</g>
<g style="fill:#840000; fill-opacity:1.0; 
stroke:#840000; stroke-width:0; stroke-opacity:1; 
stroke-linecap:round; stroke-linejoin:round;">
<polyline style="fill-rule:evenodd;"
points="67566,47850
67073,47850
67073,47456
67566,47456
67566,47850
" /> 
<polyline style="fill-rule:evenodd;"
points="67566,47063
67073,47063
67073,46669
67566,46669
67566,47063
" /> 
<polyline style="fill-rule:evenodd;"
points="61093,46689
61586,46689
61586,47083
61093,47083
61093,46689
" /> 
<polyline style="fill-rule:evenodd;"
points="61093,47476
61586,47476
61586,47870
61093,47870
61093,47476
" /> 
<polyline style="fill-rule:evenodd;"
points="68293,42349
68786,42349
68786,42743
68293,42743
68293,42349
" /> 
<polyline style="fill-rule:evenodd;"
points="68293,43136
68786,43136
68786,43530
68293,43530
68293,43136
" /> 
<polyline style="fill-rule:evenodd;"
points="69095,45354
69095,44725
70276,44725
70276,45354
69095,45354
" /> 
<polyline style="fill-rule:evenodd;"
points="67363,45354
67363,44725
68544,44725
68544,45354
67363,45354
" /> 
<polyline style="fill-rule:evenodd;"
points="67933,42585
67933,43294
66555,43294
66555,42585
67933,42585
" /> 
<polyline style="fill-rule:evenodd;"
points="65965,42585
65965,43294
64587,43294
64587,42585
65965,42585
" /> 
<polyline style="fill-rule:evenodd;"
points="59171,45095
59171,42064
60391,42064
60391,45095
59171,45095
" /> 
<polyline style="fill-rule:evenodd;"
points="61888,45095
61888,42064
63108,42064
63108,45095
61888,45095
" /> 
<polyline style="fill-rule:evenodd;"
points="58480,46700
58480,47380
57800,47380
57800,46700
58480,46700
" /> 
</g>
<g style="fill:#840000; fill-opacity:1.0; 
stroke:#840000; stroke-width:680; stroke-opacity:1; 
stroke-linecap:round; stroke-linejoin:round;">
</g>
<g style="fill:#840000; fill-opacity:0.0; 
stroke:#840000; stroke-width:680; stroke-opacity:1; 
stroke-linecap:round; stroke-linejoin:round;">
<path d="M58140 46040
L58140 46040
" />
</g>
<g style="fill:#840000; fill-opacity:0.0; 
stroke:#840000; stroke-width:0; stroke-opacity:1; 
stroke-linecap:round; stroke-linejoin:round;">
</g>
<g style="fill:#840000; fill-opacity:1.0; 
stroke:#840000; stroke-width:0; stroke-opacity:1; 
stroke-linecap:round; stroke-linejoin:round;">
<polyline style="fill-rule:evenodd;"
points="69340,47260
69340,46580
70020,46580
70020,47260
69340,47260
" /> 
</g>
<g style="fill:#840000; fill-opacity:1.0; 
stroke:#840000; stroke-width:680; stroke-opacity:1; 
stroke-linecap:round; stroke-linejoin:round;">
</g>
<g style="fill:#840000; fill-opacity:0.0; 
stroke:#840000; stroke-width:680; stroke-opacity:1; 
stroke-linecap:round; stroke-linejoin:round;">
<path d="M69680 47920
L69680 47920
" />
</g>
<g style="fill:#840000; fill-opacity:0.0; 
stroke:#840000; stroke-width:0; stroke-opacity:1; 
stroke-linecap:round; stroke-linejoin:round;">
</g>
<g style="fill:#840000; fill-opacity:1.0; 
stroke:#840000; stroke-width:0; stroke-opacity:1; 
stroke-linecap:round; stroke-linejoin:round;">
<polyline style="fill-rule:evenodd;"
points="64298,44243
64613,44243
64613,44558
64298,44558
64298,44243
" /> 
<polyline style="fill-rule:evenodd;"
points="64298,44991
64613,44991
64613,45306
64298,45306
64298,44991
" /> 
<polyline style="fill-rule:evenodd;"
points="65085,44617
65400,44617
65400,44932
65085,44932
65085,44617
" /> 
<polyline style="fill-rule:evenodd;"
points="66108,44995
66108,44484
66383,44484
66383,44995
66108,44995
" /> 
<polyline style="fill-rule:evenodd;"
points="66856,44995
66856,44484
67131,44484
67131,44995
66856,44995
" /> 
<polyline style="fill-rule:evenodd;"
points="61984,46688
62495,46688
62495,46963
61984,46963
61984,46688
" /> 
<polyline style="fill-rule:evenodd;"
points="61984,47436
62495,47436
62495,47711
61984,47711
61984,47436
" /> 
<polyline style="fill-rule:evenodd;"
points="60371,46784
60371,47295
60096,47295
60096,46784
60371,46784
" /> 
<polyline style="fill-rule:evenodd;"
points="59623,46784
59623,47295
59348,47295
59348,46784
59623,46784
" /> 
<polyline style="fill-rule:evenodd;"
points="63456,46243
63456,46006
64067,46006
64067,46243
63456,46243
" /> 
<polyline style="fill-rule:evenodd;"
points="63456,46743
63456,46506
64067,46506
64067,46743
63456,46743
" /> 
<polyline style="fill-rule:evenodd;"
points="63456,47243
63456,47006
64067,47006
64067,47243
63456,47243
" /> 
<polyline style="fill-rule:evenodd;"
points="63456,47743
63456,47506
64067,47506
64067,47743
63456,47743
" /> 
<polyline style="fill-rule:evenodd;"
points="65582,47743
65582,47506
66193,47506
66193,47743
65582,47743
" /> 
<polyline style="fill-rule:evenodd;"
points="65582,47243
65582,47006
66193,47006
66193,47243
65582,47243
" /> 
<polyline style="fill-rule:evenodd;"
points="65582,46743
65582,46506
66193,46506
66193,46743
65582,46743
" /> 
<polyline style="fill-rule:evenodd;"
points="65582,46243
65582,46006
66193,46006
66193,46243
65582,46243
" /> 
<polyline style="fill-rule:evenodd;"
points="59312,46254
59312,45625
59706,45625
59706,46254
59312,46254
" /> 
<polyline style="fill-rule:evenodd;"
points="60493,46254
60493,45625
60887,45625
60887,46254
60493,46254
" /> 
</g>
<g style="fill:#C2C2C2; fill-opacity:1.0; 
stroke:#C2C2C2; stroke-width:0; stroke-opacity:1; 
stroke-linecap:round; stroke-linejoin:round;">
<circle cx="62620" cy="46040" r="118.11" /> 
</g>
<g style="fill:#C2C2C2; fill-opacity:1.0; 
stroke:#C2C2C2; stroke-width:19.685; stroke-opacity:1; 
stroke-linecap:round; stroke-linejoin:round;">
</g>
<g style="fill:#840000; fill-opacity:1.0; 
stroke:#840000; stroke-width:19.685; stroke-opacity:1; 
stroke-linecap:round; stroke-linejoin:round;">
</g>
<g style="fill:#840000; fill-opacity:1.0; 
stroke:#840000; stroke-width:314.961; stroke-opacity:1; 
stroke-linecap:round; stroke-linejoin:round;">
</g>
<g style="fill:#840000; fill-opacity:0.0; 
stroke:#840000; stroke-width:314.961; stroke-opacity:1; 
stroke-linecap:round; stroke-linejoin:round;">
<path d="M58140 46040
L59409 46040
" />
<path d="M59409 46040
L59509 45940
" />
<path d="M59509 45940
L59509 43852
" />
<path d="M59509 43852
L59781 43580
" />
<path d="M65887 46625
L65887 47125
" />
<path d="M65887 47125
L65862 47100
" />
<path d="M65862 47100
L65240 47100
" />
<path d="M63762 47625
L64755 47625
" />
<path d="M64755 47625
L64820 47560
" />
<path d="M67320 47653
L65886 47653
" />
<path d="M65886 47653
L65800 47740
" />
<path d="M65800 47740
L65887 47625
" />
<path d="M62600 46625
L62600 46060
" />
<path d="M62600 46060
L62620 46040
" />
<path d="M62240 46825
L61400 46825
" />
<path d="M61400 46825
L61340 46886
" />
<path d="M63762 46625
L62600 46625
" />
<path d="M62600 46625
L62440 46625
" />
<path d="M62440 46625
L62240 46825
" />
<path d="M69686 45040
L69686 46913
" />
<path d="M69686 46913
L69680 46920
" />
<path d="M68540 42546
L69206 42546
" />
<path d="M69686 43026
L69686 45040
" />
<path d="M69206 42546
L69686 43026
" />
<path d="M67244 42940
L67360 42940
" />
<path d="M67360 42940
L67753 42546
" />
<path d="M67753 42546
L68540 42546
" />
<path d="M62240 47574
L62505 47574
" />
<path d="M62955 47125
L63762 47125
" />
<path d="M62505 47574
L62955 47125
" />
<path d="M61340 47673
L62140 47673
" />
<path d="M62140 47673
L62240 47574
" />
<path d="M60234 47040
L60234 47094
" />
<path d="M60234 47094
L60813 47673
" />
<path d="M60813 47673
L61340 47673
" />
<path d="M63717 43580
L64636 43580
" />
<path d="M64636 43580
L65276 42940
" />
<path d="M62498 43580
L63717 43580
" />
<path d="M63717 43580
L63635 43580
" />
<path d="M63635 43580
L64456 44400
" />
<path d="M64456 45149
L64456 45431
" />
<path d="M64456 45431
L63762 46125
" />
<path d="M65887 45097
L65565 45097
" />
<path d="M65565 45097
L65243 44775
" />
<path d="M65887 46125
L65887 45097
" />
<path d="M65887 45097
L66245 44740
" />
</g>
<g style="fill:#840000; fill-opacity:1.0; 
stroke:#840000; stroke-width:100; stroke-opacity:1; 
stroke-linecap:round; stroke-linejoin:round;">
<polyline style="fill-rule:evenodd;"
points="71350,41289
71529,50250
56989,50429
56982,47152
57550,47152
57550,47429
57588,47521
57658,47591
57750,47630
58027,47630
58090,47567
58090,47090
58190,47090
58190,47567
58252,47630
58529,47630
58621,47591
58691,47521
58730,47429
58730,47152
59098,47152
59098,47345
59136,47437
59206,47507
59298,47545
59373,47545
59435,47483
59435,47090
59160,47090
59098,47152
58730,47152
58667,47090
58190,47090
58090,47090
57612,47090
57550,47152
56982,47152
56980,46040
57421,46040
57474,46309
57619,46526
57588,46558
57550,46650
57550,46927
57612,46990
58090,46990
58090,46982
58190,46982
58190,46990
58667,46990
58730,46927
58730,46650
58693,46562
59116,46562
59167,46597
59178,46599
59136,46642
59098,46734
59098,46927
59160,46990
59435,46990
59435,46982
59535,46982
59535,46990
59543,46990
59543,47090
59535,47090
59535,47483
59598,47545
59673,47545
59765,47507
59785,47487
59829,47555
59951,47638
60062,47661
60444,48043
60613,48156
60813,48196
60923,48196
60949,48213
61093,48242
61586,48242
61721,48217
61754,48196
62140,48196
62340,48156
62429,48096
62505,48096
62705,48056
62875,47943
63171,47647
63206,47647
63206,47675
63269,47675
63206,47737
63206,47792
63244,47884
63315,47955
63407,47993
63649,47993
63712,47930
63712,47675
63812,47675
63812,47930
63874,47993
64116,47993
64208,47955
64279,47884
64317,47792
64317,47737
64254,47675
63812,47675
63712,47675
63704,47675
63704,47647
63762,47647
63923,47615
64067,47615
64202,47589
64225,47575
64254,47575
64307,47522
64326,47509
64328,47506
65210,47506
65210,47743
65236,47878
65316,48002
65395,48056
65430,48109
65459,48128
65482,48154
65543,48184
65600,48222
65634,48229
65665,48244
65733,48249
65800,48262
65834,48255
65868,48257
65933,48235
65999,48222
66028,48203
66061,48192
66079,48176
66903,48176
66929,48193
67073,48222
67566,48222
67701,48197
67825,48117
67863,48061
69107,48061
69175,48225
69330,48395
69538,48492
69630,48445
69630,47970
69730,47970
69730,48445
69821,48492
70029,48395
70184,48225
70252,48061
70205,47970
69730,47970
69630,47970
69154,47970
69107,48061
67863,48061
67908,47995
67938,47850
67938,47456
67912,47321
67832,47197
67792,47169
67816,47112
67816,46978
67753,46916
67370,46916
67370,46924
67270,46924
67270,46916
66886,46916
66823,46978
66823,47112
66831,47131
66045,47131
66022,47120
65819,47107
65737,47134
65582,47134
65447,47160
65424,47175
65395,47175
65342,47227
65323,47240
65240,47362
65210,47506
64328,47506
64409,47387
64439,47243
64439,47006
64413,46871
64413,46870
64439,46743
64439,46737
65332,46737
65332,46792
65366,46875
65332,46957
65332,47012
65395,47075
65837,47075
65837,46675
65937,46675
65937,47075
66380,47075
66443,47012
66443,46957
66409,46875
66443,46792
66443,46737
66380,46675
65937,46675
65837,46675
65395,46675
65332,46737
64439,46737
64439,46506
64413,46371
64413,46370
64439,46243
64439,46186
64825,45800
64938,45630
64978,45431
64978,45431
64978,45341
64985,45306
64985,45284
65020,45291
65196,45467
65365,45580
65365,45713
65323,45740
65240,45862
65210,46006
65210,46243
65236,46378
65316,46502
65337,46517
65395,46575
65422,46575
65438,46585
65582,46615
65726,46615
65887,46647
66027,46619
66823,46619
66823,46753
66886,46816
67270,46816
67270,46481
67370,46481
67370,46816
67753,46816
67816,46753
67816,46619
67778,46527
67707,46457
67615,46419
67432,46419
67370,46481
67270,46481
67207,46419
67024,46419
66932,46457
66861,46527
66823,46619
66027,46619
66049,46615
66193,46615
66328,46589
66351,46575
66380,46575
66433,46522
66452,46509
66535,46387
66565,46243
66565,46006
66539,45871
66459,45747
66410,45713
66410,45363
66519,45342
66643,45262
66694,45187
66714,45207
66806,45245
66881,45245
66944,45183
66944,44790
66936,44790
66936,44690
66944,44690
66944,44296
67044,44296
67044,44690
67051,44690
67051,44790
67044,44790
67044,45183
67106,45245
67113,45245
67113,45404
67151,45496
67221,45566
67313,45604
67841,45604
67903,45542
67903,45090
67895,45090
67895,44990
67903,44990
67903,44537
67841,44475
67381,44475
67381,44434
67343,44342
67273,44272
67181,44234
67106,44234
67044,44296
66944,44296
66881,44234
66806,44234
66714,44272
66694,44292
66650,44224
66528,44141
66383,44111
66108,44111
65972,44137
65848,44217
65765,44339
65739,44469
65667,44358
65545,44274
65400,44245
65085,44245
64985,44264
64985,44243
64960,44108
64902,44018
65005,43949
65288,43666
65965,43666
66100,43641
66224,43561
66259,43509
66288,43553
66410,43637
66555,43666
67933,43666
68068,43641
68068,43640
68081,43672
68152,43742
68244,43780
68427,43780
68490,43718
68490,43383
68590,43383
68590,43718
68652,43780
68835,43780
68927,43742
68998,43672
69036,43580
69036,43446
68973,43383
68590,43383
68490,43383
68482,43383
68482,43283
68490,43283
68490,43275
68590,43275
68590,43283
68973,43283
69036,43221
69036,43114
69163,43242
69163,44352
69095,44352
68960,44378
68836,44458
68752,44580
68686,44513
68594,44475
68066,44475
68003,44537
68003,44990
68011,44990
68011,45090
68003,45090
68003,45542
68066,45604
68594,45604
68686,45566
68754,45498
68828,45614
68950,45697
69095,45727
69163,45727
69163,46259
69080,46313
68997,46435
68967,46580
68967,47260
68993,47395
69073,47519
69189,47598
69175,47614
69107,47778
69154,47870
69630,47870
69630,47862
69730,47862
69730,47870
70205,47870
70252,47778
70184,47614
70169,47597
70279,47526
70362,47404
70392,47260
70392,46580
70366,46444
70286,46320
70208,46267
70208,45727
70276,45727
70411,45701
70536,45621
70619,45499
70648,45354
70648,44725
70623,44589
70543,44465
70421,44382
70276,44352
70208,44352
70208,43026
70168,42826
70055,42656
70055,42656
69575,42176
69406,42063
69206,42023
68956,42023
68930,42006
68786,41977
68293,41977
68158,42002
68125,42023
67753,42023
67753,42023
67586,42057
67553,42063
67384,42176
67384,42176
67347,42213
66555,42213
66419,42238
66295,42318
66260,42370
66231,42326
66109,42242
65965,42213
64587,42213
64451,42238
64327,42318
64244,42440
64214,42585
64214,43057
63480,43057
63480,42064
63455,41929
63375,41804
63253,41721
63108,41692
61888,41692
61752,41717
61628,41797
61545,41919
61515,42064
61515,45095
61541,45230
61621,45355
61743,45438
61888,45467
63108,45467
63243,45442
63367,45362
63451,45240
63480,45095
63480,44164
63938,44622
63951,44693
64004,44775
63955,44846
63926,44991
63926,45221
63513,45634
63456,45634
63321,45660
63197,45740
63114,45862
63110,45879
63102,45840
62989,45670
62819,45557
62620,45517
62420,45557
62250,45670
62230,45690
62117,45860
62077,46060
62077,46251
62071,46255
62023,46303
61400,46303
61400,46303
61330,46317
61132,46317
61137,46304
61137,46052
61074,45990
60740,45990
60740,46442
60788,46490
60751,46544
60724,46678
60718,46648
60638,46524
60590,46492
60640,46442
60640,45990
60306,45990
60243,46052
60243,46304
60281,46396
60297,46411
60096,46411
60032,46423
60049,46399
60078,46254
60078,45625
60052,45489
60038,45467
60297,45467
60281,45483
60243,45575
60243,45827
60306,45890
60640,45890
60640,45437
60740,45437
60740,45890
61074,45890
61137,45827
61137,45575
61099,45483
61029,45413
60937,45375
60803,45375
60740,45437
60640,45437
60599,45396
60651,45362
60734,45240
60764,45095
60764,42064
60738,41929
60658,41804
60536,41721
60391,41692
59171,41692
59036,41717
58912,41797
58828,41919
58799,42064
58799,45095
58824,45230
58904,45355
58987,45411
58987,45455
58969,45480
58962,45517
58616,45517
58423,45388
58153,45335
58126,45335
57856,45388
57627,45541
57474,45770
57421,46040
56980,46040
56970,41110
71350,41289
" /> 
</g>
<g style="fill:#FFFFFF; fill-opacity:1.0; 
stroke:#FFFFFF; stroke-width:100; stroke-opacity:1; 
stroke-linecap:round; stroke-linejoin:round;">
</g>
<g style="fill:#FFFFFF; fill-opacity:1.0; 
stroke:#FFFFFF; stroke-width:0; stroke-opacity:1; 
stroke-linecap:round; stroke-linejoin:round;">
<circle cx="62620" cy="46040" r="78.7402" /> 
</g>
<g style="fill:#FFFFFF; fill-opacity:1.0; 
stroke:#FFFFFF; stroke-width:19.685; stroke-opacity:1; 
stroke-linecap:round; stroke-linejoin:round;">
</g>
<g style="fill:#FFFFFF; fill-opacity:1.0; 
stroke:#FFFFFF; stroke-width:0; stroke-opacity:1; 
stroke-linecap:round; stroke-linejoin:round;">
<circle cx="58140" cy="47040" r="200" /> 
</g>
<g style="fill:#FFFFFF; fill-opacity:1.0; 
stroke:#FFFFFF; stroke-width:19.685; stroke-opacity:1; 
stroke-linecap:round; stroke-linejoin:round;">
</g>
<g style="fill:#FFFFFF; fill-opacity:1.0; 
stroke:#FFFFFF; stroke-width:0; stroke-opacity:1; 
stroke-linecap:round; stroke-linejoin:round;">
<circle cx="58140" cy="46040" r="200" /> 
</g>
<g style="fill:#FFFFFF; fill-opacity:1.0; 
stroke:#FFFFFF; stroke-width:19.685; stroke-opacity:1; 
stroke-linecap:round; stroke-linejoin:round;">
</g>
<g style="fill:#FFFFFF; fill-opacity:1.0; 
stroke:#FFFFFF; stroke-width:0; stroke-opacity:1; 
stroke-linecap:round; stroke-linejoin:round;">
<circle cx="69680" cy="46920" r="200" /> 
</g>
<g style="fill:#FFFFFF; fill-opacity:1.0; 
stroke:#FFFFFF; stroke-width:19.685; stroke-opacity:1; 
stroke-linecap:round; stroke-linejoin:round;">
</g>
<g style="fill:#FFFFFF; fill-opacity:1.0; 
stroke:#FFFFFF; stroke-width:0; stroke-opacity:1; 
stroke-linecap:round; stroke-linejoin:round;">
<circle cx="69680" cy="47920" r="200" /> 
</g>
<g style="fill:#FFFFFF; fill-opacity:1.0; 
stroke:#FFFFFF; stroke-width:19.685; stroke-opacity:1; 
stroke-linecap:round; stroke-linejoin:round;">
</g>
<g style="fill:#000000; fill-opacity:1.0; 
stroke:#000000; stroke-width:19.685; stroke-opacity:1; 
stroke-linecap:round; stroke-linejoin:round;">
</g> 
</svg>
