M48
INCH,TZ
T1C0.028
T2C0.039
T3C0.040
%
G90
G05
T1
X11600Y-34800
X11750Y-37500
X11750Y-38000
X12250Y-37500
X12250Y-38000
X12500Y-33700
X12650Y-43400
X13587Y-16000
X13587Y-27400
X13950Y-43450
X14700Y-35500
X15100Y-26150
X15250Y-15250
X16100Y-44450
X16200Y-42100
X16450Y-43450
X16600Y-35000
X17150Y-42300
X18500Y-15250
X19350Y-15700
X19350Y-27100
X19400Y-25700
X24700Y-34400
X25600Y-43687
X28946Y-44080
X29400Y-34100
X29438Y-22388
X29500Y-31700
X30343Y-25931
X31524Y-21089
X32902Y-10183
X32902Y-23766
X32902Y-25144
X33493Y-21994
X33690Y-11365
X34000Y-37500
X34280Y-24947
X35068Y-10380
X35068Y-21010
X35068Y-22191
X35186Y-24829
X36209Y-13609
X36721Y-11168
X37200Y-32100
X37430Y-12309
X37460Y-31020
X37627Y-14632
X38200Y-43487
X38414Y-12743
X38966Y-38434
X40100Y-34850
X40100Y-35400
X40100Y-36000
X40800Y-34850
X40800Y-35400
X40800Y-36000
X41546Y-43880
X42300Y-37050
X42400Y-34100
X42400Y-36050
X42520Y-33260
X42600Y-35000
X43920Y-31440
T2
X10400Y-41950
X10400Y-42950
X10400Y-43950
X10950Y-13100
X10950Y-14100
X10950Y-24500
X10950Y-25500
X11000Y-32200
X12000Y-32200
X15200Y-37900
X16200Y-37900
X18250Y-41625
X18275Y-42650
X18275Y-43650
X18275Y-44650
X19200Y-37400
X19200Y-38400
X20800Y-38800
X21000Y-32800
X21663Y-41718
X21663Y-42702
X21663Y-43687
X21663Y-44671
X21800Y-38800
X22000Y-32800
X22450Y-11150
X22450Y-12150
X22450Y-22550
X22450Y-23550
X23000Y-32800
X23500Y-38800
X24000Y-32800
X24500Y-38800
X27981Y-15105
X27981Y-16089
X27981Y-17073
X27981Y-18057
X27981Y-19042
X28178Y-24325
X28178Y-25325
X28178Y-26325
X29800Y-36200
X29800Y-37200
X31112Y-42702
X31112Y-43687
X31112Y-44671
X32902Y-14120
X32902Y-15120
X32902Y-16120
X32902Y-18057
X32902Y-19057
X32902Y-20057
X33140Y-33860
X33140Y-34860
X33150Y-31750
X34263Y-41518
X34263Y-42502
X34263Y-43487
X34263Y-44471
X34477Y-14120
X34477Y-15120
X34477Y-16120
X34477Y-18057
X34477Y-19057
X34477Y-20057
X39005Y-14120
X39005Y-15120
X39005Y-16120
X39005Y-18057
X39005Y-19057
X39005Y-20057
X40580Y-14120
X40580Y-15120
X40580Y-16120
X40580Y-18057
X40580Y-19057
X40580Y-20057
X43712Y-42502
X43712Y-43487
X43712Y-44471
X43900Y-36950
X43900Y-37950
X43926Y-9987
X43926Y-10971
X43926Y-23569
X43926Y-24554
T3
X13550Y-17650
X13550Y-29050
T0
M30
