G04 #@! TF.FileFunction,Copper,L1,Top,Signal*
%FSLAX46Y46*%
G04 Gerber Fmt 4.6, Leading zero omitted, Abs format (unit mm)*
G04 Created by KiCad (PCBNEW 4.0.2-stable) date 11/01/2017 21:20:24*
%MOMM*%
G01*
G04 APERTURE LIST*
%ADD10C,0.050000*%
%ADD11R,1.000000X1.250000*%
%ADD12R,1.250000X1.000000*%
%ADD13R,1.000000X1.600000*%
%ADD14R,3.500000X1.800000*%
%ADD15R,3.100000X7.700000*%
%ADD16R,1.727200X1.727200*%
%ADD17O,1.727200X1.727200*%
%ADD18R,0.800000X0.900000*%
%ADD19R,3.500000X1.600000*%
%ADD20R,1.300000X0.700000*%
%ADD21R,0.700000X1.300000*%
%ADD22R,1.550000X0.600000*%
%ADD23R,1.000000X2.500000*%
%ADD24C,0.600000*%
%ADD25C,0.600000*%
%ADD26C,2.000000*%
%ADD27C,1.000000*%
%ADD28C,0.254000*%
G04 APERTURE END LIST*
D10*
D11*
X104759000Y-155448000D03*
X102759000Y-155448000D03*
D12*
X119888000Y-158893000D03*
X119888000Y-160893000D03*
X107188000Y-153686000D03*
X107188000Y-155686000D03*
D11*
X102759000Y-153416000D03*
X104759000Y-153416000D03*
D13*
X100100000Y-161671000D03*
X103100000Y-161671000D03*
D14*
X118578000Y-145288000D03*
X113578000Y-145288000D03*
D15*
X100817000Y-147701000D03*
X107717000Y-147701000D03*
D16*
X124460000Y-164465000D03*
D17*
X121920000Y-164465000D03*
D18*
X115763000Y-151241000D03*
X117663000Y-151241000D03*
X116713000Y-149241000D03*
D19*
X121539000Y-150215600D03*
X121539000Y-155092400D03*
D20*
X109347000Y-153736000D03*
X109347000Y-155636000D03*
D21*
X104582000Y-157734000D03*
X102682000Y-157734000D03*
D22*
X112362000Y-153035000D03*
X112362000Y-154305000D03*
X112362000Y-155575000D03*
X112362000Y-156845000D03*
X117762000Y-156845000D03*
X117762000Y-155575000D03*
X117762000Y-154305000D03*
X117762000Y-153035000D03*
D23*
X125833000Y-160528000D03*
X122833000Y-160528000D03*
D20*
X109474000Y-159700000D03*
X109474000Y-157800000D03*
X109474000Y-132395000D03*
X109474000Y-130495000D03*
D23*
X125833000Y-133223000D03*
X122833000Y-133223000D03*
D22*
X112362000Y-125730000D03*
X112362000Y-127000000D03*
X112362000Y-128270000D03*
X112362000Y-129540000D03*
X117762000Y-129540000D03*
X117762000Y-128270000D03*
X117762000Y-127000000D03*
X117762000Y-125730000D03*
D21*
X104582000Y-130429000D03*
X102682000Y-130429000D03*
D20*
X109347000Y-126431000D03*
X109347000Y-128331000D03*
D19*
X121539000Y-122910600D03*
X121539000Y-127787400D03*
D18*
X115763000Y-123936000D03*
X117663000Y-123936000D03*
X116713000Y-121936000D03*
D16*
X124460000Y-137160000D03*
D17*
X121920000Y-137160000D03*
D15*
X100817000Y-120396000D03*
X107717000Y-120396000D03*
D14*
X118578000Y-117983000D03*
X113578000Y-117983000D03*
D13*
X100100000Y-134366000D03*
X103100000Y-134366000D03*
D11*
X102759000Y-126111000D03*
X104759000Y-126111000D03*
D12*
X107188000Y-126381000D03*
X107188000Y-128381000D03*
X119888000Y-131588000D03*
X119888000Y-133588000D03*
D11*
X104759000Y-128143000D03*
X102759000Y-128143000D03*
X104759000Y-100838000D03*
X102759000Y-100838000D03*
D12*
X119888000Y-104283000D03*
X119888000Y-106283000D03*
X107188000Y-99076000D03*
X107188000Y-101076000D03*
D11*
X102759000Y-98806000D03*
X104759000Y-98806000D03*
D13*
X100100000Y-107061000D03*
X103100000Y-107061000D03*
D14*
X118578000Y-90678000D03*
X113578000Y-90678000D03*
D15*
X100817000Y-93091000D03*
X107717000Y-93091000D03*
D16*
X102616000Y-109982000D03*
D17*
X100076000Y-109982000D03*
D16*
X124460000Y-109855000D03*
D17*
X121920000Y-109855000D03*
D18*
X115763000Y-96631000D03*
X117663000Y-96631000D03*
X116713000Y-94631000D03*
D19*
X121539000Y-95605600D03*
X121539000Y-100482400D03*
D20*
X109347000Y-99126000D03*
X109347000Y-101026000D03*
D21*
X104582000Y-103124000D03*
X102682000Y-103124000D03*
D22*
X112362000Y-98425000D03*
X112362000Y-99695000D03*
X112362000Y-100965000D03*
X112362000Y-102235000D03*
X117762000Y-102235000D03*
X117762000Y-100965000D03*
X117762000Y-99695000D03*
X117762000Y-98425000D03*
D23*
X125833000Y-105918000D03*
X122833000Y-105918000D03*
D16*
X110871000Y-109728000D03*
D17*
X108331000Y-109728000D03*
D20*
X109474000Y-105090000D03*
X109474000Y-103190000D03*
D24*
X127508000Y-160401000D03*
X114427000Y-158877000D03*
X114427000Y-131572000D03*
X127508000Y-133096000D03*
X127508000Y-105791000D03*
X114427000Y-104267000D03*
X111125000Y-150876000D03*
X119126000Y-147701000D03*
X119126000Y-120396000D03*
X111125000Y-123571000D03*
X111125000Y-96266000D03*
X119126000Y-93091000D03*
D25*
X112362000Y-154305000D02*
X114427000Y-154305000D01*
X127381000Y-160528000D02*
X125833000Y-160528000D01*
X127508000Y-160401000D02*
X127381000Y-160528000D01*
X114427000Y-154305000D02*
X114427000Y-158877000D01*
X104759000Y-153416000D02*
X104759000Y-155448000D01*
X104759000Y-153416000D02*
X106918000Y-153416000D01*
X106918000Y-153416000D02*
X107188000Y-153686000D01*
X109347000Y-153736000D02*
X107238000Y-153736000D01*
X107238000Y-153736000D02*
X107188000Y-153686000D01*
X112362000Y-154305000D02*
X109916000Y-154305000D01*
X109916000Y-154305000D02*
X109347000Y-153736000D01*
D26*
X125833000Y-160528000D02*
X125833000Y-163092000D01*
X125833000Y-163092000D02*
X124460000Y-164465000D01*
X118578000Y-145288000D02*
X125476000Y-145288000D01*
X125476000Y-145288000D02*
X125833000Y-145645000D01*
X125833000Y-145645000D02*
X125833000Y-160528000D01*
X125833000Y-118340000D02*
X125833000Y-133223000D01*
X125476000Y-117983000D02*
X125833000Y-118340000D01*
X118578000Y-117983000D02*
X125476000Y-117983000D01*
X125833000Y-135787000D02*
X124460000Y-137160000D01*
X125833000Y-133223000D02*
X125833000Y-135787000D01*
D25*
X109916000Y-127000000D02*
X109347000Y-126431000D01*
X112362000Y-127000000D02*
X109916000Y-127000000D01*
X107238000Y-126431000D02*
X107188000Y-126381000D01*
X109347000Y-126431000D02*
X107238000Y-126431000D01*
X106918000Y-126111000D02*
X107188000Y-126381000D01*
X104759000Y-126111000D02*
X106918000Y-126111000D01*
X104759000Y-126111000D02*
X104759000Y-128143000D01*
X114427000Y-127000000D02*
X114427000Y-131572000D01*
X127508000Y-133096000D02*
X127381000Y-133223000D01*
X127381000Y-133223000D02*
X125833000Y-133223000D01*
X112362000Y-127000000D02*
X114427000Y-127000000D01*
X112362000Y-99695000D02*
X114427000Y-99695000D01*
X127381000Y-105918000D02*
X125833000Y-105918000D01*
X127508000Y-105791000D02*
X127381000Y-105918000D01*
X114427000Y-99695000D02*
X114427000Y-104267000D01*
X104759000Y-98806000D02*
X104759000Y-100838000D01*
X104759000Y-98806000D02*
X106918000Y-98806000D01*
X106918000Y-98806000D02*
X107188000Y-99076000D01*
X109347000Y-99126000D02*
X107238000Y-99126000D01*
X107238000Y-99126000D02*
X107188000Y-99076000D01*
X112362000Y-99695000D02*
X109916000Y-99695000D01*
X109916000Y-99695000D02*
X109347000Y-99126000D01*
D26*
X125833000Y-105918000D02*
X125833000Y-108482000D01*
X125833000Y-108482000D02*
X124460000Y-109855000D01*
X118578000Y-90678000D02*
X125476000Y-90678000D01*
X125476000Y-90678000D02*
X125833000Y-91035000D01*
X125833000Y-91035000D02*
X125833000Y-105918000D01*
D27*
X102759000Y-155448000D02*
X102759000Y-153416000D01*
X102682000Y-157734000D02*
X102682000Y-155525000D01*
X102682000Y-155525000D02*
X102759000Y-155448000D01*
X103100000Y-161671000D02*
X103100000Y-158152000D01*
X103100000Y-158152000D02*
X102682000Y-157734000D01*
X102616000Y-164592000D02*
X102616000Y-162155000D01*
X102616000Y-162155000D02*
X103100000Y-161671000D01*
X102616000Y-164592000D02*
X102616000Y-164973000D01*
X102616000Y-164973000D02*
X104648000Y-167005000D01*
X104648000Y-167005000D02*
X109601000Y-167005000D01*
X109601000Y-167005000D02*
X110871000Y-165735000D01*
X110871000Y-165735000D02*
X110871000Y-164338000D01*
X112362000Y-156845000D02*
X112362000Y-162847000D01*
X112362000Y-162847000D02*
X110871000Y-164338000D01*
X115824000Y-156083000D02*
X115824000Y-157607000D01*
X116840000Y-155067000D02*
X115824000Y-156083000D01*
X117762000Y-155067000D02*
X116840000Y-155067000D01*
X112268000Y-160274000D02*
X112268000Y-157226000D01*
X113030000Y-161036000D02*
X112268000Y-160274000D01*
X115316000Y-161036000D02*
X113030000Y-161036000D01*
X116459000Y-159893000D02*
X115316000Y-161036000D01*
X116459000Y-158242000D02*
X116459000Y-159893000D01*
X115824000Y-157607000D02*
X116459000Y-158242000D01*
X117762000Y-155575000D02*
X117762000Y-155067000D01*
X117762000Y-155067000D02*
X117762000Y-154305000D01*
D26*
X121539000Y-155092400D02*
X118389400Y-155092400D01*
X118389400Y-155092400D02*
X118364000Y-155067000D01*
X119888000Y-160893000D02*
X120507000Y-160893000D01*
X120507000Y-160893000D02*
X121920000Y-162306000D01*
X122833000Y-160528000D02*
X122833000Y-161393000D01*
X122833000Y-161393000D02*
X121920000Y-162306000D01*
X121920000Y-162306000D02*
X121920000Y-164465000D01*
X121539000Y-155092400D02*
X121539000Y-155829000D01*
X121539000Y-155829000D02*
X122833000Y-157123000D01*
X122833000Y-157123000D02*
X122833000Y-160528000D01*
X122833000Y-129818000D02*
X122833000Y-133223000D01*
X121539000Y-128524000D02*
X122833000Y-129818000D01*
X121539000Y-127787400D02*
X121539000Y-128524000D01*
X121920000Y-135001000D02*
X121920000Y-137160000D01*
X122833000Y-134088000D02*
X121920000Y-135001000D01*
X122833000Y-133223000D02*
X122833000Y-134088000D01*
X120507000Y-133588000D02*
X121920000Y-135001000D01*
X119888000Y-133588000D02*
X120507000Y-133588000D01*
X118389400Y-127787400D02*
X118364000Y-127762000D01*
X121539000Y-127787400D02*
X118389400Y-127787400D01*
D27*
X117762000Y-127762000D02*
X117762000Y-127000000D01*
X117762000Y-128270000D02*
X117762000Y-127762000D01*
X115824000Y-130302000D02*
X116459000Y-130937000D01*
X116459000Y-130937000D02*
X116459000Y-132588000D01*
X116459000Y-132588000D02*
X115316000Y-133731000D01*
X115316000Y-133731000D02*
X113030000Y-133731000D01*
X113030000Y-133731000D02*
X112268000Y-132969000D01*
X112268000Y-132969000D02*
X112268000Y-129921000D01*
X117762000Y-127762000D02*
X116840000Y-127762000D01*
X116840000Y-127762000D02*
X115824000Y-128778000D01*
X115824000Y-128778000D02*
X115824000Y-130302000D01*
X112362000Y-135542000D02*
X110871000Y-137033000D01*
X112362000Y-129540000D02*
X112362000Y-135542000D01*
X110871000Y-138430000D02*
X110871000Y-137033000D01*
X109601000Y-139700000D02*
X110871000Y-138430000D01*
X104648000Y-139700000D02*
X109601000Y-139700000D01*
X102616000Y-137668000D02*
X104648000Y-139700000D01*
X102616000Y-137287000D02*
X102616000Y-137668000D01*
X102616000Y-134850000D02*
X103100000Y-134366000D01*
X102616000Y-137287000D02*
X102616000Y-134850000D01*
X103100000Y-130847000D02*
X102682000Y-130429000D01*
X103100000Y-134366000D02*
X103100000Y-130847000D01*
X102682000Y-128220000D02*
X102759000Y-128143000D01*
X102682000Y-130429000D02*
X102682000Y-128220000D01*
X102759000Y-128143000D02*
X102759000Y-126111000D01*
X102759000Y-100838000D02*
X102759000Y-98806000D01*
X102682000Y-103124000D02*
X102682000Y-100915000D01*
X102682000Y-100915000D02*
X102759000Y-100838000D01*
X103100000Y-107061000D02*
X103100000Y-103542000D01*
X103100000Y-103542000D02*
X102682000Y-103124000D01*
X102616000Y-109982000D02*
X102616000Y-107545000D01*
X102616000Y-107545000D02*
X103100000Y-107061000D01*
X102616000Y-109982000D02*
X102616000Y-110363000D01*
X102616000Y-110363000D02*
X104648000Y-112395000D01*
X104648000Y-112395000D02*
X109601000Y-112395000D01*
X109601000Y-112395000D02*
X110871000Y-111125000D01*
X110871000Y-111125000D02*
X110871000Y-109728000D01*
X112362000Y-102235000D02*
X112362000Y-108237000D01*
X112362000Y-108237000D02*
X110871000Y-109728000D01*
X115824000Y-101473000D02*
X115824000Y-102997000D01*
X116840000Y-100457000D02*
X115824000Y-101473000D01*
X117762000Y-100457000D02*
X116840000Y-100457000D01*
X112268000Y-105664000D02*
X112268000Y-102616000D01*
X113030000Y-106426000D02*
X112268000Y-105664000D01*
X115316000Y-106426000D02*
X113030000Y-106426000D01*
X116459000Y-105283000D02*
X115316000Y-106426000D01*
X116459000Y-103632000D02*
X116459000Y-105283000D01*
X115824000Y-102997000D02*
X116459000Y-103632000D01*
X117762000Y-100965000D02*
X117762000Y-100457000D01*
X117762000Y-100457000D02*
X117762000Y-99695000D01*
D26*
X121539000Y-100482400D02*
X118389400Y-100482400D01*
X118389400Y-100482400D02*
X118364000Y-100457000D01*
X119888000Y-106283000D02*
X120507000Y-106283000D01*
X120507000Y-106283000D02*
X121920000Y-107696000D01*
X122833000Y-105918000D02*
X122833000Y-106783000D01*
X122833000Y-106783000D02*
X121920000Y-107696000D01*
X121920000Y-107696000D02*
X121920000Y-109855000D01*
X121539000Y-100482400D02*
X121539000Y-101219000D01*
X121539000Y-101219000D02*
X122833000Y-102513000D01*
X122833000Y-102513000D02*
X122833000Y-105918000D01*
D25*
X117762000Y-156845000D02*
X117840000Y-156845000D01*
X117840000Y-156845000D02*
X119888000Y-158893000D01*
X117840000Y-129540000D02*
X119888000Y-131588000D01*
X117762000Y-129540000D02*
X117840000Y-129540000D01*
X117762000Y-102235000D02*
X117840000Y-102235000D01*
X117840000Y-102235000D02*
X119888000Y-104283000D01*
X109474000Y-157800000D02*
X109474000Y-155763000D01*
X109474000Y-155763000D02*
X109347000Y-155636000D01*
X104582000Y-157734000D02*
X106807000Y-157734000D01*
X107188000Y-157353000D02*
X107188000Y-155686000D01*
X106807000Y-157734000D02*
X107188000Y-157353000D01*
X109347000Y-155636000D02*
X107238000Y-155636000D01*
X107238000Y-155636000D02*
X107188000Y-155686000D01*
X112362000Y-155575000D02*
X109408000Y-155575000D01*
X109408000Y-155575000D02*
X109347000Y-155636000D01*
X109408000Y-128270000D02*
X109347000Y-128331000D01*
X112362000Y-128270000D02*
X109408000Y-128270000D01*
X107238000Y-128331000D02*
X107188000Y-128381000D01*
X109347000Y-128331000D02*
X107238000Y-128331000D01*
X106807000Y-130429000D02*
X107188000Y-130048000D01*
X107188000Y-130048000D02*
X107188000Y-128381000D01*
X104582000Y-130429000D02*
X106807000Y-130429000D01*
X109474000Y-128458000D02*
X109347000Y-128331000D01*
X109474000Y-130495000D02*
X109474000Y-128458000D01*
X109474000Y-103190000D02*
X109474000Y-101153000D01*
X109474000Y-101153000D02*
X109347000Y-101026000D01*
X104582000Y-103124000D02*
X106807000Y-103124000D01*
X107188000Y-102743000D02*
X107188000Y-101076000D01*
X106807000Y-103124000D02*
X107188000Y-102743000D01*
X109347000Y-101026000D02*
X107238000Y-101026000D01*
X107238000Y-101026000D02*
X107188000Y-101076000D01*
X112362000Y-100965000D02*
X109408000Y-100965000D01*
X109408000Y-100965000D02*
X109347000Y-101026000D01*
D26*
X100100000Y-161671000D02*
X100100000Y-148418000D01*
X100100000Y-148418000D02*
X100817000Y-147701000D01*
X100076000Y-164592000D02*
X100076000Y-161695000D01*
X100076000Y-161695000D02*
X100100000Y-161671000D01*
X100076000Y-134390000D02*
X100100000Y-134366000D01*
X100076000Y-137287000D02*
X100076000Y-134390000D01*
X100100000Y-121113000D02*
X100817000Y-120396000D01*
X100100000Y-134366000D02*
X100100000Y-121113000D01*
X100100000Y-107061000D02*
X100100000Y-93808000D01*
X100100000Y-93808000D02*
X100817000Y-93091000D01*
X100076000Y-109982000D02*
X100076000Y-107085000D01*
X100076000Y-107085000D02*
X100100000Y-107061000D01*
D27*
X115763000Y-151241000D02*
X114705000Y-151241000D01*
X114705000Y-151241000D02*
X111165000Y-147701000D01*
D26*
X107717000Y-147701000D02*
X111165000Y-147701000D01*
X111165000Y-147701000D02*
X113578000Y-145288000D01*
X111165000Y-120396000D02*
X113578000Y-117983000D01*
X107717000Y-120396000D02*
X111165000Y-120396000D01*
D27*
X114705000Y-123936000D02*
X111165000Y-120396000D01*
X115763000Y-123936000D02*
X114705000Y-123936000D01*
X115763000Y-96631000D02*
X114705000Y-96631000D01*
X114705000Y-96631000D02*
X111165000Y-93091000D01*
D26*
X107717000Y-93091000D02*
X111165000Y-93091000D01*
X111165000Y-93091000D02*
X113578000Y-90678000D01*
D27*
X112362000Y-153035000D02*
X111760000Y-153035000D01*
X111760000Y-153035000D02*
X111125000Y-152400000D01*
X111125000Y-152400000D02*
X111125000Y-150876000D01*
X119126000Y-147701000D02*
X118872000Y-147955000D01*
X118872000Y-147955000D02*
X117999000Y-147955000D01*
X117999000Y-147955000D02*
X116713000Y-149241000D01*
X117999000Y-120650000D02*
X116713000Y-121936000D01*
X118872000Y-120650000D02*
X117999000Y-120650000D01*
X119126000Y-120396000D02*
X118872000Y-120650000D01*
X111125000Y-125095000D02*
X111125000Y-123571000D01*
X111760000Y-125730000D02*
X111125000Y-125095000D01*
X112362000Y-125730000D02*
X111760000Y-125730000D01*
X112362000Y-98425000D02*
X111760000Y-98425000D01*
X111760000Y-98425000D02*
X111125000Y-97790000D01*
X111125000Y-97790000D02*
X111125000Y-96266000D01*
X119126000Y-93091000D02*
X118872000Y-93345000D01*
X118872000Y-93345000D02*
X117999000Y-93345000D01*
X117999000Y-93345000D02*
X116713000Y-94631000D01*
X117762000Y-153035000D02*
X117762000Y-152494000D01*
X117762000Y-152494000D02*
X119015000Y-151241000D01*
X121539000Y-150215600D02*
X120040400Y-150215600D01*
X120040400Y-150215600D02*
X119015000Y-151241000D01*
X119015000Y-151241000D02*
X117663000Y-151241000D01*
X119015000Y-123936000D02*
X117663000Y-123936000D01*
X120040400Y-122910600D02*
X119015000Y-123936000D01*
X121539000Y-122910600D02*
X120040400Y-122910600D01*
X117762000Y-125189000D02*
X119015000Y-123936000D01*
X117762000Y-125730000D02*
X117762000Y-125189000D01*
X117762000Y-98425000D02*
X117762000Y-97884000D01*
X117762000Y-97884000D02*
X119015000Y-96631000D01*
X121539000Y-95605600D02*
X120040400Y-95605600D01*
X120040400Y-95605600D02*
X119015000Y-96631000D01*
X119015000Y-96631000D02*
X117663000Y-96631000D01*
D25*
X109474000Y-159700000D02*
X109474000Y-160147000D01*
X108331000Y-161290000D02*
X108331000Y-164338000D01*
X109474000Y-160147000D02*
X108331000Y-161290000D01*
X109474000Y-132842000D02*
X108331000Y-133985000D01*
X108331000Y-133985000D02*
X108331000Y-137033000D01*
X109474000Y-132395000D02*
X109474000Y-132842000D01*
X109474000Y-105090000D02*
X109474000Y-105537000D01*
X108331000Y-106680000D02*
X108331000Y-109728000D01*
X109474000Y-105537000D02*
X108331000Y-106680000D01*
D28*
G36*
X128143000Y-104726100D02*
X127760000Y-104567064D01*
X127760000Y-91035000D01*
X127613316Y-90297569D01*
X127195595Y-89672405D01*
X126838595Y-89315405D01*
X126213431Y-88897684D01*
X125476000Y-88751000D01*
X118578000Y-88751000D01*
X118166567Y-88832839D01*
X116828000Y-88832839D01*
X116484474Y-88897478D01*
X116168967Y-89100501D01*
X116078662Y-89232666D01*
X116005499Y-89118967D01*
X115695721Y-88907304D01*
X115328000Y-88832839D01*
X113989433Y-88832839D01*
X113578000Y-88751000D01*
X113166567Y-88832839D01*
X111828000Y-88832839D01*
X111484474Y-88897478D01*
X111168967Y-89100501D01*
X110957304Y-89410279D01*
X110882839Y-89778000D01*
X110882839Y-90647971D01*
X110366810Y-91164000D01*
X110212161Y-91164000D01*
X110212161Y-89241000D01*
X110147522Y-88897474D01*
X109944499Y-88581967D01*
X109634721Y-88370304D01*
X109267000Y-88295839D01*
X106167000Y-88295839D01*
X105823474Y-88360478D01*
X105507967Y-88563501D01*
X105296304Y-88873279D01*
X105221839Y-89241000D01*
X105221839Y-96941000D01*
X105278042Y-97239695D01*
X105259000Y-97235839D01*
X104259000Y-97235839D01*
X103915474Y-97300478D01*
X103599967Y-97503501D01*
X103529983Y-97605926D01*
X103385309Y-97546000D01*
X103075570Y-97546000D01*
X103237696Y-97308721D01*
X103312161Y-96941000D01*
X103312161Y-89241000D01*
X103247522Y-88897474D01*
X103044499Y-88581967D01*
X102734721Y-88370304D01*
X102367000Y-88295839D01*
X99267000Y-88295839D01*
X98923474Y-88360478D01*
X98607967Y-88563501D01*
X98396304Y-88873279D01*
X98321839Y-89241000D01*
X98321839Y-93067344D01*
X98319684Y-93070569D01*
X98173000Y-93808000D01*
X98173000Y-106964344D01*
X98149000Y-107085000D01*
X98149000Y-109982000D01*
X98295684Y-110719431D01*
X98713405Y-111344595D01*
X99338569Y-111762316D01*
X100076000Y-111909000D01*
X100813431Y-111762316D01*
X101387506Y-111378732D01*
X101392701Y-111383927D01*
X101626090Y-111480600D01*
X102330250Y-111480600D01*
X102489000Y-111321850D01*
X102489000Y-110109000D01*
X102743000Y-110109000D01*
X102743000Y-111321850D01*
X102901750Y-111480600D01*
X103605910Y-111480600D01*
X103839299Y-111383927D01*
X104017927Y-111205298D01*
X104114600Y-110971909D01*
X104114600Y-110267750D01*
X103955850Y-110109000D01*
X102743000Y-110109000D01*
X102489000Y-110109000D01*
X102469000Y-110109000D01*
X102469000Y-109855000D01*
X102489000Y-109855000D01*
X102489000Y-109835000D01*
X102743000Y-109835000D01*
X102743000Y-109855000D01*
X103955850Y-109855000D01*
X104114600Y-109696250D01*
X104114600Y-108992091D01*
X104017927Y-108758702D01*
X103839299Y-108580073D01*
X103636329Y-108496000D01*
X103726309Y-108496000D01*
X103959698Y-108399327D01*
X104138327Y-108220699D01*
X104235000Y-107987310D01*
X104235000Y-107346750D01*
X104076250Y-107188000D01*
X103227000Y-107188000D01*
X103227000Y-107208000D01*
X102973000Y-107208000D01*
X102973000Y-107188000D01*
X102953000Y-107188000D01*
X102953000Y-106934000D01*
X102973000Y-106934000D01*
X102973000Y-105784750D01*
X103227000Y-105784750D01*
X103227000Y-106934000D01*
X104076250Y-106934000D01*
X104235000Y-106775250D01*
X104235000Y-106134690D01*
X104138327Y-105901301D01*
X103959698Y-105722673D01*
X103726309Y-105626000D01*
X103385750Y-105626000D01*
X103227000Y-105784750D01*
X102973000Y-105784750D01*
X102814250Y-105626000D01*
X102473691Y-105626000D01*
X102240302Y-105722673D01*
X102061673Y-105901301D01*
X102027000Y-105985009D01*
X102027000Y-104334984D01*
X102205691Y-104409000D01*
X102396250Y-104409000D01*
X102555000Y-104250250D01*
X102555000Y-103251000D01*
X102535000Y-103251000D01*
X102535000Y-102997000D01*
X102555000Y-102997000D01*
X102555000Y-102016250D01*
X102632000Y-101939250D01*
X102632000Y-100965000D01*
X102612000Y-100965000D01*
X102612000Y-100711000D01*
X102632000Y-100711000D01*
X102632000Y-98933000D01*
X102612000Y-98933000D01*
X102612000Y-98679000D01*
X102632000Y-98679000D01*
X102632000Y-98659000D01*
X102886000Y-98659000D01*
X102886000Y-98679000D01*
X102906000Y-98679000D01*
X102906000Y-98933000D01*
X102886000Y-98933000D01*
X102886000Y-100711000D01*
X102906000Y-100711000D01*
X102906000Y-100965000D01*
X102886000Y-100965000D01*
X102886000Y-101920750D01*
X102809000Y-101997750D01*
X102809000Y-102997000D01*
X102829000Y-102997000D01*
X102829000Y-103251000D01*
X102809000Y-103251000D01*
X102809000Y-104250250D01*
X102967750Y-104409000D01*
X103158309Y-104409000D01*
X103391698Y-104312327D01*
X103443497Y-104260528D01*
X103554501Y-104433033D01*
X103864279Y-104644696D01*
X104232000Y-104719161D01*
X104932000Y-104719161D01*
X105275526Y-104654522D01*
X105591033Y-104451499D01*
X105659701Y-104351000D01*
X106807000Y-104351000D01*
X107276553Y-104257600D01*
X107674620Y-103991620D01*
X107918019Y-103748221D01*
X107943478Y-103883526D01*
X108110212Y-104142638D01*
X107953304Y-104372279D01*
X107878839Y-104740000D01*
X107878839Y-105396921D01*
X107463380Y-105812380D01*
X107197400Y-106210447D01*
X107104000Y-106680000D01*
X107104000Y-108400619D01*
X107064855Y-108426775D01*
X106676701Y-109007687D01*
X106540400Y-109692920D01*
X106540400Y-109763080D01*
X106676701Y-110448313D01*
X107064855Y-111029225D01*
X107645767Y-111417379D01*
X108331000Y-111553680D01*
X109016233Y-111417379D01*
X109567085Y-111049311D01*
X109647701Y-111129927D01*
X109881090Y-111226600D01*
X110585250Y-111226600D01*
X110744000Y-111067850D01*
X110744000Y-109855000D01*
X110998000Y-109855000D01*
X110998000Y-111067850D01*
X111156750Y-111226600D01*
X111860910Y-111226600D01*
X112094299Y-111129927D01*
X112272927Y-110951298D01*
X112369600Y-110717909D01*
X112369600Y-110214027D01*
X120465032Y-110214027D01*
X120713179Y-110743490D01*
X121145053Y-111137688D01*
X121560974Y-111309958D01*
X121793000Y-111188817D01*
X121793000Y-109982000D01*
X120585531Y-109982000D01*
X120465032Y-110214027D01*
X112369600Y-110214027D01*
X112369600Y-110013750D01*
X112210850Y-109855000D01*
X110998000Y-109855000D01*
X110744000Y-109855000D01*
X110724000Y-109855000D01*
X110724000Y-109601000D01*
X110744000Y-109601000D01*
X110744000Y-108388150D01*
X110998000Y-108388150D01*
X110998000Y-109601000D01*
X112210850Y-109601000D01*
X112315877Y-109495973D01*
X120465032Y-109495973D01*
X120585531Y-109728000D01*
X121793000Y-109728000D01*
X121793000Y-108521183D01*
X121560974Y-108400042D01*
X121145053Y-108572312D01*
X120713179Y-108966510D01*
X120465032Y-109495973D01*
X112315877Y-109495973D01*
X112369600Y-109442250D01*
X112369600Y-108738091D01*
X112272927Y-108504702D01*
X112094299Y-108326073D01*
X111860910Y-108229400D01*
X111156750Y-108229400D01*
X110998000Y-108388150D01*
X110744000Y-108388150D01*
X110585250Y-108229400D01*
X109881090Y-108229400D01*
X109647701Y-108326073D01*
X109567085Y-108406689D01*
X109558000Y-108400619D01*
X109558000Y-107188240D01*
X110177490Y-106568750D01*
X118628000Y-106568750D01*
X118628000Y-106909309D01*
X118724673Y-107142698D01*
X118903301Y-107321327D01*
X119136690Y-107418000D01*
X119602250Y-107418000D01*
X119761000Y-107259250D01*
X119761000Y-106410000D01*
X120015000Y-106410000D01*
X120015000Y-107259250D01*
X120173750Y-107418000D01*
X120639310Y-107418000D01*
X120872699Y-107321327D01*
X121051327Y-107142698D01*
X121148000Y-106909309D01*
X121148000Y-106568750D01*
X120989250Y-106410000D01*
X120015000Y-106410000D01*
X119761000Y-106410000D01*
X118786750Y-106410000D01*
X118628000Y-106568750D01*
X110177490Y-106568750D01*
X110341620Y-106404620D01*
X110379740Y-106347569D01*
X110387787Y-106335526D01*
X110467526Y-106320522D01*
X110648995Y-106203750D01*
X121698000Y-106203750D01*
X121698000Y-107294310D01*
X121794673Y-107527699D01*
X121973302Y-107706327D01*
X122206691Y-107803000D01*
X122547250Y-107803000D01*
X122706000Y-107644250D01*
X122706000Y-106045000D01*
X121856750Y-106045000D01*
X121698000Y-106203750D01*
X110648995Y-106203750D01*
X110783033Y-106117499D01*
X110994696Y-105807721D01*
X111069161Y-105440000D01*
X111069161Y-104740000D01*
X111004522Y-104396474D01*
X110837788Y-104137362D01*
X110994696Y-103907721D01*
X111069161Y-103540000D01*
X111069161Y-102915187D01*
X111227302Y-103073327D01*
X111460691Y-103170000D01*
X112076250Y-103170000D01*
X112235000Y-103011250D01*
X112235000Y-102362000D01*
X111110750Y-102362000D01*
X110993463Y-102479287D01*
X110808599Y-102192000D01*
X111497318Y-102192000D01*
X111587000Y-102210161D01*
X112509000Y-102210161D01*
X112509000Y-102362000D01*
X112489000Y-102362000D01*
X112489000Y-103011250D01*
X112647750Y-103170000D01*
X113200000Y-103170000D01*
X113200000Y-104267000D01*
X113199788Y-104509995D01*
X113386194Y-104961131D01*
X113731053Y-105306593D01*
X114181864Y-105493786D01*
X114427000Y-105494000D01*
X114669995Y-105494212D01*
X115121131Y-105307806D01*
X115466593Y-104962947D01*
X115653786Y-104512136D01*
X115654212Y-104024005D01*
X115654000Y-104023492D01*
X115654000Y-99695000D01*
X115560600Y-99225447D01*
X115294620Y-98827380D01*
X114896553Y-98561400D01*
X114427000Y-98468000D01*
X114082161Y-98468000D01*
X114082161Y-98125000D01*
X114033326Y-97865462D01*
X114158911Y-97949376D01*
X114705000Y-98058000D01*
X115763000Y-98058000D01*
X115923065Y-98026161D01*
X116061854Y-98026161D01*
X116041839Y-98125000D01*
X116041839Y-98725000D01*
X116106478Y-99068526D01*
X116309501Y-99384033D01*
X116364065Y-99421315D01*
X116510750Y-99568000D01*
X116578745Y-99568000D01*
X116619279Y-99595696D01*
X116987000Y-99670161D01*
X117106337Y-99670161D01*
X117215911Y-99743376D01*
X117611180Y-99822000D01*
X116510750Y-99822000D01*
X116352000Y-99980750D01*
X116352000Y-100121310D01*
X116438442Y-100330000D01*
X116352000Y-100538690D01*
X116352000Y-100679250D01*
X116510750Y-100838000D01*
X117635000Y-100838000D01*
X117635000Y-99826738D01*
X117762000Y-99852000D01*
X117889000Y-99826738D01*
X117889000Y-100838000D01*
X117909000Y-100838000D01*
X117909000Y-100989839D01*
X116987000Y-100989839D01*
X116643474Y-101054478D01*
X116585163Y-101092000D01*
X116510750Y-101092000D01*
X116376441Y-101226309D01*
X116327967Y-101257501D01*
X116116304Y-101567279D01*
X116041839Y-101935000D01*
X116041839Y-102535000D01*
X116106478Y-102878526D01*
X116309501Y-103194033D01*
X116619279Y-103405696D01*
X116987000Y-103480161D01*
X117349921Y-103480161D01*
X118317839Y-104448079D01*
X118317839Y-104783000D01*
X118382478Y-105126526D01*
X118585501Y-105442033D01*
X118687926Y-105512017D01*
X118628000Y-105656691D01*
X118628000Y-105997250D01*
X118786750Y-106156000D01*
X119761000Y-106156000D01*
X119761000Y-106136000D01*
X120015000Y-106136000D01*
X120015000Y-106156000D01*
X120989250Y-106156000D01*
X121148000Y-105997250D01*
X121148000Y-105656691D01*
X121088894Y-105513997D01*
X121172033Y-105460499D01*
X121383696Y-105150721D01*
X121458161Y-104783000D01*
X121458161Y-104541690D01*
X121698000Y-104541690D01*
X121698000Y-105632250D01*
X121856750Y-105791000D01*
X122706000Y-105791000D01*
X122706000Y-104191750D01*
X122547250Y-104033000D01*
X122206691Y-104033000D01*
X121973302Y-104129673D01*
X121794673Y-104308301D01*
X121698000Y-104541690D01*
X121458161Y-104541690D01*
X121458161Y-103783000D01*
X121393522Y-103439474D01*
X121190499Y-103123967D01*
X120880721Y-102912304D01*
X120513000Y-102837839D01*
X120178079Y-102837839D01*
X119482161Y-102141921D01*
X119482161Y-101935000D01*
X119463310Y-101834814D01*
X119662690Y-101917400D01*
X121253250Y-101917400D01*
X121412000Y-101758650D01*
X121412000Y-100609400D01*
X119312750Y-100609400D01*
X119154000Y-100768150D01*
X119154000Y-100837998D01*
X119013252Y-100837998D01*
X119172000Y-100679250D01*
X119172000Y-100538690D01*
X119085558Y-100330000D01*
X119154000Y-100164766D01*
X119154000Y-100196650D01*
X119312750Y-100355400D01*
X121412000Y-100355400D01*
X121412000Y-99206150D01*
X121253250Y-99047400D01*
X119662690Y-99047400D01*
X119429301Y-99144073D01*
X119250673Y-99322702D01*
X119154000Y-99556091D01*
X119154000Y-99567998D01*
X119013252Y-99567998D01*
X119147559Y-99433691D01*
X119196033Y-99402499D01*
X119407696Y-99092721D01*
X119482161Y-98725000D01*
X119482161Y-98181922D01*
X120024042Y-97640041D01*
X120024044Y-97640038D01*
X120313321Y-97350761D01*
X123289000Y-97350761D01*
X123632526Y-97286122D01*
X123906000Y-97110146D01*
X123906000Y-99512635D01*
X123827327Y-99322702D01*
X123648699Y-99144073D01*
X123415310Y-99047400D01*
X121824750Y-99047400D01*
X121666000Y-99206150D01*
X121666000Y-100355400D01*
X121686000Y-100355400D01*
X121686000Y-100609400D01*
X121666000Y-100609400D01*
X121666000Y-101758650D01*
X121824750Y-101917400D01*
X123415310Y-101917400D01*
X123648699Y-101820727D01*
X123827327Y-101642098D01*
X123906000Y-101452165D01*
X123906000Y-104392009D01*
X123871327Y-104308301D01*
X123692698Y-104129673D01*
X123459309Y-104033000D01*
X123118750Y-104033000D01*
X122960000Y-104191750D01*
X122960000Y-105791000D01*
X122980000Y-105791000D01*
X122980000Y-106045000D01*
X122960000Y-106045000D01*
X122960000Y-107644250D01*
X123118750Y-107803000D01*
X123459309Y-107803000D01*
X123692698Y-107706327D01*
X123871327Y-107527699D01*
X123906000Y-107443991D01*
X123906000Y-107683810D01*
X123531327Y-108058483D01*
X123252874Y-108110878D01*
X122937367Y-108313901D01*
X122735506Y-108609333D01*
X122694947Y-108572312D01*
X122279026Y-108400042D01*
X122047000Y-108521183D01*
X122047000Y-109728000D01*
X122067000Y-109728000D01*
X122067000Y-109982000D01*
X122047000Y-109982000D01*
X122047000Y-111188817D01*
X122279026Y-111309958D01*
X122694947Y-111137688D01*
X122738765Y-111097693D01*
X122918901Y-111377633D01*
X123228679Y-111589296D01*
X123596400Y-111663761D01*
X123865572Y-111663761D01*
X124460000Y-111782000D01*
X125054428Y-111663761D01*
X125323600Y-111663761D01*
X125667126Y-111599122D01*
X125982633Y-111396099D01*
X126194296Y-111086321D01*
X126255346Y-110784844D01*
X127195595Y-109844595D01*
X127613316Y-109219431D01*
X127760000Y-108482000D01*
X127760000Y-107069612D01*
X127850553Y-107051600D01*
X128142822Y-106856312D01*
X128143000Y-106856238D01*
X128143000Y-114808000D01*
X97917000Y-114808000D01*
X97917000Y-87757000D01*
X128143000Y-87757000D01*
X128143000Y-104726100D01*
X128143000Y-104726100D01*
G37*
X128143000Y-104726100D02*
X127760000Y-104567064D01*
X127760000Y-91035000D01*
X127613316Y-90297569D01*
X127195595Y-89672405D01*
X126838595Y-89315405D01*
X126213431Y-88897684D01*
X125476000Y-88751000D01*
X118578000Y-88751000D01*
X118166567Y-88832839D01*
X116828000Y-88832839D01*
X116484474Y-88897478D01*
X116168967Y-89100501D01*
X116078662Y-89232666D01*
X116005499Y-89118967D01*
X115695721Y-88907304D01*
X115328000Y-88832839D01*
X113989433Y-88832839D01*
X113578000Y-88751000D01*
X113166567Y-88832839D01*
X111828000Y-88832839D01*
X111484474Y-88897478D01*
X111168967Y-89100501D01*
X110957304Y-89410279D01*
X110882839Y-89778000D01*
X110882839Y-90647971D01*
X110366810Y-91164000D01*
X110212161Y-91164000D01*
X110212161Y-89241000D01*
X110147522Y-88897474D01*
X109944499Y-88581967D01*
X109634721Y-88370304D01*
X109267000Y-88295839D01*
X106167000Y-88295839D01*
X105823474Y-88360478D01*
X105507967Y-88563501D01*
X105296304Y-88873279D01*
X105221839Y-89241000D01*
X105221839Y-96941000D01*
X105278042Y-97239695D01*
X105259000Y-97235839D01*
X104259000Y-97235839D01*
X103915474Y-97300478D01*
X103599967Y-97503501D01*
X103529983Y-97605926D01*
X103385309Y-97546000D01*
X103075570Y-97546000D01*
X103237696Y-97308721D01*
X103312161Y-96941000D01*
X103312161Y-89241000D01*
X103247522Y-88897474D01*
X103044499Y-88581967D01*
X102734721Y-88370304D01*
X102367000Y-88295839D01*
X99267000Y-88295839D01*
X98923474Y-88360478D01*
X98607967Y-88563501D01*
X98396304Y-88873279D01*
X98321839Y-89241000D01*
X98321839Y-93067344D01*
X98319684Y-93070569D01*
X98173000Y-93808000D01*
X98173000Y-106964344D01*
X98149000Y-107085000D01*
X98149000Y-109982000D01*
X98295684Y-110719431D01*
X98713405Y-111344595D01*
X99338569Y-111762316D01*
X100076000Y-111909000D01*
X100813431Y-111762316D01*
X101387506Y-111378732D01*
X101392701Y-111383927D01*
X101626090Y-111480600D01*
X102330250Y-111480600D01*
X102489000Y-111321850D01*
X102489000Y-110109000D01*
X102743000Y-110109000D01*
X102743000Y-111321850D01*
X102901750Y-111480600D01*
X103605910Y-111480600D01*
X103839299Y-111383927D01*
X104017927Y-111205298D01*
X104114600Y-110971909D01*
X104114600Y-110267750D01*
X103955850Y-110109000D01*
X102743000Y-110109000D01*
X102489000Y-110109000D01*
X102469000Y-110109000D01*
X102469000Y-109855000D01*
X102489000Y-109855000D01*
X102489000Y-109835000D01*
X102743000Y-109835000D01*
X102743000Y-109855000D01*
X103955850Y-109855000D01*
X104114600Y-109696250D01*
X104114600Y-108992091D01*
X104017927Y-108758702D01*
X103839299Y-108580073D01*
X103636329Y-108496000D01*
X103726309Y-108496000D01*
X103959698Y-108399327D01*
X104138327Y-108220699D01*
X104235000Y-107987310D01*
X104235000Y-107346750D01*
X104076250Y-107188000D01*
X103227000Y-107188000D01*
X103227000Y-107208000D01*
X102973000Y-107208000D01*
X102973000Y-107188000D01*
X102953000Y-107188000D01*
X102953000Y-106934000D01*
X102973000Y-106934000D01*
X102973000Y-105784750D01*
X103227000Y-105784750D01*
X103227000Y-106934000D01*
X104076250Y-106934000D01*
X104235000Y-106775250D01*
X104235000Y-106134690D01*
X104138327Y-105901301D01*
X103959698Y-105722673D01*
X103726309Y-105626000D01*
X103385750Y-105626000D01*
X103227000Y-105784750D01*
X102973000Y-105784750D01*
X102814250Y-105626000D01*
X102473691Y-105626000D01*
X102240302Y-105722673D01*
X102061673Y-105901301D01*
X102027000Y-105985009D01*
X102027000Y-104334984D01*
X102205691Y-104409000D01*
X102396250Y-104409000D01*
X102555000Y-104250250D01*
X102555000Y-103251000D01*
X102535000Y-103251000D01*
X102535000Y-102997000D01*
X102555000Y-102997000D01*
X102555000Y-102016250D01*
X102632000Y-101939250D01*
X102632000Y-100965000D01*
X102612000Y-100965000D01*
X102612000Y-100711000D01*
X102632000Y-100711000D01*
X102632000Y-98933000D01*
X102612000Y-98933000D01*
X102612000Y-98679000D01*
X102632000Y-98679000D01*
X102632000Y-98659000D01*
X102886000Y-98659000D01*
X102886000Y-98679000D01*
X102906000Y-98679000D01*
X102906000Y-98933000D01*
X102886000Y-98933000D01*
X102886000Y-100711000D01*
X102906000Y-100711000D01*
X102906000Y-100965000D01*
X102886000Y-100965000D01*
X102886000Y-101920750D01*
X102809000Y-101997750D01*
X102809000Y-102997000D01*
X102829000Y-102997000D01*
X102829000Y-103251000D01*
X102809000Y-103251000D01*
X102809000Y-104250250D01*
X102967750Y-104409000D01*
X103158309Y-104409000D01*
X103391698Y-104312327D01*
X103443497Y-104260528D01*
X103554501Y-104433033D01*
X103864279Y-104644696D01*
X104232000Y-104719161D01*
X104932000Y-104719161D01*
X105275526Y-104654522D01*
X105591033Y-104451499D01*
X105659701Y-104351000D01*
X106807000Y-104351000D01*
X107276553Y-104257600D01*
X107674620Y-103991620D01*
X107918019Y-103748221D01*
X107943478Y-103883526D01*
X108110212Y-104142638D01*
X107953304Y-104372279D01*
X107878839Y-104740000D01*
X107878839Y-105396921D01*
X107463380Y-105812380D01*
X107197400Y-106210447D01*
X107104000Y-106680000D01*
X107104000Y-108400619D01*
X107064855Y-108426775D01*
X106676701Y-109007687D01*
X106540400Y-109692920D01*
X106540400Y-109763080D01*
X106676701Y-110448313D01*
X107064855Y-111029225D01*
X107645767Y-111417379D01*
X108331000Y-111553680D01*
X109016233Y-111417379D01*
X109567085Y-111049311D01*
X109647701Y-111129927D01*
X109881090Y-111226600D01*
X110585250Y-111226600D01*
X110744000Y-111067850D01*
X110744000Y-109855000D01*
X110998000Y-109855000D01*
X110998000Y-111067850D01*
X111156750Y-111226600D01*
X111860910Y-111226600D01*
X112094299Y-111129927D01*
X112272927Y-110951298D01*
X112369600Y-110717909D01*
X112369600Y-110214027D01*
X120465032Y-110214027D01*
X120713179Y-110743490D01*
X121145053Y-111137688D01*
X121560974Y-111309958D01*
X121793000Y-111188817D01*
X121793000Y-109982000D01*
X120585531Y-109982000D01*
X120465032Y-110214027D01*
X112369600Y-110214027D01*
X112369600Y-110013750D01*
X112210850Y-109855000D01*
X110998000Y-109855000D01*
X110744000Y-109855000D01*
X110724000Y-109855000D01*
X110724000Y-109601000D01*
X110744000Y-109601000D01*
X110744000Y-108388150D01*
X110998000Y-108388150D01*
X110998000Y-109601000D01*
X112210850Y-109601000D01*
X112315877Y-109495973D01*
X120465032Y-109495973D01*
X120585531Y-109728000D01*
X121793000Y-109728000D01*
X121793000Y-108521183D01*
X121560974Y-108400042D01*
X121145053Y-108572312D01*
X120713179Y-108966510D01*
X120465032Y-109495973D01*
X112315877Y-109495973D01*
X112369600Y-109442250D01*
X112369600Y-108738091D01*
X112272927Y-108504702D01*
X112094299Y-108326073D01*
X111860910Y-108229400D01*
X111156750Y-108229400D01*
X110998000Y-108388150D01*
X110744000Y-108388150D01*
X110585250Y-108229400D01*
X109881090Y-108229400D01*
X109647701Y-108326073D01*
X109567085Y-108406689D01*
X109558000Y-108400619D01*
X109558000Y-107188240D01*
X110177490Y-106568750D01*
X118628000Y-106568750D01*
X118628000Y-106909309D01*
X118724673Y-107142698D01*
X118903301Y-107321327D01*
X119136690Y-107418000D01*
X119602250Y-107418000D01*
X119761000Y-107259250D01*
X119761000Y-106410000D01*
X120015000Y-106410000D01*
X120015000Y-107259250D01*
X120173750Y-107418000D01*
X120639310Y-107418000D01*
X120872699Y-107321327D01*
X121051327Y-107142698D01*
X121148000Y-106909309D01*
X121148000Y-106568750D01*
X120989250Y-106410000D01*
X120015000Y-106410000D01*
X119761000Y-106410000D01*
X118786750Y-106410000D01*
X118628000Y-106568750D01*
X110177490Y-106568750D01*
X110341620Y-106404620D01*
X110379740Y-106347569D01*
X110387787Y-106335526D01*
X110467526Y-106320522D01*
X110648995Y-106203750D01*
X121698000Y-106203750D01*
X121698000Y-107294310D01*
X121794673Y-107527699D01*
X121973302Y-107706327D01*
X122206691Y-107803000D01*
X122547250Y-107803000D01*
X122706000Y-107644250D01*
X122706000Y-106045000D01*
X121856750Y-106045000D01*
X121698000Y-106203750D01*
X110648995Y-106203750D01*
X110783033Y-106117499D01*
X110994696Y-105807721D01*
X111069161Y-105440000D01*
X111069161Y-104740000D01*
X111004522Y-104396474D01*
X110837788Y-104137362D01*
X110994696Y-103907721D01*
X111069161Y-103540000D01*
X111069161Y-102915187D01*
X111227302Y-103073327D01*
X111460691Y-103170000D01*
X112076250Y-103170000D01*
X112235000Y-103011250D01*
X112235000Y-102362000D01*
X111110750Y-102362000D01*
X110993463Y-102479287D01*
X110808599Y-102192000D01*
X111497318Y-102192000D01*
X111587000Y-102210161D01*
X112509000Y-102210161D01*
X112509000Y-102362000D01*
X112489000Y-102362000D01*
X112489000Y-103011250D01*
X112647750Y-103170000D01*
X113200000Y-103170000D01*
X113200000Y-104267000D01*
X113199788Y-104509995D01*
X113386194Y-104961131D01*
X113731053Y-105306593D01*
X114181864Y-105493786D01*
X114427000Y-105494000D01*
X114669995Y-105494212D01*
X115121131Y-105307806D01*
X115466593Y-104962947D01*
X115653786Y-104512136D01*
X115654212Y-104024005D01*
X115654000Y-104023492D01*
X115654000Y-99695000D01*
X115560600Y-99225447D01*
X115294620Y-98827380D01*
X114896553Y-98561400D01*
X114427000Y-98468000D01*
X114082161Y-98468000D01*
X114082161Y-98125000D01*
X114033326Y-97865462D01*
X114158911Y-97949376D01*
X114705000Y-98058000D01*
X115763000Y-98058000D01*
X115923065Y-98026161D01*
X116061854Y-98026161D01*
X116041839Y-98125000D01*
X116041839Y-98725000D01*
X116106478Y-99068526D01*
X116309501Y-99384033D01*
X116364065Y-99421315D01*
X116510750Y-99568000D01*
X116578745Y-99568000D01*
X116619279Y-99595696D01*
X116987000Y-99670161D01*
X117106337Y-99670161D01*
X117215911Y-99743376D01*
X117611180Y-99822000D01*
X116510750Y-99822000D01*
X116352000Y-99980750D01*
X116352000Y-100121310D01*
X116438442Y-100330000D01*
X116352000Y-100538690D01*
X116352000Y-100679250D01*
X116510750Y-100838000D01*
X117635000Y-100838000D01*
X117635000Y-99826738D01*
X117762000Y-99852000D01*
X117889000Y-99826738D01*
X117889000Y-100838000D01*
X117909000Y-100838000D01*
X117909000Y-100989839D01*
X116987000Y-100989839D01*
X116643474Y-101054478D01*
X116585163Y-101092000D01*
X116510750Y-101092000D01*
X116376441Y-101226309D01*
X116327967Y-101257501D01*
X116116304Y-101567279D01*
X116041839Y-101935000D01*
X116041839Y-102535000D01*
X116106478Y-102878526D01*
X116309501Y-103194033D01*
X116619279Y-103405696D01*
X116987000Y-103480161D01*
X117349921Y-103480161D01*
X118317839Y-104448079D01*
X118317839Y-104783000D01*
X118382478Y-105126526D01*
X118585501Y-105442033D01*
X118687926Y-105512017D01*
X118628000Y-105656691D01*
X118628000Y-105997250D01*
X118786750Y-106156000D01*
X119761000Y-106156000D01*
X119761000Y-106136000D01*
X120015000Y-106136000D01*
X120015000Y-106156000D01*
X120989250Y-106156000D01*
X121148000Y-105997250D01*
X121148000Y-105656691D01*
X121088894Y-105513997D01*
X121172033Y-105460499D01*
X121383696Y-105150721D01*
X121458161Y-104783000D01*
X121458161Y-104541690D01*
X121698000Y-104541690D01*
X121698000Y-105632250D01*
X121856750Y-105791000D01*
X122706000Y-105791000D01*
X122706000Y-104191750D01*
X122547250Y-104033000D01*
X122206691Y-104033000D01*
X121973302Y-104129673D01*
X121794673Y-104308301D01*
X121698000Y-104541690D01*
X121458161Y-104541690D01*
X121458161Y-103783000D01*
X121393522Y-103439474D01*
X121190499Y-103123967D01*
X120880721Y-102912304D01*
X120513000Y-102837839D01*
X120178079Y-102837839D01*
X119482161Y-102141921D01*
X119482161Y-101935000D01*
X119463310Y-101834814D01*
X119662690Y-101917400D01*
X121253250Y-101917400D01*
X121412000Y-101758650D01*
X121412000Y-100609400D01*
X119312750Y-100609400D01*
X119154000Y-100768150D01*
X119154000Y-100837998D01*
X119013252Y-100837998D01*
X119172000Y-100679250D01*
X119172000Y-100538690D01*
X119085558Y-100330000D01*
X119154000Y-100164766D01*
X119154000Y-100196650D01*
X119312750Y-100355400D01*
X121412000Y-100355400D01*
X121412000Y-99206150D01*
X121253250Y-99047400D01*
X119662690Y-99047400D01*
X119429301Y-99144073D01*
X119250673Y-99322702D01*
X119154000Y-99556091D01*
X119154000Y-99567998D01*
X119013252Y-99567998D01*
X119147559Y-99433691D01*
X119196033Y-99402499D01*
X119407696Y-99092721D01*
X119482161Y-98725000D01*
X119482161Y-98181922D01*
X120024042Y-97640041D01*
X120024044Y-97640038D01*
X120313321Y-97350761D01*
X123289000Y-97350761D01*
X123632526Y-97286122D01*
X123906000Y-97110146D01*
X123906000Y-99512635D01*
X123827327Y-99322702D01*
X123648699Y-99144073D01*
X123415310Y-99047400D01*
X121824750Y-99047400D01*
X121666000Y-99206150D01*
X121666000Y-100355400D01*
X121686000Y-100355400D01*
X121686000Y-100609400D01*
X121666000Y-100609400D01*
X121666000Y-101758650D01*
X121824750Y-101917400D01*
X123415310Y-101917400D01*
X123648699Y-101820727D01*
X123827327Y-101642098D01*
X123906000Y-101452165D01*
X123906000Y-104392009D01*
X123871327Y-104308301D01*
X123692698Y-104129673D01*
X123459309Y-104033000D01*
X123118750Y-104033000D01*
X122960000Y-104191750D01*
X122960000Y-105791000D01*
X122980000Y-105791000D01*
X122980000Y-106045000D01*
X122960000Y-106045000D01*
X122960000Y-107644250D01*
X123118750Y-107803000D01*
X123459309Y-107803000D01*
X123692698Y-107706327D01*
X123871327Y-107527699D01*
X123906000Y-107443991D01*
X123906000Y-107683810D01*
X123531327Y-108058483D01*
X123252874Y-108110878D01*
X122937367Y-108313901D01*
X122735506Y-108609333D01*
X122694947Y-108572312D01*
X122279026Y-108400042D01*
X122047000Y-108521183D01*
X122047000Y-109728000D01*
X122067000Y-109728000D01*
X122067000Y-109982000D01*
X122047000Y-109982000D01*
X122047000Y-111188817D01*
X122279026Y-111309958D01*
X122694947Y-111137688D01*
X122738765Y-111097693D01*
X122918901Y-111377633D01*
X123228679Y-111589296D01*
X123596400Y-111663761D01*
X123865572Y-111663761D01*
X124460000Y-111782000D01*
X125054428Y-111663761D01*
X125323600Y-111663761D01*
X125667126Y-111599122D01*
X125982633Y-111396099D01*
X126194296Y-111086321D01*
X126255346Y-110784844D01*
X127195595Y-109844595D01*
X127613316Y-109219431D01*
X127760000Y-108482000D01*
X127760000Y-107069612D01*
X127850553Y-107051600D01*
X128142822Y-106856312D01*
X128143000Y-106856238D01*
X128143000Y-114808000D01*
X97917000Y-114808000D01*
X97917000Y-87757000D01*
X128143000Y-87757000D01*
X128143000Y-104726100D01*
G36*
X128143000Y-132031100D02*
X127760000Y-131872064D01*
X127760000Y-118340000D01*
X127613316Y-117602569D01*
X127195595Y-116977405D01*
X126838595Y-116620405D01*
X126213431Y-116202684D01*
X125476000Y-116056000D01*
X118578000Y-116056000D01*
X118166567Y-116137839D01*
X116828000Y-116137839D01*
X116484474Y-116202478D01*
X116168967Y-116405501D01*
X116078662Y-116537666D01*
X116005499Y-116423967D01*
X115695721Y-116212304D01*
X115328000Y-116137839D01*
X113989433Y-116137839D01*
X113578000Y-116056000D01*
X113166567Y-116137839D01*
X111828000Y-116137839D01*
X111484474Y-116202478D01*
X111168967Y-116405501D01*
X110957304Y-116715279D01*
X110882839Y-117083000D01*
X110882839Y-117952971D01*
X110366810Y-118469000D01*
X110212161Y-118469000D01*
X110212161Y-116546000D01*
X110147522Y-116202474D01*
X109944499Y-115886967D01*
X109634721Y-115675304D01*
X109267000Y-115600839D01*
X106167000Y-115600839D01*
X105823474Y-115665478D01*
X105507967Y-115868501D01*
X105296304Y-116178279D01*
X105221839Y-116546000D01*
X105221839Y-124246000D01*
X105278042Y-124544695D01*
X105259000Y-124540839D01*
X104259000Y-124540839D01*
X103915474Y-124605478D01*
X103599967Y-124808501D01*
X103529983Y-124910926D01*
X103385309Y-124851000D01*
X103075570Y-124851000D01*
X103237696Y-124613721D01*
X103312161Y-124246000D01*
X103312161Y-116546000D01*
X103247522Y-116202474D01*
X103044499Y-115886967D01*
X102734721Y-115675304D01*
X102367000Y-115600839D01*
X99267000Y-115600839D01*
X98923474Y-115665478D01*
X98607967Y-115868501D01*
X98396304Y-116178279D01*
X98321839Y-116546000D01*
X98321839Y-120372344D01*
X98319684Y-120375569D01*
X98173000Y-121113000D01*
X98173000Y-134269344D01*
X98149000Y-134390000D01*
X98149000Y-137287000D01*
X98295684Y-138024431D01*
X98713405Y-138649595D01*
X99338569Y-139067316D01*
X100076000Y-139214000D01*
X100813431Y-139067316D01*
X101387506Y-138683732D01*
X101392701Y-138688927D01*
X101626090Y-138785600D01*
X102330250Y-138785600D01*
X102489000Y-138626850D01*
X102489000Y-137414000D01*
X102743000Y-137414000D01*
X102743000Y-138626850D01*
X102901750Y-138785600D01*
X103605910Y-138785600D01*
X103839299Y-138688927D01*
X104017927Y-138510298D01*
X104114600Y-138276909D01*
X104114600Y-137572750D01*
X103955850Y-137414000D01*
X102743000Y-137414000D01*
X102489000Y-137414000D01*
X102469000Y-137414000D01*
X102469000Y-137160000D01*
X102489000Y-137160000D01*
X102489000Y-137140000D01*
X102743000Y-137140000D01*
X102743000Y-137160000D01*
X103955850Y-137160000D01*
X104114600Y-137001250D01*
X104114600Y-136297091D01*
X104017927Y-136063702D01*
X103839299Y-135885073D01*
X103636329Y-135801000D01*
X103726309Y-135801000D01*
X103959698Y-135704327D01*
X104138327Y-135525699D01*
X104235000Y-135292310D01*
X104235000Y-134651750D01*
X104076250Y-134493000D01*
X103227000Y-134493000D01*
X103227000Y-134513000D01*
X102973000Y-134513000D01*
X102973000Y-134493000D01*
X102953000Y-134493000D01*
X102953000Y-134239000D01*
X102973000Y-134239000D01*
X102973000Y-133089750D01*
X103227000Y-133089750D01*
X103227000Y-134239000D01*
X104076250Y-134239000D01*
X104235000Y-134080250D01*
X104235000Y-133439690D01*
X104138327Y-133206301D01*
X103959698Y-133027673D01*
X103726309Y-132931000D01*
X103385750Y-132931000D01*
X103227000Y-133089750D01*
X102973000Y-133089750D01*
X102814250Y-132931000D01*
X102473691Y-132931000D01*
X102240302Y-133027673D01*
X102061673Y-133206301D01*
X102027000Y-133290009D01*
X102027000Y-131639984D01*
X102205691Y-131714000D01*
X102396250Y-131714000D01*
X102555000Y-131555250D01*
X102555000Y-130556000D01*
X102535000Y-130556000D01*
X102535000Y-130302000D01*
X102555000Y-130302000D01*
X102555000Y-129321250D01*
X102632000Y-129244250D01*
X102632000Y-128270000D01*
X102612000Y-128270000D01*
X102612000Y-128016000D01*
X102632000Y-128016000D01*
X102632000Y-126238000D01*
X102612000Y-126238000D01*
X102612000Y-125984000D01*
X102632000Y-125984000D01*
X102632000Y-125964000D01*
X102886000Y-125964000D01*
X102886000Y-125984000D01*
X102906000Y-125984000D01*
X102906000Y-126238000D01*
X102886000Y-126238000D01*
X102886000Y-128016000D01*
X102906000Y-128016000D01*
X102906000Y-128270000D01*
X102886000Y-128270000D01*
X102886000Y-129225750D01*
X102809000Y-129302750D01*
X102809000Y-130302000D01*
X102829000Y-130302000D01*
X102829000Y-130556000D01*
X102809000Y-130556000D01*
X102809000Y-131555250D01*
X102967750Y-131714000D01*
X103158309Y-131714000D01*
X103391698Y-131617327D01*
X103443497Y-131565528D01*
X103554501Y-131738033D01*
X103864279Y-131949696D01*
X104232000Y-132024161D01*
X104932000Y-132024161D01*
X105275526Y-131959522D01*
X105591033Y-131756499D01*
X105659701Y-131656000D01*
X106807000Y-131656000D01*
X107276553Y-131562600D01*
X107674620Y-131296620D01*
X107918019Y-131053221D01*
X107943478Y-131188526D01*
X108110212Y-131447638D01*
X107953304Y-131677279D01*
X107878839Y-132045000D01*
X107878839Y-132701921D01*
X107463380Y-133117380D01*
X107197400Y-133515447D01*
X107104000Y-133985000D01*
X107104000Y-135705619D01*
X107064855Y-135731775D01*
X106676701Y-136312687D01*
X106540400Y-136997920D01*
X106540400Y-137068080D01*
X106676701Y-137753313D01*
X107064855Y-138334225D01*
X107645767Y-138722379D01*
X108331000Y-138858680D01*
X109016233Y-138722379D01*
X109567085Y-138354311D01*
X109647701Y-138434927D01*
X109881090Y-138531600D01*
X110585250Y-138531600D01*
X110744000Y-138372850D01*
X110744000Y-137160000D01*
X110998000Y-137160000D01*
X110998000Y-138372850D01*
X111156750Y-138531600D01*
X111860910Y-138531600D01*
X112094299Y-138434927D01*
X112272927Y-138256298D01*
X112369600Y-138022909D01*
X112369600Y-137519027D01*
X120465032Y-137519027D01*
X120713179Y-138048490D01*
X121145053Y-138442688D01*
X121560974Y-138614958D01*
X121793000Y-138493817D01*
X121793000Y-137287000D01*
X120585531Y-137287000D01*
X120465032Y-137519027D01*
X112369600Y-137519027D01*
X112369600Y-137318750D01*
X112210850Y-137160000D01*
X110998000Y-137160000D01*
X110744000Y-137160000D01*
X110724000Y-137160000D01*
X110724000Y-136906000D01*
X110744000Y-136906000D01*
X110744000Y-135693150D01*
X110998000Y-135693150D01*
X110998000Y-136906000D01*
X112210850Y-136906000D01*
X112315877Y-136800973D01*
X120465032Y-136800973D01*
X120585531Y-137033000D01*
X121793000Y-137033000D01*
X121793000Y-135826183D01*
X121560974Y-135705042D01*
X121145053Y-135877312D01*
X120713179Y-136271510D01*
X120465032Y-136800973D01*
X112315877Y-136800973D01*
X112369600Y-136747250D01*
X112369600Y-136043091D01*
X112272927Y-135809702D01*
X112094299Y-135631073D01*
X111860910Y-135534400D01*
X111156750Y-135534400D01*
X110998000Y-135693150D01*
X110744000Y-135693150D01*
X110585250Y-135534400D01*
X109881090Y-135534400D01*
X109647701Y-135631073D01*
X109567085Y-135711689D01*
X109558000Y-135705619D01*
X109558000Y-134493240D01*
X110177490Y-133873750D01*
X118628000Y-133873750D01*
X118628000Y-134214309D01*
X118724673Y-134447698D01*
X118903301Y-134626327D01*
X119136690Y-134723000D01*
X119602250Y-134723000D01*
X119761000Y-134564250D01*
X119761000Y-133715000D01*
X120015000Y-133715000D01*
X120015000Y-134564250D01*
X120173750Y-134723000D01*
X120639310Y-134723000D01*
X120872699Y-134626327D01*
X121051327Y-134447698D01*
X121148000Y-134214309D01*
X121148000Y-133873750D01*
X120989250Y-133715000D01*
X120015000Y-133715000D01*
X119761000Y-133715000D01*
X118786750Y-133715000D01*
X118628000Y-133873750D01*
X110177490Y-133873750D01*
X110341620Y-133709620D01*
X110379740Y-133652569D01*
X110387787Y-133640526D01*
X110467526Y-133625522D01*
X110648995Y-133508750D01*
X121698000Y-133508750D01*
X121698000Y-134599310D01*
X121794673Y-134832699D01*
X121973302Y-135011327D01*
X122206691Y-135108000D01*
X122547250Y-135108000D01*
X122706000Y-134949250D01*
X122706000Y-133350000D01*
X121856750Y-133350000D01*
X121698000Y-133508750D01*
X110648995Y-133508750D01*
X110783033Y-133422499D01*
X110994696Y-133112721D01*
X111069161Y-132745000D01*
X111069161Y-132045000D01*
X111004522Y-131701474D01*
X110837788Y-131442362D01*
X110994696Y-131212721D01*
X111069161Y-130845000D01*
X111069161Y-130220187D01*
X111227302Y-130378327D01*
X111460691Y-130475000D01*
X112076250Y-130475000D01*
X112235000Y-130316250D01*
X112235000Y-129667000D01*
X111110750Y-129667000D01*
X110993463Y-129784287D01*
X110808599Y-129497000D01*
X111497318Y-129497000D01*
X111587000Y-129515161D01*
X112509000Y-129515161D01*
X112509000Y-129667000D01*
X112489000Y-129667000D01*
X112489000Y-130316250D01*
X112647750Y-130475000D01*
X113200000Y-130475000D01*
X113200000Y-131572000D01*
X113199788Y-131814995D01*
X113386194Y-132266131D01*
X113731053Y-132611593D01*
X114181864Y-132798786D01*
X114427000Y-132799000D01*
X114669995Y-132799212D01*
X115121131Y-132612806D01*
X115466593Y-132267947D01*
X115653786Y-131817136D01*
X115654212Y-131329005D01*
X115654000Y-131328492D01*
X115654000Y-127000000D01*
X115560600Y-126530447D01*
X115294620Y-126132380D01*
X114896553Y-125866400D01*
X114427000Y-125773000D01*
X114082161Y-125773000D01*
X114082161Y-125430000D01*
X114033326Y-125170462D01*
X114158911Y-125254376D01*
X114705000Y-125363000D01*
X115763000Y-125363000D01*
X115923065Y-125331161D01*
X116061854Y-125331161D01*
X116041839Y-125430000D01*
X116041839Y-126030000D01*
X116106478Y-126373526D01*
X116309501Y-126689033D01*
X116364065Y-126726315D01*
X116510750Y-126873000D01*
X116578745Y-126873000D01*
X116619279Y-126900696D01*
X116987000Y-126975161D01*
X117106337Y-126975161D01*
X117215911Y-127048376D01*
X117611180Y-127127000D01*
X116510750Y-127127000D01*
X116352000Y-127285750D01*
X116352000Y-127426310D01*
X116438442Y-127635000D01*
X116352000Y-127843690D01*
X116352000Y-127984250D01*
X116510750Y-128143000D01*
X117635000Y-128143000D01*
X117635000Y-127131738D01*
X117762000Y-127157000D01*
X117889000Y-127131738D01*
X117889000Y-128143000D01*
X117909000Y-128143000D01*
X117909000Y-128294839D01*
X116987000Y-128294839D01*
X116643474Y-128359478D01*
X116585163Y-128397000D01*
X116510750Y-128397000D01*
X116376441Y-128531309D01*
X116327967Y-128562501D01*
X116116304Y-128872279D01*
X116041839Y-129240000D01*
X116041839Y-129840000D01*
X116106478Y-130183526D01*
X116309501Y-130499033D01*
X116619279Y-130710696D01*
X116987000Y-130785161D01*
X117349921Y-130785161D01*
X118317839Y-131753079D01*
X118317839Y-132088000D01*
X118382478Y-132431526D01*
X118585501Y-132747033D01*
X118687926Y-132817017D01*
X118628000Y-132961691D01*
X118628000Y-133302250D01*
X118786750Y-133461000D01*
X119761000Y-133461000D01*
X119761000Y-133441000D01*
X120015000Y-133441000D01*
X120015000Y-133461000D01*
X120989250Y-133461000D01*
X121148000Y-133302250D01*
X121148000Y-132961691D01*
X121088894Y-132818997D01*
X121172033Y-132765499D01*
X121383696Y-132455721D01*
X121458161Y-132088000D01*
X121458161Y-131846690D01*
X121698000Y-131846690D01*
X121698000Y-132937250D01*
X121856750Y-133096000D01*
X122706000Y-133096000D01*
X122706000Y-131496750D01*
X122547250Y-131338000D01*
X122206691Y-131338000D01*
X121973302Y-131434673D01*
X121794673Y-131613301D01*
X121698000Y-131846690D01*
X121458161Y-131846690D01*
X121458161Y-131088000D01*
X121393522Y-130744474D01*
X121190499Y-130428967D01*
X120880721Y-130217304D01*
X120513000Y-130142839D01*
X120178079Y-130142839D01*
X119482161Y-129446921D01*
X119482161Y-129240000D01*
X119463310Y-129139814D01*
X119662690Y-129222400D01*
X121253250Y-129222400D01*
X121412000Y-129063650D01*
X121412000Y-127914400D01*
X119312750Y-127914400D01*
X119154000Y-128073150D01*
X119154000Y-128142998D01*
X119013252Y-128142998D01*
X119172000Y-127984250D01*
X119172000Y-127843690D01*
X119085558Y-127635000D01*
X119154000Y-127469766D01*
X119154000Y-127501650D01*
X119312750Y-127660400D01*
X121412000Y-127660400D01*
X121412000Y-126511150D01*
X121253250Y-126352400D01*
X119662690Y-126352400D01*
X119429301Y-126449073D01*
X119250673Y-126627702D01*
X119154000Y-126861091D01*
X119154000Y-126872998D01*
X119013252Y-126872998D01*
X119147559Y-126738691D01*
X119196033Y-126707499D01*
X119407696Y-126397721D01*
X119482161Y-126030000D01*
X119482161Y-125486922D01*
X120024042Y-124945041D01*
X120024044Y-124945038D01*
X120313321Y-124655761D01*
X123289000Y-124655761D01*
X123632526Y-124591122D01*
X123906000Y-124415146D01*
X123906000Y-126817635D01*
X123827327Y-126627702D01*
X123648699Y-126449073D01*
X123415310Y-126352400D01*
X121824750Y-126352400D01*
X121666000Y-126511150D01*
X121666000Y-127660400D01*
X121686000Y-127660400D01*
X121686000Y-127914400D01*
X121666000Y-127914400D01*
X121666000Y-129063650D01*
X121824750Y-129222400D01*
X123415310Y-129222400D01*
X123648699Y-129125727D01*
X123827327Y-128947098D01*
X123906000Y-128757165D01*
X123906000Y-131697009D01*
X123871327Y-131613301D01*
X123692698Y-131434673D01*
X123459309Y-131338000D01*
X123118750Y-131338000D01*
X122960000Y-131496750D01*
X122960000Y-133096000D01*
X122980000Y-133096000D01*
X122980000Y-133350000D01*
X122960000Y-133350000D01*
X122960000Y-134949250D01*
X123118750Y-135108000D01*
X123459309Y-135108000D01*
X123692698Y-135011327D01*
X123871327Y-134832699D01*
X123906000Y-134748991D01*
X123906000Y-134988810D01*
X123531327Y-135363483D01*
X123252874Y-135415878D01*
X122937367Y-135618901D01*
X122735506Y-135914333D01*
X122694947Y-135877312D01*
X122279026Y-135705042D01*
X122047000Y-135826183D01*
X122047000Y-137033000D01*
X122067000Y-137033000D01*
X122067000Y-137287000D01*
X122047000Y-137287000D01*
X122047000Y-138493817D01*
X122279026Y-138614958D01*
X122694947Y-138442688D01*
X122738765Y-138402693D01*
X122918901Y-138682633D01*
X123228679Y-138894296D01*
X123596400Y-138968761D01*
X123865572Y-138968761D01*
X124460000Y-139087000D01*
X125054428Y-138968761D01*
X125323600Y-138968761D01*
X125667126Y-138904122D01*
X125982633Y-138701099D01*
X126194296Y-138391321D01*
X126255346Y-138089844D01*
X127195595Y-137149595D01*
X127613316Y-136524431D01*
X127760000Y-135787000D01*
X127760000Y-134374612D01*
X127850553Y-134356600D01*
X128142822Y-134161312D01*
X128143000Y-134161238D01*
X128143000Y-142113000D01*
X97917000Y-142113000D01*
X97917000Y-115062000D01*
X128143000Y-115062000D01*
X128143000Y-132031100D01*
X128143000Y-132031100D01*
G37*
X128143000Y-132031100D02*
X127760000Y-131872064D01*
X127760000Y-118340000D01*
X127613316Y-117602569D01*
X127195595Y-116977405D01*
X126838595Y-116620405D01*
X126213431Y-116202684D01*
X125476000Y-116056000D01*
X118578000Y-116056000D01*
X118166567Y-116137839D01*
X116828000Y-116137839D01*
X116484474Y-116202478D01*
X116168967Y-116405501D01*
X116078662Y-116537666D01*
X116005499Y-116423967D01*
X115695721Y-116212304D01*
X115328000Y-116137839D01*
X113989433Y-116137839D01*
X113578000Y-116056000D01*
X113166567Y-116137839D01*
X111828000Y-116137839D01*
X111484474Y-116202478D01*
X111168967Y-116405501D01*
X110957304Y-116715279D01*
X110882839Y-117083000D01*
X110882839Y-117952971D01*
X110366810Y-118469000D01*
X110212161Y-118469000D01*
X110212161Y-116546000D01*
X110147522Y-116202474D01*
X109944499Y-115886967D01*
X109634721Y-115675304D01*
X109267000Y-115600839D01*
X106167000Y-115600839D01*
X105823474Y-115665478D01*
X105507967Y-115868501D01*
X105296304Y-116178279D01*
X105221839Y-116546000D01*
X105221839Y-124246000D01*
X105278042Y-124544695D01*
X105259000Y-124540839D01*
X104259000Y-124540839D01*
X103915474Y-124605478D01*
X103599967Y-124808501D01*
X103529983Y-124910926D01*
X103385309Y-124851000D01*
X103075570Y-124851000D01*
X103237696Y-124613721D01*
X103312161Y-124246000D01*
X103312161Y-116546000D01*
X103247522Y-116202474D01*
X103044499Y-115886967D01*
X102734721Y-115675304D01*
X102367000Y-115600839D01*
X99267000Y-115600839D01*
X98923474Y-115665478D01*
X98607967Y-115868501D01*
X98396304Y-116178279D01*
X98321839Y-116546000D01*
X98321839Y-120372344D01*
X98319684Y-120375569D01*
X98173000Y-121113000D01*
X98173000Y-134269344D01*
X98149000Y-134390000D01*
X98149000Y-137287000D01*
X98295684Y-138024431D01*
X98713405Y-138649595D01*
X99338569Y-139067316D01*
X100076000Y-139214000D01*
X100813431Y-139067316D01*
X101387506Y-138683732D01*
X101392701Y-138688927D01*
X101626090Y-138785600D01*
X102330250Y-138785600D01*
X102489000Y-138626850D01*
X102489000Y-137414000D01*
X102743000Y-137414000D01*
X102743000Y-138626850D01*
X102901750Y-138785600D01*
X103605910Y-138785600D01*
X103839299Y-138688927D01*
X104017927Y-138510298D01*
X104114600Y-138276909D01*
X104114600Y-137572750D01*
X103955850Y-137414000D01*
X102743000Y-137414000D01*
X102489000Y-137414000D01*
X102469000Y-137414000D01*
X102469000Y-137160000D01*
X102489000Y-137160000D01*
X102489000Y-137140000D01*
X102743000Y-137140000D01*
X102743000Y-137160000D01*
X103955850Y-137160000D01*
X104114600Y-137001250D01*
X104114600Y-136297091D01*
X104017927Y-136063702D01*
X103839299Y-135885073D01*
X103636329Y-135801000D01*
X103726309Y-135801000D01*
X103959698Y-135704327D01*
X104138327Y-135525699D01*
X104235000Y-135292310D01*
X104235000Y-134651750D01*
X104076250Y-134493000D01*
X103227000Y-134493000D01*
X103227000Y-134513000D01*
X102973000Y-134513000D01*
X102973000Y-134493000D01*
X102953000Y-134493000D01*
X102953000Y-134239000D01*
X102973000Y-134239000D01*
X102973000Y-133089750D01*
X103227000Y-133089750D01*
X103227000Y-134239000D01*
X104076250Y-134239000D01*
X104235000Y-134080250D01*
X104235000Y-133439690D01*
X104138327Y-133206301D01*
X103959698Y-133027673D01*
X103726309Y-132931000D01*
X103385750Y-132931000D01*
X103227000Y-133089750D01*
X102973000Y-133089750D01*
X102814250Y-132931000D01*
X102473691Y-132931000D01*
X102240302Y-133027673D01*
X102061673Y-133206301D01*
X102027000Y-133290009D01*
X102027000Y-131639984D01*
X102205691Y-131714000D01*
X102396250Y-131714000D01*
X102555000Y-131555250D01*
X102555000Y-130556000D01*
X102535000Y-130556000D01*
X102535000Y-130302000D01*
X102555000Y-130302000D01*
X102555000Y-129321250D01*
X102632000Y-129244250D01*
X102632000Y-128270000D01*
X102612000Y-128270000D01*
X102612000Y-128016000D01*
X102632000Y-128016000D01*
X102632000Y-126238000D01*
X102612000Y-126238000D01*
X102612000Y-125984000D01*
X102632000Y-125984000D01*
X102632000Y-125964000D01*
X102886000Y-125964000D01*
X102886000Y-125984000D01*
X102906000Y-125984000D01*
X102906000Y-126238000D01*
X102886000Y-126238000D01*
X102886000Y-128016000D01*
X102906000Y-128016000D01*
X102906000Y-128270000D01*
X102886000Y-128270000D01*
X102886000Y-129225750D01*
X102809000Y-129302750D01*
X102809000Y-130302000D01*
X102829000Y-130302000D01*
X102829000Y-130556000D01*
X102809000Y-130556000D01*
X102809000Y-131555250D01*
X102967750Y-131714000D01*
X103158309Y-131714000D01*
X103391698Y-131617327D01*
X103443497Y-131565528D01*
X103554501Y-131738033D01*
X103864279Y-131949696D01*
X104232000Y-132024161D01*
X104932000Y-132024161D01*
X105275526Y-131959522D01*
X105591033Y-131756499D01*
X105659701Y-131656000D01*
X106807000Y-131656000D01*
X107276553Y-131562600D01*
X107674620Y-131296620D01*
X107918019Y-131053221D01*
X107943478Y-131188526D01*
X108110212Y-131447638D01*
X107953304Y-131677279D01*
X107878839Y-132045000D01*
X107878839Y-132701921D01*
X107463380Y-133117380D01*
X107197400Y-133515447D01*
X107104000Y-133985000D01*
X107104000Y-135705619D01*
X107064855Y-135731775D01*
X106676701Y-136312687D01*
X106540400Y-136997920D01*
X106540400Y-137068080D01*
X106676701Y-137753313D01*
X107064855Y-138334225D01*
X107645767Y-138722379D01*
X108331000Y-138858680D01*
X109016233Y-138722379D01*
X109567085Y-138354311D01*
X109647701Y-138434927D01*
X109881090Y-138531600D01*
X110585250Y-138531600D01*
X110744000Y-138372850D01*
X110744000Y-137160000D01*
X110998000Y-137160000D01*
X110998000Y-138372850D01*
X111156750Y-138531600D01*
X111860910Y-138531600D01*
X112094299Y-138434927D01*
X112272927Y-138256298D01*
X112369600Y-138022909D01*
X112369600Y-137519027D01*
X120465032Y-137519027D01*
X120713179Y-138048490D01*
X121145053Y-138442688D01*
X121560974Y-138614958D01*
X121793000Y-138493817D01*
X121793000Y-137287000D01*
X120585531Y-137287000D01*
X120465032Y-137519027D01*
X112369600Y-137519027D01*
X112369600Y-137318750D01*
X112210850Y-137160000D01*
X110998000Y-137160000D01*
X110744000Y-137160000D01*
X110724000Y-137160000D01*
X110724000Y-136906000D01*
X110744000Y-136906000D01*
X110744000Y-135693150D01*
X110998000Y-135693150D01*
X110998000Y-136906000D01*
X112210850Y-136906000D01*
X112315877Y-136800973D01*
X120465032Y-136800973D01*
X120585531Y-137033000D01*
X121793000Y-137033000D01*
X121793000Y-135826183D01*
X121560974Y-135705042D01*
X121145053Y-135877312D01*
X120713179Y-136271510D01*
X120465032Y-136800973D01*
X112315877Y-136800973D01*
X112369600Y-136747250D01*
X112369600Y-136043091D01*
X112272927Y-135809702D01*
X112094299Y-135631073D01*
X111860910Y-135534400D01*
X111156750Y-135534400D01*
X110998000Y-135693150D01*
X110744000Y-135693150D01*
X110585250Y-135534400D01*
X109881090Y-135534400D01*
X109647701Y-135631073D01*
X109567085Y-135711689D01*
X109558000Y-135705619D01*
X109558000Y-134493240D01*
X110177490Y-133873750D01*
X118628000Y-133873750D01*
X118628000Y-134214309D01*
X118724673Y-134447698D01*
X118903301Y-134626327D01*
X119136690Y-134723000D01*
X119602250Y-134723000D01*
X119761000Y-134564250D01*
X119761000Y-133715000D01*
X120015000Y-133715000D01*
X120015000Y-134564250D01*
X120173750Y-134723000D01*
X120639310Y-134723000D01*
X120872699Y-134626327D01*
X121051327Y-134447698D01*
X121148000Y-134214309D01*
X121148000Y-133873750D01*
X120989250Y-133715000D01*
X120015000Y-133715000D01*
X119761000Y-133715000D01*
X118786750Y-133715000D01*
X118628000Y-133873750D01*
X110177490Y-133873750D01*
X110341620Y-133709620D01*
X110379740Y-133652569D01*
X110387787Y-133640526D01*
X110467526Y-133625522D01*
X110648995Y-133508750D01*
X121698000Y-133508750D01*
X121698000Y-134599310D01*
X121794673Y-134832699D01*
X121973302Y-135011327D01*
X122206691Y-135108000D01*
X122547250Y-135108000D01*
X122706000Y-134949250D01*
X122706000Y-133350000D01*
X121856750Y-133350000D01*
X121698000Y-133508750D01*
X110648995Y-133508750D01*
X110783033Y-133422499D01*
X110994696Y-133112721D01*
X111069161Y-132745000D01*
X111069161Y-132045000D01*
X111004522Y-131701474D01*
X110837788Y-131442362D01*
X110994696Y-131212721D01*
X111069161Y-130845000D01*
X111069161Y-130220187D01*
X111227302Y-130378327D01*
X111460691Y-130475000D01*
X112076250Y-130475000D01*
X112235000Y-130316250D01*
X112235000Y-129667000D01*
X111110750Y-129667000D01*
X110993463Y-129784287D01*
X110808599Y-129497000D01*
X111497318Y-129497000D01*
X111587000Y-129515161D01*
X112509000Y-129515161D01*
X112509000Y-129667000D01*
X112489000Y-129667000D01*
X112489000Y-130316250D01*
X112647750Y-130475000D01*
X113200000Y-130475000D01*
X113200000Y-131572000D01*
X113199788Y-131814995D01*
X113386194Y-132266131D01*
X113731053Y-132611593D01*
X114181864Y-132798786D01*
X114427000Y-132799000D01*
X114669995Y-132799212D01*
X115121131Y-132612806D01*
X115466593Y-132267947D01*
X115653786Y-131817136D01*
X115654212Y-131329005D01*
X115654000Y-131328492D01*
X115654000Y-127000000D01*
X115560600Y-126530447D01*
X115294620Y-126132380D01*
X114896553Y-125866400D01*
X114427000Y-125773000D01*
X114082161Y-125773000D01*
X114082161Y-125430000D01*
X114033326Y-125170462D01*
X114158911Y-125254376D01*
X114705000Y-125363000D01*
X115763000Y-125363000D01*
X115923065Y-125331161D01*
X116061854Y-125331161D01*
X116041839Y-125430000D01*
X116041839Y-126030000D01*
X116106478Y-126373526D01*
X116309501Y-126689033D01*
X116364065Y-126726315D01*
X116510750Y-126873000D01*
X116578745Y-126873000D01*
X116619279Y-126900696D01*
X116987000Y-126975161D01*
X117106337Y-126975161D01*
X117215911Y-127048376D01*
X117611180Y-127127000D01*
X116510750Y-127127000D01*
X116352000Y-127285750D01*
X116352000Y-127426310D01*
X116438442Y-127635000D01*
X116352000Y-127843690D01*
X116352000Y-127984250D01*
X116510750Y-128143000D01*
X117635000Y-128143000D01*
X117635000Y-127131738D01*
X117762000Y-127157000D01*
X117889000Y-127131738D01*
X117889000Y-128143000D01*
X117909000Y-128143000D01*
X117909000Y-128294839D01*
X116987000Y-128294839D01*
X116643474Y-128359478D01*
X116585163Y-128397000D01*
X116510750Y-128397000D01*
X116376441Y-128531309D01*
X116327967Y-128562501D01*
X116116304Y-128872279D01*
X116041839Y-129240000D01*
X116041839Y-129840000D01*
X116106478Y-130183526D01*
X116309501Y-130499033D01*
X116619279Y-130710696D01*
X116987000Y-130785161D01*
X117349921Y-130785161D01*
X118317839Y-131753079D01*
X118317839Y-132088000D01*
X118382478Y-132431526D01*
X118585501Y-132747033D01*
X118687926Y-132817017D01*
X118628000Y-132961691D01*
X118628000Y-133302250D01*
X118786750Y-133461000D01*
X119761000Y-133461000D01*
X119761000Y-133441000D01*
X120015000Y-133441000D01*
X120015000Y-133461000D01*
X120989250Y-133461000D01*
X121148000Y-133302250D01*
X121148000Y-132961691D01*
X121088894Y-132818997D01*
X121172033Y-132765499D01*
X121383696Y-132455721D01*
X121458161Y-132088000D01*
X121458161Y-131846690D01*
X121698000Y-131846690D01*
X121698000Y-132937250D01*
X121856750Y-133096000D01*
X122706000Y-133096000D01*
X122706000Y-131496750D01*
X122547250Y-131338000D01*
X122206691Y-131338000D01*
X121973302Y-131434673D01*
X121794673Y-131613301D01*
X121698000Y-131846690D01*
X121458161Y-131846690D01*
X121458161Y-131088000D01*
X121393522Y-130744474D01*
X121190499Y-130428967D01*
X120880721Y-130217304D01*
X120513000Y-130142839D01*
X120178079Y-130142839D01*
X119482161Y-129446921D01*
X119482161Y-129240000D01*
X119463310Y-129139814D01*
X119662690Y-129222400D01*
X121253250Y-129222400D01*
X121412000Y-129063650D01*
X121412000Y-127914400D01*
X119312750Y-127914400D01*
X119154000Y-128073150D01*
X119154000Y-128142998D01*
X119013252Y-128142998D01*
X119172000Y-127984250D01*
X119172000Y-127843690D01*
X119085558Y-127635000D01*
X119154000Y-127469766D01*
X119154000Y-127501650D01*
X119312750Y-127660400D01*
X121412000Y-127660400D01*
X121412000Y-126511150D01*
X121253250Y-126352400D01*
X119662690Y-126352400D01*
X119429301Y-126449073D01*
X119250673Y-126627702D01*
X119154000Y-126861091D01*
X119154000Y-126872998D01*
X119013252Y-126872998D01*
X119147559Y-126738691D01*
X119196033Y-126707499D01*
X119407696Y-126397721D01*
X119482161Y-126030000D01*
X119482161Y-125486922D01*
X120024042Y-124945041D01*
X120024044Y-124945038D01*
X120313321Y-124655761D01*
X123289000Y-124655761D01*
X123632526Y-124591122D01*
X123906000Y-124415146D01*
X123906000Y-126817635D01*
X123827327Y-126627702D01*
X123648699Y-126449073D01*
X123415310Y-126352400D01*
X121824750Y-126352400D01*
X121666000Y-126511150D01*
X121666000Y-127660400D01*
X121686000Y-127660400D01*
X121686000Y-127914400D01*
X121666000Y-127914400D01*
X121666000Y-129063650D01*
X121824750Y-129222400D01*
X123415310Y-129222400D01*
X123648699Y-129125727D01*
X123827327Y-128947098D01*
X123906000Y-128757165D01*
X123906000Y-131697009D01*
X123871327Y-131613301D01*
X123692698Y-131434673D01*
X123459309Y-131338000D01*
X123118750Y-131338000D01*
X122960000Y-131496750D01*
X122960000Y-133096000D01*
X122980000Y-133096000D01*
X122980000Y-133350000D01*
X122960000Y-133350000D01*
X122960000Y-134949250D01*
X123118750Y-135108000D01*
X123459309Y-135108000D01*
X123692698Y-135011327D01*
X123871327Y-134832699D01*
X123906000Y-134748991D01*
X123906000Y-134988810D01*
X123531327Y-135363483D01*
X123252874Y-135415878D01*
X122937367Y-135618901D01*
X122735506Y-135914333D01*
X122694947Y-135877312D01*
X122279026Y-135705042D01*
X122047000Y-135826183D01*
X122047000Y-137033000D01*
X122067000Y-137033000D01*
X122067000Y-137287000D01*
X122047000Y-137287000D01*
X122047000Y-138493817D01*
X122279026Y-138614958D01*
X122694947Y-138442688D01*
X122738765Y-138402693D01*
X122918901Y-138682633D01*
X123228679Y-138894296D01*
X123596400Y-138968761D01*
X123865572Y-138968761D01*
X124460000Y-139087000D01*
X125054428Y-138968761D01*
X125323600Y-138968761D01*
X125667126Y-138904122D01*
X125982633Y-138701099D01*
X126194296Y-138391321D01*
X126255346Y-138089844D01*
X127195595Y-137149595D01*
X127613316Y-136524431D01*
X127760000Y-135787000D01*
X127760000Y-134374612D01*
X127850553Y-134356600D01*
X128142822Y-134161312D01*
X128143000Y-134161238D01*
X128143000Y-142113000D01*
X97917000Y-142113000D01*
X97917000Y-115062000D01*
X128143000Y-115062000D01*
X128143000Y-132031100D01*
G36*
X128143000Y-159336100D02*
X127760000Y-159177064D01*
X127760000Y-145645000D01*
X127613316Y-144907569D01*
X127195595Y-144282405D01*
X126838595Y-143925405D01*
X126213431Y-143507684D01*
X125476000Y-143361000D01*
X118578000Y-143361000D01*
X118166567Y-143442839D01*
X116828000Y-143442839D01*
X116484474Y-143507478D01*
X116168967Y-143710501D01*
X116078662Y-143842666D01*
X116005499Y-143728967D01*
X115695721Y-143517304D01*
X115328000Y-143442839D01*
X113989433Y-143442839D01*
X113578000Y-143361000D01*
X113166567Y-143442839D01*
X111828000Y-143442839D01*
X111484474Y-143507478D01*
X111168967Y-143710501D01*
X110957304Y-144020279D01*
X110882839Y-144388000D01*
X110882839Y-145257971D01*
X110366810Y-145774000D01*
X110212161Y-145774000D01*
X110212161Y-143851000D01*
X110147522Y-143507474D01*
X109944499Y-143191967D01*
X109634721Y-142980304D01*
X109267000Y-142905839D01*
X106167000Y-142905839D01*
X105823474Y-142970478D01*
X105507967Y-143173501D01*
X105296304Y-143483279D01*
X105221839Y-143851000D01*
X105221839Y-151551000D01*
X105278042Y-151849695D01*
X105259000Y-151845839D01*
X104259000Y-151845839D01*
X103915474Y-151910478D01*
X103599967Y-152113501D01*
X103529983Y-152215926D01*
X103385309Y-152156000D01*
X103075570Y-152156000D01*
X103237696Y-151918721D01*
X103312161Y-151551000D01*
X103312161Y-143851000D01*
X103247522Y-143507474D01*
X103044499Y-143191967D01*
X102734721Y-142980304D01*
X102367000Y-142905839D01*
X99267000Y-142905839D01*
X98923474Y-142970478D01*
X98607967Y-143173501D01*
X98396304Y-143483279D01*
X98321839Y-143851000D01*
X98321839Y-147677344D01*
X98319684Y-147680569D01*
X98173000Y-148418000D01*
X98173000Y-161574344D01*
X98149000Y-161695000D01*
X98149000Y-164592000D01*
X98295684Y-165329431D01*
X98713405Y-165954595D01*
X99338569Y-166372316D01*
X100076000Y-166519000D01*
X100813431Y-166372316D01*
X101387506Y-165988732D01*
X101392701Y-165993927D01*
X101626090Y-166090600D01*
X102330250Y-166090600D01*
X102489000Y-165931850D01*
X102489000Y-164719000D01*
X102743000Y-164719000D01*
X102743000Y-165931850D01*
X102901750Y-166090600D01*
X103605910Y-166090600D01*
X103839299Y-165993927D01*
X104017927Y-165815298D01*
X104114600Y-165581909D01*
X104114600Y-164877750D01*
X103955850Y-164719000D01*
X102743000Y-164719000D01*
X102489000Y-164719000D01*
X102469000Y-164719000D01*
X102469000Y-164465000D01*
X102489000Y-164465000D01*
X102489000Y-164445000D01*
X102743000Y-164445000D01*
X102743000Y-164465000D01*
X103955850Y-164465000D01*
X104114600Y-164306250D01*
X104114600Y-163602091D01*
X104017927Y-163368702D01*
X103839299Y-163190073D01*
X103636329Y-163106000D01*
X103726309Y-163106000D01*
X103959698Y-163009327D01*
X104138327Y-162830699D01*
X104235000Y-162597310D01*
X104235000Y-161956750D01*
X104076250Y-161798000D01*
X103227000Y-161798000D01*
X103227000Y-161818000D01*
X102973000Y-161818000D01*
X102973000Y-161798000D01*
X102953000Y-161798000D01*
X102953000Y-161544000D01*
X102973000Y-161544000D01*
X102973000Y-160394750D01*
X103227000Y-160394750D01*
X103227000Y-161544000D01*
X104076250Y-161544000D01*
X104235000Y-161385250D01*
X104235000Y-160744690D01*
X104138327Y-160511301D01*
X103959698Y-160332673D01*
X103726309Y-160236000D01*
X103385750Y-160236000D01*
X103227000Y-160394750D01*
X102973000Y-160394750D01*
X102814250Y-160236000D01*
X102473691Y-160236000D01*
X102240302Y-160332673D01*
X102061673Y-160511301D01*
X102027000Y-160595009D01*
X102027000Y-158944984D01*
X102205691Y-159019000D01*
X102396250Y-159019000D01*
X102555000Y-158860250D01*
X102555000Y-157861000D01*
X102535000Y-157861000D01*
X102535000Y-157607000D01*
X102555000Y-157607000D01*
X102555000Y-156626250D01*
X102632000Y-156549250D01*
X102632000Y-155575000D01*
X102612000Y-155575000D01*
X102612000Y-155321000D01*
X102632000Y-155321000D01*
X102632000Y-153543000D01*
X102612000Y-153543000D01*
X102612000Y-153289000D01*
X102632000Y-153289000D01*
X102632000Y-153269000D01*
X102886000Y-153269000D01*
X102886000Y-153289000D01*
X102906000Y-153289000D01*
X102906000Y-153543000D01*
X102886000Y-153543000D01*
X102886000Y-155321000D01*
X102906000Y-155321000D01*
X102906000Y-155575000D01*
X102886000Y-155575000D01*
X102886000Y-156530750D01*
X102809000Y-156607750D01*
X102809000Y-157607000D01*
X102829000Y-157607000D01*
X102829000Y-157861000D01*
X102809000Y-157861000D01*
X102809000Y-158860250D01*
X102967750Y-159019000D01*
X103158309Y-159019000D01*
X103391698Y-158922327D01*
X103443497Y-158870528D01*
X103554501Y-159043033D01*
X103864279Y-159254696D01*
X104232000Y-159329161D01*
X104932000Y-159329161D01*
X105275526Y-159264522D01*
X105591033Y-159061499D01*
X105659701Y-158961000D01*
X106807000Y-158961000D01*
X107276553Y-158867600D01*
X107674620Y-158601620D01*
X107918019Y-158358221D01*
X107943478Y-158493526D01*
X108110212Y-158752638D01*
X107953304Y-158982279D01*
X107878839Y-159350000D01*
X107878839Y-160006921D01*
X107463380Y-160422380D01*
X107197400Y-160820447D01*
X107104000Y-161290000D01*
X107104000Y-163010619D01*
X107064855Y-163036775D01*
X106676701Y-163617687D01*
X106540400Y-164302920D01*
X106540400Y-164373080D01*
X106676701Y-165058313D01*
X107064855Y-165639225D01*
X107645767Y-166027379D01*
X108331000Y-166163680D01*
X109016233Y-166027379D01*
X109567085Y-165659311D01*
X109647701Y-165739927D01*
X109881090Y-165836600D01*
X110585250Y-165836600D01*
X110744000Y-165677850D01*
X110744000Y-164465000D01*
X110998000Y-164465000D01*
X110998000Y-165677850D01*
X111156750Y-165836600D01*
X111860910Y-165836600D01*
X112094299Y-165739927D01*
X112272927Y-165561298D01*
X112369600Y-165327909D01*
X112369600Y-164824027D01*
X120465032Y-164824027D01*
X120713179Y-165353490D01*
X121145053Y-165747688D01*
X121560974Y-165919958D01*
X121793000Y-165798817D01*
X121793000Y-164592000D01*
X120585531Y-164592000D01*
X120465032Y-164824027D01*
X112369600Y-164824027D01*
X112369600Y-164623750D01*
X112210850Y-164465000D01*
X110998000Y-164465000D01*
X110744000Y-164465000D01*
X110724000Y-164465000D01*
X110724000Y-164211000D01*
X110744000Y-164211000D01*
X110744000Y-162998150D01*
X110998000Y-162998150D01*
X110998000Y-164211000D01*
X112210850Y-164211000D01*
X112315877Y-164105973D01*
X120465032Y-164105973D01*
X120585531Y-164338000D01*
X121793000Y-164338000D01*
X121793000Y-163131183D01*
X121560974Y-163010042D01*
X121145053Y-163182312D01*
X120713179Y-163576510D01*
X120465032Y-164105973D01*
X112315877Y-164105973D01*
X112369600Y-164052250D01*
X112369600Y-163348091D01*
X112272927Y-163114702D01*
X112094299Y-162936073D01*
X111860910Y-162839400D01*
X111156750Y-162839400D01*
X110998000Y-162998150D01*
X110744000Y-162998150D01*
X110585250Y-162839400D01*
X109881090Y-162839400D01*
X109647701Y-162936073D01*
X109567085Y-163016689D01*
X109558000Y-163010619D01*
X109558000Y-161798240D01*
X110177490Y-161178750D01*
X118628000Y-161178750D01*
X118628000Y-161519309D01*
X118724673Y-161752698D01*
X118903301Y-161931327D01*
X119136690Y-162028000D01*
X119602250Y-162028000D01*
X119761000Y-161869250D01*
X119761000Y-161020000D01*
X120015000Y-161020000D01*
X120015000Y-161869250D01*
X120173750Y-162028000D01*
X120639310Y-162028000D01*
X120872699Y-161931327D01*
X121051327Y-161752698D01*
X121148000Y-161519309D01*
X121148000Y-161178750D01*
X120989250Y-161020000D01*
X120015000Y-161020000D01*
X119761000Y-161020000D01*
X118786750Y-161020000D01*
X118628000Y-161178750D01*
X110177490Y-161178750D01*
X110341620Y-161014620D01*
X110379740Y-160957569D01*
X110387787Y-160945526D01*
X110467526Y-160930522D01*
X110648995Y-160813750D01*
X121698000Y-160813750D01*
X121698000Y-161904310D01*
X121794673Y-162137699D01*
X121973302Y-162316327D01*
X122206691Y-162413000D01*
X122547250Y-162413000D01*
X122706000Y-162254250D01*
X122706000Y-160655000D01*
X121856750Y-160655000D01*
X121698000Y-160813750D01*
X110648995Y-160813750D01*
X110783033Y-160727499D01*
X110994696Y-160417721D01*
X111069161Y-160050000D01*
X111069161Y-159350000D01*
X111004522Y-159006474D01*
X110837788Y-158747362D01*
X110994696Y-158517721D01*
X111069161Y-158150000D01*
X111069161Y-157525187D01*
X111227302Y-157683327D01*
X111460691Y-157780000D01*
X112076250Y-157780000D01*
X112235000Y-157621250D01*
X112235000Y-156972000D01*
X111110750Y-156972000D01*
X110993463Y-157089287D01*
X110808599Y-156802000D01*
X111497318Y-156802000D01*
X111587000Y-156820161D01*
X112509000Y-156820161D01*
X112509000Y-156972000D01*
X112489000Y-156972000D01*
X112489000Y-157621250D01*
X112647750Y-157780000D01*
X113200000Y-157780000D01*
X113200000Y-158877000D01*
X113199788Y-159119995D01*
X113386194Y-159571131D01*
X113731053Y-159916593D01*
X114181864Y-160103786D01*
X114427000Y-160104000D01*
X114669995Y-160104212D01*
X115121131Y-159917806D01*
X115466593Y-159572947D01*
X115653786Y-159122136D01*
X115654212Y-158634005D01*
X115654000Y-158633492D01*
X115654000Y-154305000D01*
X115560600Y-153835447D01*
X115294620Y-153437380D01*
X114896553Y-153171400D01*
X114427000Y-153078000D01*
X114082161Y-153078000D01*
X114082161Y-152735000D01*
X114033326Y-152475462D01*
X114158911Y-152559376D01*
X114705000Y-152668000D01*
X115763000Y-152668000D01*
X115923065Y-152636161D01*
X116061854Y-152636161D01*
X116041839Y-152735000D01*
X116041839Y-153335000D01*
X116106478Y-153678526D01*
X116309501Y-153994033D01*
X116364065Y-154031315D01*
X116510750Y-154178000D01*
X116578745Y-154178000D01*
X116619279Y-154205696D01*
X116987000Y-154280161D01*
X117106337Y-154280161D01*
X117215911Y-154353376D01*
X117611180Y-154432000D01*
X116510750Y-154432000D01*
X116352000Y-154590750D01*
X116352000Y-154731310D01*
X116438442Y-154940000D01*
X116352000Y-155148690D01*
X116352000Y-155289250D01*
X116510750Y-155448000D01*
X117635000Y-155448000D01*
X117635000Y-154436738D01*
X117762000Y-154462000D01*
X117889000Y-154436738D01*
X117889000Y-155448000D01*
X117909000Y-155448000D01*
X117909000Y-155599839D01*
X116987000Y-155599839D01*
X116643474Y-155664478D01*
X116585163Y-155702000D01*
X116510750Y-155702000D01*
X116376441Y-155836309D01*
X116327967Y-155867501D01*
X116116304Y-156177279D01*
X116041839Y-156545000D01*
X116041839Y-157145000D01*
X116106478Y-157488526D01*
X116309501Y-157804033D01*
X116619279Y-158015696D01*
X116987000Y-158090161D01*
X117349921Y-158090161D01*
X118317839Y-159058079D01*
X118317839Y-159393000D01*
X118382478Y-159736526D01*
X118585501Y-160052033D01*
X118687926Y-160122017D01*
X118628000Y-160266691D01*
X118628000Y-160607250D01*
X118786750Y-160766000D01*
X119761000Y-160766000D01*
X119761000Y-160746000D01*
X120015000Y-160746000D01*
X120015000Y-160766000D01*
X120989250Y-160766000D01*
X121148000Y-160607250D01*
X121148000Y-160266691D01*
X121088894Y-160123997D01*
X121172033Y-160070499D01*
X121383696Y-159760721D01*
X121458161Y-159393000D01*
X121458161Y-159151690D01*
X121698000Y-159151690D01*
X121698000Y-160242250D01*
X121856750Y-160401000D01*
X122706000Y-160401000D01*
X122706000Y-158801750D01*
X122547250Y-158643000D01*
X122206691Y-158643000D01*
X121973302Y-158739673D01*
X121794673Y-158918301D01*
X121698000Y-159151690D01*
X121458161Y-159151690D01*
X121458161Y-158393000D01*
X121393522Y-158049474D01*
X121190499Y-157733967D01*
X120880721Y-157522304D01*
X120513000Y-157447839D01*
X120178079Y-157447839D01*
X119482161Y-156751921D01*
X119482161Y-156545000D01*
X119463310Y-156444814D01*
X119662690Y-156527400D01*
X121253250Y-156527400D01*
X121412000Y-156368650D01*
X121412000Y-155219400D01*
X119312750Y-155219400D01*
X119154000Y-155378150D01*
X119154000Y-155447998D01*
X119013252Y-155447998D01*
X119172000Y-155289250D01*
X119172000Y-155148690D01*
X119085558Y-154940000D01*
X119154000Y-154774766D01*
X119154000Y-154806650D01*
X119312750Y-154965400D01*
X121412000Y-154965400D01*
X121412000Y-153816150D01*
X121253250Y-153657400D01*
X119662690Y-153657400D01*
X119429301Y-153754073D01*
X119250673Y-153932702D01*
X119154000Y-154166091D01*
X119154000Y-154177998D01*
X119013252Y-154177998D01*
X119147559Y-154043691D01*
X119196033Y-154012499D01*
X119407696Y-153702721D01*
X119482161Y-153335000D01*
X119482161Y-152791922D01*
X120024042Y-152250041D01*
X120024044Y-152250038D01*
X120313321Y-151960761D01*
X123289000Y-151960761D01*
X123632526Y-151896122D01*
X123906000Y-151720146D01*
X123906000Y-154122635D01*
X123827327Y-153932702D01*
X123648699Y-153754073D01*
X123415310Y-153657400D01*
X121824750Y-153657400D01*
X121666000Y-153816150D01*
X121666000Y-154965400D01*
X121686000Y-154965400D01*
X121686000Y-155219400D01*
X121666000Y-155219400D01*
X121666000Y-156368650D01*
X121824750Y-156527400D01*
X123415310Y-156527400D01*
X123648699Y-156430727D01*
X123827327Y-156252098D01*
X123906000Y-156062165D01*
X123906000Y-159002009D01*
X123871327Y-158918301D01*
X123692698Y-158739673D01*
X123459309Y-158643000D01*
X123118750Y-158643000D01*
X122960000Y-158801750D01*
X122960000Y-160401000D01*
X122980000Y-160401000D01*
X122980000Y-160655000D01*
X122960000Y-160655000D01*
X122960000Y-162254250D01*
X123118750Y-162413000D01*
X123459309Y-162413000D01*
X123692698Y-162316327D01*
X123871327Y-162137699D01*
X123906000Y-162053991D01*
X123906000Y-162293810D01*
X123531327Y-162668483D01*
X123252874Y-162720878D01*
X122937367Y-162923901D01*
X122735506Y-163219333D01*
X122694947Y-163182312D01*
X122279026Y-163010042D01*
X122047000Y-163131183D01*
X122047000Y-164338000D01*
X122067000Y-164338000D01*
X122067000Y-164592000D01*
X122047000Y-164592000D01*
X122047000Y-165798817D01*
X122279026Y-165919958D01*
X122694947Y-165747688D01*
X122738765Y-165707693D01*
X122918901Y-165987633D01*
X123228679Y-166199296D01*
X123596400Y-166273761D01*
X123865572Y-166273761D01*
X124460000Y-166392000D01*
X125054428Y-166273761D01*
X125323600Y-166273761D01*
X125667126Y-166209122D01*
X125982633Y-166006099D01*
X126194296Y-165696321D01*
X126255346Y-165394844D01*
X127195595Y-164454595D01*
X127613316Y-163829431D01*
X127760000Y-163092000D01*
X127760000Y-161679612D01*
X127850553Y-161661600D01*
X128142822Y-161466312D01*
X128143000Y-161466238D01*
X128143000Y-169418000D01*
X97917000Y-169418000D01*
X97917000Y-142367000D01*
X128143000Y-142367000D01*
X128143000Y-159336100D01*
X128143000Y-159336100D01*
G37*
X128143000Y-159336100D02*
X127760000Y-159177064D01*
X127760000Y-145645000D01*
X127613316Y-144907569D01*
X127195595Y-144282405D01*
X126838595Y-143925405D01*
X126213431Y-143507684D01*
X125476000Y-143361000D01*
X118578000Y-143361000D01*
X118166567Y-143442839D01*
X116828000Y-143442839D01*
X116484474Y-143507478D01*
X116168967Y-143710501D01*
X116078662Y-143842666D01*
X116005499Y-143728967D01*
X115695721Y-143517304D01*
X115328000Y-143442839D01*
X113989433Y-143442839D01*
X113578000Y-143361000D01*
X113166567Y-143442839D01*
X111828000Y-143442839D01*
X111484474Y-143507478D01*
X111168967Y-143710501D01*
X110957304Y-144020279D01*
X110882839Y-144388000D01*
X110882839Y-145257971D01*
X110366810Y-145774000D01*
X110212161Y-145774000D01*
X110212161Y-143851000D01*
X110147522Y-143507474D01*
X109944499Y-143191967D01*
X109634721Y-142980304D01*
X109267000Y-142905839D01*
X106167000Y-142905839D01*
X105823474Y-142970478D01*
X105507967Y-143173501D01*
X105296304Y-143483279D01*
X105221839Y-143851000D01*
X105221839Y-151551000D01*
X105278042Y-151849695D01*
X105259000Y-151845839D01*
X104259000Y-151845839D01*
X103915474Y-151910478D01*
X103599967Y-152113501D01*
X103529983Y-152215926D01*
X103385309Y-152156000D01*
X103075570Y-152156000D01*
X103237696Y-151918721D01*
X103312161Y-151551000D01*
X103312161Y-143851000D01*
X103247522Y-143507474D01*
X103044499Y-143191967D01*
X102734721Y-142980304D01*
X102367000Y-142905839D01*
X99267000Y-142905839D01*
X98923474Y-142970478D01*
X98607967Y-143173501D01*
X98396304Y-143483279D01*
X98321839Y-143851000D01*
X98321839Y-147677344D01*
X98319684Y-147680569D01*
X98173000Y-148418000D01*
X98173000Y-161574344D01*
X98149000Y-161695000D01*
X98149000Y-164592000D01*
X98295684Y-165329431D01*
X98713405Y-165954595D01*
X99338569Y-166372316D01*
X100076000Y-166519000D01*
X100813431Y-166372316D01*
X101387506Y-165988732D01*
X101392701Y-165993927D01*
X101626090Y-166090600D01*
X102330250Y-166090600D01*
X102489000Y-165931850D01*
X102489000Y-164719000D01*
X102743000Y-164719000D01*
X102743000Y-165931850D01*
X102901750Y-166090600D01*
X103605910Y-166090600D01*
X103839299Y-165993927D01*
X104017927Y-165815298D01*
X104114600Y-165581909D01*
X104114600Y-164877750D01*
X103955850Y-164719000D01*
X102743000Y-164719000D01*
X102489000Y-164719000D01*
X102469000Y-164719000D01*
X102469000Y-164465000D01*
X102489000Y-164465000D01*
X102489000Y-164445000D01*
X102743000Y-164445000D01*
X102743000Y-164465000D01*
X103955850Y-164465000D01*
X104114600Y-164306250D01*
X104114600Y-163602091D01*
X104017927Y-163368702D01*
X103839299Y-163190073D01*
X103636329Y-163106000D01*
X103726309Y-163106000D01*
X103959698Y-163009327D01*
X104138327Y-162830699D01*
X104235000Y-162597310D01*
X104235000Y-161956750D01*
X104076250Y-161798000D01*
X103227000Y-161798000D01*
X103227000Y-161818000D01*
X102973000Y-161818000D01*
X102973000Y-161798000D01*
X102953000Y-161798000D01*
X102953000Y-161544000D01*
X102973000Y-161544000D01*
X102973000Y-160394750D01*
X103227000Y-160394750D01*
X103227000Y-161544000D01*
X104076250Y-161544000D01*
X104235000Y-161385250D01*
X104235000Y-160744690D01*
X104138327Y-160511301D01*
X103959698Y-160332673D01*
X103726309Y-160236000D01*
X103385750Y-160236000D01*
X103227000Y-160394750D01*
X102973000Y-160394750D01*
X102814250Y-160236000D01*
X102473691Y-160236000D01*
X102240302Y-160332673D01*
X102061673Y-160511301D01*
X102027000Y-160595009D01*
X102027000Y-158944984D01*
X102205691Y-159019000D01*
X102396250Y-159019000D01*
X102555000Y-158860250D01*
X102555000Y-157861000D01*
X102535000Y-157861000D01*
X102535000Y-157607000D01*
X102555000Y-157607000D01*
X102555000Y-156626250D01*
X102632000Y-156549250D01*
X102632000Y-155575000D01*
X102612000Y-155575000D01*
X102612000Y-155321000D01*
X102632000Y-155321000D01*
X102632000Y-153543000D01*
X102612000Y-153543000D01*
X102612000Y-153289000D01*
X102632000Y-153289000D01*
X102632000Y-153269000D01*
X102886000Y-153269000D01*
X102886000Y-153289000D01*
X102906000Y-153289000D01*
X102906000Y-153543000D01*
X102886000Y-153543000D01*
X102886000Y-155321000D01*
X102906000Y-155321000D01*
X102906000Y-155575000D01*
X102886000Y-155575000D01*
X102886000Y-156530750D01*
X102809000Y-156607750D01*
X102809000Y-157607000D01*
X102829000Y-157607000D01*
X102829000Y-157861000D01*
X102809000Y-157861000D01*
X102809000Y-158860250D01*
X102967750Y-159019000D01*
X103158309Y-159019000D01*
X103391698Y-158922327D01*
X103443497Y-158870528D01*
X103554501Y-159043033D01*
X103864279Y-159254696D01*
X104232000Y-159329161D01*
X104932000Y-159329161D01*
X105275526Y-159264522D01*
X105591033Y-159061499D01*
X105659701Y-158961000D01*
X106807000Y-158961000D01*
X107276553Y-158867600D01*
X107674620Y-158601620D01*
X107918019Y-158358221D01*
X107943478Y-158493526D01*
X108110212Y-158752638D01*
X107953304Y-158982279D01*
X107878839Y-159350000D01*
X107878839Y-160006921D01*
X107463380Y-160422380D01*
X107197400Y-160820447D01*
X107104000Y-161290000D01*
X107104000Y-163010619D01*
X107064855Y-163036775D01*
X106676701Y-163617687D01*
X106540400Y-164302920D01*
X106540400Y-164373080D01*
X106676701Y-165058313D01*
X107064855Y-165639225D01*
X107645767Y-166027379D01*
X108331000Y-166163680D01*
X109016233Y-166027379D01*
X109567085Y-165659311D01*
X109647701Y-165739927D01*
X109881090Y-165836600D01*
X110585250Y-165836600D01*
X110744000Y-165677850D01*
X110744000Y-164465000D01*
X110998000Y-164465000D01*
X110998000Y-165677850D01*
X111156750Y-165836600D01*
X111860910Y-165836600D01*
X112094299Y-165739927D01*
X112272927Y-165561298D01*
X112369600Y-165327909D01*
X112369600Y-164824027D01*
X120465032Y-164824027D01*
X120713179Y-165353490D01*
X121145053Y-165747688D01*
X121560974Y-165919958D01*
X121793000Y-165798817D01*
X121793000Y-164592000D01*
X120585531Y-164592000D01*
X120465032Y-164824027D01*
X112369600Y-164824027D01*
X112369600Y-164623750D01*
X112210850Y-164465000D01*
X110998000Y-164465000D01*
X110744000Y-164465000D01*
X110724000Y-164465000D01*
X110724000Y-164211000D01*
X110744000Y-164211000D01*
X110744000Y-162998150D01*
X110998000Y-162998150D01*
X110998000Y-164211000D01*
X112210850Y-164211000D01*
X112315877Y-164105973D01*
X120465032Y-164105973D01*
X120585531Y-164338000D01*
X121793000Y-164338000D01*
X121793000Y-163131183D01*
X121560974Y-163010042D01*
X121145053Y-163182312D01*
X120713179Y-163576510D01*
X120465032Y-164105973D01*
X112315877Y-164105973D01*
X112369600Y-164052250D01*
X112369600Y-163348091D01*
X112272927Y-163114702D01*
X112094299Y-162936073D01*
X111860910Y-162839400D01*
X111156750Y-162839400D01*
X110998000Y-162998150D01*
X110744000Y-162998150D01*
X110585250Y-162839400D01*
X109881090Y-162839400D01*
X109647701Y-162936073D01*
X109567085Y-163016689D01*
X109558000Y-163010619D01*
X109558000Y-161798240D01*
X110177490Y-161178750D01*
X118628000Y-161178750D01*
X118628000Y-161519309D01*
X118724673Y-161752698D01*
X118903301Y-161931327D01*
X119136690Y-162028000D01*
X119602250Y-162028000D01*
X119761000Y-161869250D01*
X119761000Y-161020000D01*
X120015000Y-161020000D01*
X120015000Y-161869250D01*
X120173750Y-162028000D01*
X120639310Y-162028000D01*
X120872699Y-161931327D01*
X121051327Y-161752698D01*
X121148000Y-161519309D01*
X121148000Y-161178750D01*
X120989250Y-161020000D01*
X120015000Y-161020000D01*
X119761000Y-161020000D01*
X118786750Y-161020000D01*
X118628000Y-161178750D01*
X110177490Y-161178750D01*
X110341620Y-161014620D01*
X110379740Y-160957569D01*
X110387787Y-160945526D01*
X110467526Y-160930522D01*
X110648995Y-160813750D01*
X121698000Y-160813750D01*
X121698000Y-161904310D01*
X121794673Y-162137699D01*
X121973302Y-162316327D01*
X122206691Y-162413000D01*
X122547250Y-162413000D01*
X122706000Y-162254250D01*
X122706000Y-160655000D01*
X121856750Y-160655000D01*
X121698000Y-160813750D01*
X110648995Y-160813750D01*
X110783033Y-160727499D01*
X110994696Y-160417721D01*
X111069161Y-160050000D01*
X111069161Y-159350000D01*
X111004522Y-159006474D01*
X110837788Y-158747362D01*
X110994696Y-158517721D01*
X111069161Y-158150000D01*
X111069161Y-157525187D01*
X111227302Y-157683327D01*
X111460691Y-157780000D01*
X112076250Y-157780000D01*
X112235000Y-157621250D01*
X112235000Y-156972000D01*
X111110750Y-156972000D01*
X110993463Y-157089287D01*
X110808599Y-156802000D01*
X111497318Y-156802000D01*
X111587000Y-156820161D01*
X112509000Y-156820161D01*
X112509000Y-156972000D01*
X112489000Y-156972000D01*
X112489000Y-157621250D01*
X112647750Y-157780000D01*
X113200000Y-157780000D01*
X113200000Y-158877000D01*
X113199788Y-159119995D01*
X113386194Y-159571131D01*
X113731053Y-159916593D01*
X114181864Y-160103786D01*
X114427000Y-160104000D01*
X114669995Y-160104212D01*
X115121131Y-159917806D01*
X115466593Y-159572947D01*
X115653786Y-159122136D01*
X115654212Y-158634005D01*
X115654000Y-158633492D01*
X115654000Y-154305000D01*
X115560600Y-153835447D01*
X115294620Y-153437380D01*
X114896553Y-153171400D01*
X114427000Y-153078000D01*
X114082161Y-153078000D01*
X114082161Y-152735000D01*
X114033326Y-152475462D01*
X114158911Y-152559376D01*
X114705000Y-152668000D01*
X115763000Y-152668000D01*
X115923065Y-152636161D01*
X116061854Y-152636161D01*
X116041839Y-152735000D01*
X116041839Y-153335000D01*
X116106478Y-153678526D01*
X116309501Y-153994033D01*
X116364065Y-154031315D01*
X116510750Y-154178000D01*
X116578745Y-154178000D01*
X116619279Y-154205696D01*
X116987000Y-154280161D01*
X117106337Y-154280161D01*
X117215911Y-154353376D01*
X117611180Y-154432000D01*
X116510750Y-154432000D01*
X116352000Y-154590750D01*
X116352000Y-154731310D01*
X116438442Y-154940000D01*
X116352000Y-155148690D01*
X116352000Y-155289250D01*
X116510750Y-155448000D01*
X117635000Y-155448000D01*
X117635000Y-154436738D01*
X117762000Y-154462000D01*
X117889000Y-154436738D01*
X117889000Y-155448000D01*
X117909000Y-155448000D01*
X117909000Y-155599839D01*
X116987000Y-155599839D01*
X116643474Y-155664478D01*
X116585163Y-155702000D01*
X116510750Y-155702000D01*
X116376441Y-155836309D01*
X116327967Y-155867501D01*
X116116304Y-156177279D01*
X116041839Y-156545000D01*
X116041839Y-157145000D01*
X116106478Y-157488526D01*
X116309501Y-157804033D01*
X116619279Y-158015696D01*
X116987000Y-158090161D01*
X117349921Y-158090161D01*
X118317839Y-159058079D01*
X118317839Y-159393000D01*
X118382478Y-159736526D01*
X118585501Y-160052033D01*
X118687926Y-160122017D01*
X118628000Y-160266691D01*
X118628000Y-160607250D01*
X118786750Y-160766000D01*
X119761000Y-160766000D01*
X119761000Y-160746000D01*
X120015000Y-160746000D01*
X120015000Y-160766000D01*
X120989250Y-160766000D01*
X121148000Y-160607250D01*
X121148000Y-160266691D01*
X121088894Y-160123997D01*
X121172033Y-160070499D01*
X121383696Y-159760721D01*
X121458161Y-159393000D01*
X121458161Y-159151690D01*
X121698000Y-159151690D01*
X121698000Y-160242250D01*
X121856750Y-160401000D01*
X122706000Y-160401000D01*
X122706000Y-158801750D01*
X122547250Y-158643000D01*
X122206691Y-158643000D01*
X121973302Y-158739673D01*
X121794673Y-158918301D01*
X121698000Y-159151690D01*
X121458161Y-159151690D01*
X121458161Y-158393000D01*
X121393522Y-158049474D01*
X121190499Y-157733967D01*
X120880721Y-157522304D01*
X120513000Y-157447839D01*
X120178079Y-157447839D01*
X119482161Y-156751921D01*
X119482161Y-156545000D01*
X119463310Y-156444814D01*
X119662690Y-156527400D01*
X121253250Y-156527400D01*
X121412000Y-156368650D01*
X121412000Y-155219400D01*
X119312750Y-155219400D01*
X119154000Y-155378150D01*
X119154000Y-155447998D01*
X119013252Y-155447998D01*
X119172000Y-155289250D01*
X119172000Y-155148690D01*
X119085558Y-154940000D01*
X119154000Y-154774766D01*
X119154000Y-154806650D01*
X119312750Y-154965400D01*
X121412000Y-154965400D01*
X121412000Y-153816150D01*
X121253250Y-153657400D01*
X119662690Y-153657400D01*
X119429301Y-153754073D01*
X119250673Y-153932702D01*
X119154000Y-154166091D01*
X119154000Y-154177998D01*
X119013252Y-154177998D01*
X119147559Y-154043691D01*
X119196033Y-154012499D01*
X119407696Y-153702721D01*
X119482161Y-153335000D01*
X119482161Y-152791922D01*
X120024042Y-152250041D01*
X120024044Y-152250038D01*
X120313321Y-151960761D01*
X123289000Y-151960761D01*
X123632526Y-151896122D01*
X123906000Y-151720146D01*
X123906000Y-154122635D01*
X123827327Y-153932702D01*
X123648699Y-153754073D01*
X123415310Y-153657400D01*
X121824750Y-153657400D01*
X121666000Y-153816150D01*
X121666000Y-154965400D01*
X121686000Y-154965400D01*
X121686000Y-155219400D01*
X121666000Y-155219400D01*
X121666000Y-156368650D01*
X121824750Y-156527400D01*
X123415310Y-156527400D01*
X123648699Y-156430727D01*
X123827327Y-156252098D01*
X123906000Y-156062165D01*
X123906000Y-159002009D01*
X123871327Y-158918301D01*
X123692698Y-158739673D01*
X123459309Y-158643000D01*
X123118750Y-158643000D01*
X122960000Y-158801750D01*
X122960000Y-160401000D01*
X122980000Y-160401000D01*
X122980000Y-160655000D01*
X122960000Y-160655000D01*
X122960000Y-162254250D01*
X123118750Y-162413000D01*
X123459309Y-162413000D01*
X123692698Y-162316327D01*
X123871327Y-162137699D01*
X123906000Y-162053991D01*
X123906000Y-162293810D01*
X123531327Y-162668483D01*
X123252874Y-162720878D01*
X122937367Y-162923901D01*
X122735506Y-163219333D01*
X122694947Y-163182312D01*
X122279026Y-163010042D01*
X122047000Y-163131183D01*
X122047000Y-164338000D01*
X122067000Y-164338000D01*
X122067000Y-164592000D01*
X122047000Y-164592000D01*
X122047000Y-165798817D01*
X122279026Y-165919958D01*
X122694947Y-165747688D01*
X122738765Y-165707693D01*
X122918901Y-165987633D01*
X123228679Y-166199296D01*
X123596400Y-166273761D01*
X123865572Y-166273761D01*
X124460000Y-166392000D01*
X125054428Y-166273761D01*
X125323600Y-166273761D01*
X125667126Y-166209122D01*
X125982633Y-166006099D01*
X126194296Y-165696321D01*
X126255346Y-165394844D01*
X127195595Y-164454595D01*
X127613316Y-163829431D01*
X127760000Y-163092000D01*
X127760000Y-161679612D01*
X127850553Y-161661600D01*
X128142822Y-161466312D01*
X128143000Y-161466238D01*
X128143000Y-169418000D01*
X97917000Y-169418000D01*
X97917000Y-142367000D01*
X128143000Y-142367000D01*
X128143000Y-159336100D01*
M02*
