G04 #@! TF.FileFunction,Copper,L2,Bot,Signal*
%FSLAX46Y46*%
G04 Gerber Fmt 4.6, Leading zero omitted, Abs format (unit mm)*
G04 Created by KiCad (PCBNEW 4.0.5) date 07/05/17 15:10:37*
%MOMM*%
%LPD*%
G01*
G04 APERTURE LIST*
%ADD10C,0.100000*%
%ADD11R,1.750000X1.750000*%
%ADD12C,1.750000*%
%ADD13R,1.700000X1.700000*%
%ADD14O,1.700000X1.700000*%
%ADD15R,2.235200X2.235200*%
%ADD16C,1.000000*%
%ADD17C,0.900000*%
%ADD18C,0.350000*%
%ADD19C,1.000000*%
%ADD20C,0.400000*%
%ADD21C,0.700000*%
%ADD22C,0.800000*%
%ADD23C,0.500000*%
%ADD24C,0.250000*%
%ADD25C,0.254000*%
G04 APERTURE END LIST*
D10*
D11*
X111028000Y-107956000D03*
D12*
X111028000Y-110456000D03*
X111028000Y-112956000D03*
D11*
X87028000Y-112956000D03*
D12*
X87028000Y-110456000D03*
X87028000Y-107956000D03*
X87028000Y-105456000D03*
D13*
X57023000Y-59817000D03*
D14*
X57023000Y-57277000D03*
D13*
X27813000Y-64770000D03*
D14*
X27813000Y-62230000D03*
D15*
X34417000Y-73787000D03*
X34417000Y-44831000D03*
D13*
X27813000Y-35814000D03*
D14*
X27813000Y-33274000D03*
D13*
X57023000Y-30861000D03*
D14*
X57023000Y-28321000D03*
D13*
X41148000Y-96266000D03*
D14*
X38608000Y-96266000D03*
D13*
X27940000Y-81788000D03*
D14*
X30480000Y-81788000D03*
D13*
X52832000Y-98552000D03*
D14*
X55372000Y-98552000D03*
D13*
X59690000Y-98552000D03*
D14*
X62230000Y-98552000D03*
D13*
X48768000Y-97536000D03*
D14*
X48768000Y-94996000D03*
D13*
X53340000Y-83312000D03*
D14*
X55880000Y-83312000D03*
X58420000Y-83312000D03*
X60960000Y-83312000D03*
D13*
X75692000Y-94488000D03*
D14*
X75692000Y-91948000D03*
D13*
X26416000Y-111633000D03*
D14*
X26416000Y-109093000D03*
X26416000Y-106553000D03*
D13*
X46418500Y-108331000D03*
D14*
X46418500Y-110871000D03*
X46418500Y-113411000D03*
D13*
X46355000Y-105727500D03*
D11*
X55024000Y-113464000D03*
D12*
X55024000Y-110964000D03*
X55024000Y-108464000D03*
X55024000Y-105964000D03*
D11*
X79024000Y-108464000D03*
D12*
X79024000Y-110964000D03*
X79024000Y-113464000D03*
D11*
X71072000Y-38366000D03*
D12*
X71072000Y-40866000D03*
X71072000Y-43366000D03*
X71072000Y-45866000D03*
X71072000Y-48366000D03*
D13*
X99072000Y-35866000D03*
D14*
X99072000Y-38406000D03*
X99072000Y-40946000D03*
D13*
X103072000Y-35866000D03*
D14*
X103072000Y-38406000D03*
X103072000Y-40946000D03*
D13*
X83572000Y-35866000D03*
D14*
X83572000Y-38406000D03*
X83572000Y-40946000D03*
D13*
X87572000Y-35866000D03*
D14*
X87572000Y-38406000D03*
X87572000Y-40946000D03*
D13*
X99072000Y-45866000D03*
D14*
X99072000Y-48406000D03*
X99072000Y-50946000D03*
D13*
X103072000Y-45866000D03*
D14*
X103072000Y-48406000D03*
X103072000Y-50946000D03*
D13*
X83572000Y-45866000D03*
D14*
X83572000Y-48406000D03*
X83572000Y-50946000D03*
D13*
X87572000Y-45866000D03*
D14*
X87572000Y-48406000D03*
X87572000Y-50946000D03*
D13*
X71572000Y-66866000D03*
D14*
X71572000Y-64326000D03*
X71572000Y-61786000D03*
D11*
X111572000Y-25366000D03*
D12*
X111572000Y-27866000D03*
D11*
X111572000Y-59866000D03*
D12*
X111572000Y-62366000D03*
D13*
X111506000Y-93853000D03*
D14*
X111506000Y-96393000D03*
D13*
X84175600Y-88544400D03*
D14*
X84175600Y-86004400D03*
D13*
X84201000Y-80645000D03*
D16*
X97028000Y-110456000D03*
X105528000Y-111456000D03*
D17*
X34510000Y-69596000D03*
X34510000Y-40640000D03*
X31750000Y-85598000D03*
X31115000Y-96520000D03*
X29845000Y-96520000D03*
X29845000Y-95250000D03*
X31115000Y-95250000D03*
X40894000Y-112903000D03*
D16*
X73524000Y-111964000D03*
X65024000Y-110964000D03*
X74772000Y-56866000D03*
X91972000Y-34566000D03*
X93272000Y-28366000D03*
X89372000Y-63066000D03*
D17*
X101854000Y-89916000D03*
X101854000Y-91440000D03*
X103632000Y-89916000D03*
X103632000Y-88519000D03*
X103632000Y-91440000D03*
X101854000Y-88519000D03*
X94488000Y-81534000D03*
X98973600Y-97622400D03*
X38354000Y-66421000D03*
X49276000Y-65278000D03*
X46990000Y-38735000D03*
X38735000Y-38735000D03*
X49149000Y-68834000D03*
X49149000Y-39878000D03*
X29464000Y-88392000D03*
X42164000Y-88900000D03*
X37338000Y-90170000D03*
X62738000Y-87376000D03*
X74930000Y-80518000D03*
X74676000Y-86614000D03*
X32131000Y-110236000D03*
X35433000Y-110363000D03*
X41783000Y-110363000D03*
X43561000Y-107442000D03*
X41148000Y-106934000D03*
D16*
X95572000Y-37166000D03*
X95072000Y-31266000D03*
X83572000Y-63866000D03*
X83572000Y-60366000D03*
X97572000Y-32366000D03*
D17*
X77072000Y-65866000D03*
D16*
X85572000Y-28866000D03*
X87072000Y-63366000D03*
X83572000Y-25866000D03*
X89072000Y-26366000D03*
X85072000Y-55866000D03*
X89072000Y-53366000D03*
X89072000Y-56366000D03*
X80072000Y-53566000D03*
D17*
X107696000Y-86614000D03*
X107696000Y-91567000D03*
X107442000Y-94107000D03*
X95148400Y-78790800D03*
X111556800Y-79857600D03*
X86360000Y-95250000D03*
X108000800Y-84480400D03*
X108204000Y-88900000D03*
D18*
X49530000Y-101600000D02*
X49530000Y-118110000D01*
X45720000Y-101600000D02*
X45720000Y-77470000D01*
X25400000Y-101600000D02*
X45720000Y-101600000D01*
X45720000Y-101600000D02*
X49530000Y-101600000D01*
X49530000Y-101600000D02*
X78740000Y-101600000D01*
X78740000Y-101600000D02*
X80010000Y-101600000D01*
X82550000Y-118110000D02*
X82550000Y-101600000D01*
X82550000Y-101600000D02*
X83820000Y-101600000D01*
X114300000Y-101600000D02*
X83820000Y-101600000D01*
X83820000Y-101600000D02*
X80010000Y-101600000D01*
X80010000Y-101600000D02*
X80010000Y-69850000D01*
X62230000Y-69850000D02*
X80010000Y-69850000D01*
X80010000Y-69850000D02*
X115570000Y-69850000D01*
X25400000Y-77470000D02*
X45720000Y-77470000D01*
X45720000Y-77470000D02*
X62230000Y-77470000D01*
X62230000Y-77470000D02*
X62230000Y-69850000D01*
X62230000Y-69850000D02*
X62230000Y-49530000D01*
X25400000Y-49530000D02*
X60960000Y-49530000D01*
X62230000Y-49530000D02*
X60960000Y-49530000D01*
X62230000Y-49530000D02*
X62230000Y-21590000D01*
D19*
X34510000Y-69596000D02*
X34544000Y-69596000D01*
X34510000Y-40640000D02*
X34544000Y-40640000D01*
D20*
X29845000Y-96520000D02*
X31115000Y-96520000D01*
X31115000Y-95250000D02*
X29845000Y-95250000D01*
D19*
X48133000Y-66421000D02*
X38354000Y-66421000D01*
X49276000Y-65278000D02*
X48133000Y-66421000D01*
X38735000Y-38735000D02*
X46990000Y-38735000D01*
X44196000Y-73787000D02*
X34417000Y-73787000D01*
X49149000Y-68834000D02*
X44196000Y-73787000D01*
X49149000Y-39878000D02*
X44196000Y-44831000D01*
X44196000Y-44831000D02*
X34417000Y-44831000D01*
D20*
X37338000Y-96266000D02*
X38608000Y-96266000D01*
X29464000Y-88392000D02*
X37338000Y-96266000D01*
X42164000Y-88900000D02*
X40894000Y-90170000D01*
X40894000Y-90170000D02*
X37338000Y-90170000D01*
D19*
X68072000Y-87376000D02*
X62738000Y-87376000D01*
X74930000Y-80518000D02*
X68072000Y-87376000D01*
X53340000Y-83312000D02*
X53340000Y-85852000D01*
X72136000Y-89154000D02*
X74676000Y-86614000D01*
X56642000Y-89154000D02*
X72136000Y-89154000D01*
X53340000Y-85852000D02*
X56642000Y-89154000D01*
D20*
X35306000Y-110236000D02*
X32131000Y-110236000D01*
X35433000Y-110363000D02*
X35306000Y-110236000D01*
X43815000Y-108331000D02*
X46418500Y-108331000D01*
X41783000Y-110363000D02*
X43815000Y-108331000D01*
X41656000Y-107442000D02*
X43561000Y-107442000D01*
X41148000Y-106934000D02*
X41656000Y-107442000D01*
D21*
X95572000Y-31766000D02*
X95572000Y-37166000D01*
X95072000Y-31266000D02*
X95572000Y-31766000D01*
D22*
X83572000Y-60366000D02*
X83572000Y-63866000D01*
D23*
X103072000Y-32866000D02*
X103072000Y-35866000D01*
X102572000Y-32366000D02*
X103072000Y-32866000D01*
X97572000Y-32366000D02*
X102572000Y-32366000D01*
D24*
X87072000Y-63566000D02*
X87072000Y-63366000D01*
D23*
X84772000Y-65866000D02*
X87072000Y-63566000D01*
X77072000Y-65866000D02*
X84772000Y-65866000D01*
D24*
X103072000Y-40946000D02*
X102992000Y-40946000D01*
D23*
X86992000Y-40366000D02*
X86072000Y-40366000D01*
X86072000Y-40366000D02*
X85572000Y-39866000D01*
X85572000Y-39866000D02*
X85572000Y-28866000D01*
X101572000Y-54866000D02*
X103572000Y-54866000D01*
X105072000Y-42946000D02*
X103072000Y-40946000D01*
X105072000Y-53366000D02*
X105072000Y-42946000D01*
X103572000Y-54866000D02*
X105072000Y-53366000D01*
X87572000Y-50946000D02*
X88992000Y-50946000D01*
X90572000Y-43946000D02*
X87572000Y-40946000D01*
X90572000Y-49366000D02*
X90572000Y-43946000D01*
X88992000Y-50946000D02*
X90572000Y-49366000D01*
D24*
X87572000Y-50946000D02*
X89152000Y-50946000D01*
D23*
X103072000Y-53366000D02*
X103072000Y-50946000D01*
X101572000Y-54866000D02*
X103072000Y-53366000D01*
X93072000Y-54866000D02*
X101572000Y-54866000D01*
X89152000Y-50946000D02*
X93072000Y-54866000D01*
X87072000Y-63366000D02*
X87072000Y-51446000D01*
D24*
X87072000Y-51446000D02*
X87572000Y-50946000D01*
D23*
X82112000Y-38406000D02*
X83572000Y-38406000D01*
X81072000Y-37366000D02*
X82112000Y-38406000D01*
X81072000Y-28366000D02*
X81072000Y-37366000D01*
X83572000Y-25866000D02*
X81072000Y-28366000D01*
X92612000Y-38406000D02*
X99072000Y-38406000D01*
X90572000Y-36366000D02*
X92612000Y-38406000D01*
X90572000Y-27866000D02*
X90572000Y-36366000D01*
X89072000Y-26366000D02*
X90572000Y-27866000D01*
X85572000Y-48866000D02*
X86072000Y-48366000D01*
X86072000Y-48366000D02*
X87532000Y-48366000D01*
D24*
X87532000Y-48366000D02*
X87572000Y-48406000D01*
D23*
X85112000Y-48406000D02*
X83572000Y-48406000D01*
X85572000Y-48866000D02*
X85112000Y-48406000D01*
X85572000Y-55366000D02*
X85572000Y-48866000D01*
X85072000Y-55866000D02*
X85572000Y-55366000D01*
X89072000Y-56366000D02*
X89072000Y-53366000D01*
D21*
X76572000Y-43366000D02*
X71072000Y-43366000D01*
X80072000Y-46866000D02*
X76572000Y-43366000D01*
X80072000Y-53566000D02*
X80072000Y-46866000D01*
D20*
X107188000Y-91059000D02*
X107696000Y-91567000D01*
X107188000Y-87122000D02*
X107188000Y-91059000D01*
X107696000Y-86614000D02*
X107188000Y-87122000D01*
X107696000Y-91567000D02*
X107442000Y-91821000D01*
X107442000Y-91821000D02*
X107442000Y-94107000D01*
D19*
X110490000Y-78790800D02*
X95148400Y-78790800D01*
X111556800Y-79857600D02*
X110490000Y-78790800D01*
X84201000Y-80645000D02*
X87376000Y-80645000D01*
X91059000Y-90551000D02*
X86360000Y-95250000D01*
X91059000Y-84328000D02*
X91059000Y-90551000D01*
X87376000Y-80645000D02*
X91059000Y-84328000D01*
D20*
X108762800Y-88341200D02*
X108204000Y-88900000D01*
X108762800Y-85242400D02*
X108762800Y-88341200D01*
X108000800Y-84480400D02*
X108762800Y-85242400D01*
X111506000Y-92202000D02*
X111506000Y-93853000D01*
X108204000Y-88900000D02*
X111506000Y-92202000D01*
D25*
G36*
X116130000Y-116892000D02*
X83360000Y-116892000D01*
X83360000Y-113241750D01*
X85518000Y-113241750D01*
X85518000Y-113957309D01*
X85614673Y-114190698D01*
X85793301Y-114369327D01*
X86026690Y-114466000D01*
X86742250Y-114466000D01*
X86901000Y-114307250D01*
X86901000Y-113083000D01*
X87155000Y-113083000D01*
X87155000Y-114307250D01*
X87313750Y-114466000D01*
X88029310Y-114466000D01*
X88262699Y-114369327D01*
X88441327Y-114190698D01*
X88538000Y-113957309D01*
X88538000Y-113255040D01*
X109517738Y-113255040D01*
X109747138Y-113810229D01*
X110171537Y-114235370D01*
X110726325Y-114465738D01*
X111327040Y-114466262D01*
X111882229Y-114236862D01*
X112307370Y-113812463D01*
X112537738Y-113257675D01*
X112538262Y-112656960D01*
X112308862Y-112101771D01*
X111884463Y-111676630D01*
X111861531Y-111667108D01*
X111910455Y-111518060D01*
X111028000Y-110635605D01*
X110145545Y-111518060D01*
X110194318Y-111666648D01*
X110173771Y-111675138D01*
X109748630Y-112099537D01*
X109518262Y-112654325D01*
X109517738Y-113255040D01*
X88538000Y-113255040D01*
X88538000Y-113241750D01*
X88379250Y-113083000D01*
X87155000Y-113083000D01*
X86901000Y-113083000D01*
X85676750Y-113083000D01*
X85518000Y-113241750D01*
X83360000Y-113241750D01*
X83360000Y-105755040D01*
X85517738Y-105755040D01*
X85747138Y-106310229D01*
X86142536Y-106706318D01*
X85748630Y-107099537D01*
X85518262Y-107654325D01*
X85517738Y-108255040D01*
X85747138Y-108810229D01*
X86142536Y-109206318D01*
X85748630Y-109599537D01*
X85518262Y-110154325D01*
X85517738Y-110755040D01*
X85747138Y-111310229D01*
X85924802Y-111488203D01*
X85793301Y-111542673D01*
X85614673Y-111721302D01*
X85518000Y-111954691D01*
X85518000Y-112670250D01*
X85676750Y-112829000D01*
X86901000Y-112829000D01*
X86901000Y-112809000D01*
X87155000Y-112809000D01*
X87155000Y-112829000D01*
X88379250Y-112829000D01*
X88538000Y-112670250D01*
X88538000Y-111954691D01*
X88441327Y-111721302D01*
X88262699Y-111542673D01*
X88131286Y-111488240D01*
X88307370Y-111312463D01*
X88537738Y-110757675D01*
X88538262Y-110156960D01*
X88308862Y-109601771D01*
X87913464Y-109205682D01*
X88307370Y-108812463D01*
X88537738Y-108257675D01*
X88538262Y-107656960D01*
X88308862Y-107101771D01*
X88288128Y-107081000D01*
X109505560Y-107081000D01*
X109505560Y-108831000D01*
X109549838Y-109066317D01*
X109688910Y-109282441D01*
X109890226Y-109419994D01*
X109851306Y-109458914D01*
X109965938Y-109573546D01*
X109712047Y-109656884D01*
X109506410Y-110221306D01*
X109532421Y-110821458D01*
X109712047Y-111255116D01*
X109965940Y-111338455D01*
X110848395Y-110456000D01*
X110834253Y-110441858D01*
X111013858Y-110262253D01*
X111028000Y-110276395D01*
X111042143Y-110262253D01*
X111221748Y-110441858D01*
X111207605Y-110456000D01*
X112090060Y-111338455D01*
X112343953Y-111255116D01*
X112549590Y-110690694D01*
X112523579Y-110090542D01*
X112343953Y-109656884D01*
X112090062Y-109573546D01*
X112204694Y-109458914D01*
X112163644Y-109417864D01*
X112354441Y-109295090D01*
X112499431Y-109082890D01*
X112550440Y-108831000D01*
X112550440Y-107081000D01*
X112506162Y-106845683D01*
X112367090Y-106629559D01*
X112154890Y-106484569D01*
X111903000Y-106433560D01*
X110153000Y-106433560D01*
X109917683Y-106477838D01*
X109701559Y-106616910D01*
X109556569Y-106829110D01*
X109505560Y-107081000D01*
X88288128Y-107081000D01*
X87913464Y-106705682D01*
X88307370Y-106312463D01*
X88537738Y-105757675D01*
X88538262Y-105156960D01*
X88308862Y-104601771D01*
X87884463Y-104176630D01*
X87329675Y-103946262D01*
X86728960Y-103945738D01*
X86173771Y-104175138D01*
X85748630Y-104599537D01*
X85518262Y-105154325D01*
X85517738Y-105755040D01*
X83360000Y-105755040D01*
X83360000Y-102410000D01*
X114300000Y-102410000D01*
X114609974Y-102348342D01*
X114872756Y-102172756D01*
X115048342Y-101909974D01*
X115110000Y-101600000D01*
X115048342Y-101290026D01*
X114872756Y-101027244D01*
X114609974Y-100851658D01*
X114300000Y-100790000D01*
X80820000Y-100790000D01*
X80820000Y-96749890D01*
X110064524Y-96749890D01*
X110234355Y-97159924D01*
X110624642Y-97588183D01*
X111149108Y-97834486D01*
X111379000Y-97713819D01*
X111379000Y-96520000D01*
X111633000Y-96520000D01*
X111633000Y-97713819D01*
X111862892Y-97834486D01*
X112387358Y-97588183D01*
X112777645Y-97159924D01*
X112947476Y-96749890D01*
X112826155Y-96520000D01*
X111633000Y-96520000D01*
X111379000Y-96520000D01*
X110185845Y-96520000D01*
X110064524Y-96749890D01*
X80820000Y-96749890D01*
X80820000Y-87694400D01*
X82678160Y-87694400D01*
X82678160Y-89394400D01*
X82722438Y-89629717D01*
X82861510Y-89845841D01*
X83073710Y-89990831D01*
X83325600Y-90041840D01*
X85025600Y-90041840D01*
X85260917Y-89997562D01*
X85477041Y-89858490D01*
X85622031Y-89646290D01*
X85673040Y-89394400D01*
X85673040Y-87694400D01*
X85628762Y-87459083D01*
X85489690Y-87242959D01*
X85277490Y-87097969D01*
X85169493Y-87076099D01*
X85447245Y-86771324D01*
X85617076Y-86361290D01*
X85495755Y-86131400D01*
X84302600Y-86131400D01*
X84302600Y-86151400D01*
X84048600Y-86151400D01*
X84048600Y-86131400D01*
X82855445Y-86131400D01*
X82734124Y-86361290D01*
X82903955Y-86771324D01*
X83180101Y-87074337D01*
X83090283Y-87091238D01*
X82874159Y-87230310D01*
X82729169Y-87442510D01*
X82678160Y-87694400D01*
X80820000Y-87694400D01*
X80820000Y-85647510D01*
X82734124Y-85647510D01*
X82855445Y-85877400D01*
X84048600Y-85877400D01*
X84048600Y-84683581D01*
X84302600Y-84683581D01*
X84302600Y-85877400D01*
X85495755Y-85877400D01*
X85617076Y-85647510D01*
X85447245Y-85237476D01*
X85056958Y-84809217D01*
X84532492Y-84562914D01*
X84302600Y-84683581D01*
X84048600Y-84683581D01*
X83818708Y-84562914D01*
X83294242Y-84809217D01*
X82903955Y-85237476D01*
X82734124Y-85647510D01*
X80820000Y-85647510D01*
X80820000Y-79795000D01*
X82703560Y-79795000D01*
X82703560Y-81495000D01*
X82747838Y-81730317D01*
X82886910Y-81946441D01*
X83099110Y-82091431D01*
X83351000Y-82142440D01*
X85051000Y-82142440D01*
X85286317Y-82098162D01*
X85502441Y-81959090D01*
X85624808Y-81780000D01*
X86905868Y-81780000D01*
X89924000Y-84798133D01*
X89924000Y-90080867D01*
X85557434Y-94447434D01*
X85311397Y-94815655D01*
X85225000Y-95250000D01*
X85311397Y-95684345D01*
X85557434Y-96052566D01*
X85925655Y-96298603D01*
X86360000Y-96385000D01*
X86794345Y-96298603D01*
X87162566Y-96052566D01*
X91861567Y-91353566D01*
X92107604Y-90985345D01*
X92194000Y-90551000D01*
X92194000Y-87122000D01*
X106353000Y-87122000D01*
X106353000Y-91059000D01*
X106416561Y-91378541D01*
X106564270Y-91599603D01*
X106597566Y-91649434D01*
X106610916Y-91662784D01*
X106610812Y-91781873D01*
X106613492Y-91788360D01*
X106607000Y-91821000D01*
X106607000Y-93407460D01*
X106522718Y-93491595D01*
X106357189Y-93890233D01*
X106356812Y-94321873D01*
X106521646Y-94720800D01*
X106826595Y-95026282D01*
X107225233Y-95191811D01*
X107656873Y-95192188D01*
X108055800Y-95027354D01*
X108361282Y-94722405D01*
X108526811Y-94323767D01*
X108527188Y-93892127D01*
X108362354Y-93493200D01*
X108277000Y-93407697D01*
X108277000Y-92500907D01*
X108309800Y-92487354D01*
X108615282Y-92182405D01*
X108780811Y-91783767D01*
X108781188Y-91352127D01*
X108616354Y-90953200D01*
X108311405Y-90647718D01*
X108023000Y-90527962D01*
X108023000Y-89984842D01*
X108108049Y-89984917D01*
X110506771Y-92383639D01*
X110420683Y-92399838D01*
X110204559Y-92538910D01*
X110059569Y-92751110D01*
X110008560Y-93003000D01*
X110008560Y-94703000D01*
X110052838Y-94938317D01*
X110191910Y-95154441D01*
X110404110Y-95299431D01*
X110512107Y-95321301D01*
X110234355Y-95626076D01*
X110064524Y-96036110D01*
X110185845Y-96266000D01*
X111379000Y-96266000D01*
X111379000Y-96246000D01*
X111633000Y-96246000D01*
X111633000Y-96266000D01*
X112826155Y-96266000D01*
X112947476Y-96036110D01*
X112777645Y-95626076D01*
X112501499Y-95323063D01*
X112591317Y-95306162D01*
X112807441Y-95167090D01*
X112952431Y-94954890D01*
X113003440Y-94703000D01*
X113003440Y-93003000D01*
X112959162Y-92767683D01*
X112820090Y-92551559D01*
X112607890Y-92406569D01*
X112356000Y-92355560D01*
X112341000Y-92355560D01*
X112341000Y-92202000D01*
X112277439Y-91882459D01*
X112096434Y-91611566D01*
X109378576Y-88893708D01*
X109534240Y-88660740D01*
X109597800Y-88341200D01*
X109597800Y-85242400D01*
X109575555Y-85130567D01*
X109534240Y-84922860D01*
X109353234Y-84651966D01*
X109085884Y-84384616D01*
X109085988Y-84265527D01*
X108921154Y-83866600D01*
X108616205Y-83561118D01*
X108217567Y-83395589D01*
X107785927Y-83395212D01*
X107387000Y-83560046D01*
X107081518Y-83864995D01*
X106915989Y-84263633D01*
X106915612Y-84695273D01*
X107080446Y-85094200D01*
X107385395Y-85399682D01*
X107696828Y-85529000D01*
X107481127Y-85528812D01*
X107082200Y-85693646D01*
X106776718Y-85998595D01*
X106611189Y-86397233D01*
X106611083Y-86518048D01*
X106597566Y-86531566D01*
X106416561Y-86802459D01*
X106353000Y-87122000D01*
X92194000Y-87122000D01*
X92194000Y-84328000D01*
X92167218Y-84193358D01*
X92107604Y-83893655D01*
X91861567Y-83525434D01*
X88178566Y-79842434D01*
X87988497Y-79715434D01*
X87810346Y-79596397D01*
X87376000Y-79510000D01*
X85622192Y-79510000D01*
X85515090Y-79343559D01*
X85302890Y-79198569D01*
X85051000Y-79147560D01*
X83351000Y-79147560D01*
X83115683Y-79191838D01*
X82899559Y-79330910D01*
X82754569Y-79543110D01*
X82703560Y-79795000D01*
X80820000Y-79795000D01*
X80820000Y-78790800D01*
X94013400Y-78790800D01*
X94099797Y-79225146D01*
X94345834Y-79593366D01*
X94714054Y-79839403D01*
X95148400Y-79925800D01*
X110019868Y-79925800D01*
X110754234Y-80660166D01*
X111122455Y-80906203D01*
X111556800Y-80992600D01*
X111991145Y-80906203D01*
X112359366Y-80660166D01*
X112605403Y-80291945D01*
X112691800Y-79857600D01*
X112605403Y-79423255D01*
X112359366Y-79055034D01*
X111292566Y-77988234D01*
X111116284Y-77870446D01*
X110924346Y-77742197D01*
X110490000Y-77655800D01*
X95148400Y-77655800D01*
X94714054Y-77742197D01*
X94345834Y-77988234D01*
X94099797Y-78356454D01*
X94013400Y-78790800D01*
X80820000Y-78790800D01*
X80820000Y-70660000D01*
X115570000Y-70660000D01*
X115879974Y-70598342D01*
X116130000Y-70431279D01*
X116130000Y-116892000D01*
X116130000Y-116892000D01*
G37*
X116130000Y-116892000D02*
X83360000Y-116892000D01*
X83360000Y-113241750D01*
X85518000Y-113241750D01*
X85518000Y-113957309D01*
X85614673Y-114190698D01*
X85793301Y-114369327D01*
X86026690Y-114466000D01*
X86742250Y-114466000D01*
X86901000Y-114307250D01*
X86901000Y-113083000D01*
X87155000Y-113083000D01*
X87155000Y-114307250D01*
X87313750Y-114466000D01*
X88029310Y-114466000D01*
X88262699Y-114369327D01*
X88441327Y-114190698D01*
X88538000Y-113957309D01*
X88538000Y-113255040D01*
X109517738Y-113255040D01*
X109747138Y-113810229D01*
X110171537Y-114235370D01*
X110726325Y-114465738D01*
X111327040Y-114466262D01*
X111882229Y-114236862D01*
X112307370Y-113812463D01*
X112537738Y-113257675D01*
X112538262Y-112656960D01*
X112308862Y-112101771D01*
X111884463Y-111676630D01*
X111861531Y-111667108D01*
X111910455Y-111518060D01*
X111028000Y-110635605D01*
X110145545Y-111518060D01*
X110194318Y-111666648D01*
X110173771Y-111675138D01*
X109748630Y-112099537D01*
X109518262Y-112654325D01*
X109517738Y-113255040D01*
X88538000Y-113255040D01*
X88538000Y-113241750D01*
X88379250Y-113083000D01*
X87155000Y-113083000D01*
X86901000Y-113083000D01*
X85676750Y-113083000D01*
X85518000Y-113241750D01*
X83360000Y-113241750D01*
X83360000Y-105755040D01*
X85517738Y-105755040D01*
X85747138Y-106310229D01*
X86142536Y-106706318D01*
X85748630Y-107099537D01*
X85518262Y-107654325D01*
X85517738Y-108255040D01*
X85747138Y-108810229D01*
X86142536Y-109206318D01*
X85748630Y-109599537D01*
X85518262Y-110154325D01*
X85517738Y-110755040D01*
X85747138Y-111310229D01*
X85924802Y-111488203D01*
X85793301Y-111542673D01*
X85614673Y-111721302D01*
X85518000Y-111954691D01*
X85518000Y-112670250D01*
X85676750Y-112829000D01*
X86901000Y-112829000D01*
X86901000Y-112809000D01*
X87155000Y-112809000D01*
X87155000Y-112829000D01*
X88379250Y-112829000D01*
X88538000Y-112670250D01*
X88538000Y-111954691D01*
X88441327Y-111721302D01*
X88262699Y-111542673D01*
X88131286Y-111488240D01*
X88307370Y-111312463D01*
X88537738Y-110757675D01*
X88538262Y-110156960D01*
X88308862Y-109601771D01*
X87913464Y-109205682D01*
X88307370Y-108812463D01*
X88537738Y-108257675D01*
X88538262Y-107656960D01*
X88308862Y-107101771D01*
X88288128Y-107081000D01*
X109505560Y-107081000D01*
X109505560Y-108831000D01*
X109549838Y-109066317D01*
X109688910Y-109282441D01*
X109890226Y-109419994D01*
X109851306Y-109458914D01*
X109965938Y-109573546D01*
X109712047Y-109656884D01*
X109506410Y-110221306D01*
X109532421Y-110821458D01*
X109712047Y-111255116D01*
X109965940Y-111338455D01*
X110848395Y-110456000D01*
X110834253Y-110441858D01*
X111013858Y-110262253D01*
X111028000Y-110276395D01*
X111042143Y-110262253D01*
X111221748Y-110441858D01*
X111207605Y-110456000D01*
X112090060Y-111338455D01*
X112343953Y-111255116D01*
X112549590Y-110690694D01*
X112523579Y-110090542D01*
X112343953Y-109656884D01*
X112090062Y-109573546D01*
X112204694Y-109458914D01*
X112163644Y-109417864D01*
X112354441Y-109295090D01*
X112499431Y-109082890D01*
X112550440Y-108831000D01*
X112550440Y-107081000D01*
X112506162Y-106845683D01*
X112367090Y-106629559D01*
X112154890Y-106484569D01*
X111903000Y-106433560D01*
X110153000Y-106433560D01*
X109917683Y-106477838D01*
X109701559Y-106616910D01*
X109556569Y-106829110D01*
X109505560Y-107081000D01*
X88288128Y-107081000D01*
X87913464Y-106705682D01*
X88307370Y-106312463D01*
X88537738Y-105757675D01*
X88538262Y-105156960D01*
X88308862Y-104601771D01*
X87884463Y-104176630D01*
X87329675Y-103946262D01*
X86728960Y-103945738D01*
X86173771Y-104175138D01*
X85748630Y-104599537D01*
X85518262Y-105154325D01*
X85517738Y-105755040D01*
X83360000Y-105755040D01*
X83360000Y-102410000D01*
X114300000Y-102410000D01*
X114609974Y-102348342D01*
X114872756Y-102172756D01*
X115048342Y-101909974D01*
X115110000Y-101600000D01*
X115048342Y-101290026D01*
X114872756Y-101027244D01*
X114609974Y-100851658D01*
X114300000Y-100790000D01*
X80820000Y-100790000D01*
X80820000Y-96749890D01*
X110064524Y-96749890D01*
X110234355Y-97159924D01*
X110624642Y-97588183D01*
X111149108Y-97834486D01*
X111379000Y-97713819D01*
X111379000Y-96520000D01*
X111633000Y-96520000D01*
X111633000Y-97713819D01*
X111862892Y-97834486D01*
X112387358Y-97588183D01*
X112777645Y-97159924D01*
X112947476Y-96749890D01*
X112826155Y-96520000D01*
X111633000Y-96520000D01*
X111379000Y-96520000D01*
X110185845Y-96520000D01*
X110064524Y-96749890D01*
X80820000Y-96749890D01*
X80820000Y-87694400D01*
X82678160Y-87694400D01*
X82678160Y-89394400D01*
X82722438Y-89629717D01*
X82861510Y-89845841D01*
X83073710Y-89990831D01*
X83325600Y-90041840D01*
X85025600Y-90041840D01*
X85260917Y-89997562D01*
X85477041Y-89858490D01*
X85622031Y-89646290D01*
X85673040Y-89394400D01*
X85673040Y-87694400D01*
X85628762Y-87459083D01*
X85489690Y-87242959D01*
X85277490Y-87097969D01*
X85169493Y-87076099D01*
X85447245Y-86771324D01*
X85617076Y-86361290D01*
X85495755Y-86131400D01*
X84302600Y-86131400D01*
X84302600Y-86151400D01*
X84048600Y-86151400D01*
X84048600Y-86131400D01*
X82855445Y-86131400D01*
X82734124Y-86361290D01*
X82903955Y-86771324D01*
X83180101Y-87074337D01*
X83090283Y-87091238D01*
X82874159Y-87230310D01*
X82729169Y-87442510D01*
X82678160Y-87694400D01*
X80820000Y-87694400D01*
X80820000Y-85647510D01*
X82734124Y-85647510D01*
X82855445Y-85877400D01*
X84048600Y-85877400D01*
X84048600Y-84683581D01*
X84302600Y-84683581D01*
X84302600Y-85877400D01*
X85495755Y-85877400D01*
X85617076Y-85647510D01*
X85447245Y-85237476D01*
X85056958Y-84809217D01*
X84532492Y-84562914D01*
X84302600Y-84683581D01*
X84048600Y-84683581D01*
X83818708Y-84562914D01*
X83294242Y-84809217D01*
X82903955Y-85237476D01*
X82734124Y-85647510D01*
X80820000Y-85647510D01*
X80820000Y-79795000D01*
X82703560Y-79795000D01*
X82703560Y-81495000D01*
X82747838Y-81730317D01*
X82886910Y-81946441D01*
X83099110Y-82091431D01*
X83351000Y-82142440D01*
X85051000Y-82142440D01*
X85286317Y-82098162D01*
X85502441Y-81959090D01*
X85624808Y-81780000D01*
X86905868Y-81780000D01*
X89924000Y-84798133D01*
X89924000Y-90080867D01*
X85557434Y-94447434D01*
X85311397Y-94815655D01*
X85225000Y-95250000D01*
X85311397Y-95684345D01*
X85557434Y-96052566D01*
X85925655Y-96298603D01*
X86360000Y-96385000D01*
X86794345Y-96298603D01*
X87162566Y-96052566D01*
X91861567Y-91353566D01*
X92107604Y-90985345D01*
X92194000Y-90551000D01*
X92194000Y-87122000D01*
X106353000Y-87122000D01*
X106353000Y-91059000D01*
X106416561Y-91378541D01*
X106564270Y-91599603D01*
X106597566Y-91649434D01*
X106610916Y-91662784D01*
X106610812Y-91781873D01*
X106613492Y-91788360D01*
X106607000Y-91821000D01*
X106607000Y-93407460D01*
X106522718Y-93491595D01*
X106357189Y-93890233D01*
X106356812Y-94321873D01*
X106521646Y-94720800D01*
X106826595Y-95026282D01*
X107225233Y-95191811D01*
X107656873Y-95192188D01*
X108055800Y-95027354D01*
X108361282Y-94722405D01*
X108526811Y-94323767D01*
X108527188Y-93892127D01*
X108362354Y-93493200D01*
X108277000Y-93407697D01*
X108277000Y-92500907D01*
X108309800Y-92487354D01*
X108615282Y-92182405D01*
X108780811Y-91783767D01*
X108781188Y-91352127D01*
X108616354Y-90953200D01*
X108311405Y-90647718D01*
X108023000Y-90527962D01*
X108023000Y-89984842D01*
X108108049Y-89984917D01*
X110506771Y-92383639D01*
X110420683Y-92399838D01*
X110204559Y-92538910D01*
X110059569Y-92751110D01*
X110008560Y-93003000D01*
X110008560Y-94703000D01*
X110052838Y-94938317D01*
X110191910Y-95154441D01*
X110404110Y-95299431D01*
X110512107Y-95321301D01*
X110234355Y-95626076D01*
X110064524Y-96036110D01*
X110185845Y-96266000D01*
X111379000Y-96266000D01*
X111379000Y-96246000D01*
X111633000Y-96246000D01*
X111633000Y-96266000D01*
X112826155Y-96266000D01*
X112947476Y-96036110D01*
X112777645Y-95626076D01*
X112501499Y-95323063D01*
X112591317Y-95306162D01*
X112807441Y-95167090D01*
X112952431Y-94954890D01*
X113003440Y-94703000D01*
X113003440Y-93003000D01*
X112959162Y-92767683D01*
X112820090Y-92551559D01*
X112607890Y-92406569D01*
X112356000Y-92355560D01*
X112341000Y-92355560D01*
X112341000Y-92202000D01*
X112277439Y-91882459D01*
X112096434Y-91611566D01*
X109378576Y-88893708D01*
X109534240Y-88660740D01*
X109597800Y-88341200D01*
X109597800Y-85242400D01*
X109575555Y-85130567D01*
X109534240Y-84922860D01*
X109353234Y-84651966D01*
X109085884Y-84384616D01*
X109085988Y-84265527D01*
X108921154Y-83866600D01*
X108616205Y-83561118D01*
X108217567Y-83395589D01*
X107785927Y-83395212D01*
X107387000Y-83560046D01*
X107081518Y-83864995D01*
X106915989Y-84263633D01*
X106915612Y-84695273D01*
X107080446Y-85094200D01*
X107385395Y-85399682D01*
X107696828Y-85529000D01*
X107481127Y-85528812D01*
X107082200Y-85693646D01*
X106776718Y-85998595D01*
X106611189Y-86397233D01*
X106611083Y-86518048D01*
X106597566Y-86531566D01*
X106416561Y-86802459D01*
X106353000Y-87122000D01*
X92194000Y-87122000D01*
X92194000Y-84328000D01*
X92167218Y-84193358D01*
X92107604Y-83893655D01*
X91861567Y-83525434D01*
X88178566Y-79842434D01*
X87988497Y-79715434D01*
X87810346Y-79596397D01*
X87376000Y-79510000D01*
X85622192Y-79510000D01*
X85515090Y-79343559D01*
X85302890Y-79198569D01*
X85051000Y-79147560D01*
X83351000Y-79147560D01*
X83115683Y-79191838D01*
X82899559Y-79330910D01*
X82754569Y-79543110D01*
X82703560Y-79795000D01*
X80820000Y-79795000D01*
X80820000Y-78790800D01*
X94013400Y-78790800D01*
X94099797Y-79225146D01*
X94345834Y-79593366D01*
X94714054Y-79839403D01*
X95148400Y-79925800D01*
X110019868Y-79925800D01*
X110754234Y-80660166D01*
X111122455Y-80906203D01*
X111556800Y-80992600D01*
X111991145Y-80906203D01*
X112359366Y-80660166D01*
X112605403Y-80291945D01*
X112691800Y-79857600D01*
X112605403Y-79423255D01*
X112359366Y-79055034D01*
X111292566Y-77988234D01*
X111116284Y-77870446D01*
X110924346Y-77742197D01*
X110490000Y-77655800D01*
X95148400Y-77655800D01*
X94714054Y-77742197D01*
X94345834Y-77988234D01*
X94099797Y-78356454D01*
X94013400Y-78790800D01*
X80820000Y-78790800D01*
X80820000Y-70660000D01*
X115570000Y-70660000D01*
X115879974Y-70598342D01*
X116130000Y-70431279D01*
X116130000Y-116892000D01*
G36*
X81740000Y-116892000D02*
X50340000Y-116892000D01*
X50340000Y-113749750D01*
X53514000Y-113749750D01*
X53514000Y-114465309D01*
X53610673Y-114698698D01*
X53789301Y-114877327D01*
X54022690Y-114974000D01*
X54738250Y-114974000D01*
X54897000Y-114815250D01*
X54897000Y-113591000D01*
X55151000Y-113591000D01*
X55151000Y-114815250D01*
X55309750Y-114974000D01*
X56025310Y-114974000D01*
X56258699Y-114877327D01*
X56437327Y-114698698D01*
X56534000Y-114465309D01*
X56534000Y-113763040D01*
X77513738Y-113763040D01*
X77743138Y-114318229D01*
X78167537Y-114743370D01*
X78722325Y-114973738D01*
X79323040Y-114974262D01*
X79878229Y-114744862D01*
X80303370Y-114320463D01*
X80533738Y-113765675D01*
X80534262Y-113164960D01*
X80304862Y-112609771D01*
X79880463Y-112184630D01*
X79857531Y-112175108D01*
X79906455Y-112026060D01*
X79024000Y-111143605D01*
X78141545Y-112026060D01*
X78190318Y-112174648D01*
X78169771Y-112183138D01*
X77744630Y-112607537D01*
X77514262Y-113162325D01*
X77513738Y-113763040D01*
X56534000Y-113763040D01*
X56534000Y-113749750D01*
X56375250Y-113591000D01*
X55151000Y-113591000D01*
X54897000Y-113591000D01*
X53672750Y-113591000D01*
X53514000Y-113749750D01*
X50340000Y-113749750D01*
X50340000Y-106263040D01*
X53513738Y-106263040D01*
X53743138Y-106818229D01*
X54138536Y-107214318D01*
X53744630Y-107607537D01*
X53514262Y-108162325D01*
X53513738Y-108763040D01*
X53743138Y-109318229D01*
X54138536Y-109714318D01*
X53744630Y-110107537D01*
X53514262Y-110662325D01*
X53513738Y-111263040D01*
X53743138Y-111818229D01*
X53920802Y-111996203D01*
X53789301Y-112050673D01*
X53610673Y-112229302D01*
X53514000Y-112462691D01*
X53514000Y-113178250D01*
X53672750Y-113337000D01*
X54897000Y-113337000D01*
X54897000Y-113317000D01*
X55151000Y-113317000D01*
X55151000Y-113337000D01*
X56375250Y-113337000D01*
X56534000Y-113178250D01*
X56534000Y-112462691D01*
X56437327Y-112229302D01*
X56258699Y-112050673D01*
X56127286Y-111996240D01*
X56303370Y-111820463D01*
X56533738Y-111265675D01*
X56534262Y-110664960D01*
X56304862Y-110109771D01*
X55909464Y-109713682D01*
X56303370Y-109320463D01*
X56533738Y-108765675D01*
X56534262Y-108164960D01*
X56304862Y-107609771D01*
X56284128Y-107589000D01*
X77501560Y-107589000D01*
X77501560Y-109339000D01*
X77545838Y-109574317D01*
X77684910Y-109790441D01*
X77886226Y-109927994D01*
X77847306Y-109966914D01*
X77961938Y-110081546D01*
X77708047Y-110164884D01*
X77502410Y-110729306D01*
X77528421Y-111329458D01*
X77708047Y-111763116D01*
X77961940Y-111846455D01*
X78844395Y-110964000D01*
X78830253Y-110949858D01*
X79009858Y-110770253D01*
X79024000Y-110784395D01*
X79038143Y-110770253D01*
X79217748Y-110949858D01*
X79203605Y-110964000D01*
X80086060Y-111846455D01*
X80339953Y-111763116D01*
X80545590Y-111198694D01*
X80519579Y-110598542D01*
X80339953Y-110164884D01*
X80086062Y-110081546D01*
X80200694Y-109966914D01*
X80159644Y-109925864D01*
X80350441Y-109803090D01*
X80495431Y-109590890D01*
X80546440Y-109339000D01*
X80546440Y-107589000D01*
X80502162Y-107353683D01*
X80363090Y-107137559D01*
X80150890Y-106992569D01*
X79899000Y-106941560D01*
X78149000Y-106941560D01*
X77913683Y-106985838D01*
X77697559Y-107124910D01*
X77552569Y-107337110D01*
X77501560Y-107589000D01*
X56284128Y-107589000D01*
X55909464Y-107213682D01*
X56303370Y-106820463D01*
X56533738Y-106265675D01*
X56534262Y-105664960D01*
X56304862Y-105109771D01*
X55880463Y-104684630D01*
X55325675Y-104454262D01*
X54724960Y-104453738D01*
X54169771Y-104683138D01*
X53744630Y-105107537D01*
X53514262Y-105662325D01*
X53513738Y-106263040D01*
X50340000Y-106263040D01*
X50340000Y-102410000D01*
X81740000Y-102410000D01*
X81740000Y-116892000D01*
X81740000Y-116892000D01*
G37*
X81740000Y-116892000D02*
X50340000Y-116892000D01*
X50340000Y-113749750D01*
X53514000Y-113749750D01*
X53514000Y-114465309D01*
X53610673Y-114698698D01*
X53789301Y-114877327D01*
X54022690Y-114974000D01*
X54738250Y-114974000D01*
X54897000Y-114815250D01*
X54897000Y-113591000D01*
X55151000Y-113591000D01*
X55151000Y-114815250D01*
X55309750Y-114974000D01*
X56025310Y-114974000D01*
X56258699Y-114877327D01*
X56437327Y-114698698D01*
X56534000Y-114465309D01*
X56534000Y-113763040D01*
X77513738Y-113763040D01*
X77743138Y-114318229D01*
X78167537Y-114743370D01*
X78722325Y-114973738D01*
X79323040Y-114974262D01*
X79878229Y-114744862D01*
X80303370Y-114320463D01*
X80533738Y-113765675D01*
X80534262Y-113164960D01*
X80304862Y-112609771D01*
X79880463Y-112184630D01*
X79857531Y-112175108D01*
X79906455Y-112026060D01*
X79024000Y-111143605D01*
X78141545Y-112026060D01*
X78190318Y-112174648D01*
X78169771Y-112183138D01*
X77744630Y-112607537D01*
X77514262Y-113162325D01*
X77513738Y-113763040D01*
X56534000Y-113763040D01*
X56534000Y-113749750D01*
X56375250Y-113591000D01*
X55151000Y-113591000D01*
X54897000Y-113591000D01*
X53672750Y-113591000D01*
X53514000Y-113749750D01*
X50340000Y-113749750D01*
X50340000Y-106263040D01*
X53513738Y-106263040D01*
X53743138Y-106818229D01*
X54138536Y-107214318D01*
X53744630Y-107607537D01*
X53514262Y-108162325D01*
X53513738Y-108763040D01*
X53743138Y-109318229D01*
X54138536Y-109714318D01*
X53744630Y-110107537D01*
X53514262Y-110662325D01*
X53513738Y-111263040D01*
X53743138Y-111818229D01*
X53920802Y-111996203D01*
X53789301Y-112050673D01*
X53610673Y-112229302D01*
X53514000Y-112462691D01*
X53514000Y-113178250D01*
X53672750Y-113337000D01*
X54897000Y-113337000D01*
X54897000Y-113317000D01*
X55151000Y-113317000D01*
X55151000Y-113337000D01*
X56375250Y-113337000D01*
X56534000Y-113178250D01*
X56534000Y-112462691D01*
X56437327Y-112229302D01*
X56258699Y-112050673D01*
X56127286Y-111996240D01*
X56303370Y-111820463D01*
X56533738Y-111265675D01*
X56534262Y-110664960D01*
X56304862Y-110109771D01*
X55909464Y-109713682D01*
X56303370Y-109320463D01*
X56533738Y-108765675D01*
X56534262Y-108164960D01*
X56304862Y-107609771D01*
X56284128Y-107589000D01*
X77501560Y-107589000D01*
X77501560Y-109339000D01*
X77545838Y-109574317D01*
X77684910Y-109790441D01*
X77886226Y-109927994D01*
X77847306Y-109966914D01*
X77961938Y-110081546D01*
X77708047Y-110164884D01*
X77502410Y-110729306D01*
X77528421Y-111329458D01*
X77708047Y-111763116D01*
X77961940Y-111846455D01*
X78844395Y-110964000D01*
X78830253Y-110949858D01*
X79009858Y-110770253D01*
X79024000Y-110784395D01*
X79038143Y-110770253D01*
X79217748Y-110949858D01*
X79203605Y-110964000D01*
X80086060Y-111846455D01*
X80339953Y-111763116D01*
X80545590Y-111198694D01*
X80519579Y-110598542D01*
X80339953Y-110164884D01*
X80086062Y-110081546D01*
X80200694Y-109966914D01*
X80159644Y-109925864D01*
X80350441Y-109803090D01*
X80495431Y-109590890D01*
X80546440Y-109339000D01*
X80546440Y-107589000D01*
X80502162Y-107353683D01*
X80363090Y-107137559D01*
X80150890Y-106992569D01*
X79899000Y-106941560D01*
X78149000Y-106941560D01*
X77913683Y-106985838D01*
X77697559Y-107124910D01*
X77552569Y-107337110D01*
X77501560Y-107589000D01*
X56284128Y-107589000D01*
X55909464Y-107213682D01*
X56303370Y-106820463D01*
X56533738Y-106265675D01*
X56534262Y-105664960D01*
X56304862Y-105109771D01*
X55880463Y-104684630D01*
X55325675Y-104454262D01*
X54724960Y-104453738D01*
X54169771Y-104683138D01*
X53744630Y-105107537D01*
X53514262Y-105662325D01*
X53513738Y-106263040D01*
X50340000Y-106263040D01*
X50340000Y-102410000D01*
X81740000Y-102410000D01*
X81740000Y-116892000D01*
G36*
X25400000Y-102410000D02*
X48720000Y-102410000D01*
X48720000Y-116892000D01*
X25094000Y-116892000D01*
X25094000Y-112909026D01*
X25206302Y-113021327D01*
X25439691Y-113118000D01*
X26130250Y-113118000D01*
X26289000Y-112959250D01*
X26289000Y-111760000D01*
X26543000Y-111760000D01*
X26543000Y-112959250D01*
X26701750Y-113118000D01*
X27392309Y-113118000D01*
X27625698Y-113021327D01*
X27804327Y-112842699D01*
X27901000Y-112609310D01*
X27901000Y-111918750D01*
X27742250Y-111760000D01*
X26543000Y-111760000D01*
X26289000Y-111760000D01*
X26269000Y-111760000D01*
X26269000Y-111506000D01*
X26289000Y-111506000D01*
X26289000Y-111486000D01*
X26543000Y-111486000D01*
X26543000Y-111506000D01*
X27742250Y-111506000D01*
X27901000Y-111347250D01*
X27901000Y-110656690D01*
X27815748Y-110450873D01*
X31045812Y-110450873D01*
X31210646Y-110849800D01*
X31515595Y-111155282D01*
X31914233Y-111320811D01*
X32345873Y-111321188D01*
X32744800Y-111156354D01*
X32830303Y-111071000D01*
X34606682Y-111071000D01*
X34817595Y-111282282D01*
X35216233Y-111447811D01*
X35647873Y-111448188D01*
X36046800Y-111283354D01*
X36352282Y-110978405D01*
X36517811Y-110579767D01*
X36518188Y-110148127D01*
X36353354Y-109749200D01*
X36048405Y-109443718D01*
X35649767Y-109278189D01*
X35218127Y-109277812D01*
X34919991Y-109401000D01*
X32830540Y-109401000D01*
X32746405Y-109316718D01*
X32347767Y-109151189D01*
X31916127Y-109150812D01*
X31517200Y-109315646D01*
X31211718Y-109620595D01*
X31046189Y-110019233D01*
X31045812Y-110450873D01*
X27815748Y-110450873D01*
X27804327Y-110423301D01*
X27625698Y-110244673D01*
X27451223Y-110172403D01*
X27495147Y-110143054D01*
X27817054Y-109661285D01*
X27930093Y-109093000D01*
X27817054Y-108524715D01*
X27495147Y-108042946D01*
X27165974Y-107823000D01*
X27495147Y-107603054D01*
X27798620Y-107148873D01*
X40062812Y-107148873D01*
X40227646Y-107547800D01*
X40532595Y-107853282D01*
X40931233Y-108018811D01*
X41052048Y-108018917D01*
X41065565Y-108032434D01*
X41201013Y-108122937D01*
X41336459Y-108213439D01*
X41656000Y-108277000D01*
X42688132Y-108277000D01*
X41687216Y-109277916D01*
X41568127Y-109277812D01*
X41169200Y-109442646D01*
X40863718Y-109747595D01*
X40698189Y-110146233D01*
X40697812Y-110577873D01*
X40862646Y-110976800D01*
X41167595Y-111282282D01*
X41566233Y-111447811D01*
X41997873Y-111448188D01*
X42396800Y-111283354D01*
X42702282Y-110978405D01*
X42867811Y-110579767D01*
X42867917Y-110458951D01*
X44160868Y-109166000D01*
X44921060Y-109166000D01*
X44921060Y-109181000D01*
X44965338Y-109416317D01*
X45104410Y-109632441D01*
X45316610Y-109777431D01*
X45384041Y-109791086D01*
X45339353Y-109820946D01*
X45017446Y-110302715D01*
X44904407Y-110871000D01*
X45017446Y-111439285D01*
X45339353Y-111921054D01*
X45668526Y-112141000D01*
X45339353Y-112360946D01*
X45017446Y-112842715D01*
X44904407Y-113411000D01*
X45017446Y-113979285D01*
X45339353Y-114461054D01*
X45821122Y-114782961D01*
X46389407Y-114896000D01*
X46447593Y-114896000D01*
X47015878Y-114782961D01*
X47497647Y-114461054D01*
X47819554Y-113979285D01*
X47932593Y-113411000D01*
X47819554Y-112842715D01*
X47497647Y-112360946D01*
X47168474Y-112141000D01*
X47497647Y-111921054D01*
X47819554Y-111439285D01*
X47932593Y-110871000D01*
X47819554Y-110302715D01*
X47497647Y-109820946D01*
X47456048Y-109793150D01*
X47503817Y-109784162D01*
X47719941Y-109645090D01*
X47864931Y-109432890D01*
X47915940Y-109181000D01*
X47915940Y-107481000D01*
X47871662Y-107245683D01*
X47732590Y-107029559D01*
X47686281Y-106997918D01*
X47801431Y-106829390D01*
X47852440Y-106577500D01*
X47852440Y-104877500D01*
X47808162Y-104642183D01*
X47669090Y-104426059D01*
X47456890Y-104281069D01*
X47205000Y-104230060D01*
X45505000Y-104230060D01*
X45269683Y-104274338D01*
X45053559Y-104413410D01*
X44908569Y-104625610D01*
X44857560Y-104877500D01*
X44857560Y-106577500D01*
X44901838Y-106812817D01*
X45040910Y-107028941D01*
X45087219Y-107060582D01*
X44972069Y-107229110D01*
X44921060Y-107481000D01*
X44921060Y-107496000D01*
X44645953Y-107496000D01*
X44646188Y-107227127D01*
X44481354Y-106828200D01*
X44176405Y-106522718D01*
X43777767Y-106357189D01*
X43346127Y-106356812D01*
X42947200Y-106521646D01*
X42861697Y-106607000D01*
X42186858Y-106607000D01*
X42068354Y-106320200D01*
X41763405Y-106014718D01*
X41364767Y-105849189D01*
X40933127Y-105848812D01*
X40534200Y-106013646D01*
X40228718Y-106318595D01*
X40063189Y-106717233D01*
X40062812Y-107148873D01*
X27798620Y-107148873D01*
X27817054Y-107121285D01*
X27930093Y-106553000D01*
X27817054Y-105984715D01*
X27495147Y-105502946D01*
X27013378Y-105181039D01*
X26445093Y-105068000D01*
X26386907Y-105068000D01*
X25818622Y-105181039D01*
X25336853Y-105502946D01*
X25094000Y-105866402D01*
X25094000Y-102349132D01*
X25400000Y-102410000D01*
X25400000Y-102410000D01*
G37*
X25400000Y-102410000D02*
X48720000Y-102410000D01*
X48720000Y-116892000D01*
X25094000Y-116892000D01*
X25094000Y-112909026D01*
X25206302Y-113021327D01*
X25439691Y-113118000D01*
X26130250Y-113118000D01*
X26289000Y-112959250D01*
X26289000Y-111760000D01*
X26543000Y-111760000D01*
X26543000Y-112959250D01*
X26701750Y-113118000D01*
X27392309Y-113118000D01*
X27625698Y-113021327D01*
X27804327Y-112842699D01*
X27901000Y-112609310D01*
X27901000Y-111918750D01*
X27742250Y-111760000D01*
X26543000Y-111760000D01*
X26289000Y-111760000D01*
X26269000Y-111760000D01*
X26269000Y-111506000D01*
X26289000Y-111506000D01*
X26289000Y-111486000D01*
X26543000Y-111486000D01*
X26543000Y-111506000D01*
X27742250Y-111506000D01*
X27901000Y-111347250D01*
X27901000Y-110656690D01*
X27815748Y-110450873D01*
X31045812Y-110450873D01*
X31210646Y-110849800D01*
X31515595Y-111155282D01*
X31914233Y-111320811D01*
X32345873Y-111321188D01*
X32744800Y-111156354D01*
X32830303Y-111071000D01*
X34606682Y-111071000D01*
X34817595Y-111282282D01*
X35216233Y-111447811D01*
X35647873Y-111448188D01*
X36046800Y-111283354D01*
X36352282Y-110978405D01*
X36517811Y-110579767D01*
X36518188Y-110148127D01*
X36353354Y-109749200D01*
X36048405Y-109443718D01*
X35649767Y-109278189D01*
X35218127Y-109277812D01*
X34919991Y-109401000D01*
X32830540Y-109401000D01*
X32746405Y-109316718D01*
X32347767Y-109151189D01*
X31916127Y-109150812D01*
X31517200Y-109315646D01*
X31211718Y-109620595D01*
X31046189Y-110019233D01*
X31045812Y-110450873D01*
X27815748Y-110450873D01*
X27804327Y-110423301D01*
X27625698Y-110244673D01*
X27451223Y-110172403D01*
X27495147Y-110143054D01*
X27817054Y-109661285D01*
X27930093Y-109093000D01*
X27817054Y-108524715D01*
X27495147Y-108042946D01*
X27165974Y-107823000D01*
X27495147Y-107603054D01*
X27798620Y-107148873D01*
X40062812Y-107148873D01*
X40227646Y-107547800D01*
X40532595Y-107853282D01*
X40931233Y-108018811D01*
X41052048Y-108018917D01*
X41065565Y-108032434D01*
X41201013Y-108122937D01*
X41336459Y-108213439D01*
X41656000Y-108277000D01*
X42688132Y-108277000D01*
X41687216Y-109277916D01*
X41568127Y-109277812D01*
X41169200Y-109442646D01*
X40863718Y-109747595D01*
X40698189Y-110146233D01*
X40697812Y-110577873D01*
X40862646Y-110976800D01*
X41167595Y-111282282D01*
X41566233Y-111447811D01*
X41997873Y-111448188D01*
X42396800Y-111283354D01*
X42702282Y-110978405D01*
X42867811Y-110579767D01*
X42867917Y-110458951D01*
X44160868Y-109166000D01*
X44921060Y-109166000D01*
X44921060Y-109181000D01*
X44965338Y-109416317D01*
X45104410Y-109632441D01*
X45316610Y-109777431D01*
X45384041Y-109791086D01*
X45339353Y-109820946D01*
X45017446Y-110302715D01*
X44904407Y-110871000D01*
X45017446Y-111439285D01*
X45339353Y-111921054D01*
X45668526Y-112141000D01*
X45339353Y-112360946D01*
X45017446Y-112842715D01*
X44904407Y-113411000D01*
X45017446Y-113979285D01*
X45339353Y-114461054D01*
X45821122Y-114782961D01*
X46389407Y-114896000D01*
X46447593Y-114896000D01*
X47015878Y-114782961D01*
X47497647Y-114461054D01*
X47819554Y-113979285D01*
X47932593Y-113411000D01*
X47819554Y-112842715D01*
X47497647Y-112360946D01*
X47168474Y-112141000D01*
X47497647Y-111921054D01*
X47819554Y-111439285D01*
X47932593Y-110871000D01*
X47819554Y-110302715D01*
X47497647Y-109820946D01*
X47456048Y-109793150D01*
X47503817Y-109784162D01*
X47719941Y-109645090D01*
X47864931Y-109432890D01*
X47915940Y-109181000D01*
X47915940Y-107481000D01*
X47871662Y-107245683D01*
X47732590Y-107029559D01*
X47686281Y-106997918D01*
X47801431Y-106829390D01*
X47852440Y-106577500D01*
X47852440Y-104877500D01*
X47808162Y-104642183D01*
X47669090Y-104426059D01*
X47456890Y-104281069D01*
X47205000Y-104230060D01*
X45505000Y-104230060D01*
X45269683Y-104274338D01*
X45053559Y-104413410D01*
X44908569Y-104625610D01*
X44857560Y-104877500D01*
X44857560Y-106577500D01*
X44901838Y-106812817D01*
X45040910Y-107028941D01*
X45087219Y-107060582D01*
X44972069Y-107229110D01*
X44921060Y-107481000D01*
X44921060Y-107496000D01*
X44645953Y-107496000D01*
X44646188Y-107227127D01*
X44481354Y-106828200D01*
X44176405Y-106522718D01*
X43777767Y-106357189D01*
X43346127Y-106356812D01*
X42947200Y-106521646D01*
X42861697Y-106607000D01*
X42186858Y-106607000D01*
X42068354Y-106320200D01*
X41763405Y-106014718D01*
X41364767Y-105849189D01*
X40933127Y-105848812D01*
X40534200Y-106013646D01*
X40228718Y-106318595D01*
X40063189Y-106717233D01*
X40062812Y-107148873D01*
X27798620Y-107148873D01*
X27817054Y-107121285D01*
X27930093Y-106553000D01*
X27817054Y-105984715D01*
X27495147Y-105502946D01*
X27013378Y-105181039D01*
X26445093Y-105068000D01*
X26386907Y-105068000D01*
X25818622Y-105181039D01*
X25336853Y-105502946D01*
X25094000Y-105866402D01*
X25094000Y-102349132D01*
X25400000Y-102410000D01*
G36*
X25400000Y-78280000D02*
X44910000Y-78280000D01*
X44910000Y-100790000D01*
X25400000Y-100790000D01*
X25094000Y-100850868D01*
X25094000Y-88606873D01*
X28378812Y-88606873D01*
X28543646Y-89005800D01*
X28848595Y-89311282D01*
X29247233Y-89476811D01*
X29368049Y-89476917D01*
X36747566Y-96856434D01*
X37018460Y-97037440D01*
X37338000Y-97101000D01*
X37394813Y-97101000D01*
X37557946Y-97345147D01*
X38039715Y-97667054D01*
X38608000Y-97780093D01*
X39176285Y-97667054D01*
X39658054Y-97345147D01*
X39687403Y-97301223D01*
X39759673Y-97475698D01*
X39938301Y-97654327D01*
X40171690Y-97751000D01*
X40862250Y-97751000D01*
X41021000Y-97592250D01*
X41021000Y-96393000D01*
X41275000Y-96393000D01*
X41275000Y-97592250D01*
X41433750Y-97751000D01*
X42124310Y-97751000D01*
X42357699Y-97654327D01*
X42536327Y-97475698D01*
X42633000Y-97242309D01*
X42633000Y-96551750D01*
X42474250Y-96393000D01*
X41275000Y-96393000D01*
X41021000Y-96393000D01*
X41001000Y-96393000D01*
X41001000Y-96139000D01*
X41021000Y-96139000D01*
X41021000Y-94939750D01*
X41275000Y-94939750D01*
X41275000Y-96139000D01*
X42474250Y-96139000D01*
X42633000Y-95980250D01*
X42633000Y-95289691D01*
X42536327Y-95056302D01*
X42357699Y-94877673D01*
X42124310Y-94781000D01*
X41433750Y-94781000D01*
X41275000Y-94939750D01*
X41021000Y-94939750D01*
X40862250Y-94781000D01*
X40171690Y-94781000D01*
X39938301Y-94877673D01*
X39759673Y-95056302D01*
X39687403Y-95230777D01*
X39658054Y-95186853D01*
X39176285Y-94864946D01*
X38608000Y-94751907D01*
X38039715Y-94864946D01*
X37557946Y-95186853D01*
X37510592Y-95257724D01*
X32637741Y-90384873D01*
X36252812Y-90384873D01*
X36417646Y-90783800D01*
X36722595Y-91089282D01*
X37121233Y-91254811D01*
X37552873Y-91255188D01*
X37951800Y-91090354D01*
X38037303Y-91005000D01*
X40894000Y-91005000D01*
X41213541Y-90941439D01*
X41484434Y-90760434D01*
X42259784Y-89985084D01*
X42378873Y-89985188D01*
X42777800Y-89820354D01*
X43083282Y-89515405D01*
X43248811Y-89116767D01*
X43249188Y-88685127D01*
X43084354Y-88286200D01*
X42779405Y-87980718D01*
X42380767Y-87815189D01*
X41949127Y-87814812D01*
X41550200Y-87979646D01*
X41244718Y-88284595D01*
X41079189Y-88683233D01*
X41079083Y-88804049D01*
X40548132Y-89335000D01*
X38037540Y-89335000D01*
X37953405Y-89250718D01*
X37554767Y-89085189D01*
X37123127Y-89084812D01*
X36724200Y-89249646D01*
X36418718Y-89554595D01*
X36253189Y-89953233D01*
X36252812Y-90384873D01*
X32637741Y-90384873D01*
X30549084Y-88296216D01*
X30549188Y-88177127D01*
X30384354Y-87778200D01*
X30079405Y-87472718D01*
X29680767Y-87307189D01*
X29249127Y-87306812D01*
X28850200Y-87471646D01*
X28544718Y-87776595D01*
X28379189Y-88175233D01*
X28378812Y-88606873D01*
X25094000Y-88606873D01*
X25094000Y-82073750D01*
X26455000Y-82073750D01*
X26455000Y-82764309D01*
X26551673Y-82997698D01*
X26730301Y-83176327D01*
X26963690Y-83273000D01*
X27654250Y-83273000D01*
X27813000Y-83114250D01*
X27813000Y-81915000D01*
X26613750Y-81915000D01*
X26455000Y-82073750D01*
X25094000Y-82073750D01*
X25094000Y-80811691D01*
X26455000Y-80811691D01*
X26455000Y-81502250D01*
X26613750Y-81661000D01*
X27813000Y-81661000D01*
X27813000Y-80461750D01*
X28067000Y-80461750D01*
X28067000Y-81661000D01*
X28087000Y-81661000D01*
X28087000Y-81915000D01*
X28067000Y-81915000D01*
X28067000Y-83114250D01*
X28225750Y-83273000D01*
X28916310Y-83273000D01*
X29149699Y-83176327D01*
X29328327Y-82997698D01*
X29400597Y-82823223D01*
X29429946Y-82867147D01*
X29911715Y-83189054D01*
X30480000Y-83302093D01*
X31048285Y-83189054D01*
X31530054Y-82867147D01*
X31851961Y-82385378D01*
X31965000Y-81817093D01*
X31965000Y-81758907D01*
X31851961Y-81190622D01*
X31530054Y-80708853D01*
X31048285Y-80386946D01*
X30480000Y-80273907D01*
X29911715Y-80386946D01*
X29429946Y-80708853D01*
X29400597Y-80752777D01*
X29328327Y-80578302D01*
X29149699Y-80399673D01*
X28916310Y-80303000D01*
X28225750Y-80303000D01*
X28067000Y-80461750D01*
X27813000Y-80461750D01*
X27654250Y-80303000D01*
X26963690Y-80303000D01*
X26730301Y-80399673D01*
X26551673Y-80578302D01*
X26455000Y-80811691D01*
X25094000Y-80811691D01*
X25094000Y-78219132D01*
X25400000Y-78280000D01*
X25400000Y-78280000D01*
G37*
X25400000Y-78280000D02*
X44910000Y-78280000D01*
X44910000Y-100790000D01*
X25400000Y-100790000D01*
X25094000Y-100850868D01*
X25094000Y-88606873D01*
X28378812Y-88606873D01*
X28543646Y-89005800D01*
X28848595Y-89311282D01*
X29247233Y-89476811D01*
X29368049Y-89476917D01*
X36747566Y-96856434D01*
X37018460Y-97037440D01*
X37338000Y-97101000D01*
X37394813Y-97101000D01*
X37557946Y-97345147D01*
X38039715Y-97667054D01*
X38608000Y-97780093D01*
X39176285Y-97667054D01*
X39658054Y-97345147D01*
X39687403Y-97301223D01*
X39759673Y-97475698D01*
X39938301Y-97654327D01*
X40171690Y-97751000D01*
X40862250Y-97751000D01*
X41021000Y-97592250D01*
X41021000Y-96393000D01*
X41275000Y-96393000D01*
X41275000Y-97592250D01*
X41433750Y-97751000D01*
X42124310Y-97751000D01*
X42357699Y-97654327D01*
X42536327Y-97475698D01*
X42633000Y-97242309D01*
X42633000Y-96551750D01*
X42474250Y-96393000D01*
X41275000Y-96393000D01*
X41021000Y-96393000D01*
X41001000Y-96393000D01*
X41001000Y-96139000D01*
X41021000Y-96139000D01*
X41021000Y-94939750D01*
X41275000Y-94939750D01*
X41275000Y-96139000D01*
X42474250Y-96139000D01*
X42633000Y-95980250D01*
X42633000Y-95289691D01*
X42536327Y-95056302D01*
X42357699Y-94877673D01*
X42124310Y-94781000D01*
X41433750Y-94781000D01*
X41275000Y-94939750D01*
X41021000Y-94939750D01*
X40862250Y-94781000D01*
X40171690Y-94781000D01*
X39938301Y-94877673D01*
X39759673Y-95056302D01*
X39687403Y-95230777D01*
X39658054Y-95186853D01*
X39176285Y-94864946D01*
X38608000Y-94751907D01*
X38039715Y-94864946D01*
X37557946Y-95186853D01*
X37510592Y-95257724D01*
X32637741Y-90384873D01*
X36252812Y-90384873D01*
X36417646Y-90783800D01*
X36722595Y-91089282D01*
X37121233Y-91254811D01*
X37552873Y-91255188D01*
X37951800Y-91090354D01*
X38037303Y-91005000D01*
X40894000Y-91005000D01*
X41213541Y-90941439D01*
X41484434Y-90760434D01*
X42259784Y-89985084D01*
X42378873Y-89985188D01*
X42777800Y-89820354D01*
X43083282Y-89515405D01*
X43248811Y-89116767D01*
X43249188Y-88685127D01*
X43084354Y-88286200D01*
X42779405Y-87980718D01*
X42380767Y-87815189D01*
X41949127Y-87814812D01*
X41550200Y-87979646D01*
X41244718Y-88284595D01*
X41079189Y-88683233D01*
X41079083Y-88804049D01*
X40548132Y-89335000D01*
X38037540Y-89335000D01*
X37953405Y-89250718D01*
X37554767Y-89085189D01*
X37123127Y-89084812D01*
X36724200Y-89249646D01*
X36418718Y-89554595D01*
X36253189Y-89953233D01*
X36252812Y-90384873D01*
X32637741Y-90384873D01*
X30549084Y-88296216D01*
X30549188Y-88177127D01*
X30384354Y-87778200D01*
X30079405Y-87472718D01*
X29680767Y-87307189D01*
X29249127Y-87306812D01*
X28850200Y-87471646D01*
X28544718Y-87776595D01*
X28379189Y-88175233D01*
X28378812Y-88606873D01*
X25094000Y-88606873D01*
X25094000Y-82073750D01*
X26455000Y-82073750D01*
X26455000Y-82764309D01*
X26551673Y-82997698D01*
X26730301Y-83176327D01*
X26963690Y-83273000D01*
X27654250Y-83273000D01*
X27813000Y-83114250D01*
X27813000Y-81915000D01*
X26613750Y-81915000D01*
X26455000Y-82073750D01*
X25094000Y-82073750D01*
X25094000Y-80811691D01*
X26455000Y-80811691D01*
X26455000Y-81502250D01*
X26613750Y-81661000D01*
X27813000Y-81661000D01*
X27813000Y-80461750D01*
X28067000Y-80461750D01*
X28067000Y-81661000D01*
X28087000Y-81661000D01*
X28087000Y-81915000D01*
X28067000Y-81915000D01*
X28067000Y-83114250D01*
X28225750Y-83273000D01*
X28916310Y-83273000D01*
X29149699Y-83176327D01*
X29328327Y-82997698D01*
X29400597Y-82823223D01*
X29429946Y-82867147D01*
X29911715Y-83189054D01*
X30480000Y-83302093D01*
X31048285Y-83189054D01*
X31530054Y-82867147D01*
X31851961Y-82385378D01*
X31965000Y-81817093D01*
X31965000Y-81758907D01*
X31851961Y-81190622D01*
X31530054Y-80708853D01*
X31048285Y-80386946D01*
X30480000Y-80273907D01*
X29911715Y-80386946D01*
X29429946Y-80708853D01*
X29400597Y-80752777D01*
X29328327Y-80578302D01*
X29149699Y-80399673D01*
X28916310Y-80303000D01*
X28225750Y-80303000D01*
X28067000Y-80461750D01*
X27813000Y-80461750D01*
X27654250Y-80303000D01*
X26963690Y-80303000D01*
X26730301Y-80399673D01*
X26551673Y-80578302D01*
X26455000Y-80811691D01*
X25094000Y-80811691D01*
X25094000Y-78219132D01*
X25400000Y-78280000D01*
G36*
X79200000Y-100790000D02*
X46530000Y-100790000D01*
X46530000Y-97821750D01*
X47283000Y-97821750D01*
X47283000Y-98512310D01*
X47379673Y-98745699D01*
X47558302Y-98924327D01*
X47791691Y-99021000D01*
X48482250Y-99021000D01*
X48641000Y-98862250D01*
X48641000Y-97663000D01*
X48895000Y-97663000D01*
X48895000Y-98862250D01*
X49053750Y-99021000D01*
X49744309Y-99021000D01*
X49977698Y-98924327D01*
X50064275Y-98837750D01*
X51347000Y-98837750D01*
X51347000Y-99528309D01*
X51443673Y-99761698D01*
X51622301Y-99940327D01*
X51855690Y-100037000D01*
X52546250Y-100037000D01*
X52705000Y-99878250D01*
X52705000Y-98679000D01*
X51505750Y-98679000D01*
X51347000Y-98837750D01*
X50064275Y-98837750D01*
X50156327Y-98745699D01*
X50253000Y-98512310D01*
X50253000Y-97821750D01*
X50094250Y-97663000D01*
X48895000Y-97663000D01*
X48641000Y-97663000D01*
X47441750Y-97663000D01*
X47283000Y-97821750D01*
X46530000Y-97821750D01*
X46530000Y-97575691D01*
X51347000Y-97575691D01*
X51347000Y-98266250D01*
X51505750Y-98425000D01*
X52705000Y-98425000D01*
X52705000Y-97225750D01*
X52959000Y-97225750D01*
X52959000Y-98425000D01*
X52979000Y-98425000D01*
X52979000Y-98679000D01*
X52959000Y-98679000D01*
X52959000Y-99878250D01*
X53117750Y-100037000D01*
X53808310Y-100037000D01*
X54041699Y-99940327D01*
X54220327Y-99761698D01*
X54292597Y-99587223D01*
X54321946Y-99631147D01*
X54803715Y-99953054D01*
X55372000Y-100066093D01*
X55940285Y-99953054D01*
X56422054Y-99631147D01*
X56743961Y-99149378D01*
X56857000Y-98581093D01*
X56857000Y-98522907D01*
X56743961Y-97954622D01*
X56575165Y-97702000D01*
X58192560Y-97702000D01*
X58192560Y-99402000D01*
X58236838Y-99637317D01*
X58375910Y-99853441D01*
X58588110Y-99998431D01*
X58840000Y-100049440D01*
X60540000Y-100049440D01*
X60775317Y-100005162D01*
X60991441Y-99866090D01*
X61136431Y-99653890D01*
X61150086Y-99586459D01*
X61179946Y-99631147D01*
X61661715Y-99953054D01*
X62230000Y-100066093D01*
X62798285Y-99953054D01*
X63280054Y-99631147D01*
X63601961Y-99149378D01*
X63715000Y-98581093D01*
X63715000Y-98522907D01*
X63601961Y-97954622D01*
X63280054Y-97472853D01*
X62798285Y-97150946D01*
X62230000Y-97037907D01*
X61661715Y-97150946D01*
X61179946Y-97472853D01*
X61152150Y-97514452D01*
X61143162Y-97466683D01*
X61004090Y-97250559D01*
X60791890Y-97105569D01*
X60540000Y-97054560D01*
X58840000Y-97054560D01*
X58604683Y-97098838D01*
X58388559Y-97237910D01*
X58243569Y-97450110D01*
X58192560Y-97702000D01*
X56575165Y-97702000D01*
X56422054Y-97472853D01*
X55940285Y-97150946D01*
X55372000Y-97037907D01*
X54803715Y-97150946D01*
X54321946Y-97472853D01*
X54292597Y-97516777D01*
X54220327Y-97342302D01*
X54041699Y-97163673D01*
X53808310Y-97067000D01*
X53117750Y-97067000D01*
X52959000Y-97225750D01*
X52705000Y-97225750D01*
X52546250Y-97067000D01*
X51855690Y-97067000D01*
X51622301Y-97163673D01*
X51443673Y-97342302D01*
X51347000Y-97575691D01*
X46530000Y-97575691D01*
X46530000Y-94996000D01*
X47253907Y-94996000D01*
X47366946Y-95564285D01*
X47688853Y-96046054D01*
X47732777Y-96075403D01*
X47558302Y-96147673D01*
X47379673Y-96326301D01*
X47283000Y-96559690D01*
X47283000Y-97250250D01*
X47441750Y-97409000D01*
X48641000Y-97409000D01*
X48641000Y-97389000D01*
X48895000Y-97389000D01*
X48895000Y-97409000D01*
X50094250Y-97409000D01*
X50253000Y-97250250D01*
X50253000Y-96559690D01*
X50156327Y-96326301D01*
X49977698Y-96147673D01*
X49803223Y-96075403D01*
X49847147Y-96046054D01*
X50169054Y-95564285D01*
X50282093Y-94996000D01*
X50237885Y-94773750D01*
X74207000Y-94773750D01*
X74207000Y-95464310D01*
X74303673Y-95697699D01*
X74482302Y-95876327D01*
X74715691Y-95973000D01*
X75406250Y-95973000D01*
X75565000Y-95814250D01*
X75565000Y-94615000D01*
X75819000Y-94615000D01*
X75819000Y-95814250D01*
X75977750Y-95973000D01*
X76668309Y-95973000D01*
X76901698Y-95876327D01*
X77080327Y-95697699D01*
X77177000Y-95464310D01*
X77177000Y-94773750D01*
X77018250Y-94615000D01*
X75819000Y-94615000D01*
X75565000Y-94615000D01*
X74365750Y-94615000D01*
X74207000Y-94773750D01*
X50237885Y-94773750D01*
X50169054Y-94427715D01*
X49847147Y-93945946D01*
X49365378Y-93624039D01*
X48797093Y-93511000D01*
X48738907Y-93511000D01*
X48170622Y-93624039D01*
X47688853Y-93945946D01*
X47366946Y-94427715D01*
X47253907Y-94996000D01*
X46530000Y-94996000D01*
X46530000Y-91948000D01*
X74177907Y-91948000D01*
X74290946Y-92516285D01*
X74612853Y-92998054D01*
X74656777Y-93027403D01*
X74482302Y-93099673D01*
X74303673Y-93278301D01*
X74207000Y-93511690D01*
X74207000Y-94202250D01*
X74365750Y-94361000D01*
X75565000Y-94361000D01*
X75565000Y-94341000D01*
X75819000Y-94341000D01*
X75819000Y-94361000D01*
X77018250Y-94361000D01*
X77177000Y-94202250D01*
X77177000Y-93511690D01*
X77080327Y-93278301D01*
X76901698Y-93099673D01*
X76727223Y-93027403D01*
X76771147Y-92998054D01*
X77093054Y-92516285D01*
X77206093Y-91948000D01*
X77093054Y-91379715D01*
X76771147Y-90897946D01*
X76289378Y-90576039D01*
X75721093Y-90463000D01*
X75662907Y-90463000D01*
X75094622Y-90576039D01*
X74612853Y-90897946D01*
X74290946Y-91379715D01*
X74177907Y-91948000D01*
X46530000Y-91948000D01*
X46530000Y-82462000D01*
X51842560Y-82462000D01*
X51842560Y-84162000D01*
X51886838Y-84397317D01*
X52025910Y-84613441D01*
X52205000Y-84735808D01*
X52205000Y-85852000D01*
X52291397Y-86286346D01*
X52366755Y-86399127D01*
X52537434Y-86654566D01*
X55839434Y-89956566D01*
X56207654Y-90202603D01*
X56642000Y-90289000D01*
X72136000Y-90289000D01*
X72570346Y-90202603D01*
X72938566Y-89956566D01*
X75478566Y-87416567D01*
X75724603Y-87048346D01*
X75810999Y-86614000D01*
X75724603Y-86179655D01*
X75478566Y-85811434D01*
X75110345Y-85565397D01*
X74676000Y-85479001D01*
X74241654Y-85565397D01*
X73873433Y-85811434D01*
X71665868Y-88019000D01*
X69034132Y-88019000D01*
X75732566Y-81320566D01*
X75978604Y-80952345D01*
X76065000Y-80518000D01*
X75978604Y-80083654D01*
X75732566Y-79715434D01*
X75364346Y-79469396D01*
X74930000Y-79383000D01*
X74495655Y-79469396D01*
X74127434Y-79715434D01*
X67601868Y-86241000D01*
X62738000Y-86241000D01*
X62303654Y-86327397D01*
X61935434Y-86573434D01*
X61689397Y-86941654D01*
X61603000Y-87376000D01*
X61689397Y-87810346D01*
X61828815Y-88019000D01*
X57112132Y-88019000D01*
X54475000Y-85381868D01*
X54475000Y-84733192D01*
X54641441Y-84626090D01*
X54786431Y-84413890D01*
X54808301Y-84305893D01*
X55113076Y-84583645D01*
X55523110Y-84753476D01*
X55753000Y-84632155D01*
X55753000Y-83439000D01*
X55733000Y-83439000D01*
X55733000Y-83185000D01*
X55753000Y-83185000D01*
X55753000Y-81991845D01*
X56007000Y-81991845D01*
X56007000Y-83185000D01*
X56027000Y-83185000D01*
X56027000Y-83439000D01*
X56007000Y-83439000D01*
X56007000Y-84632155D01*
X56236890Y-84753476D01*
X56646924Y-84583645D01*
X57075183Y-84193358D01*
X57142298Y-84050447D01*
X57369946Y-84391147D01*
X57851715Y-84713054D01*
X58420000Y-84826093D01*
X58988285Y-84713054D01*
X59470054Y-84391147D01*
X59690000Y-84061974D01*
X59909946Y-84391147D01*
X60391715Y-84713054D01*
X60960000Y-84826093D01*
X61528285Y-84713054D01*
X62010054Y-84391147D01*
X62331961Y-83909378D01*
X62445000Y-83341093D01*
X62445000Y-83282907D01*
X62331961Y-82714622D01*
X62010054Y-82232853D01*
X61528285Y-81910946D01*
X60960000Y-81797907D01*
X60391715Y-81910946D01*
X59909946Y-82232853D01*
X59690000Y-82562026D01*
X59470054Y-82232853D01*
X58988285Y-81910946D01*
X58420000Y-81797907D01*
X57851715Y-81910946D01*
X57369946Y-82232853D01*
X57142298Y-82573553D01*
X57075183Y-82430642D01*
X56646924Y-82040355D01*
X56236890Y-81870524D01*
X56007000Y-81991845D01*
X55753000Y-81991845D01*
X55523110Y-81870524D01*
X55113076Y-82040355D01*
X54810063Y-82316501D01*
X54793162Y-82226683D01*
X54654090Y-82010559D01*
X54441890Y-81865569D01*
X54190000Y-81814560D01*
X52490000Y-81814560D01*
X52254683Y-81858838D01*
X52038559Y-81997910D01*
X51893569Y-82210110D01*
X51842560Y-82462000D01*
X46530000Y-82462000D01*
X46530000Y-78280000D01*
X62230000Y-78280000D01*
X62539974Y-78218342D01*
X62802756Y-78042756D01*
X62978342Y-77779974D01*
X63040000Y-77470000D01*
X63040000Y-70660000D01*
X79200000Y-70660000D01*
X79200000Y-100790000D01*
X79200000Y-100790000D01*
G37*
X79200000Y-100790000D02*
X46530000Y-100790000D01*
X46530000Y-97821750D01*
X47283000Y-97821750D01*
X47283000Y-98512310D01*
X47379673Y-98745699D01*
X47558302Y-98924327D01*
X47791691Y-99021000D01*
X48482250Y-99021000D01*
X48641000Y-98862250D01*
X48641000Y-97663000D01*
X48895000Y-97663000D01*
X48895000Y-98862250D01*
X49053750Y-99021000D01*
X49744309Y-99021000D01*
X49977698Y-98924327D01*
X50064275Y-98837750D01*
X51347000Y-98837750D01*
X51347000Y-99528309D01*
X51443673Y-99761698D01*
X51622301Y-99940327D01*
X51855690Y-100037000D01*
X52546250Y-100037000D01*
X52705000Y-99878250D01*
X52705000Y-98679000D01*
X51505750Y-98679000D01*
X51347000Y-98837750D01*
X50064275Y-98837750D01*
X50156327Y-98745699D01*
X50253000Y-98512310D01*
X50253000Y-97821750D01*
X50094250Y-97663000D01*
X48895000Y-97663000D01*
X48641000Y-97663000D01*
X47441750Y-97663000D01*
X47283000Y-97821750D01*
X46530000Y-97821750D01*
X46530000Y-97575691D01*
X51347000Y-97575691D01*
X51347000Y-98266250D01*
X51505750Y-98425000D01*
X52705000Y-98425000D01*
X52705000Y-97225750D01*
X52959000Y-97225750D01*
X52959000Y-98425000D01*
X52979000Y-98425000D01*
X52979000Y-98679000D01*
X52959000Y-98679000D01*
X52959000Y-99878250D01*
X53117750Y-100037000D01*
X53808310Y-100037000D01*
X54041699Y-99940327D01*
X54220327Y-99761698D01*
X54292597Y-99587223D01*
X54321946Y-99631147D01*
X54803715Y-99953054D01*
X55372000Y-100066093D01*
X55940285Y-99953054D01*
X56422054Y-99631147D01*
X56743961Y-99149378D01*
X56857000Y-98581093D01*
X56857000Y-98522907D01*
X56743961Y-97954622D01*
X56575165Y-97702000D01*
X58192560Y-97702000D01*
X58192560Y-99402000D01*
X58236838Y-99637317D01*
X58375910Y-99853441D01*
X58588110Y-99998431D01*
X58840000Y-100049440D01*
X60540000Y-100049440D01*
X60775317Y-100005162D01*
X60991441Y-99866090D01*
X61136431Y-99653890D01*
X61150086Y-99586459D01*
X61179946Y-99631147D01*
X61661715Y-99953054D01*
X62230000Y-100066093D01*
X62798285Y-99953054D01*
X63280054Y-99631147D01*
X63601961Y-99149378D01*
X63715000Y-98581093D01*
X63715000Y-98522907D01*
X63601961Y-97954622D01*
X63280054Y-97472853D01*
X62798285Y-97150946D01*
X62230000Y-97037907D01*
X61661715Y-97150946D01*
X61179946Y-97472853D01*
X61152150Y-97514452D01*
X61143162Y-97466683D01*
X61004090Y-97250559D01*
X60791890Y-97105569D01*
X60540000Y-97054560D01*
X58840000Y-97054560D01*
X58604683Y-97098838D01*
X58388559Y-97237910D01*
X58243569Y-97450110D01*
X58192560Y-97702000D01*
X56575165Y-97702000D01*
X56422054Y-97472853D01*
X55940285Y-97150946D01*
X55372000Y-97037907D01*
X54803715Y-97150946D01*
X54321946Y-97472853D01*
X54292597Y-97516777D01*
X54220327Y-97342302D01*
X54041699Y-97163673D01*
X53808310Y-97067000D01*
X53117750Y-97067000D01*
X52959000Y-97225750D01*
X52705000Y-97225750D01*
X52546250Y-97067000D01*
X51855690Y-97067000D01*
X51622301Y-97163673D01*
X51443673Y-97342302D01*
X51347000Y-97575691D01*
X46530000Y-97575691D01*
X46530000Y-94996000D01*
X47253907Y-94996000D01*
X47366946Y-95564285D01*
X47688853Y-96046054D01*
X47732777Y-96075403D01*
X47558302Y-96147673D01*
X47379673Y-96326301D01*
X47283000Y-96559690D01*
X47283000Y-97250250D01*
X47441750Y-97409000D01*
X48641000Y-97409000D01*
X48641000Y-97389000D01*
X48895000Y-97389000D01*
X48895000Y-97409000D01*
X50094250Y-97409000D01*
X50253000Y-97250250D01*
X50253000Y-96559690D01*
X50156327Y-96326301D01*
X49977698Y-96147673D01*
X49803223Y-96075403D01*
X49847147Y-96046054D01*
X50169054Y-95564285D01*
X50282093Y-94996000D01*
X50237885Y-94773750D01*
X74207000Y-94773750D01*
X74207000Y-95464310D01*
X74303673Y-95697699D01*
X74482302Y-95876327D01*
X74715691Y-95973000D01*
X75406250Y-95973000D01*
X75565000Y-95814250D01*
X75565000Y-94615000D01*
X75819000Y-94615000D01*
X75819000Y-95814250D01*
X75977750Y-95973000D01*
X76668309Y-95973000D01*
X76901698Y-95876327D01*
X77080327Y-95697699D01*
X77177000Y-95464310D01*
X77177000Y-94773750D01*
X77018250Y-94615000D01*
X75819000Y-94615000D01*
X75565000Y-94615000D01*
X74365750Y-94615000D01*
X74207000Y-94773750D01*
X50237885Y-94773750D01*
X50169054Y-94427715D01*
X49847147Y-93945946D01*
X49365378Y-93624039D01*
X48797093Y-93511000D01*
X48738907Y-93511000D01*
X48170622Y-93624039D01*
X47688853Y-93945946D01*
X47366946Y-94427715D01*
X47253907Y-94996000D01*
X46530000Y-94996000D01*
X46530000Y-91948000D01*
X74177907Y-91948000D01*
X74290946Y-92516285D01*
X74612853Y-92998054D01*
X74656777Y-93027403D01*
X74482302Y-93099673D01*
X74303673Y-93278301D01*
X74207000Y-93511690D01*
X74207000Y-94202250D01*
X74365750Y-94361000D01*
X75565000Y-94361000D01*
X75565000Y-94341000D01*
X75819000Y-94341000D01*
X75819000Y-94361000D01*
X77018250Y-94361000D01*
X77177000Y-94202250D01*
X77177000Y-93511690D01*
X77080327Y-93278301D01*
X76901698Y-93099673D01*
X76727223Y-93027403D01*
X76771147Y-92998054D01*
X77093054Y-92516285D01*
X77206093Y-91948000D01*
X77093054Y-91379715D01*
X76771147Y-90897946D01*
X76289378Y-90576039D01*
X75721093Y-90463000D01*
X75662907Y-90463000D01*
X75094622Y-90576039D01*
X74612853Y-90897946D01*
X74290946Y-91379715D01*
X74177907Y-91948000D01*
X46530000Y-91948000D01*
X46530000Y-82462000D01*
X51842560Y-82462000D01*
X51842560Y-84162000D01*
X51886838Y-84397317D01*
X52025910Y-84613441D01*
X52205000Y-84735808D01*
X52205000Y-85852000D01*
X52291397Y-86286346D01*
X52366755Y-86399127D01*
X52537434Y-86654566D01*
X55839434Y-89956566D01*
X56207654Y-90202603D01*
X56642000Y-90289000D01*
X72136000Y-90289000D01*
X72570346Y-90202603D01*
X72938566Y-89956566D01*
X75478566Y-87416567D01*
X75724603Y-87048346D01*
X75810999Y-86614000D01*
X75724603Y-86179655D01*
X75478566Y-85811434D01*
X75110345Y-85565397D01*
X74676000Y-85479001D01*
X74241654Y-85565397D01*
X73873433Y-85811434D01*
X71665868Y-88019000D01*
X69034132Y-88019000D01*
X75732566Y-81320566D01*
X75978604Y-80952345D01*
X76065000Y-80518000D01*
X75978604Y-80083654D01*
X75732566Y-79715434D01*
X75364346Y-79469396D01*
X74930000Y-79383000D01*
X74495655Y-79469396D01*
X74127434Y-79715434D01*
X67601868Y-86241000D01*
X62738000Y-86241000D01*
X62303654Y-86327397D01*
X61935434Y-86573434D01*
X61689397Y-86941654D01*
X61603000Y-87376000D01*
X61689397Y-87810346D01*
X61828815Y-88019000D01*
X57112132Y-88019000D01*
X54475000Y-85381868D01*
X54475000Y-84733192D01*
X54641441Y-84626090D01*
X54786431Y-84413890D01*
X54808301Y-84305893D01*
X55113076Y-84583645D01*
X55523110Y-84753476D01*
X55753000Y-84632155D01*
X55753000Y-83439000D01*
X55733000Y-83439000D01*
X55733000Y-83185000D01*
X55753000Y-83185000D01*
X55753000Y-81991845D01*
X56007000Y-81991845D01*
X56007000Y-83185000D01*
X56027000Y-83185000D01*
X56027000Y-83439000D01*
X56007000Y-83439000D01*
X56007000Y-84632155D01*
X56236890Y-84753476D01*
X56646924Y-84583645D01*
X57075183Y-84193358D01*
X57142298Y-84050447D01*
X57369946Y-84391147D01*
X57851715Y-84713054D01*
X58420000Y-84826093D01*
X58988285Y-84713054D01*
X59470054Y-84391147D01*
X59690000Y-84061974D01*
X59909946Y-84391147D01*
X60391715Y-84713054D01*
X60960000Y-84826093D01*
X61528285Y-84713054D01*
X62010054Y-84391147D01*
X62331961Y-83909378D01*
X62445000Y-83341093D01*
X62445000Y-83282907D01*
X62331961Y-82714622D01*
X62010054Y-82232853D01*
X61528285Y-81910946D01*
X60960000Y-81797907D01*
X60391715Y-81910946D01*
X59909946Y-82232853D01*
X59690000Y-82562026D01*
X59470054Y-82232853D01*
X58988285Y-81910946D01*
X58420000Y-81797907D01*
X57851715Y-81910946D01*
X57369946Y-82232853D01*
X57142298Y-82573553D01*
X57075183Y-82430642D01*
X56646924Y-82040355D01*
X56236890Y-81870524D01*
X56007000Y-81991845D01*
X55753000Y-81991845D01*
X55523110Y-81870524D01*
X55113076Y-82040355D01*
X54810063Y-82316501D01*
X54793162Y-82226683D01*
X54654090Y-82010559D01*
X54441890Y-81865569D01*
X54190000Y-81814560D01*
X52490000Y-81814560D01*
X52254683Y-81858838D01*
X52038559Y-81997910D01*
X51893569Y-82210110D01*
X51842560Y-82462000D01*
X46530000Y-82462000D01*
X46530000Y-78280000D01*
X62230000Y-78280000D01*
X62539974Y-78218342D01*
X62802756Y-78042756D01*
X62978342Y-77779974D01*
X63040000Y-77470000D01*
X63040000Y-70660000D01*
X79200000Y-70660000D01*
X79200000Y-100790000D01*
G36*
X25400000Y-50340000D02*
X61420000Y-50340000D01*
X61420000Y-76660000D01*
X25400000Y-76660000D01*
X25094000Y-76720868D01*
X25094000Y-72669400D01*
X32651960Y-72669400D01*
X32651960Y-74904600D01*
X32696238Y-75139917D01*
X32835310Y-75356041D01*
X33047510Y-75501031D01*
X33299400Y-75552040D01*
X35534600Y-75552040D01*
X35769917Y-75507762D01*
X35986041Y-75368690D01*
X36131031Y-75156490D01*
X36178516Y-74922000D01*
X44196000Y-74922000D01*
X44630346Y-74835603D01*
X44998566Y-74589566D01*
X49951566Y-69636566D01*
X50197603Y-69268345D01*
X50284000Y-68834000D01*
X50197603Y-68399655D01*
X49951566Y-68031434D01*
X49583345Y-67785397D01*
X49149000Y-67699000D01*
X48714655Y-67785397D01*
X48346434Y-68031434D01*
X43725868Y-72652000D01*
X36178766Y-72652000D01*
X36137762Y-72434083D01*
X35998690Y-72217959D01*
X35786490Y-72072969D01*
X35534600Y-72021960D01*
X33299400Y-72021960D01*
X33064083Y-72066238D01*
X32847959Y-72205310D01*
X32702969Y-72417510D01*
X32651960Y-72669400D01*
X25094000Y-72669400D01*
X25094000Y-66421000D01*
X37219000Y-66421000D01*
X37305397Y-66855346D01*
X37551434Y-67223566D01*
X37919654Y-67469603D01*
X38354000Y-67556000D01*
X48133000Y-67556000D01*
X48567346Y-67469603D01*
X48935566Y-67223566D01*
X50078566Y-66080566D01*
X50324603Y-65712345D01*
X50411000Y-65278000D01*
X50324603Y-64843655D01*
X50078566Y-64475434D01*
X49710345Y-64229397D01*
X49276000Y-64143000D01*
X48841655Y-64229397D01*
X48473434Y-64475434D01*
X47662868Y-65286000D01*
X38354000Y-65286000D01*
X37919654Y-65372397D01*
X37551434Y-65618434D01*
X37305397Y-65986654D01*
X37219000Y-66421000D01*
X25094000Y-66421000D01*
X25094000Y-65055750D01*
X26328000Y-65055750D01*
X26328000Y-65746310D01*
X26424673Y-65979699D01*
X26603302Y-66158327D01*
X26836691Y-66255000D01*
X27527250Y-66255000D01*
X27686000Y-66096250D01*
X27686000Y-64897000D01*
X27940000Y-64897000D01*
X27940000Y-66096250D01*
X28098750Y-66255000D01*
X28789309Y-66255000D01*
X29022698Y-66158327D01*
X29201327Y-65979699D01*
X29298000Y-65746310D01*
X29298000Y-65055750D01*
X29139250Y-64897000D01*
X27940000Y-64897000D01*
X27686000Y-64897000D01*
X26486750Y-64897000D01*
X26328000Y-65055750D01*
X25094000Y-65055750D01*
X25094000Y-62230000D01*
X26298907Y-62230000D01*
X26411946Y-62798285D01*
X26733853Y-63280054D01*
X26777777Y-63309403D01*
X26603302Y-63381673D01*
X26424673Y-63560301D01*
X26328000Y-63793690D01*
X26328000Y-64484250D01*
X26486750Y-64643000D01*
X27686000Y-64643000D01*
X27686000Y-64623000D01*
X27940000Y-64623000D01*
X27940000Y-64643000D01*
X29139250Y-64643000D01*
X29298000Y-64484250D01*
X29298000Y-63793690D01*
X29201327Y-63560301D01*
X29022698Y-63381673D01*
X28848223Y-63309403D01*
X28892147Y-63280054D01*
X29214054Y-62798285D01*
X29327093Y-62230000D01*
X29214054Y-61661715D01*
X28892147Y-61179946D01*
X28410378Y-60858039D01*
X27842093Y-60745000D01*
X27783907Y-60745000D01*
X27215622Y-60858039D01*
X26733853Y-61179946D01*
X26411946Y-61661715D01*
X26298907Y-62230000D01*
X25094000Y-62230000D01*
X25094000Y-58967000D01*
X55525560Y-58967000D01*
X55525560Y-60667000D01*
X55569838Y-60902317D01*
X55708910Y-61118441D01*
X55921110Y-61263431D01*
X56173000Y-61314440D01*
X57873000Y-61314440D01*
X58108317Y-61270162D01*
X58324441Y-61131090D01*
X58469431Y-60918890D01*
X58520440Y-60667000D01*
X58520440Y-58967000D01*
X58476162Y-58731683D01*
X58337090Y-58515559D01*
X58124890Y-58370569D01*
X58016893Y-58348699D01*
X58294645Y-58043924D01*
X58464476Y-57633890D01*
X58343155Y-57404000D01*
X57150000Y-57404000D01*
X57150000Y-57424000D01*
X56896000Y-57424000D01*
X56896000Y-57404000D01*
X55702845Y-57404000D01*
X55581524Y-57633890D01*
X55751355Y-58043924D01*
X56027501Y-58346937D01*
X55937683Y-58363838D01*
X55721559Y-58502910D01*
X55576569Y-58715110D01*
X55525560Y-58967000D01*
X25094000Y-58967000D01*
X25094000Y-56920110D01*
X55581524Y-56920110D01*
X55702845Y-57150000D01*
X56896000Y-57150000D01*
X56896000Y-55956181D01*
X57150000Y-55956181D01*
X57150000Y-57150000D01*
X58343155Y-57150000D01*
X58464476Y-56920110D01*
X58294645Y-56510076D01*
X57904358Y-56081817D01*
X57379892Y-55835514D01*
X57150000Y-55956181D01*
X56896000Y-55956181D01*
X56666108Y-55835514D01*
X56141642Y-56081817D01*
X55751355Y-56510076D01*
X55581524Y-56920110D01*
X25094000Y-56920110D01*
X25094000Y-50279132D01*
X25400000Y-50340000D01*
X25400000Y-50340000D01*
G37*
X25400000Y-50340000D02*
X61420000Y-50340000D01*
X61420000Y-76660000D01*
X25400000Y-76660000D01*
X25094000Y-76720868D01*
X25094000Y-72669400D01*
X32651960Y-72669400D01*
X32651960Y-74904600D01*
X32696238Y-75139917D01*
X32835310Y-75356041D01*
X33047510Y-75501031D01*
X33299400Y-75552040D01*
X35534600Y-75552040D01*
X35769917Y-75507762D01*
X35986041Y-75368690D01*
X36131031Y-75156490D01*
X36178516Y-74922000D01*
X44196000Y-74922000D01*
X44630346Y-74835603D01*
X44998566Y-74589566D01*
X49951566Y-69636566D01*
X50197603Y-69268345D01*
X50284000Y-68834000D01*
X50197603Y-68399655D01*
X49951566Y-68031434D01*
X49583345Y-67785397D01*
X49149000Y-67699000D01*
X48714655Y-67785397D01*
X48346434Y-68031434D01*
X43725868Y-72652000D01*
X36178766Y-72652000D01*
X36137762Y-72434083D01*
X35998690Y-72217959D01*
X35786490Y-72072969D01*
X35534600Y-72021960D01*
X33299400Y-72021960D01*
X33064083Y-72066238D01*
X32847959Y-72205310D01*
X32702969Y-72417510D01*
X32651960Y-72669400D01*
X25094000Y-72669400D01*
X25094000Y-66421000D01*
X37219000Y-66421000D01*
X37305397Y-66855346D01*
X37551434Y-67223566D01*
X37919654Y-67469603D01*
X38354000Y-67556000D01*
X48133000Y-67556000D01*
X48567346Y-67469603D01*
X48935566Y-67223566D01*
X50078566Y-66080566D01*
X50324603Y-65712345D01*
X50411000Y-65278000D01*
X50324603Y-64843655D01*
X50078566Y-64475434D01*
X49710345Y-64229397D01*
X49276000Y-64143000D01*
X48841655Y-64229397D01*
X48473434Y-64475434D01*
X47662868Y-65286000D01*
X38354000Y-65286000D01*
X37919654Y-65372397D01*
X37551434Y-65618434D01*
X37305397Y-65986654D01*
X37219000Y-66421000D01*
X25094000Y-66421000D01*
X25094000Y-65055750D01*
X26328000Y-65055750D01*
X26328000Y-65746310D01*
X26424673Y-65979699D01*
X26603302Y-66158327D01*
X26836691Y-66255000D01*
X27527250Y-66255000D01*
X27686000Y-66096250D01*
X27686000Y-64897000D01*
X27940000Y-64897000D01*
X27940000Y-66096250D01*
X28098750Y-66255000D01*
X28789309Y-66255000D01*
X29022698Y-66158327D01*
X29201327Y-65979699D01*
X29298000Y-65746310D01*
X29298000Y-65055750D01*
X29139250Y-64897000D01*
X27940000Y-64897000D01*
X27686000Y-64897000D01*
X26486750Y-64897000D01*
X26328000Y-65055750D01*
X25094000Y-65055750D01*
X25094000Y-62230000D01*
X26298907Y-62230000D01*
X26411946Y-62798285D01*
X26733853Y-63280054D01*
X26777777Y-63309403D01*
X26603302Y-63381673D01*
X26424673Y-63560301D01*
X26328000Y-63793690D01*
X26328000Y-64484250D01*
X26486750Y-64643000D01*
X27686000Y-64643000D01*
X27686000Y-64623000D01*
X27940000Y-64623000D01*
X27940000Y-64643000D01*
X29139250Y-64643000D01*
X29298000Y-64484250D01*
X29298000Y-63793690D01*
X29201327Y-63560301D01*
X29022698Y-63381673D01*
X28848223Y-63309403D01*
X28892147Y-63280054D01*
X29214054Y-62798285D01*
X29327093Y-62230000D01*
X29214054Y-61661715D01*
X28892147Y-61179946D01*
X28410378Y-60858039D01*
X27842093Y-60745000D01*
X27783907Y-60745000D01*
X27215622Y-60858039D01*
X26733853Y-61179946D01*
X26411946Y-61661715D01*
X26298907Y-62230000D01*
X25094000Y-62230000D01*
X25094000Y-58967000D01*
X55525560Y-58967000D01*
X55525560Y-60667000D01*
X55569838Y-60902317D01*
X55708910Y-61118441D01*
X55921110Y-61263431D01*
X56173000Y-61314440D01*
X57873000Y-61314440D01*
X58108317Y-61270162D01*
X58324441Y-61131090D01*
X58469431Y-60918890D01*
X58520440Y-60667000D01*
X58520440Y-58967000D01*
X58476162Y-58731683D01*
X58337090Y-58515559D01*
X58124890Y-58370569D01*
X58016893Y-58348699D01*
X58294645Y-58043924D01*
X58464476Y-57633890D01*
X58343155Y-57404000D01*
X57150000Y-57404000D01*
X57150000Y-57424000D01*
X56896000Y-57424000D01*
X56896000Y-57404000D01*
X55702845Y-57404000D01*
X55581524Y-57633890D01*
X55751355Y-58043924D01*
X56027501Y-58346937D01*
X55937683Y-58363838D01*
X55721559Y-58502910D01*
X55576569Y-58715110D01*
X55525560Y-58967000D01*
X25094000Y-58967000D01*
X25094000Y-56920110D01*
X55581524Y-56920110D01*
X55702845Y-57150000D01*
X56896000Y-57150000D01*
X56896000Y-55956181D01*
X57150000Y-55956181D01*
X57150000Y-57150000D01*
X58343155Y-57150000D01*
X58464476Y-56920110D01*
X58294645Y-56510076D01*
X57904358Y-56081817D01*
X57379892Y-55835514D01*
X57150000Y-55956181D01*
X56896000Y-55956181D01*
X56666108Y-55835514D01*
X56141642Y-56081817D01*
X55751355Y-56510076D01*
X55581524Y-56920110D01*
X25094000Y-56920110D01*
X25094000Y-50279132D01*
X25400000Y-50340000D01*
G36*
X116130000Y-69268721D02*
X115879974Y-69101658D01*
X115570000Y-69040000D01*
X63040000Y-69040000D01*
X63040000Y-67151750D01*
X70087000Y-67151750D01*
X70087000Y-67842310D01*
X70183673Y-68075699D01*
X70362302Y-68254327D01*
X70595691Y-68351000D01*
X71286250Y-68351000D01*
X71445000Y-68192250D01*
X71445000Y-66993000D01*
X71699000Y-66993000D01*
X71699000Y-68192250D01*
X71857750Y-68351000D01*
X72548309Y-68351000D01*
X72781698Y-68254327D01*
X72960327Y-68075699D01*
X73057000Y-67842310D01*
X73057000Y-67151750D01*
X72898250Y-66993000D01*
X71699000Y-66993000D01*
X71445000Y-66993000D01*
X70245750Y-66993000D01*
X70087000Y-67151750D01*
X63040000Y-67151750D01*
X63040000Y-61786000D01*
X70057907Y-61786000D01*
X70170946Y-62354285D01*
X70492853Y-62836054D01*
X70822026Y-63056000D01*
X70492853Y-63275946D01*
X70170946Y-63757715D01*
X70057907Y-64326000D01*
X70170946Y-64894285D01*
X70492853Y-65376054D01*
X70536777Y-65405403D01*
X70362302Y-65477673D01*
X70183673Y-65656301D01*
X70087000Y-65889690D01*
X70087000Y-66580250D01*
X70245750Y-66739000D01*
X71445000Y-66739000D01*
X71445000Y-66719000D01*
X71699000Y-66719000D01*
X71699000Y-66739000D01*
X72898250Y-66739000D01*
X73057000Y-66580250D01*
X73057000Y-66080873D01*
X75986812Y-66080873D01*
X76151646Y-66479800D01*
X76456595Y-66785282D01*
X76855233Y-66950811D01*
X77286873Y-66951188D01*
X77685800Y-66786354D01*
X77721216Y-66751000D01*
X84771995Y-66751000D01*
X84772000Y-66751001D01*
X85054484Y-66694810D01*
X85110675Y-66683633D01*
X85397790Y-66491790D01*
X87452886Y-64436693D01*
X87714086Y-64328767D01*
X88033645Y-64009765D01*
X88206803Y-63592756D01*
X88207197Y-63141225D01*
X88034767Y-62723914D01*
X87957000Y-62646011D01*
X87957000Y-58991000D01*
X110049560Y-58991000D01*
X110049560Y-60741000D01*
X110093838Y-60976317D01*
X110232910Y-61192441D01*
X110445110Y-61337431D01*
X110461676Y-61340786D01*
X110292630Y-61509537D01*
X110062262Y-62064325D01*
X110061738Y-62665040D01*
X110291138Y-63220229D01*
X110715537Y-63645370D01*
X111270325Y-63875738D01*
X111871040Y-63876262D01*
X112426229Y-63646862D01*
X112851370Y-63222463D01*
X113081738Y-62667675D01*
X113082262Y-62066960D01*
X112852862Y-61511771D01*
X112684283Y-61342897D01*
X112898441Y-61205090D01*
X113043431Y-60992890D01*
X113094440Y-60741000D01*
X113094440Y-58991000D01*
X113050162Y-58755683D01*
X112911090Y-58539559D01*
X112698890Y-58394569D01*
X112447000Y-58343560D01*
X110697000Y-58343560D01*
X110461683Y-58387838D01*
X110245559Y-58526910D01*
X110100569Y-58739110D01*
X110049560Y-58991000D01*
X87957000Y-58991000D01*
X87957000Y-56639655D01*
X88109233Y-57008086D01*
X88428235Y-57327645D01*
X88845244Y-57500803D01*
X89296775Y-57501197D01*
X89714086Y-57328767D01*
X90033645Y-57009765D01*
X90206803Y-56592756D01*
X90207197Y-56141225D01*
X90034767Y-55723914D01*
X89957000Y-55646011D01*
X89957000Y-54086276D01*
X90033645Y-54009765D01*
X90206803Y-53592756D01*
X90207100Y-53252679D01*
X92446208Y-55491787D01*
X92446210Y-55491790D01*
X92666892Y-55639244D01*
X92733325Y-55683633D01*
X93072000Y-55751001D01*
X93072005Y-55751000D01*
X101571995Y-55751000D01*
X101572000Y-55751001D01*
X101572005Y-55751000D01*
X103571995Y-55751000D01*
X103572000Y-55751001D01*
X103854484Y-55694810D01*
X103910675Y-55683633D01*
X104197790Y-55491790D01*
X104197791Y-55491789D01*
X105697787Y-53991792D01*
X105697790Y-53991790D01*
X105889633Y-53704675D01*
X105957000Y-53366000D01*
X105957000Y-42946005D01*
X105957001Y-42946000D01*
X105889633Y-42607325D01*
X105825786Y-42511771D01*
X105697790Y-42320210D01*
X105697787Y-42320208D01*
X104542539Y-41164960D01*
X104586093Y-40946000D01*
X104473054Y-40377715D01*
X104151147Y-39895946D01*
X103821974Y-39676000D01*
X104151147Y-39456054D01*
X104473054Y-38974285D01*
X104586093Y-38406000D01*
X104473054Y-37837715D01*
X104151147Y-37355946D01*
X104109548Y-37328150D01*
X104157317Y-37319162D01*
X104373441Y-37180090D01*
X104518431Y-36967890D01*
X104569440Y-36716000D01*
X104569440Y-35016000D01*
X104525162Y-34780683D01*
X104386090Y-34564559D01*
X104173890Y-34419569D01*
X103957000Y-34375648D01*
X103957000Y-32866005D01*
X103957001Y-32866000D01*
X103889633Y-32527326D01*
X103889633Y-32527325D01*
X103697790Y-32240210D01*
X103697787Y-32240208D01*
X103197790Y-31740210D01*
X103154074Y-31711000D01*
X102910675Y-31548367D01*
X102854484Y-31537190D01*
X102572000Y-31480999D01*
X102571995Y-31481000D01*
X98292276Y-31481000D01*
X98215765Y-31404355D01*
X97798756Y-31231197D01*
X97347225Y-31230803D01*
X96929914Y-31403233D01*
X96610355Y-31722235D01*
X96557000Y-31850728D01*
X96557000Y-31766000D01*
X96482021Y-31389057D01*
X96268500Y-31069500D01*
X96183941Y-30984941D01*
X96034767Y-30623914D01*
X95715765Y-30304355D01*
X95298756Y-30131197D01*
X94847225Y-30130803D01*
X94429914Y-30303233D01*
X94110355Y-30622235D01*
X93937197Y-31039244D01*
X93936803Y-31490775D01*
X94109233Y-31908086D01*
X94428235Y-32227645D01*
X94587000Y-32293570D01*
X94587000Y-36578480D01*
X94437197Y-36939244D01*
X94436803Y-37390775D01*
X94490611Y-37521000D01*
X92978579Y-37521000D01*
X91457000Y-35999420D01*
X91457000Y-27866000D01*
X91389633Y-27527325D01*
X91197790Y-27240210D01*
X91197787Y-27240208D01*
X90207103Y-26249523D01*
X90207197Y-26141225D01*
X90034767Y-25723914D01*
X89715765Y-25404355D01*
X89298756Y-25231197D01*
X88847225Y-25230803D01*
X88429914Y-25403233D01*
X88110355Y-25722235D01*
X87937197Y-26139244D01*
X87936803Y-26590775D01*
X88109233Y-27008086D01*
X88428235Y-27327645D01*
X88845244Y-27500803D01*
X88955319Y-27500899D01*
X89687000Y-28232579D01*
X89687000Y-36365995D01*
X89686999Y-36366000D01*
X89712021Y-36491790D01*
X89754367Y-36704675D01*
X89898910Y-36921000D01*
X89946210Y-36991790D01*
X91986208Y-39031787D01*
X91986210Y-39031790D01*
X92273325Y-39223633D01*
X92329516Y-39234810D01*
X92612000Y-39291001D01*
X92612005Y-39291000D01*
X97882568Y-39291000D01*
X97992853Y-39456054D01*
X98322026Y-39676000D01*
X97992853Y-39895946D01*
X97670946Y-40377715D01*
X97557907Y-40946000D01*
X97670946Y-41514285D01*
X97992853Y-41996054D01*
X98474622Y-42317961D01*
X99042907Y-42431000D01*
X99101093Y-42431000D01*
X99669378Y-42317961D01*
X100151147Y-41996054D01*
X100473054Y-41514285D01*
X100586093Y-40946000D01*
X100473054Y-40377715D01*
X100151147Y-39895946D01*
X99821974Y-39676000D01*
X100151147Y-39456054D01*
X100473054Y-38974285D01*
X100586093Y-38406000D01*
X100473054Y-37837715D01*
X100151147Y-37355946D01*
X100107223Y-37326597D01*
X100281698Y-37254327D01*
X100460327Y-37075699D01*
X100557000Y-36842310D01*
X100557000Y-36151750D01*
X100398250Y-35993000D01*
X99199000Y-35993000D01*
X99199000Y-36013000D01*
X98945000Y-36013000D01*
X98945000Y-35993000D01*
X97745750Y-35993000D01*
X97587000Y-36151750D01*
X97587000Y-36842310D01*
X97683673Y-37075699D01*
X97862302Y-37254327D01*
X98036777Y-37326597D01*
X97992853Y-37355946D01*
X97882568Y-37521000D01*
X96653551Y-37521000D01*
X96706803Y-37392756D01*
X96707197Y-36941225D01*
X96557000Y-36577722D01*
X96557000Y-34889690D01*
X97587000Y-34889690D01*
X97587000Y-35580250D01*
X97745750Y-35739000D01*
X98945000Y-35739000D01*
X98945000Y-34539750D01*
X99199000Y-34539750D01*
X99199000Y-35739000D01*
X100398250Y-35739000D01*
X100557000Y-35580250D01*
X100557000Y-34889690D01*
X100460327Y-34656301D01*
X100281698Y-34477673D01*
X100048309Y-34381000D01*
X99357750Y-34381000D01*
X99199000Y-34539750D01*
X98945000Y-34539750D01*
X98786250Y-34381000D01*
X98095691Y-34381000D01*
X97862302Y-34477673D01*
X97683673Y-34656301D01*
X97587000Y-34889690D01*
X96557000Y-34889690D01*
X96557000Y-32881673D01*
X96609233Y-33008086D01*
X96928235Y-33327645D01*
X97345244Y-33500803D01*
X97796775Y-33501197D01*
X98214086Y-33328767D01*
X98291989Y-33251000D01*
X102187000Y-33251000D01*
X102187000Y-34375146D01*
X101986683Y-34412838D01*
X101770559Y-34551910D01*
X101625569Y-34764110D01*
X101574560Y-35016000D01*
X101574560Y-36716000D01*
X101618838Y-36951317D01*
X101757910Y-37167441D01*
X101970110Y-37312431D01*
X102037541Y-37326086D01*
X101992853Y-37355946D01*
X101670946Y-37837715D01*
X101557907Y-38406000D01*
X101670946Y-38974285D01*
X101992853Y-39456054D01*
X102322026Y-39676000D01*
X101992853Y-39895946D01*
X101670946Y-40377715D01*
X101557907Y-40946000D01*
X101670946Y-41514285D01*
X101992853Y-41996054D01*
X102474622Y-42317961D01*
X103042907Y-42431000D01*
X103101093Y-42431000D01*
X103271520Y-42397100D01*
X104187000Y-43312579D01*
X104187000Y-44428527D01*
X104173890Y-44419569D01*
X103922000Y-44368560D01*
X102222000Y-44368560D01*
X101986683Y-44412838D01*
X101770559Y-44551910D01*
X101625569Y-44764110D01*
X101574560Y-45016000D01*
X101574560Y-46716000D01*
X101618838Y-46951317D01*
X101757910Y-47167441D01*
X101970110Y-47312431D01*
X102037541Y-47326086D01*
X101992853Y-47355946D01*
X101670946Y-47837715D01*
X101557907Y-48406000D01*
X101670946Y-48974285D01*
X101992853Y-49456054D01*
X102322026Y-49676000D01*
X101992853Y-49895946D01*
X101670946Y-50377715D01*
X101557907Y-50946000D01*
X101670946Y-51514285D01*
X101992853Y-51996054D01*
X102187000Y-52125779D01*
X102187000Y-52999421D01*
X101205420Y-53981000D01*
X93438579Y-53981000D01*
X90323580Y-50866000D01*
X91197787Y-49991792D01*
X91197790Y-49991790D01*
X91389633Y-49704675D01*
X91457000Y-49366000D01*
X91457000Y-48406000D01*
X97557907Y-48406000D01*
X97670946Y-48974285D01*
X97992853Y-49456054D01*
X98322026Y-49676000D01*
X97992853Y-49895946D01*
X97670946Y-50377715D01*
X97557907Y-50946000D01*
X97670946Y-51514285D01*
X97992853Y-51996054D01*
X98474622Y-52317961D01*
X99042907Y-52431000D01*
X99101093Y-52431000D01*
X99669378Y-52317961D01*
X100151147Y-51996054D01*
X100473054Y-51514285D01*
X100586093Y-50946000D01*
X100473054Y-50377715D01*
X100151147Y-49895946D01*
X99821974Y-49676000D01*
X100151147Y-49456054D01*
X100473054Y-48974285D01*
X100586093Y-48406000D01*
X100473054Y-47837715D01*
X100151147Y-47355946D01*
X100107223Y-47326597D01*
X100281698Y-47254327D01*
X100460327Y-47075699D01*
X100557000Y-46842310D01*
X100557000Y-46151750D01*
X100398250Y-45993000D01*
X99199000Y-45993000D01*
X99199000Y-46013000D01*
X98945000Y-46013000D01*
X98945000Y-45993000D01*
X97745750Y-45993000D01*
X97587000Y-46151750D01*
X97587000Y-46842310D01*
X97683673Y-47075699D01*
X97862302Y-47254327D01*
X98036777Y-47326597D01*
X97992853Y-47355946D01*
X97670946Y-47837715D01*
X97557907Y-48406000D01*
X91457000Y-48406000D01*
X91457000Y-44889690D01*
X97587000Y-44889690D01*
X97587000Y-45580250D01*
X97745750Y-45739000D01*
X98945000Y-45739000D01*
X98945000Y-44539750D01*
X99199000Y-44539750D01*
X99199000Y-45739000D01*
X100398250Y-45739000D01*
X100557000Y-45580250D01*
X100557000Y-44889690D01*
X100460327Y-44656301D01*
X100281698Y-44477673D01*
X100048309Y-44381000D01*
X99357750Y-44381000D01*
X99199000Y-44539750D01*
X98945000Y-44539750D01*
X98786250Y-44381000D01*
X98095691Y-44381000D01*
X97862302Y-44477673D01*
X97683673Y-44656301D01*
X97587000Y-44889690D01*
X91457000Y-44889690D01*
X91457000Y-43946005D01*
X91457001Y-43946000D01*
X91389633Y-43607326D01*
X91389633Y-43607325D01*
X91197790Y-43320210D01*
X91197787Y-43320208D01*
X89042539Y-41164959D01*
X89086093Y-40946000D01*
X88973054Y-40377715D01*
X88651147Y-39895946D01*
X88321974Y-39676000D01*
X88651147Y-39456054D01*
X88973054Y-38974285D01*
X89086093Y-38406000D01*
X88973054Y-37837715D01*
X88651147Y-37355946D01*
X88609548Y-37328150D01*
X88657317Y-37319162D01*
X88873441Y-37180090D01*
X89018431Y-36967890D01*
X89069440Y-36716000D01*
X89069440Y-35016000D01*
X89025162Y-34780683D01*
X88886090Y-34564559D01*
X88673890Y-34419569D01*
X88422000Y-34368560D01*
X86722000Y-34368560D01*
X86486683Y-34412838D01*
X86457000Y-34431938D01*
X86457000Y-29586276D01*
X86533645Y-29509765D01*
X86706803Y-29092756D01*
X86707197Y-28641225D01*
X86534767Y-28223914D01*
X86215765Y-27904355D01*
X85798756Y-27731197D01*
X85347225Y-27730803D01*
X84929914Y-27903233D01*
X84610355Y-28222235D01*
X84437197Y-28639244D01*
X84436803Y-29090775D01*
X84609233Y-29508086D01*
X84687000Y-29585989D01*
X84687000Y-34438448D01*
X84548309Y-34381000D01*
X83857750Y-34381000D01*
X83699000Y-34539750D01*
X83699000Y-35739000D01*
X83719000Y-35739000D01*
X83719000Y-35993000D01*
X83699000Y-35993000D01*
X83699000Y-36013000D01*
X83445000Y-36013000D01*
X83445000Y-35993000D01*
X82245750Y-35993000D01*
X82087000Y-36151750D01*
X82087000Y-36842310D01*
X82183673Y-37075699D01*
X82362302Y-37254327D01*
X82536777Y-37326597D01*
X82492853Y-37355946D01*
X82421025Y-37463445D01*
X81957000Y-36999420D01*
X81957000Y-34889690D01*
X82087000Y-34889690D01*
X82087000Y-35580250D01*
X82245750Y-35739000D01*
X83445000Y-35739000D01*
X83445000Y-34539750D01*
X83286250Y-34381000D01*
X82595691Y-34381000D01*
X82362302Y-34477673D01*
X82183673Y-34656301D01*
X82087000Y-34889690D01*
X81957000Y-34889690D01*
X81957000Y-28732580D01*
X83688477Y-27001103D01*
X83796775Y-27001197D01*
X84214086Y-26828767D01*
X84533645Y-26509765D01*
X84706803Y-26092756D01*
X84707197Y-25641225D01*
X84534767Y-25223914D01*
X84215765Y-24904355D01*
X83798756Y-24731197D01*
X83347225Y-24730803D01*
X82929914Y-24903233D01*
X82610355Y-25222235D01*
X82437197Y-25639244D01*
X82437101Y-25749320D01*
X80446210Y-27740210D01*
X80254367Y-28027325D01*
X80243190Y-28083516D01*
X80186999Y-28366000D01*
X80187000Y-28366005D01*
X80187000Y-37365995D01*
X80186999Y-37366000D01*
X80222196Y-37542943D01*
X80254367Y-37704675D01*
X80343261Y-37837715D01*
X80446210Y-37991790D01*
X81486208Y-39031787D01*
X81486210Y-39031790D01*
X81773325Y-39223633D01*
X82112000Y-39291001D01*
X82112005Y-39291000D01*
X82382568Y-39291000D01*
X82492853Y-39456054D01*
X82822026Y-39676000D01*
X82492853Y-39895946D01*
X82170946Y-40377715D01*
X82057907Y-40946000D01*
X82170946Y-41514285D01*
X82492853Y-41996054D01*
X82974622Y-42317961D01*
X83542907Y-42431000D01*
X83601093Y-42431000D01*
X84169378Y-42317961D01*
X84651147Y-41996054D01*
X84973054Y-41514285D01*
X85086093Y-40946000D01*
X85008045Y-40553624D01*
X85446208Y-40991787D01*
X85446210Y-40991790D01*
X85733325Y-41183633D01*
X85789516Y-41194810D01*
X86072000Y-41251001D01*
X86072005Y-41251000D01*
X86118575Y-41251000D01*
X86170946Y-41514285D01*
X86492853Y-41996054D01*
X86974622Y-42317961D01*
X87542907Y-42431000D01*
X87601093Y-42431000D01*
X87771520Y-42397100D01*
X89687000Y-44312579D01*
X89687000Y-48999421D01*
X88706954Y-49979467D01*
X88651147Y-49895946D01*
X88321974Y-49676000D01*
X88651147Y-49456054D01*
X88973054Y-48974285D01*
X89086093Y-48406000D01*
X88973054Y-47837715D01*
X88651147Y-47355946D01*
X88609548Y-47328150D01*
X88657317Y-47319162D01*
X88873441Y-47180090D01*
X89018431Y-46967890D01*
X89069440Y-46716000D01*
X89069440Y-45016000D01*
X89025162Y-44780683D01*
X88886090Y-44564559D01*
X88673890Y-44419569D01*
X88422000Y-44368560D01*
X86722000Y-44368560D01*
X86486683Y-44412838D01*
X86270559Y-44551910D01*
X86125569Y-44764110D01*
X86074560Y-45016000D01*
X86074560Y-46716000D01*
X86118838Y-46951317D01*
X86257910Y-47167441D01*
X86470110Y-47312431D01*
X86537541Y-47326086D01*
X86492853Y-47355946D01*
X86409295Y-47481000D01*
X86072005Y-47481000D01*
X86072000Y-47480999D01*
X85789516Y-47537190D01*
X85733325Y-47548367D01*
X85562068Y-47662797D01*
X85450675Y-47588367D01*
X85394484Y-47577190D01*
X85112000Y-47520999D01*
X85111995Y-47521000D01*
X84761432Y-47521000D01*
X84651147Y-47355946D01*
X84607223Y-47326597D01*
X84781698Y-47254327D01*
X84960327Y-47075699D01*
X85057000Y-46842310D01*
X85057000Y-46151750D01*
X84898250Y-45993000D01*
X83699000Y-45993000D01*
X83699000Y-46013000D01*
X83445000Y-46013000D01*
X83445000Y-45993000D01*
X82245750Y-45993000D01*
X82087000Y-46151750D01*
X82087000Y-46842310D01*
X82183673Y-47075699D01*
X82362302Y-47254327D01*
X82536777Y-47326597D01*
X82492853Y-47355946D01*
X82170946Y-47837715D01*
X82057907Y-48406000D01*
X82170946Y-48974285D01*
X82492853Y-49456054D01*
X82822026Y-49676000D01*
X82492853Y-49895946D01*
X82170946Y-50377715D01*
X82057907Y-50946000D01*
X82170946Y-51514285D01*
X82492853Y-51996054D01*
X82974622Y-52317961D01*
X83542907Y-52431000D01*
X83601093Y-52431000D01*
X84169378Y-52317961D01*
X84651147Y-51996054D01*
X84687000Y-51942396D01*
X84687000Y-54797007D01*
X84429914Y-54903233D01*
X84110355Y-55222235D01*
X83937197Y-55639244D01*
X83936803Y-56090775D01*
X84109233Y-56508086D01*
X84428235Y-56827645D01*
X84845244Y-57000803D01*
X85296775Y-57001197D01*
X85714086Y-56828767D01*
X86033645Y-56509765D01*
X86187000Y-56140447D01*
X86187000Y-62645724D01*
X86110355Y-62722235D01*
X85937197Y-63139244D01*
X85936926Y-63449494D01*
X84405420Y-64981000D01*
X83845655Y-64981000D01*
X84214086Y-64828767D01*
X84533645Y-64509765D01*
X84706803Y-64092756D01*
X84707197Y-63641225D01*
X84607000Y-63398731D01*
X84607000Y-60833107D01*
X84706803Y-60592756D01*
X84707197Y-60141225D01*
X84534767Y-59723914D01*
X84215765Y-59404355D01*
X83798756Y-59231197D01*
X83347225Y-59230803D01*
X82929914Y-59403233D01*
X82610355Y-59722235D01*
X82437197Y-60139244D01*
X82436803Y-60590775D01*
X82537000Y-60833269D01*
X82537000Y-63398893D01*
X82437197Y-63639244D01*
X82436803Y-64090775D01*
X82609233Y-64508086D01*
X82928235Y-64827645D01*
X83297553Y-64981000D01*
X77721627Y-64981000D01*
X77687405Y-64946718D01*
X77288767Y-64781189D01*
X76857127Y-64780812D01*
X76458200Y-64945646D01*
X76152718Y-65250595D01*
X75987189Y-65649233D01*
X75986812Y-66080873D01*
X73057000Y-66080873D01*
X73057000Y-65889690D01*
X72960327Y-65656301D01*
X72781698Y-65477673D01*
X72607223Y-65405403D01*
X72651147Y-65376054D01*
X72973054Y-64894285D01*
X73086093Y-64326000D01*
X72973054Y-63757715D01*
X72651147Y-63275946D01*
X72321974Y-63056000D01*
X72651147Y-62836054D01*
X72973054Y-62354285D01*
X73086093Y-61786000D01*
X72973054Y-61217715D01*
X72651147Y-60735946D01*
X72169378Y-60414039D01*
X71601093Y-60301000D01*
X71542907Y-60301000D01*
X70974622Y-60414039D01*
X70492853Y-60735946D01*
X70170946Y-61217715D01*
X70057907Y-61786000D01*
X63040000Y-61786000D01*
X63040000Y-48665040D01*
X69561738Y-48665040D01*
X69791138Y-49220229D01*
X70215537Y-49645370D01*
X70770325Y-49875738D01*
X71371040Y-49876262D01*
X71926229Y-49646862D01*
X72351370Y-49222463D01*
X72581738Y-48667675D01*
X72582262Y-48066960D01*
X72352862Y-47511771D01*
X71928463Y-47086630D01*
X71905531Y-47077108D01*
X71954455Y-46928060D01*
X71072000Y-46045605D01*
X70189545Y-46928060D01*
X70238318Y-47076648D01*
X70217771Y-47085138D01*
X69792630Y-47509537D01*
X69562262Y-48064325D01*
X69561738Y-48665040D01*
X63040000Y-48665040D01*
X63040000Y-45631306D01*
X69550410Y-45631306D01*
X69576421Y-46231458D01*
X69756047Y-46665116D01*
X70009940Y-46748455D01*
X70892395Y-45866000D01*
X71251605Y-45866000D01*
X72134060Y-46748455D01*
X72387953Y-46665116D01*
X72593590Y-46100694D01*
X72567579Y-45500542D01*
X72387953Y-45066884D01*
X72134060Y-44983545D01*
X71251605Y-45866000D01*
X70892395Y-45866000D01*
X70009940Y-44983545D01*
X69756047Y-45066884D01*
X69550410Y-45631306D01*
X63040000Y-45631306D01*
X63040000Y-37491000D01*
X69549560Y-37491000D01*
X69549560Y-39241000D01*
X69593838Y-39476317D01*
X69732910Y-39692441D01*
X69945110Y-39837431D01*
X69961676Y-39840786D01*
X69792630Y-40009537D01*
X69562262Y-40564325D01*
X69561738Y-41165040D01*
X69791138Y-41720229D01*
X70186536Y-42116318D01*
X69792630Y-42509537D01*
X69562262Y-43064325D01*
X69561738Y-43665040D01*
X69791138Y-44220229D01*
X70215537Y-44645370D01*
X70238469Y-44654892D01*
X70189545Y-44803940D01*
X71072000Y-45686395D01*
X71954455Y-44803940D01*
X71905682Y-44655352D01*
X71926229Y-44646862D01*
X72222608Y-44351000D01*
X76164000Y-44351000D01*
X79087000Y-47274001D01*
X79087000Y-52978480D01*
X78937197Y-53339244D01*
X78936803Y-53790775D01*
X79109233Y-54208086D01*
X79428235Y-54527645D01*
X79845244Y-54700803D01*
X80296775Y-54701197D01*
X80714086Y-54528767D01*
X81033645Y-54209765D01*
X81206803Y-53792756D01*
X81207197Y-53341225D01*
X81057000Y-52977722D01*
X81057000Y-46866000D01*
X80982021Y-46489057D01*
X80930994Y-46412690D01*
X80768500Y-46169499D01*
X79488691Y-44889690D01*
X82087000Y-44889690D01*
X82087000Y-45580250D01*
X82245750Y-45739000D01*
X83445000Y-45739000D01*
X83445000Y-44539750D01*
X83699000Y-44539750D01*
X83699000Y-45739000D01*
X84898250Y-45739000D01*
X85057000Y-45580250D01*
X85057000Y-44889690D01*
X84960327Y-44656301D01*
X84781698Y-44477673D01*
X84548309Y-44381000D01*
X83857750Y-44381000D01*
X83699000Y-44539750D01*
X83445000Y-44539750D01*
X83286250Y-44381000D01*
X82595691Y-44381000D01*
X82362302Y-44477673D01*
X82183673Y-44656301D01*
X82087000Y-44889690D01*
X79488691Y-44889690D01*
X77268500Y-42669500D01*
X76948943Y-42455979D01*
X76572000Y-42381000D01*
X72222319Y-42381000D01*
X71957464Y-42115682D01*
X72351370Y-41722463D01*
X72581738Y-41167675D01*
X72582262Y-40566960D01*
X72352862Y-40011771D01*
X72184283Y-39842897D01*
X72398441Y-39705090D01*
X72543431Y-39492890D01*
X72594440Y-39241000D01*
X72594440Y-37491000D01*
X72550162Y-37255683D01*
X72411090Y-37039559D01*
X72198890Y-36894569D01*
X71947000Y-36843560D01*
X70197000Y-36843560D01*
X69961683Y-36887838D01*
X69745559Y-37026910D01*
X69600569Y-37239110D01*
X69549560Y-37491000D01*
X63040000Y-37491000D01*
X63040000Y-24491000D01*
X110049560Y-24491000D01*
X110049560Y-26241000D01*
X110093838Y-26476317D01*
X110232910Y-26692441D01*
X110445110Y-26837431D01*
X110461676Y-26840786D01*
X110292630Y-27009537D01*
X110062262Y-27564325D01*
X110061738Y-28165040D01*
X110291138Y-28720229D01*
X110715537Y-29145370D01*
X111270325Y-29375738D01*
X111871040Y-29376262D01*
X112426229Y-29146862D01*
X112851370Y-28722463D01*
X113081738Y-28167675D01*
X113082262Y-27566960D01*
X112852862Y-27011771D01*
X112684283Y-26842897D01*
X112898441Y-26705090D01*
X113043431Y-26492890D01*
X113094440Y-26241000D01*
X113094440Y-24491000D01*
X113050162Y-24255683D01*
X112911090Y-24039559D01*
X112698890Y-23894569D01*
X112447000Y-23843560D01*
X110697000Y-23843560D01*
X110461683Y-23887838D01*
X110245559Y-24026910D01*
X110100569Y-24239110D01*
X110049560Y-24491000D01*
X63040000Y-24491000D01*
X63040000Y-22300000D01*
X116130000Y-22300000D01*
X116130000Y-69268721D01*
X116130000Y-69268721D01*
G37*
X116130000Y-69268721D02*
X115879974Y-69101658D01*
X115570000Y-69040000D01*
X63040000Y-69040000D01*
X63040000Y-67151750D01*
X70087000Y-67151750D01*
X70087000Y-67842310D01*
X70183673Y-68075699D01*
X70362302Y-68254327D01*
X70595691Y-68351000D01*
X71286250Y-68351000D01*
X71445000Y-68192250D01*
X71445000Y-66993000D01*
X71699000Y-66993000D01*
X71699000Y-68192250D01*
X71857750Y-68351000D01*
X72548309Y-68351000D01*
X72781698Y-68254327D01*
X72960327Y-68075699D01*
X73057000Y-67842310D01*
X73057000Y-67151750D01*
X72898250Y-66993000D01*
X71699000Y-66993000D01*
X71445000Y-66993000D01*
X70245750Y-66993000D01*
X70087000Y-67151750D01*
X63040000Y-67151750D01*
X63040000Y-61786000D01*
X70057907Y-61786000D01*
X70170946Y-62354285D01*
X70492853Y-62836054D01*
X70822026Y-63056000D01*
X70492853Y-63275946D01*
X70170946Y-63757715D01*
X70057907Y-64326000D01*
X70170946Y-64894285D01*
X70492853Y-65376054D01*
X70536777Y-65405403D01*
X70362302Y-65477673D01*
X70183673Y-65656301D01*
X70087000Y-65889690D01*
X70087000Y-66580250D01*
X70245750Y-66739000D01*
X71445000Y-66739000D01*
X71445000Y-66719000D01*
X71699000Y-66719000D01*
X71699000Y-66739000D01*
X72898250Y-66739000D01*
X73057000Y-66580250D01*
X73057000Y-66080873D01*
X75986812Y-66080873D01*
X76151646Y-66479800D01*
X76456595Y-66785282D01*
X76855233Y-66950811D01*
X77286873Y-66951188D01*
X77685800Y-66786354D01*
X77721216Y-66751000D01*
X84771995Y-66751000D01*
X84772000Y-66751001D01*
X85054484Y-66694810D01*
X85110675Y-66683633D01*
X85397790Y-66491790D01*
X87452886Y-64436693D01*
X87714086Y-64328767D01*
X88033645Y-64009765D01*
X88206803Y-63592756D01*
X88207197Y-63141225D01*
X88034767Y-62723914D01*
X87957000Y-62646011D01*
X87957000Y-58991000D01*
X110049560Y-58991000D01*
X110049560Y-60741000D01*
X110093838Y-60976317D01*
X110232910Y-61192441D01*
X110445110Y-61337431D01*
X110461676Y-61340786D01*
X110292630Y-61509537D01*
X110062262Y-62064325D01*
X110061738Y-62665040D01*
X110291138Y-63220229D01*
X110715537Y-63645370D01*
X111270325Y-63875738D01*
X111871040Y-63876262D01*
X112426229Y-63646862D01*
X112851370Y-63222463D01*
X113081738Y-62667675D01*
X113082262Y-62066960D01*
X112852862Y-61511771D01*
X112684283Y-61342897D01*
X112898441Y-61205090D01*
X113043431Y-60992890D01*
X113094440Y-60741000D01*
X113094440Y-58991000D01*
X113050162Y-58755683D01*
X112911090Y-58539559D01*
X112698890Y-58394569D01*
X112447000Y-58343560D01*
X110697000Y-58343560D01*
X110461683Y-58387838D01*
X110245559Y-58526910D01*
X110100569Y-58739110D01*
X110049560Y-58991000D01*
X87957000Y-58991000D01*
X87957000Y-56639655D01*
X88109233Y-57008086D01*
X88428235Y-57327645D01*
X88845244Y-57500803D01*
X89296775Y-57501197D01*
X89714086Y-57328767D01*
X90033645Y-57009765D01*
X90206803Y-56592756D01*
X90207197Y-56141225D01*
X90034767Y-55723914D01*
X89957000Y-55646011D01*
X89957000Y-54086276D01*
X90033645Y-54009765D01*
X90206803Y-53592756D01*
X90207100Y-53252679D01*
X92446208Y-55491787D01*
X92446210Y-55491790D01*
X92666892Y-55639244D01*
X92733325Y-55683633D01*
X93072000Y-55751001D01*
X93072005Y-55751000D01*
X101571995Y-55751000D01*
X101572000Y-55751001D01*
X101572005Y-55751000D01*
X103571995Y-55751000D01*
X103572000Y-55751001D01*
X103854484Y-55694810D01*
X103910675Y-55683633D01*
X104197790Y-55491790D01*
X104197791Y-55491789D01*
X105697787Y-53991792D01*
X105697790Y-53991790D01*
X105889633Y-53704675D01*
X105957000Y-53366000D01*
X105957000Y-42946005D01*
X105957001Y-42946000D01*
X105889633Y-42607325D01*
X105825786Y-42511771D01*
X105697790Y-42320210D01*
X105697787Y-42320208D01*
X104542539Y-41164960D01*
X104586093Y-40946000D01*
X104473054Y-40377715D01*
X104151147Y-39895946D01*
X103821974Y-39676000D01*
X104151147Y-39456054D01*
X104473054Y-38974285D01*
X104586093Y-38406000D01*
X104473054Y-37837715D01*
X104151147Y-37355946D01*
X104109548Y-37328150D01*
X104157317Y-37319162D01*
X104373441Y-37180090D01*
X104518431Y-36967890D01*
X104569440Y-36716000D01*
X104569440Y-35016000D01*
X104525162Y-34780683D01*
X104386090Y-34564559D01*
X104173890Y-34419569D01*
X103957000Y-34375648D01*
X103957000Y-32866005D01*
X103957001Y-32866000D01*
X103889633Y-32527326D01*
X103889633Y-32527325D01*
X103697790Y-32240210D01*
X103697787Y-32240208D01*
X103197790Y-31740210D01*
X103154074Y-31711000D01*
X102910675Y-31548367D01*
X102854484Y-31537190D01*
X102572000Y-31480999D01*
X102571995Y-31481000D01*
X98292276Y-31481000D01*
X98215765Y-31404355D01*
X97798756Y-31231197D01*
X97347225Y-31230803D01*
X96929914Y-31403233D01*
X96610355Y-31722235D01*
X96557000Y-31850728D01*
X96557000Y-31766000D01*
X96482021Y-31389057D01*
X96268500Y-31069500D01*
X96183941Y-30984941D01*
X96034767Y-30623914D01*
X95715765Y-30304355D01*
X95298756Y-30131197D01*
X94847225Y-30130803D01*
X94429914Y-30303233D01*
X94110355Y-30622235D01*
X93937197Y-31039244D01*
X93936803Y-31490775D01*
X94109233Y-31908086D01*
X94428235Y-32227645D01*
X94587000Y-32293570D01*
X94587000Y-36578480D01*
X94437197Y-36939244D01*
X94436803Y-37390775D01*
X94490611Y-37521000D01*
X92978579Y-37521000D01*
X91457000Y-35999420D01*
X91457000Y-27866000D01*
X91389633Y-27527325D01*
X91197790Y-27240210D01*
X91197787Y-27240208D01*
X90207103Y-26249523D01*
X90207197Y-26141225D01*
X90034767Y-25723914D01*
X89715765Y-25404355D01*
X89298756Y-25231197D01*
X88847225Y-25230803D01*
X88429914Y-25403233D01*
X88110355Y-25722235D01*
X87937197Y-26139244D01*
X87936803Y-26590775D01*
X88109233Y-27008086D01*
X88428235Y-27327645D01*
X88845244Y-27500803D01*
X88955319Y-27500899D01*
X89687000Y-28232579D01*
X89687000Y-36365995D01*
X89686999Y-36366000D01*
X89712021Y-36491790D01*
X89754367Y-36704675D01*
X89898910Y-36921000D01*
X89946210Y-36991790D01*
X91986208Y-39031787D01*
X91986210Y-39031790D01*
X92273325Y-39223633D01*
X92329516Y-39234810D01*
X92612000Y-39291001D01*
X92612005Y-39291000D01*
X97882568Y-39291000D01*
X97992853Y-39456054D01*
X98322026Y-39676000D01*
X97992853Y-39895946D01*
X97670946Y-40377715D01*
X97557907Y-40946000D01*
X97670946Y-41514285D01*
X97992853Y-41996054D01*
X98474622Y-42317961D01*
X99042907Y-42431000D01*
X99101093Y-42431000D01*
X99669378Y-42317961D01*
X100151147Y-41996054D01*
X100473054Y-41514285D01*
X100586093Y-40946000D01*
X100473054Y-40377715D01*
X100151147Y-39895946D01*
X99821974Y-39676000D01*
X100151147Y-39456054D01*
X100473054Y-38974285D01*
X100586093Y-38406000D01*
X100473054Y-37837715D01*
X100151147Y-37355946D01*
X100107223Y-37326597D01*
X100281698Y-37254327D01*
X100460327Y-37075699D01*
X100557000Y-36842310D01*
X100557000Y-36151750D01*
X100398250Y-35993000D01*
X99199000Y-35993000D01*
X99199000Y-36013000D01*
X98945000Y-36013000D01*
X98945000Y-35993000D01*
X97745750Y-35993000D01*
X97587000Y-36151750D01*
X97587000Y-36842310D01*
X97683673Y-37075699D01*
X97862302Y-37254327D01*
X98036777Y-37326597D01*
X97992853Y-37355946D01*
X97882568Y-37521000D01*
X96653551Y-37521000D01*
X96706803Y-37392756D01*
X96707197Y-36941225D01*
X96557000Y-36577722D01*
X96557000Y-34889690D01*
X97587000Y-34889690D01*
X97587000Y-35580250D01*
X97745750Y-35739000D01*
X98945000Y-35739000D01*
X98945000Y-34539750D01*
X99199000Y-34539750D01*
X99199000Y-35739000D01*
X100398250Y-35739000D01*
X100557000Y-35580250D01*
X100557000Y-34889690D01*
X100460327Y-34656301D01*
X100281698Y-34477673D01*
X100048309Y-34381000D01*
X99357750Y-34381000D01*
X99199000Y-34539750D01*
X98945000Y-34539750D01*
X98786250Y-34381000D01*
X98095691Y-34381000D01*
X97862302Y-34477673D01*
X97683673Y-34656301D01*
X97587000Y-34889690D01*
X96557000Y-34889690D01*
X96557000Y-32881673D01*
X96609233Y-33008086D01*
X96928235Y-33327645D01*
X97345244Y-33500803D01*
X97796775Y-33501197D01*
X98214086Y-33328767D01*
X98291989Y-33251000D01*
X102187000Y-33251000D01*
X102187000Y-34375146D01*
X101986683Y-34412838D01*
X101770559Y-34551910D01*
X101625569Y-34764110D01*
X101574560Y-35016000D01*
X101574560Y-36716000D01*
X101618838Y-36951317D01*
X101757910Y-37167441D01*
X101970110Y-37312431D01*
X102037541Y-37326086D01*
X101992853Y-37355946D01*
X101670946Y-37837715D01*
X101557907Y-38406000D01*
X101670946Y-38974285D01*
X101992853Y-39456054D01*
X102322026Y-39676000D01*
X101992853Y-39895946D01*
X101670946Y-40377715D01*
X101557907Y-40946000D01*
X101670946Y-41514285D01*
X101992853Y-41996054D01*
X102474622Y-42317961D01*
X103042907Y-42431000D01*
X103101093Y-42431000D01*
X103271520Y-42397100D01*
X104187000Y-43312579D01*
X104187000Y-44428527D01*
X104173890Y-44419569D01*
X103922000Y-44368560D01*
X102222000Y-44368560D01*
X101986683Y-44412838D01*
X101770559Y-44551910D01*
X101625569Y-44764110D01*
X101574560Y-45016000D01*
X101574560Y-46716000D01*
X101618838Y-46951317D01*
X101757910Y-47167441D01*
X101970110Y-47312431D01*
X102037541Y-47326086D01*
X101992853Y-47355946D01*
X101670946Y-47837715D01*
X101557907Y-48406000D01*
X101670946Y-48974285D01*
X101992853Y-49456054D01*
X102322026Y-49676000D01*
X101992853Y-49895946D01*
X101670946Y-50377715D01*
X101557907Y-50946000D01*
X101670946Y-51514285D01*
X101992853Y-51996054D01*
X102187000Y-52125779D01*
X102187000Y-52999421D01*
X101205420Y-53981000D01*
X93438579Y-53981000D01*
X90323580Y-50866000D01*
X91197787Y-49991792D01*
X91197790Y-49991790D01*
X91389633Y-49704675D01*
X91457000Y-49366000D01*
X91457000Y-48406000D01*
X97557907Y-48406000D01*
X97670946Y-48974285D01*
X97992853Y-49456054D01*
X98322026Y-49676000D01*
X97992853Y-49895946D01*
X97670946Y-50377715D01*
X97557907Y-50946000D01*
X97670946Y-51514285D01*
X97992853Y-51996054D01*
X98474622Y-52317961D01*
X99042907Y-52431000D01*
X99101093Y-52431000D01*
X99669378Y-52317961D01*
X100151147Y-51996054D01*
X100473054Y-51514285D01*
X100586093Y-50946000D01*
X100473054Y-50377715D01*
X100151147Y-49895946D01*
X99821974Y-49676000D01*
X100151147Y-49456054D01*
X100473054Y-48974285D01*
X100586093Y-48406000D01*
X100473054Y-47837715D01*
X100151147Y-47355946D01*
X100107223Y-47326597D01*
X100281698Y-47254327D01*
X100460327Y-47075699D01*
X100557000Y-46842310D01*
X100557000Y-46151750D01*
X100398250Y-45993000D01*
X99199000Y-45993000D01*
X99199000Y-46013000D01*
X98945000Y-46013000D01*
X98945000Y-45993000D01*
X97745750Y-45993000D01*
X97587000Y-46151750D01*
X97587000Y-46842310D01*
X97683673Y-47075699D01*
X97862302Y-47254327D01*
X98036777Y-47326597D01*
X97992853Y-47355946D01*
X97670946Y-47837715D01*
X97557907Y-48406000D01*
X91457000Y-48406000D01*
X91457000Y-44889690D01*
X97587000Y-44889690D01*
X97587000Y-45580250D01*
X97745750Y-45739000D01*
X98945000Y-45739000D01*
X98945000Y-44539750D01*
X99199000Y-44539750D01*
X99199000Y-45739000D01*
X100398250Y-45739000D01*
X100557000Y-45580250D01*
X100557000Y-44889690D01*
X100460327Y-44656301D01*
X100281698Y-44477673D01*
X100048309Y-44381000D01*
X99357750Y-44381000D01*
X99199000Y-44539750D01*
X98945000Y-44539750D01*
X98786250Y-44381000D01*
X98095691Y-44381000D01*
X97862302Y-44477673D01*
X97683673Y-44656301D01*
X97587000Y-44889690D01*
X91457000Y-44889690D01*
X91457000Y-43946005D01*
X91457001Y-43946000D01*
X91389633Y-43607326D01*
X91389633Y-43607325D01*
X91197790Y-43320210D01*
X91197787Y-43320208D01*
X89042539Y-41164959D01*
X89086093Y-40946000D01*
X88973054Y-40377715D01*
X88651147Y-39895946D01*
X88321974Y-39676000D01*
X88651147Y-39456054D01*
X88973054Y-38974285D01*
X89086093Y-38406000D01*
X88973054Y-37837715D01*
X88651147Y-37355946D01*
X88609548Y-37328150D01*
X88657317Y-37319162D01*
X88873441Y-37180090D01*
X89018431Y-36967890D01*
X89069440Y-36716000D01*
X89069440Y-35016000D01*
X89025162Y-34780683D01*
X88886090Y-34564559D01*
X88673890Y-34419569D01*
X88422000Y-34368560D01*
X86722000Y-34368560D01*
X86486683Y-34412838D01*
X86457000Y-34431938D01*
X86457000Y-29586276D01*
X86533645Y-29509765D01*
X86706803Y-29092756D01*
X86707197Y-28641225D01*
X86534767Y-28223914D01*
X86215765Y-27904355D01*
X85798756Y-27731197D01*
X85347225Y-27730803D01*
X84929914Y-27903233D01*
X84610355Y-28222235D01*
X84437197Y-28639244D01*
X84436803Y-29090775D01*
X84609233Y-29508086D01*
X84687000Y-29585989D01*
X84687000Y-34438448D01*
X84548309Y-34381000D01*
X83857750Y-34381000D01*
X83699000Y-34539750D01*
X83699000Y-35739000D01*
X83719000Y-35739000D01*
X83719000Y-35993000D01*
X83699000Y-35993000D01*
X83699000Y-36013000D01*
X83445000Y-36013000D01*
X83445000Y-35993000D01*
X82245750Y-35993000D01*
X82087000Y-36151750D01*
X82087000Y-36842310D01*
X82183673Y-37075699D01*
X82362302Y-37254327D01*
X82536777Y-37326597D01*
X82492853Y-37355946D01*
X82421025Y-37463445D01*
X81957000Y-36999420D01*
X81957000Y-34889690D01*
X82087000Y-34889690D01*
X82087000Y-35580250D01*
X82245750Y-35739000D01*
X83445000Y-35739000D01*
X83445000Y-34539750D01*
X83286250Y-34381000D01*
X82595691Y-34381000D01*
X82362302Y-34477673D01*
X82183673Y-34656301D01*
X82087000Y-34889690D01*
X81957000Y-34889690D01*
X81957000Y-28732580D01*
X83688477Y-27001103D01*
X83796775Y-27001197D01*
X84214086Y-26828767D01*
X84533645Y-26509765D01*
X84706803Y-26092756D01*
X84707197Y-25641225D01*
X84534767Y-25223914D01*
X84215765Y-24904355D01*
X83798756Y-24731197D01*
X83347225Y-24730803D01*
X82929914Y-24903233D01*
X82610355Y-25222235D01*
X82437197Y-25639244D01*
X82437101Y-25749320D01*
X80446210Y-27740210D01*
X80254367Y-28027325D01*
X80243190Y-28083516D01*
X80186999Y-28366000D01*
X80187000Y-28366005D01*
X80187000Y-37365995D01*
X80186999Y-37366000D01*
X80222196Y-37542943D01*
X80254367Y-37704675D01*
X80343261Y-37837715D01*
X80446210Y-37991790D01*
X81486208Y-39031787D01*
X81486210Y-39031790D01*
X81773325Y-39223633D01*
X82112000Y-39291001D01*
X82112005Y-39291000D01*
X82382568Y-39291000D01*
X82492853Y-39456054D01*
X82822026Y-39676000D01*
X82492853Y-39895946D01*
X82170946Y-40377715D01*
X82057907Y-40946000D01*
X82170946Y-41514285D01*
X82492853Y-41996054D01*
X82974622Y-42317961D01*
X83542907Y-42431000D01*
X83601093Y-42431000D01*
X84169378Y-42317961D01*
X84651147Y-41996054D01*
X84973054Y-41514285D01*
X85086093Y-40946000D01*
X85008045Y-40553624D01*
X85446208Y-40991787D01*
X85446210Y-40991790D01*
X85733325Y-41183633D01*
X85789516Y-41194810D01*
X86072000Y-41251001D01*
X86072005Y-41251000D01*
X86118575Y-41251000D01*
X86170946Y-41514285D01*
X86492853Y-41996054D01*
X86974622Y-42317961D01*
X87542907Y-42431000D01*
X87601093Y-42431000D01*
X87771520Y-42397100D01*
X89687000Y-44312579D01*
X89687000Y-48999421D01*
X88706954Y-49979467D01*
X88651147Y-49895946D01*
X88321974Y-49676000D01*
X88651147Y-49456054D01*
X88973054Y-48974285D01*
X89086093Y-48406000D01*
X88973054Y-47837715D01*
X88651147Y-47355946D01*
X88609548Y-47328150D01*
X88657317Y-47319162D01*
X88873441Y-47180090D01*
X89018431Y-46967890D01*
X89069440Y-46716000D01*
X89069440Y-45016000D01*
X89025162Y-44780683D01*
X88886090Y-44564559D01*
X88673890Y-44419569D01*
X88422000Y-44368560D01*
X86722000Y-44368560D01*
X86486683Y-44412838D01*
X86270559Y-44551910D01*
X86125569Y-44764110D01*
X86074560Y-45016000D01*
X86074560Y-46716000D01*
X86118838Y-46951317D01*
X86257910Y-47167441D01*
X86470110Y-47312431D01*
X86537541Y-47326086D01*
X86492853Y-47355946D01*
X86409295Y-47481000D01*
X86072005Y-47481000D01*
X86072000Y-47480999D01*
X85789516Y-47537190D01*
X85733325Y-47548367D01*
X85562068Y-47662797D01*
X85450675Y-47588367D01*
X85394484Y-47577190D01*
X85112000Y-47520999D01*
X85111995Y-47521000D01*
X84761432Y-47521000D01*
X84651147Y-47355946D01*
X84607223Y-47326597D01*
X84781698Y-47254327D01*
X84960327Y-47075699D01*
X85057000Y-46842310D01*
X85057000Y-46151750D01*
X84898250Y-45993000D01*
X83699000Y-45993000D01*
X83699000Y-46013000D01*
X83445000Y-46013000D01*
X83445000Y-45993000D01*
X82245750Y-45993000D01*
X82087000Y-46151750D01*
X82087000Y-46842310D01*
X82183673Y-47075699D01*
X82362302Y-47254327D01*
X82536777Y-47326597D01*
X82492853Y-47355946D01*
X82170946Y-47837715D01*
X82057907Y-48406000D01*
X82170946Y-48974285D01*
X82492853Y-49456054D01*
X82822026Y-49676000D01*
X82492853Y-49895946D01*
X82170946Y-50377715D01*
X82057907Y-50946000D01*
X82170946Y-51514285D01*
X82492853Y-51996054D01*
X82974622Y-52317961D01*
X83542907Y-52431000D01*
X83601093Y-52431000D01*
X84169378Y-52317961D01*
X84651147Y-51996054D01*
X84687000Y-51942396D01*
X84687000Y-54797007D01*
X84429914Y-54903233D01*
X84110355Y-55222235D01*
X83937197Y-55639244D01*
X83936803Y-56090775D01*
X84109233Y-56508086D01*
X84428235Y-56827645D01*
X84845244Y-57000803D01*
X85296775Y-57001197D01*
X85714086Y-56828767D01*
X86033645Y-56509765D01*
X86187000Y-56140447D01*
X86187000Y-62645724D01*
X86110355Y-62722235D01*
X85937197Y-63139244D01*
X85936926Y-63449494D01*
X84405420Y-64981000D01*
X83845655Y-64981000D01*
X84214086Y-64828767D01*
X84533645Y-64509765D01*
X84706803Y-64092756D01*
X84707197Y-63641225D01*
X84607000Y-63398731D01*
X84607000Y-60833107D01*
X84706803Y-60592756D01*
X84707197Y-60141225D01*
X84534767Y-59723914D01*
X84215765Y-59404355D01*
X83798756Y-59231197D01*
X83347225Y-59230803D01*
X82929914Y-59403233D01*
X82610355Y-59722235D01*
X82437197Y-60139244D01*
X82436803Y-60590775D01*
X82537000Y-60833269D01*
X82537000Y-63398893D01*
X82437197Y-63639244D01*
X82436803Y-64090775D01*
X82609233Y-64508086D01*
X82928235Y-64827645D01*
X83297553Y-64981000D01*
X77721627Y-64981000D01*
X77687405Y-64946718D01*
X77288767Y-64781189D01*
X76857127Y-64780812D01*
X76458200Y-64945646D01*
X76152718Y-65250595D01*
X75987189Y-65649233D01*
X75986812Y-66080873D01*
X73057000Y-66080873D01*
X73057000Y-65889690D01*
X72960327Y-65656301D01*
X72781698Y-65477673D01*
X72607223Y-65405403D01*
X72651147Y-65376054D01*
X72973054Y-64894285D01*
X73086093Y-64326000D01*
X72973054Y-63757715D01*
X72651147Y-63275946D01*
X72321974Y-63056000D01*
X72651147Y-62836054D01*
X72973054Y-62354285D01*
X73086093Y-61786000D01*
X72973054Y-61217715D01*
X72651147Y-60735946D01*
X72169378Y-60414039D01*
X71601093Y-60301000D01*
X71542907Y-60301000D01*
X70974622Y-60414039D01*
X70492853Y-60735946D01*
X70170946Y-61217715D01*
X70057907Y-61786000D01*
X63040000Y-61786000D01*
X63040000Y-48665040D01*
X69561738Y-48665040D01*
X69791138Y-49220229D01*
X70215537Y-49645370D01*
X70770325Y-49875738D01*
X71371040Y-49876262D01*
X71926229Y-49646862D01*
X72351370Y-49222463D01*
X72581738Y-48667675D01*
X72582262Y-48066960D01*
X72352862Y-47511771D01*
X71928463Y-47086630D01*
X71905531Y-47077108D01*
X71954455Y-46928060D01*
X71072000Y-46045605D01*
X70189545Y-46928060D01*
X70238318Y-47076648D01*
X70217771Y-47085138D01*
X69792630Y-47509537D01*
X69562262Y-48064325D01*
X69561738Y-48665040D01*
X63040000Y-48665040D01*
X63040000Y-45631306D01*
X69550410Y-45631306D01*
X69576421Y-46231458D01*
X69756047Y-46665116D01*
X70009940Y-46748455D01*
X70892395Y-45866000D01*
X71251605Y-45866000D01*
X72134060Y-46748455D01*
X72387953Y-46665116D01*
X72593590Y-46100694D01*
X72567579Y-45500542D01*
X72387953Y-45066884D01*
X72134060Y-44983545D01*
X71251605Y-45866000D01*
X70892395Y-45866000D01*
X70009940Y-44983545D01*
X69756047Y-45066884D01*
X69550410Y-45631306D01*
X63040000Y-45631306D01*
X63040000Y-37491000D01*
X69549560Y-37491000D01*
X69549560Y-39241000D01*
X69593838Y-39476317D01*
X69732910Y-39692441D01*
X69945110Y-39837431D01*
X69961676Y-39840786D01*
X69792630Y-40009537D01*
X69562262Y-40564325D01*
X69561738Y-41165040D01*
X69791138Y-41720229D01*
X70186536Y-42116318D01*
X69792630Y-42509537D01*
X69562262Y-43064325D01*
X69561738Y-43665040D01*
X69791138Y-44220229D01*
X70215537Y-44645370D01*
X70238469Y-44654892D01*
X70189545Y-44803940D01*
X71072000Y-45686395D01*
X71954455Y-44803940D01*
X71905682Y-44655352D01*
X71926229Y-44646862D01*
X72222608Y-44351000D01*
X76164000Y-44351000D01*
X79087000Y-47274001D01*
X79087000Y-52978480D01*
X78937197Y-53339244D01*
X78936803Y-53790775D01*
X79109233Y-54208086D01*
X79428235Y-54527645D01*
X79845244Y-54700803D01*
X80296775Y-54701197D01*
X80714086Y-54528767D01*
X81033645Y-54209765D01*
X81206803Y-53792756D01*
X81207197Y-53341225D01*
X81057000Y-52977722D01*
X81057000Y-46866000D01*
X80982021Y-46489057D01*
X80930994Y-46412690D01*
X80768500Y-46169499D01*
X79488691Y-44889690D01*
X82087000Y-44889690D01*
X82087000Y-45580250D01*
X82245750Y-45739000D01*
X83445000Y-45739000D01*
X83445000Y-44539750D01*
X83699000Y-44539750D01*
X83699000Y-45739000D01*
X84898250Y-45739000D01*
X85057000Y-45580250D01*
X85057000Y-44889690D01*
X84960327Y-44656301D01*
X84781698Y-44477673D01*
X84548309Y-44381000D01*
X83857750Y-44381000D01*
X83699000Y-44539750D01*
X83445000Y-44539750D01*
X83286250Y-44381000D01*
X82595691Y-44381000D01*
X82362302Y-44477673D01*
X82183673Y-44656301D01*
X82087000Y-44889690D01*
X79488691Y-44889690D01*
X77268500Y-42669500D01*
X76948943Y-42455979D01*
X76572000Y-42381000D01*
X72222319Y-42381000D01*
X71957464Y-42115682D01*
X72351370Y-41722463D01*
X72581738Y-41167675D01*
X72582262Y-40566960D01*
X72352862Y-40011771D01*
X72184283Y-39842897D01*
X72398441Y-39705090D01*
X72543431Y-39492890D01*
X72594440Y-39241000D01*
X72594440Y-37491000D01*
X72550162Y-37255683D01*
X72411090Y-37039559D01*
X72198890Y-36894569D01*
X71947000Y-36843560D01*
X70197000Y-36843560D01*
X69961683Y-36887838D01*
X69745559Y-37026910D01*
X69600569Y-37239110D01*
X69549560Y-37491000D01*
X63040000Y-37491000D01*
X63040000Y-24491000D01*
X110049560Y-24491000D01*
X110049560Y-26241000D01*
X110093838Y-26476317D01*
X110232910Y-26692441D01*
X110445110Y-26837431D01*
X110461676Y-26840786D01*
X110292630Y-27009537D01*
X110062262Y-27564325D01*
X110061738Y-28165040D01*
X110291138Y-28720229D01*
X110715537Y-29145370D01*
X111270325Y-29375738D01*
X111871040Y-29376262D01*
X112426229Y-29146862D01*
X112851370Y-28722463D01*
X113081738Y-28167675D01*
X113082262Y-27566960D01*
X112852862Y-27011771D01*
X112684283Y-26842897D01*
X112898441Y-26705090D01*
X113043431Y-26492890D01*
X113094440Y-26241000D01*
X113094440Y-24491000D01*
X113050162Y-24255683D01*
X112911090Y-24039559D01*
X112698890Y-23894569D01*
X112447000Y-23843560D01*
X110697000Y-23843560D01*
X110461683Y-23887838D01*
X110245559Y-24026910D01*
X110100569Y-24239110D01*
X110049560Y-24491000D01*
X63040000Y-24491000D01*
X63040000Y-22300000D01*
X116130000Y-22300000D01*
X116130000Y-69268721D01*
G36*
X61420000Y-48720000D02*
X25400000Y-48720000D01*
X25094000Y-48780868D01*
X25094000Y-43713400D01*
X32651960Y-43713400D01*
X32651960Y-45948600D01*
X32696238Y-46183917D01*
X32835310Y-46400041D01*
X33047510Y-46545031D01*
X33299400Y-46596040D01*
X35534600Y-46596040D01*
X35769917Y-46551762D01*
X35986041Y-46412690D01*
X36131031Y-46200490D01*
X36178516Y-45966000D01*
X44196000Y-45966000D01*
X44630346Y-45879603D01*
X44998566Y-45633566D01*
X49951566Y-40680566D01*
X50197603Y-40312345D01*
X50284000Y-39878000D01*
X50197603Y-39443655D01*
X49951566Y-39075434D01*
X49583345Y-38829397D01*
X49149000Y-38743000D01*
X48714655Y-38829397D01*
X48346434Y-39075434D01*
X43725868Y-43696000D01*
X36178766Y-43696000D01*
X36137762Y-43478083D01*
X35998690Y-43261959D01*
X35786490Y-43116969D01*
X35534600Y-43065960D01*
X33299400Y-43065960D01*
X33064083Y-43110238D01*
X32847959Y-43249310D01*
X32702969Y-43461510D01*
X32651960Y-43713400D01*
X25094000Y-43713400D01*
X25094000Y-38735000D01*
X37600000Y-38735000D01*
X37686397Y-39169346D01*
X37932434Y-39537566D01*
X38300654Y-39783603D01*
X38735000Y-39870000D01*
X46990000Y-39870000D01*
X47424346Y-39783603D01*
X47792566Y-39537566D01*
X48038603Y-39169346D01*
X48125000Y-38735000D01*
X48038603Y-38300654D01*
X47792566Y-37932434D01*
X47424346Y-37686397D01*
X46990000Y-37600000D01*
X38735000Y-37600000D01*
X38300654Y-37686397D01*
X37932434Y-37932434D01*
X37686397Y-38300654D01*
X37600000Y-38735000D01*
X25094000Y-38735000D01*
X25094000Y-36099750D01*
X26328000Y-36099750D01*
X26328000Y-36790310D01*
X26424673Y-37023699D01*
X26603302Y-37202327D01*
X26836691Y-37299000D01*
X27527250Y-37299000D01*
X27686000Y-37140250D01*
X27686000Y-35941000D01*
X27940000Y-35941000D01*
X27940000Y-37140250D01*
X28098750Y-37299000D01*
X28789309Y-37299000D01*
X29022698Y-37202327D01*
X29201327Y-37023699D01*
X29298000Y-36790310D01*
X29298000Y-36099750D01*
X29139250Y-35941000D01*
X27940000Y-35941000D01*
X27686000Y-35941000D01*
X26486750Y-35941000D01*
X26328000Y-36099750D01*
X25094000Y-36099750D01*
X25094000Y-33274000D01*
X26298907Y-33274000D01*
X26411946Y-33842285D01*
X26733853Y-34324054D01*
X26777777Y-34353403D01*
X26603302Y-34425673D01*
X26424673Y-34604301D01*
X26328000Y-34837690D01*
X26328000Y-35528250D01*
X26486750Y-35687000D01*
X27686000Y-35687000D01*
X27686000Y-35667000D01*
X27940000Y-35667000D01*
X27940000Y-35687000D01*
X29139250Y-35687000D01*
X29298000Y-35528250D01*
X29298000Y-34837690D01*
X29201327Y-34604301D01*
X29022698Y-34425673D01*
X28848223Y-34353403D01*
X28892147Y-34324054D01*
X29214054Y-33842285D01*
X29327093Y-33274000D01*
X29214054Y-32705715D01*
X28892147Y-32223946D01*
X28410378Y-31902039D01*
X27842093Y-31789000D01*
X27783907Y-31789000D01*
X27215622Y-31902039D01*
X26733853Y-32223946D01*
X26411946Y-32705715D01*
X26298907Y-33274000D01*
X25094000Y-33274000D01*
X25094000Y-30011000D01*
X55525560Y-30011000D01*
X55525560Y-31711000D01*
X55569838Y-31946317D01*
X55708910Y-32162441D01*
X55921110Y-32307431D01*
X56173000Y-32358440D01*
X57873000Y-32358440D01*
X58108317Y-32314162D01*
X58324441Y-32175090D01*
X58469431Y-31962890D01*
X58520440Y-31711000D01*
X58520440Y-30011000D01*
X58476162Y-29775683D01*
X58337090Y-29559559D01*
X58124890Y-29414569D01*
X58016893Y-29392699D01*
X58294645Y-29087924D01*
X58464476Y-28677890D01*
X58343155Y-28448000D01*
X57150000Y-28448000D01*
X57150000Y-28468000D01*
X56896000Y-28468000D01*
X56896000Y-28448000D01*
X55702845Y-28448000D01*
X55581524Y-28677890D01*
X55751355Y-29087924D01*
X56027501Y-29390937D01*
X55937683Y-29407838D01*
X55721559Y-29546910D01*
X55576569Y-29759110D01*
X55525560Y-30011000D01*
X25094000Y-30011000D01*
X25094000Y-27964110D01*
X55581524Y-27964110D01*
X55702845Y-28194000D01*
X56896000Y-28194000D01*
X56896000Y-27000181D01*
X57150000Y-27000181D01*
X57150000Y-28194000D01*
X58343155Y-28194000D01*
X58464476Y-27964110D01*
X58294645Y-27554076D01*
X57904358Y-27125817D01*
X57379892Y-26879514D01*
X57150000Y-27000181D01*
X56896000Y-27000181D01*
X56666108Y-26879514D01*
X56141642Y-27125817D01*
X55751355Y-27554076D01*
X55581524Y-27964110D01*
X25094000Y-27964110D01*
X25094000Y-22300000D01*
X61420000Y-22300000D01*
X61420000Y-48720000D01*
X61420000Y-48720000D01*
G37*
X61420000Y-48720000D02*
X25400000Y-48720000D01*
X25094000Y-48780868D01*
X25094000Y-43713400D01*
X32651960Y-43713400D01*
X32651960Y-45948600D01*
X32696238Y-46183917D01*
X32835310Y-46400041D01*
X33047510Y-46545031D01*
X33299400Y-46596040D01*
X35534600Y-46596040D01*
X35769917Y-46551762D01*
X35986041Y-46412690D01*
X36131031Y-46200490D01*
X36178516Y-45966000D01*
X44196000Y-45966000D01*
X44630346Y-45879603D01*
X44998566Y-45633566D01*
X49951566Y-40680566D01*
X50197603Y-40312345D01*
X50284000Y-39878000D01*
X50197603Y-39443655D01*
X49951566Y-39075434D01*
X49583345Y-38829397D01*
X49149000Y-38743000D01*
X48714655Y-38829397D01*
X48346434Y-39075434D01*
X43725868Y-43696000D01*
X36178766Y-43696000D01*
X36137762Y-43478083D01*
X35998690Y-43261959D01*
X35786490Y-43116969D01*
X35534600Y-43065960D01*
X33299400Y-43065960D01*
X33064083Y-43110238D01*
X32847959Y-43249310D01*
X32702969Y-43461510D01*
X32651960Y-43713400D01*
X25094000Y-43713400D01*
X25094000Y-38735000D01*
X37600000Y-38735000D01*
X37686397Y-39169346D01*
X37932434Y-39537566D01*
X38300654Y-39783603D01*
X38735000Y-39870000D01*
X46990000Y-39870000D01*
X47424346Y-39783603D01*
X47792566Y-39537566D01*
X48038603Y-39169346D01*
X48125000Y-38735000D01*
X48038603Y-38300654D01*
X47792566Y-37932434D01*
X47424346Y-37686397D01*
X46990000Y-37600000D01*
X38735000Y-37600000D01*
X38300654Y-37686397D01*
X37932434Y-37932434D01*
X37686397Y-38300654D01*
X37600000Y-38735000D01*
X25094000Y-38735000D01*
X25094000Y-36099750D01*
X26328000Y-36099750D01*
X26328000Y-36790310D01*
X26424673Y-37023699D01*
X26603302Y-37202327D01*
X26836691Y-37299000D01*
X27527250Y-37299000D01*
X27686000Y-37140250D01*
X27686000Y-35941000D01*
X27940000Y-35941000D01*
X27940000Y-37140250D01*
X28098750Y-37299000D01*
X28789309Y-37299000D01*
X29022698Y-37202327D01*
X29201327Y-37023699D01*
X29298000Y-36790310D01*
X29298000Y-36099750D01*
X29139250Y-35941000D01*
X27940000Y-35941000D01*
X27686000Y-35941000D01*
X26486750Y-35941000D01*
X26328000Y-36099750D01*
X25094000Y-36099750D01*
X25094000Y-33274000D01*
X26298907Y-33274000D01*
X26411946Y-33842285D01*
X26733853Y-34324054D01*
X26777777Y-34353403D01*
X26603302Y-34425673D01*
X26424673Y-34604301D01*
X26328000Y-34837690D01*
X26328000Y-35528250D01*
X26486750Y-35687000D01*
X27686000Y-35687000D01*
X27686000Y-35667000D01*
X27940000Y-35667000D01*
X27940000Y-35687000D01*
X29139250Y-35687000D01*
X29298000Y-35528250D01*
X29298000Y-34837690D01*
X29201327Y-34604301D01*
X29022698Y-34425673D01*
X28848223Y-34353403D01*
X28892147Y-34324054D01*
X29214054Y-33842285D01*
X29327093Y-33274000D01*
X29214054Y-32705715D01*
X28892147Y-32223946D01*
X28410378Y-31902039D01*
X27842093Y-31789000D01*
X27783907Y-31789000D01*
X27215622Y-31902039D01*
X26733853Y-32223946D01*
X26411946Y-32705715D01*
X26298907Y-33274000D01*
X25094000Y-33274000D01*
X25094000Y-30011000D01*
X55525560Y-30011000D01*
X55525560Y-31711000D01*
X55569838Y-31946317D01*
X55708910Y-32162441D01*
X55921110Y-32307431D01*
X56173000Y-32358440D01*
X57873000Y-32358440D01*
X58108317Y-32314162D01*
X58324441Y-32175090D01*
X58469431Y-31962890D01*
X58520440Y-31711000D01*
X58520440Y-30011000D01*
X58476162Y-29775683D01*
X58337090Y-29559559D01*
X58124890Y-29414569D01*
X58016893Y-29392699D01*
X58294645Y-29087924D01*
X58464476Y-28677890D01*
X58343155Y-28448000D01*
X57150000Y-28448000D01*
X57150000Y-28468000D01*
X56896000Y-28468000D01*
X56896000Y-28448000D01*
X55702845Y-28448000D01*
X55581524Y-28677890D01*
X55751355Y-29087924D01*
X56027501Y-29390937D01*
X55937683Y-29407838D01*
X55721559Y-29546910D01*
X55576569Y-29759110D01*
X55525560Y-30011000D01*
X25094000Y-30011000D01*
X25094000Y-27964110D01*
X55581524Y-27964110D01*
X55702845Y-28194000D01*
X56896000Y-28194000D01*
X56896000Y-27000181D01*
X57150000Y-27000181D01*
X57150000Y-28194000D01*
X58343155Y-28194000D01*
X58464476Y-27964110D01*
X58294645Y-27554076D01*
X57904358Y-27125817D01*
X57379892Y-26879514D01*
X57150000Y-27000181D01*
X56896000Y-27000181D01*
X56666108Y-26879514D01*
X56141642Y-27125817D01*
X55751355Y-27554076D01*
X55581524Y-27964110D01*
X25094000Y-27964110D01*
X25094000Y-22300000D01*
X61420000Y-22300000D01*
X61420000Y-48720000D01*
M02*
