G04 #@! TF.FileFunction,Soldermask,Top*
%FSLAX46Y46*%
G04 Gerber Fmt 4.6, Leading zero omitted, Abs format (unit mm)*
G04 Created by KiCad (PCBNEW 4.0.5) date 07/05/17 15:10:37*
%MOMM*%
%LPD*%
G01*
G04 APERTURE LIST*
%ADD10C,0.100000*%
%ADD11R,2.150000X2.150000*%
%ADD12C,2.150000*%
%ADD13R,2.400000X2.100000*%
%ADD14R,1.650000X1.900000*%
%ADD15R,1.700000X1.900000*%
%ADD16R,1.900000X1.700000*%
%ADD17R,1.460000X1.050000*%
%ADD18R,1.400000X2.000000*%
%ADD19R,2.100000X2.100000*%
%ADD20O,2.100000X2.100000*%
%ADD21R,2.000000X1.400000*%
%ADD22R,3.100000X2.950000*%
%ADD23R,3.300000X5.800000*%
%ADD24R,1.200000X2.300000*%
%ADD25R,2.635200X2.635200*%
%ADD26R,1.100000X1.700000*%
%ADD27R,1.700000X1.100000*%
%ADD28R,1.400000X1.650000*%
%ADD29R,1.650000X1.400000*%
%ADD30R,2.900000X1.400000*%
%ADD31R,1.800000X0.700000*%
%ADD32R,1.400000X3.600000*%
%ADD33R,1.400000X2.900000*%
%ADD34R,1.600000X1.600000*%
%ADD35R,2.900000X2.700000*%
%ADD36R,1.200000X1.300000*%
%ADD37R,1.850000X0.850000*%
%ADD38R,2.300000X1.200000*%
%ADD39R,1.600000X1.300000*%
%ADD40R,1.300000X1.600000*%
%ADD41R,1.050000X0.750000*%
%ADD42R,1.175000X1.600000*%
%ADD43R,1.900000X1.650000*%
%ADD44R,1.050000X1.460000*%
%ADD45R,1.850000X0.700000*%
%ADD46R,2.100000X2.400000*%
%ADD47R,2.950000X3.100000*%
G04 APERTURE END LIST*
D10*
D11*
X111028000Y-107956000D03*
D12*
X111028000Y-110456000D03*
X111028000Y-112956000D03*
D11*
X87028000Y-112956000D03*
D12*
X87028000Y-110456000D03*
X87028000Y-107956000D03*
X87028000Y-105456000D03*
D13*
X103028000Y-113456000D03*
X99028000Y-113456000D03*
D14*
X105528000Y-107206000D03*
X105528000Y-109706000D03*
D15*
X97028000Y-105606000D03*
X97028000Y-108306000D03*
D16*
X94378000Y-107956000D03*
X91678000Y-107956000D03*
D15*
X93028000Y-110606000D03*
X93028000Y-113306000D03*
D17*
X99928000Y-107006000D03*
X99928000Y-107956000D03*
X99928000Y-108906000D03*
X102128000Y-108906000D03*
X102128000Y-107006000D03*
D18*
X52427000Y-60198000D03*
X49427000Y-60198000D03*
D19*
X57023000Y-59817000D03*
D20*
X57023000Y-57277000D03*
D19*
X27813000Y-64770000D03*
D20*
X27813000Y-62230000D03*
D21*
X27559000Y-55904000D03*
X27559000Y-58904000D03*
D22*
X57150000Y-63500000D03*
X57150000Y-69850000D03*
X31750000Y-59817000D03*
X31750000Y-53467000D03*
D23*
X36452000Y-58420000D03*
X46352000Y-58420000D03*
D24*
X40833000Y-69445000D03*
X42733000Y-69445000D03*
X41783000Y-66445000D03*
D25*
X34417000Y-73787000D03*
D26*
X28763000Y-69659500D03*
X26863000Y-69659500D03*
D27*
X51054000Y-68773000D03*
X51054000Y-70673000D03*
X51054000Y-65344000D03*
X51054000Y-67244000D03*
D28*
X28813000Y-74041000D03*
X26813000Y-74041000D03*
D29*
X50419000Y-58023000D03*
X50419000Y-56023000D03*
D30*
X53213000Y-58015000D03*
X53213000Y-55015000D03*
D28*
X28813000Y-71691500D03*
X26813000Y-71691500D03*
X28813000Y-67627500D03*
X26813000Y-67627500D03*
D31*
X32344000Y-68596000D03*
X32344000Y-69096000D03*
X32344000Y-69596000D03*
X32344000Y-70096000D03*
X32344000Y-70596000D03*
X36744000Y-70596000D03*
X36744000Y-70096000D03*
X36744000Y-69596000D03*
X36744000Y-69096000D03*
X36744000Y-68596000D03*
D32*
X42747000Y-73406000D03*
X48947000Y-73406000D03*
X42747000Y-44450000D03*
X48947000Y-44450000D03*
D31*
X32344000Y-39640000D03*
X32344000Y-40140000D03*
X32344000Y-40640000D03*
X32344000Y-41140000D03*
X32344000Y-41640000D03*
X36744000Y-41640000D03*
X36744000Y-41140000D03*
X36744000Y-40640000D03*
X36744000Y-40140000D03*
X36744000Y-39640000D03*
D28*
X28813000Y-38671500D03*
X26813000Y-38671500D03*
X28813000Y-42735500D03*
X26813000Y-42735500D03*
D30*
X53213000Y-29059000D03*
X53213000Y-26059000D03*
D29*
X50419000Y-29067000D03*
X50419000Y-27067000D03*
D28*
X28813000Y-45085000D03*
X26813000Y-45085000D03*
D27*
X51054000Y-36388000D03*
X51054000Y-38288000D03*
X51054000Y-39817000D03*
X51054000Y-41717000D03*
D26*
X28763000Y-40703500D03*
X26863000Y-40703500D03*
D25*
X34417000Y-44831000D03*
D24*
X40833000Y-40489000D03*
X42733000Y-40489000D03*
X41783000Y-37489000D03*
D23*
X36452000Y-29464000D03*
X46352000Y-29464000D03*
D22*
X31750000Y-30861000D03*
X31750000Y-24511000D03*
X57150000Y-34544000D03*
X57150000Y-40894000D03*
D21*
X27559000Y-26948000D03*
X27559000Y-29948000D03*
D19*
X27813000Y-35814000D03*
D20*
X27813000Y-33274000D03*
D19*
X57023000Y-30861000D03*
D20*
X57023000Y-28321000D03*
D18*
X52427000Y-31242000D03*
X49427000Y-31242000D03*
D19*
X41148000Y-96266000D03*
D20*
X38608000Y-96266000D03*
D33*
X32536000Y-96266000D03*
X35536000Y-96266000D03*
D28*
X30718000Y-93726000D03*
X28718000Y-93726000D03*
X33290000Y-86106000D03*
X35290000Y-86106000D03*
D34*
X27178000Y-88816000D03*
X27178000Y-91016000D03*
D35*
X38472000Y-82042000D03*
X34172000Y-82042000D03*
D36*
X41082000Y-90186000D03*
X39182000Y-90186000D03*
X40132000Y-92186000D03*
D27*
X27178000Y-87056000D03*
X27178000Y-85156000D03*
D26*
X32578000Y-93726000D03*
X34478000Y-93726000D03*
D27*
X39116000Y-88580000D03*
X39116000Y-86680000D03*
D37*
X31328000Y-88941000D03*
X31328000Y-89591000D03*
X31328000Y-90241000D03*
X31328000Y-90891000D03*
X35728000Y-90891000D03*
X35728000Y-90241000D03*
X35728000Y-89591000D03*
X35728000Y-88941000D03*
D19*
X27940000Y-81788000D03*
D20*
X30480000Y-81788000D03*
D38*
X72112000Y-85278000D03*
X72112000Y-83378000D03*
X69112000Y-84328000D03*
D19*
X52832000Y-98552000D03*
D20*
X55372000Y-98552000D03*
D19*
X59690000Y-98552000D03*
D20*
X62230000Y-98552000D03*
D19*
X48768000Y-97536000D03*
D20*
X48768000Y-94996000D03*
D19*
X53340000Y-83312000D03*
D20*
X55880000Y-83312000D03*
X58420000Y-83312000D03*
X60960000Y-83312000D03*
D19*
X75692000Y-94488000D03*
D20*
X75692000Y-91948000D03*
D38*
X52856000Y-93030000D03*
X52856000Y-94930000D03*
X55856000Y-93980000D03*
X66064000Y-92776000D03*
X66064000Y-94676000D03*
X69064000Y-93726000D03*
X69366000Y-88966000D03*
X69366000Y-90866000D03*
X72366000Y-89916000D03*
D39*
X49700000Y-90932000D03*
X51900000Y-90932000D03*
X71712000Y-80772000D03*
X69512000Y-80772000D03*
D40*
X77216000Y-82380000D03*
X77216000Y-80180000D03*
X77216000Y-86952000D03*
X77216000Y-84752000D03*
X63754000Y-92880000D03*
X63754000Y-95080000D03*
D18*
X60936000Y-90170000D03*
X57936000Y-90170000D03*
D41*
X36804000Y-108753000D03*
X36804000Y-109403000D03*
X36804000Y-110053000D03*
X36804000Y-110703000D03*
X39904000Y-110703000D03*
X39904000Y-110053000D03*
X39904000Y-109403000D03*
X39904000Y-108753000D03*
D42*
X38741500Y-110328000D03*
X38741500Y-109128000D03*
X37966500Y-110328000D03*
X37966500Y-109128000D03*
D28*
X36592000Y-112776000D03*
X38592000Y-112776000D03*
D29*
X33020000Y-106442000D03*
X33020000Y-108442000D03*
X33655000Y-110379000D03*
X33655000Y-112379000D03*
D28*
X39830500Y-105219500D03*
X41830500Y-105219500D03*
D26*
X30922000Y-109220000D03*
X29022000Y-109220000D03*
X31303000Y-106426000D03*
X29403000Y-106426000D03*
X31303000Y-111760000D03*
X29403000Y-111760000D03*
D27*
X43561000Y-111186000D03*
X43561000Y-109286000D03*
D26*
X44003000Y-113093500D03*
X42103000Y-113093500D03*
X38351500Y-105219500D03*
X36451500Y-105219500D03*
D19*
X26416000Y-111633000D03*
D20*
X26416000Y-109093000D03*
X26416000Y-106553000D03*
D19*
X46418500Y-108331000D03*
D20*
X46418500Y-110871000D03*
X46418500Y-113411000D03*
D19*
X46355000Y-105727500D03*
D17*
X67924000Y-107514000D03*
X67924000Y-108464000D03*
X67924000Y-109414000D03*
X70124000Y-109414000D03*
X70124000Y-107514000D03*
D15*
X61024000Y-111114000D03*
X61024000Y-113814000D03*
D16*
X62374000Y-108464000D03*
X59674000Y-108464000D03*
D15*
X65024000Y-106114000D03*
X65024000Y-108814000D03*
D14*
X73524000Y-107714000D03*
X73524000Y-110214000D03*
D13*
X71024000Y-113964000D03*
X67024000Y-113964000D03*
D11*
X55024000Y-113464000D03*
D12*
X55024000Y-110964000D03*
X55024000Y-108464000D03*
X55024000Y-105964000D03*
D11*
X79024000Y-108464000D03*
D12*
X79024000Y-110964000D03*
X79024000Y-113464000D03*
D14*
X92572000Y-30116000D03*
X92572000Y-32616000D03*
D43*
X77322000Y-58866000D03*
X74822000Y-58866000D03*
D14*
X95072000Y-25616000D03*
X95072000Y-28116000D03*
X95072000Y-60116000D03*
X95072000Y-62616000D03*
D43*
X77322000Y-54866000D03*
X74822000Y-54866000D03*
D14*
X92572000Y-64616000D03*
X92572000Y-67116000D03*
D44*
X78022000Y-61766000D03*
X77072000Y-61766000D03*
X76122000Y-61766000D03*
X76122000Y-63966000D03*
X78022000Y-63966000D03*
X77072000Y-63966000D03*
D45*
X87072000Y-25866000D03*
X87072000Y-26366000D03*
X87072000Y-26866000D03*
X87072000Y-27366000D03*
X87072000Y-27866000D03*
X91472000Y-27866000D03*
X91472000Y-27366000D03*
X91472000Y-26866000D03*
X91472000Y-26366000D03*
X91472000Y-25866000D03*
X87072000Y-60366000D03*
X87072000Y-60866000D03*
X87072000Y-61366000D03*
X87072000Y-61866000D03*
X87072000Y-62366000D03*
X91472000Y-62366000D03*
X91472000Y-61866000D03*
X91472000Y-61366000D03*
X91472000Y-60866000D03*
X91472000Y-60366000D03*
D11*
X71072000Y-38366000D03*
D12*
X71072000Y-40866000D03*
X71072000Y-43366000D03*
X71072000Y-45866000D03*
X71072000Y-48366000D03*
D19*
X99072000Y-35866000D03*
D20*
X99072000Y-38406000D03*
X99072000Y-40946000D03*
D19*
X103072000Y-35866000D03*
D20*
X103072000Y-38406000D03*
X103072000Y-40946000D03*
D19*
X83572000Y-35866000D03*
D20*
X83572000Y-38406000D03*
X83572000Y-40946000D03*
D19*
X87572000Y-35866000D03*
D20*
X87572000Y-38406000D03*
X87572000Y-40946000D03*
D19*
X99072000Y-45866000D03*
D20*
X99072000Y-48406000D03*
X99072000Y-50946000D03*
D19*
X103072000Y-45866000D03*
D20*
X103072000Y-48406000D03*
X103072000Y-50946000D03*
D19*
X83572000Y-45866000D03*
D20*
X83572000Y-48406000D03*
X83572000Y-50946000D03*
D19*
X87572000Y-45866000D03*
D20*
X87572000Y-48406000D03*
X87572000Y-50946000D03*
D19*
X71572000Y-66866000D03*
D20*
X71572000Y-64326000D03*
X71572000Y-61786000D03*
D11*
X111572000Y-25366000D03*
D12*
X111572000Y-27866000D03*
D11*
X111572000Y-59866000D03*
D12*
X111572000Y-62366000D03*
D16*
X100922000Y-24866000D03*
X98222000Y-24866000D03*
X100922000Y-28866000D03*
X98222000Y-28866000D03*
X100922000Y-59366000D03*
X98222000Y-59366000D03*
X100922000Y-63366000D03*
X98222000Y-63366000D03*
D15*
X80072000Y-58216000D03*
X80072000Y-55516000D03*
D46*
X104572000Y-24866000D03*
X104572000Y-28866000D03*
X104572000Y-59366000D03*
X104572000Y-63366000D03*
D37*
X99666000Y-87245000D03*
X99666000Y-87895000D03*
X99666000Y-88545000D03*
X99666000Y-89195000D03*
X99666000Y-89845000D03*
X99666000Y-90495000D03*
X99666000Y-91145000D03*
X99666000Y-91795000D03*
X99666000Y-92445000D03*
X99666000Y-93095000D03*
X105566000Y-93095000D03*
X105566000Y-92445000D03*
X105566000Y-91795000D03*
X105566000Y-91145000D03*
X105566000Y-90495000D03*
X105566000Y-89845000D03*
X105566000Y-89195000D03*
X105566000Y-88545000D03*
X105566000Y-87895000D03*
X105566000Y-87245000D03*
D28*
X106308400Y-85750400D03*
X104308400Y-85750400D03*
D29*
X110032800Y-87544400D03*
X110032800Y-89544400D03*
D22*
X92303600Y-81610200D03*
X92303600Y-87960200D03*
D30*
X88138000Y-85622000D03*
X88138000Y-88622000D03*
D47*
X107873800Y-97028000D03*
X101523800Y-97028000D03*
D19*
X111506000Y-93853000D03*
D20*
X111506000Y-96393000D03*
D19*
X84175600Y-88544400D03*
D20*
X84175600Y-86004400D03*
D27*
X84480400Y-97652800D03*
X84480400Y-99552800D03*
X92456000Y-92390000D03*
X92456000Y-90490000D03*
X88493600Y-97449600D03*
X88493600Y-99349600D03*
X84480400Y-94503200D03*
X84480400Y-96403200D03*
X97180400Y-95722400D03*
X97180400Y-97622400D03*
X88493600Y-93741200D03*
X88493600Y-95641200D03*
D23*
X107312000Y-77978000D03*
X97412000Y-77978000D03*
D28*
X112252000Y-91186000D03*
X110252000Y-91186000D03*
D29*
X92456000Y-95742000D03*
X92456000Y-93742000D03*
X92456000Y-97298000D03*
X92456000Y-99298000D03*
X84531200Y-91151200D03*
X84531200Y-93151200D03*
D19*
X84201000Y-80645000D03*
M02*
